<?xml version="1.0" encoding="utf-8" ?>
<svg xmlns="http://www.w3.org/2000/svg" xmlns:cc="http://creativecommons.org/ns" xmlns:dc="http://purl.org/dc/elements/1.1/" xmlns:ev="http://www.w3.org/2001/xml-events" xmlns:inkscape="http://www.inkscape.org/namespaces/inkscape" xmlns:rdf="http://www.w3.org/1999/02/22-rdf-syntax-ns" xmlns:sodipodi="http://sodipodi.sourceforge.net/DTD/sodipodi-0.dtd" xmlns:xlink="http://www.w3.org/1999/xlink" baseProfile="tiny" height="21.00073134cm" version="1.2" viewBox="0 0 1122.52860616512 793.7284286131201" width="29.70023604cm">
  <metadata>
    <rdf:RDF>
      <cc:Work>
        <dc:format>image/svg+xml</dc:format>
        <dc:source>vpype read default/swoon-Edge_Cuts_LEFT.svg linemerge --tolerance 3mm linesort reloop linesimplify write default/swoon-Edge_Cuts_LEFT_vpype.svg
</dc:source>
        <dc:date>2024-09-11T15:15:09.752567</dc:date>
      </cc:Work>
    </rdf:RDF>
  </metadata>
  <defs/>
  <g fill="none" id="layer2" inkscape:groupmode="layer" inkscape:label="2" stroke="#000000" stroke-width="0.189" style="display:inline">
    <polygon points="438.7464,493.4387 456.2341,499.7149 472.9912,506.8189 488.9902,514.6702 506.2102,524.2686 509.1819,524.7696 510.682,524.5595 512.4463,523.8775 513.9813,522.7723 515.1877,521.3154 561.3671,442.5602 564.7195,434.4291 566.8437,426.2883 567.6647,420.6088 567.9688,414.8782 567.9701,345.0661 567.2777,343.2098 566.3129,342.4876 565.1353,342.2315 497.6115,342.2241 495.4073,341.7009 493.7566,340.7804 492.3856,339.4795 491.2285,337.5318 490.6774,334.9506 490.8173,230.2467 490.5635,229.0745 489.8477,228.1121 482.7688,225.3787 467.7146,220.3342 441.5872,212.7149 416.221,206.6473 390.2201,201.7405 368.8917,198.6821 347.459,196.4702 322.8836,196.6362 304.7782,197.8769 294.6457,199.1296 284.5703,200.7796 274.5675,202.8241 264.6528,205.2602 254.8415,208.084 245.5054,211.1655 235.9409,214.7372 226.5241,218.6819 217.2696,222.9936 208.1917,227.6656 199.3044,232.6907 190.304,238.2666 181.5382,244.2047 173.0217,250.495 161.0073,260.2948 158.8844,262.4539 157.2265,264.9875 156.2083,267.4346 156.3603,453.6456 157.1906,456.5612 159.1078,458.9095 161.0758,460.062 163.2992,460.5694 206.4311,461.3941 249.1243,463.6956 280.7949,466.3717 312.0098,469.8225 349.1111,474.9836 386.0372,481.2773 423.4929,488.8591"/>
  </g>
</svg>
