<?xml version="1.0" encoding="utf-8" ?>
<svg xmlns="http://www.w3.org/2000/svg" xmlns:cc="http://creativecommons.org/ns" xmlns:dc="http://purl.org/dc/elements/1.1/" xmlns:ev="http://www.w3.org/2001/xml-events" xmlns:inkscape="http://www.inkscape.org/namespaces/inkscape" xmlns:rdf="http://www.w3.org/1999/02/22-rdf-syntax-ns" xmlns:sodipodi="http://sodipodi.sourceforge.net/DTD/sodipodi-0.dtd" xmlns:xlink="http://www.w3.org/1999/xlink" baseProfile="tiny" height="21.00073134cm" version="1.2" viewBox="0 0 1122.52860616512 793.7284286131201" width="29.70023604cm">
  <metadata>
    <rdf:RDF>
      <cc:Work>
        <dc:format>image/svg+xml</dc:format>
        <dc:source>vpype read swoon_edges.svg linemerge --tolerance 3mm linesort reloop linesimplify write edges__vpype.svg
</dc:source>
        <dc:date>2024-09-21T15:23:40.257436</dc:date>
      </cc:Work>
    </rdf:RDF>
  </metadata>
  <defs/>
  <g fill="none" id="layer2" inkscape:groupmode="layer" inkscape:label="2" stroke="#000000" stroke-width="0.189" style="display:inline">
    <polygon points="226.1784,218.8351 214.8986,224.1705 204.2175,229.8558 193.8127,236.0324 183.3961,242.9022 171.8262,251.4218 160.4372,260.7946 157.7892,263.9995 156.2083,267.4346 156.3603,453.6456 156.8725,455.8679 158.278,458.1226 160.3818,459.7454 163.2992,460.5694 193.5723,460.9935 223.4422,462.132 253.6528,464.0276 283.4308,466.6318 307.8781,469.3191 332.2665,472.4969 356.5862,476.164 380.8273,480.3188 402.3836,484.4365 423.4929,488.8591 436.5813,492.7389 454.4663,499.0289 471.9557,506.3476 488.6544,514.4941 506.2102,524.2686 508.0459,524.7248 510.3115,524.6407 512.4463,523.8775 513.9813,522.7723 515.1877,521.3154 561.3671,442.5602 563.5425,437.6656 565.2969,432.6048 567.1745,424.4037 567.9385,416.4087 567.9414,344.6627 566.9917,342.9238 565.1353,342.2315 497.6115,342.2241 496.1233,341.9488 494.3888,341.1981 492.8945,340.0408 491.9354,338.8701 491.0948,337.1772 490.6774,334.9506 490.8173,230.2467 490.1312,228.3978 489.1743,227.6747 479.5554,224.2608 458.324,217.4322 439.7592,212.2345 421.0219,207.6974 402.8788,203.9659 384.6193,200.8538 365.8891,198.3205 347.459,196.4702 326.6639,196.5371 313.8201,197.0984 299.1429,198.5237 284.5703,200.7796 269.7819,203.9484 254.8415,208.084 240.1744,213.1034"/>
  </g>
</svg>
