<?xml version="1.0" standalone="no"?>
 <!DOCTYPE svg PUBLIC "-//W3C//DTD SVG 1.1//EN" 
 "http://www.w3.org/Graphics/SVG/1.1/DTD/svg11.dtd"> 
<svg
  xmlns:svg="http://www.w3.org/2000/svg"
  xmlns="http://www.w3.org/2000/svg"
  xmlns:xlink="http://www.w3.org/1999/xlink"
  version="1.1"
  width="297.0022mm" height="210.0072mm" viewBox="0.0000 0.0000 297.0022 210.0072">
<title>SVG Image created as swoon-Edge_Cuts.svg date 2024/09/21 22:19:43 </title>
  <desc>Image generated by PCBNEW </desc>
<g style="fill:#000000; fill-opacity:1.0000;stroke:#000000; stroke-opacity:1.0000;
stroke-linecap:round; stroke-linejoin:round;"
 transform="translate(0 0) scale(1 1)">
</g>
<g style="fill:none; 
stroke:#000000; stroke-width:0.0500; stroke-opacity:1; 
stroke-linecap:round; stroke-linejoin:round;">
<path d="M150.2754 91.2987 A0.7501 0.7501 0.0 0 0 149.5253 90.5487" />
<path d="M41.3301 70.7587
L41.3703 120.0270
" />
<path d="M129.8620 60.9194 A0.7501 0.7501 0.0 0 0 129.4273 60.2389" />
<path d="M133.5780 138.5300 A86.2892 86.2892 0.0 0 0 112.0491 129.3439" />
<path d="M42.7570 68.7450 A4.0630 4.0630 0.0 0 0 41.3301 70.7587" />
<path d="M129.8250 88.6223 A2.0013 2.0013 0.0 0 0 131.8600 90.5533" />
<path d="M129.4273 60.2389 A144.0252 144.0252 0.0 0 0 91.9318 51.9827" />
<path d="M133.5780 138.5300 A1.9666 1.9666 0.0 0 0 136.3100 137.9313" />
<path d="M112.0491 129.3439 A323.9562 323.9562 0.0 0 0 43.4080 121.8631" />
<path d="M41.3703 120.0270 A1.9833 1.9833 0.0 0 0 43.4080 121.8631" />
<path d="M150.2753 91.2987
L150.2750 96.2660
" />
<path d="M129.8250 88.6223
L129.8620 60.9194
" />
<path d="M131.8600 90.5533
L149.5253 90.5487
" />
<path d="M87.7304 51.9881 A68.7300 68.7300 0.0 0 0 42.7570 68.7450" />
<path d="M148.5283 117.0940
L136.3100 137.9313
" />
<path d="M148.5283 117.0940 A16.7744 16.7744 0.0 0 0 150.2750 109.7698" />
<path d="M91.9318 51.9827
L87.7304 51.9881
" />
<path d="M150.2750 96.2660
L150.2870 103.6320
" />
<path d="M150.2870 103.6320
L150.2750 109.7698
" />
</g> 
</svg>
