M48
; DRILL file {KiCad 8.0.4} date 2024-08-21T07:41:27-0700
; FORMAT={-:-/ absolute / inch / decimal}
; #@! TF.CreationDate,2024-08-21T07:41:27-07:00
; #@! TF.GenerationSoftware,Kicad,Pcbnew,8.0.4
; #@! TF.FileFunction,Plated,1,2,PTH
FMAT,2
INCH
; #@! TA.AperFunction,Plated,PTH,ComponentDrill
T1C0.0122
; #@! TA.AperFunction,Plated,PTH,ViaDrill
T2C0.0157
; #@! TA.AperFunction,Plated,PTH,ComponentDrill
T3C0.0157
; #@! TA.AperFunction,Plated,PTH,ComponentDrill
T4C0.0236
; #@! TA.AperFunction,Plated,PTH,ComponentDrill
T5C0.0394
; #@! TA.AperFunction,Plated,PTH,ComponentDrill
T6C0.0433
; #@! TA.AperFunction,Plated,PTH,ComponentDrill
T7C0.0630
; #@! TA.AperFunction,Plated,PTH,ComponentDrill
T8C0.0866
%
G90
G05
T1
X3.8819Y-2.7895
X3.8819Y-3.4588
X3.8819Y-4.1281
X4.0275Y-3.0611
X4.0275Y-3.7304
X4.0275Y-4.3997
X4.0472Y-2.7895
X4.0472Y-3.4588
X4.0472Y-4.1281
X4.0984Y-3.2068
X4.0984Y-3.8761
X4.0984Y-4.5454
X4.5905Y-2.317
X4.5905Y-2.9853
X4.5905Y-3.6553
X4.7362Y-2.5887
X4.7362Y-3.257
X4.7362Y-3.927
X4.7559Y-2.317
X4.7559Y-2.9853
X4.7559Y-3.6553
X4.807Y-2.7344
X4.807Y-3.4026
X4.807Y-4.0726
X5.2992Y-2.0415
X5.2992Y-2.7153
X5.2992Y-3.3853
X5.4448Y-2.3131
X5.4448Y-2.987
X5.4448Y-3.657
X5.4645Y-2.0415
X5.4645Y-2.7153
X5.4645Y-3.3853
X5.5157Y-2.4588
X5.5157Y-3.1326
X5.5157Y-3.8026
X6.0078Y-2.258
X6.0078Y-2.9253
X6.0078Y-3.5953
X6.1535Y-2.5296
X6.1535Y-3.197
X6.1535Y-3.867
X6.1732Y-2.258
X6.1732Y-2.9253
X6.1732Y-3.5953
X6.2244Y-2.6753
X6.2244Y-3.3426
X6.2244Y-4.0126
X6.3453Y-4.7441
X6.4039Y-4.3277
X6.4346Y-4.4868
X6.505Y-4.7869
X6.7157Y-3.0253
X6.7157Y-3.6953
X6.7165Y-2.3564
X6.8614Y-3.297
X6.8614Y-3.967
X6.8622Y-2.6281
X6.8811Y-3.0253
X6.8811Y-3.6953
X6.8819Y-2.3564
X6.9322Y-3.4426
X6.9322Y-4.1126
X6.933Y-2.7737
X7.0396Y-5.0108
X7.1828Y-5.0934
X7.1925Y-4.7853
X7.204Y-4.6238
T2
X7.1034Y-3.4954
X7.1734Y-3.7654
X7.1734Y-3.9004
X7.1734Y-4.0054
X7.1734Y-4.1054
X7.2084Y-3.4954
X7.4384Y-4.3404
X7.7475Y-3.5354
X7.7484Y-3.4654
T3
X7.5184Y-3.7004
X7.5184Y-3.8004
X7.5184Y-3.9004
X7.5184Y-4.1004
X7.5184Y-4.2004
X7.5184Y-4.3004
X7.5784Y-3.7004
X7.5784Y-3.8004
X7.5784Y-3.9004
X7.5784Y-4.1004
X7.5784Y-4.2004
X7.5784Y-4.3004
T4
X7.3584Y-3.9904
X7.3584Y-3.9904
X7.7384Y-3.9904
X7.7384Y-3.9904
T5
X7.2484Y-3.7004
X7.2484Y-3.7004
X7.2484Y-3.8004
X7.2484Y-3.8004
X7.2484Y-3.9004
X7.2484Y-3.9004
X7.2484Y-4.0004
X7.2484Y-4.0004
X7.2484Y-4.1004
X7.2484Y-4.1004
X7.2484Y-4.2004
X7.2484Y-4.2004
X7.2484Y-4.3004
X7.2484Y-4.3004
X7.8484Y-3.7004
X7.8484Y-3.7004
X7.8484Y-3.8004
X7.8484Y-3.8004
X7.8484Y-3.9004
X7.8484Y-3.9004
X7.8484Y-4.0004
X7.8484Y-4.0004
X7.8484Y-4.1004
X7.8484Y-4.1004
X7.8484Y-4.2004
X7.8484Y-4.2004
X7.8484Y-4.3004
X7.8484Y-4.3004
T6
X7.2484Y-3.7004
X7.2484Y-3.7004
X7.2484Y-3.8004
X7.2484Y-3.9004
X7.2484Y-4.0004
X7.2484Y-4.1004
X7.2484Y-4.2004
X7.2484Y-4.3004
X7.8484Y-3.7004
X7.8484Y-3.7004
X7.8484Y-3.8004
X7.8484Y-3.9004
X7.8484Y-4.0004
X7.8484Y-4.1004
X7.8484Y-4.2004
X7.8484Y-4.3004
T7
X3.7677Y-3.1241
X3.7677Y-3.1241
X3.7677Y-3.7934
X3.7677Y-3.7934
X3.7677Y-4.4627
X3.7677Y-4.4627
X3.9645Y-3.2068
X3.9645Y-3.2068
X3.9645Y-3.2068
X3.9645Y-3.8761
X3.9645Y-3.8761
X3.9645Y-3.8761
X3.9645Y-4.5454
X3.9645Y-4.5454
X3.9645Y-4.5454
X4.1614Y-3.1241
X4.1614Y-3.1241
X4.1614Y-3.7934
X4.1614Y-3.7934
X4.1614Y-4.4627
X4.1614Y-4.4627
X4.4763Y-2.6517
X4.4763Y-2.6517
X4.4763Y-3.32
X4.4763Y-3.32
X4.4763Y-3.99
X4.4763Y-3.99
X4.6732Y-2.7344
X4.6732Y-2.7344
X4.6732Y-2.7344
X4.6732Y-3.4026
X4.6732Y-3.4026
X4.6732Y-3.4026
X4.6732Y-4.0726
X4.6732Y-4.0726
X4.6732Y-4.0726
X4.87Y-2.6517
X4.87Y-2.6517
X4.87Y-3.32
X4.87Y-3.32
X4.87Y-3.99
X4.87Y-3.99
X5.185Y-2.3761
X5.185Y-2.3761
X5.185Y-3.05
X5.185Y-3.05
X5.185Y-3.72
X5.185Y-3.72
X5.3819Y-2.4588
X5.3819Y-2.4588
X5.3819Y-2.4588
X5.3819Y-3.1326
X5.3819Y-3.1326
X5.3819Y-3.1326
X5.3819Y-3.8026
X5.3819Y-3.8026
X5.3819Y-3.8026
X5.5787Y-2.3761
X5.5787Y-2.3761
X5.5787Y-3.05
X5.5787Y-3.05
X5.5787Y-3.72
X5.5787Y-3.72
X5.8937Y-2.5926
X5.8937Y-2.5926
X5.8937Y-3.26
X5.8937Y-3.26
X5.8937Y-3.93
X5.8937Y-3.93
X6.0905Y-2.6753
X6.0905Y-2.6753
X6.0905Y-2.6753
X6.0905Y-3.3426
X6.0905Y-3.3426
X6.0905Y-3.3426
X6.0905Y-4.0126
X6.0905Y-4.0126
X6.0905Y-4.0126
X6.2874Y-2.5926
X6.2874Y-2.5926
X6.2874Y-3.26
X6.2874Y-3.26
X6.2874Y-3.93
X6.2874Y-3.93
X6.3216Y-4.3913
X6.3216Y-4.3913
X6.5332Y-4.3624
X6.5332Y-4.3624
X6.5332Y-4.3624
X6.6015Y-3.36
X6.6015Y-3.36
X6.6015Y-4.03
X6.6015Y-4.03
X6.6023Y-2.6911
X6.6023Y-2.6911
X6.7019Y-4.4932
X6.7019Y-4.4932
X6.7984Y-3.4426
X6.7984Y-3.4426
X6.7984Y-3.4426
X6.7984Y-4.1126
X6.7984Y-4.1126
X6.7984Y-4.1126
X6.7992Y-2.7737
X6.7992Y-2.7737
X6.7992Y-2.7737
X6.9952Y-3.36
X6.9952Y-3.36
X6.9952Y-4.03
X6.9952Y-4.03
X6.996Y-2.6911
X6.996Y-2.6911
X7.1081Y-4.6639
X7.1081Y-4.6639
X7.3199Y-4.6907
X7.3199Y-4.6907
X7.3199Y-4.6907
X7.449Y-4.8607
X7.449Y-4.8607
T8
X5.0055Y-2.8591
X5.7555Y-2.1091
X5.7555Y-3.6091
X6.5055Y-2.8591
M30
