M48
; DRILL file {KiCad 8.0.4} date 2024-08-19T15:24:44-0700
; FORMAT={-:-/ absolute / inch / decimal}
; #@! TF.CreationDate,2024-08-19T15:24:44-07:00
; #@! TF.GenerationSoftware,Kicad,Pcbnew,8.0.4
; #@! TF.FileFunction,NonPlated,1,2,NPTH
FMAT,2
INCH
; #@! TA.AperFunction,NonPlated,NPTH,ComponentDrill
T1C0.0354
; #@! TA.AperFunction,NonPlated,NPTH,ComponentDrill
T2C0.0390
; #@! TA.AperFunction,NonPlated,NPTH,ComponentDrill
T3C0.0670
; #@! TA.AperFunction,NonPlated,NPTH,ComponentDrill
T4C0.1350
%
G90
G05
T1
X3.6691Y-0.9516
X3.6691Y-0.9516
X3.7829Y-0.9831
X3.7829Y-0.9831
T2
X0.8606Y-1.6488
X0.8606Y-2.3181
X0.8606Y-2.9874
X1.2717Y-1.6488
X1.2717Y-2.3181
X1.2717Y-2.9874
X1.5693Y-1.1764
X1.5693Y-1.8446
X1.5693Y-2.5146
X1.9803Y-1.1764
X1.9803Y-1.8446
X1.9803Y-2.5146
X2.278Y-0.9008
X2.278Y-1.5746
X2.278Y-2.2446
X2.689Y-0.9008
X2.689Y-1.5746
X2.689Y-2.2446
X2.9866Y-1.1173
X2.9866Y-1.7846
X2.9866Y-2.4546
X3.3333Y-3.5329
X3.3976Y-1.1173
X3.3976Y-1.7846
X3.3976Y-2.4546
X3.6945Y-1.8846
X3.6945Y-2.5546
X3.6953Y-1.2157
X3.7304Y-3.6393
X4.0447Y-3.7719
X4.1055Y-1.8846
X4.1055Y-2.5546
X4.1063Y-1.2157
X4.4007Y-3.9775
T3
X0.8496Y-1.8142
X0.8496Y-2.4835
X0.8496Y-3.1528
X1.2827Y-1.8142
X1.2827Y-2.4835
X1.2827Y-3.1528
X1.5583Y-1.3417
X1.5583Y-2.01
X1.5583Y-2.68
X1.9913Y-1.3417
X1.9913Y-2.01
X1.9913Y-2.68
X2.2669Y-1.0661
X2.2669Y-1.74
X2.2669Y-2.41
X2.7Y-1.0661
X2.7Y-1.74
X2.7Y-2.41
X2.9756Y-1.2827
X2.9756Y-1.95
X2.9756Y-2.62
X3.3655Y-3.3703
X3.4087Y-1.2827
X3.4087Y-1.95
X3.4087Y-2.62
X3.6835Y-2.05
X3.6835Y-2.72
X3.6843Y-1.3811
X3.7838Y-3.4824
X4.1165Y-2.05
X4.1165Y-2.72
X4.1173Y-1.3811
X4.1178Y-3.6232
X4.4929Y-3.8398
T4
X1.0661Y-1.8142
X1.0661Y-2.4835
X1.0661Y-3.1528
X1.7748Y-1.3417
X1.7748Y-2.01
X1.7748Y-2.68
X2.4835Y-1.0661
X2.4835Y-1.74
X2.4835Y-2.41
X3.1921Y-1.2827
X3.1921Y-1.95
X3.1921Y-2.62
X3.5746Y-3.4264
X3.9Y-2.05
X3.9Y-2.72
X3.9008Y-1.3811
X4.3054Y-3.7315
M30
