M48
; DRILL file {KiCad 8.0.4} date 2024-08-19T15:24:44-0700
; FORMAT={-:-/ absolute / inch / decimal}
; #@! TF.CreationDate,2024-08-19T15:24:44-07:00
; #@! TF.GenerationSoftware,Kicad,Pcbnew,8.0.4
; #@! TF.FileFunction,Plated,1,2,PTH
FMAT,2
INCH
; #@! TA.AperFunction,Plated,PTH,ComponentDrill
T1C0.0122
; #@! TA.AperFunction,Plated,PTH,ViaDrill
T2C0.0157
; #@! TA.AperFunction,Plated,PTH,ComponentDrill
T3C0.0157
; #@! TA.AperFunction,Plated,PTH,ComponentDrill
T4C0.0236
; #@! TA.AperFunction,Plated,PTH,ComponentDrill
T5C0.0394
; #@! TA.AperFunction,Plated,PTH,ComponentDrill
T6C0.0433
; #@! TA.AperFunction,Plated,PTH,ComponentDrill
T7C0.0591
; #@! TA.AperFunction,Plated,PTH,ComponentDrill
T8C0.0620
%
G90
G05
T1
X0.9835Y-1.6291
X0.9835Y-2.2984
X0.9835Y-2.9677
X1.1291Y-1.9008
X1.1291Y-2.5701
X1.1291Y-3.2394
X1.1488Y-1.6291
X1.1488Y-2.2984
X1.1488Y-2.9677
X1.2Y-2.0465
X1.2Y-2.7157
X1.2Y-3.385
X1.6921Y-1.1567
X1.6921Y-1.825
X1.6921Y-2.495
X1.8378Y-1.4283
X1.8378Y-2.0966
X1.8378Y-2.7666
X1.8575Y-1.1567
X1.8575Y-1.825
X1.8575Y-2.495
X1.9087Y-1.574
X1.9087Y-2.2423
X1.9087Y-2.9123
X2.4008Y-0.8811
X2.4008Y-1.555
X2.4008Y-2.225
X2.5465Y-1.1528
X2.5465Y-1.8266
X2.5465Y-2.4966
X2.5661Y-0.8811
X2.5661Y-1.555
X2.5661Y-2.225
X2.6173Y-1.2984
X2.6173Y-1.9723
X2.6173Y-2.6423
X3.1094Y-1.0976
X3.1094Y-1.765
X3.1094Y-2.435
X3.2551Y-1.3693
X3.2551Y-2.0366
X3.2551Y-2.7066
X3.2748Y-1.0976
X3.2748Y-1.765
X3.2748Y-2.435
X3.326Y-1.515
X3.326Y-2.1823
X3.326Y-2.8523
X3.4469Y-3.5837
X3.5055Y-3.1674
X3.5362Y-3.3264
X3.6066Y-3.6265
X3.8173Y-1.865
X3.8173Y-2.535
X3.8181Y-1.1961
X3.963Y-2.1366
X3.963Y-2.8066
X3.9638Y-1.4677
X3.9827Y-1.865
X3.9827Y-2.535
X3.9835Y-1.1961
X4.0339Y-2.2823
X4.0339Y-2.9523
X4.0346Y-1.6134
X4.1412Y-3.8504
X4.2844Y-3.9331
X4.2941Y-3.625
X4.3056Y-3.4634
T2
X3.69Y-1.1
X3.7275Y-0.9775
X4.2105Y-2.1195
X4.27Y-2.73
X4.2903Y-2.9103
X4.35Y-2.16
T3
X4.65Y-2.3457
X4.65Y-2.4457
X4.65Y-2.5457
X4.65Y-2.6457
X4.65Y-2.7457
X4.65Y-2.8457
X4.65Y-2.9457
X4.71Y-2.3457
X4.71Y-2.4457
X4.71Y-2.5457
X4.71Y-2.6457
X4.71Y-2.7457
X4.71Y-2.8457
X4.71Y-2.9457
T4
X4.49Y-2.6357
X4.49Y-2.6357
X4.87Y-2.6357
X4.87Y-2.6357
T5
X4.38Y-2.3457
X4.38Y-2.3457
X4.38Y-2.4457
X4.38Y-2.4457
X4.38Y-2.5457
X4.38Y-2.5457
X4.38Y-2.6457
X4.38Y-2.6457
X4.38Y-2.7457
X4.38Y-2.7457
X4.38Y-2.8457
X4.38Y-2.8457
X4.38Y-2.9457
X4.38Y-2.9457
X4.98Y-2.3457
X4.98Y-2.3457
X4.98Y-2.4457
X4.98Y-2.4457
X4.98Y-2.5457
X4.98Y-2.5457
X4.98Y-2.6457
X4.98Y-2.6457
X4.98Y-2.7457
X4.98Y-2.7457
X4.98Y-2.8457
X4.98Y-2.8457
X4.98Y-2.9457
X4.98Y-2.9457
T6
X4.38Y-2.3457
X4.38Y-2.3457
X4.38Y-2.4457
X4.38Y-2.5457
X4.38Y-2.6457
X4.38Y-2.7457
X4.38Y-2.8457
X4.38Y-2.9457
X4.98Y-2.3457
X4.98Y-2.3457
X4.98Y-2.4457
X4.98Y-2.5457
X4.98Y-2.6457
X4.98Y-2.7457
X4.98Y-2.8457
X4.98Y-2.9457
T7
X0.8693Y-1.9638
X0.8693Y-2.6331
X0.8693Y-3.3024
X1.0661Y-2.0465
X1.0661Y-2.7157
X1.0661Y-3.385
X1.263Y-1.9638
X1.263Y-2.6331
X1.263Y-3.3024
X1.578Y-1.4913
X1.578Y-2.1596
X1.578Y-2.8296
X1.7748Y-1.574
X1.7748Y-2.2423
X1.7748Y-2.9123
X1.9717Y-1.4913
X1.9717Y-2.1596
X1.9717Y-2.8296
X2.2866Y-1.2157
X2.2866Y-1.8896
X2.2866Y-2.5596
X2.4835Y-1.2984
X2.4835Y-1.9723
X2.4835Y-2.6423
X2.6803Y-1.2157
X2.6803Y-1.8896
X2.6803Y-2.5596
X2.9953Y-1.4323
X2.9953Y-2.0996
X2.9953Y-2.7696
X3.1921Y-1.515
X3.1921Y-2.1823
X3.1921Y-2.8523
X3.389Y-1.4323
X3.389Y-2.0996
X3.389Y-2.7696
X3.4232Y-3.2309
X3.6348Y-3.202
X3.7031Y-2.1996
X3.7031Y-2.8696
X3.7039Y-1.5307
X3.8035Y-3.3328
X3.9Y-2.2823
X3.9Y-2.9523
X3.9008Y-1.6134
X4.0969Y-2.1996
X4.0969Y-2.8696
X4.0976Y-1.5307
X4.2097Y-3.5035
X4.4215Y-3.5303
X4.5506Y-3.7004
T8
X0.8693Y-1.9638
X0.8693Y-2.6331
X0.8693Y-3.3024
X1.0661Y-2.0465
X1.0661Y-2.0465
X1.0661Y-2.7157
X1.0661Y-2.7157
X1.0661Y-3.385
X1.0661Y-3.385
X1.263Y-1.9638
X1.263Y-2.6331
X1.263Y-3.3024
X1.578Y-1.4913
X1.578Y-2.1596
X1.578Y-2.8296
X1.7748Y-1.574
X1.7748Y-1.574
X1.7748Y-2.2423
X1.7748Y-2.2423
X1.7748Y-2.9123
X1.7748Y-2.9123
X1.9717Y-1.4913
X1.9717Y-2.1596
X1.9717Y-2.8296
X2.2866Y-1.2157
X2.2866Y-1.8896
X2.2866Y-2.5596
X2.4835Y-1.2984
X2.4835Y-1.2984
X2.4835Y-1.9723
X2.4835Y-1.9723
X2.4835Y-2.6423
X2.4835Y-2.6423
X2.6803Y-1.2157
X2.6803Y-1.8896
X2.6803Y-2.5596
X2.9953Y-1.4323
X2.9953Y-2.0996
X2.9953Y-2.7696
X3.1921Y-1.515
X3.1921Y-1.515
X3.1921Y-2.1823
X3.1921Y-2.1823
X3.1921Y-2.8523
X3.1921Y-2.8523
X3.389Y-1.4323
X3.389Y-2.0996
X3.389Y-2.7696
X3.4232Y-3.2309
X3.6348Y-3.202
X3.6348Y-3.202
X3.7031Y-2.1996
X3.7031Y-2.8696
X3.7039Y-1.5307
X3.8035Y-3.3328
X3.9Y-2.2823
X3.9Y-2.2823
X3.9Y-2.9523
X3.9Y-2.9523
X3.9008Y-1.6134
X3.9008Y-1.6134
X4.0969Y-2.1996
X4.0969Y-2.8696
X4.0976Y-1.5307
X4.2097Y-3.5035
X4.4215Y-3.5303
X4.4215Y-3.5303
X4.5506Y-3.7004
M30
