%TF.GenerationSoftware,KiCad,Pcbnew,8.0.4*%
%TF.CreationDate,2024-08-19T15:24:44-07:00*%
%TF.ProjectId,swoon,73776f6f-6e2e-46b6-9963-61645f706362,rev?*%
%TF.SameCoordinates,Original*%
%TF.FileFunction,Paste,Bot*%
%TF.FilePolarity,Positive*%
%FSLAX46Y46*%
G04 Gerber Fmt 4.6, Leading zero omitted, Abs format (unit mm)*
G04 Created by KiCad (PCBNEW 8.0.4) date 2024-08-19 15:24:44*
%MOMM*%
%LPD*%
G01*
G04 APERTURE LIST*
G04 Aperture macros list*
%AMRoundRect*
0 Rectangle with rounded corners*
0 $1 Rounding radius*
0 $2 $3 $4 $5 $6 $7 $8 $9 X,Y pos of 4 corners*
0 Add a 4 corners polygon primitive as box body*
4,1,4,$2,$3,$4,$5,$6,$7,$8,$9,$2,$3,0*
0 Add four circle primitives for the rounded corners*
1,1,$1+$1,$2,$3*
1,1,$1+$1,$4,$5*
1,1,$1+$1,$6,$7*
1,1,$1+$1,$8,$9*
0 Add four rect primitives between the rounded corners*
20,1,$1+$1,$2,$3,$4,$5,0*
20,1,$1+$1,$4,$5,$6,$7,0*
20,1,$1+$1,$6,$7,$8,$9,0*
20,1,$1+$1,$8,$9,$2,$3,0*%
%AMRotRect*
0 Rectangle, with rotation*
0 The origin of the aperture is its center*
0 $1 length*
0 $2 width*
0 $3 Rotation angle, in degrees counterclockwise*
0 Add horizontal line*
21,1,$1,$2,0,0,$3*%
G04 Aperture macros list end*
%ADD10RoundRect,0.243750X-0.243750X-0.456250X0.243750X-0.456250X0.243750X0.456250X-0.243750X0.456250X0*%
%ADD11RoundRect,0.243750X0.353531X0.377617X-0.117358X0.503791X-0.353531X-0.377617X0.117358X-0.503791X0*%
%ADD12C,1.830000*%
%ADD13RoundRect,0.150000X-0.625000X0.150000X-0.625000X-0.150000X0.625000X-0.150000X0.625000X0.150000X0*%
%ADD14RoundRect,0.250000X-0.650000X0.350000X-0.650000X-0.350000X0.650000X-0.350000X0.650000X0.350000X0*%
%ADD15RotRect,0.700000X1.500000X344.500000*%
%ADD16RotRect,1.000000X0.800000X344.500000*%
%ADD17RoundRect,0.243750X0.439219X0.273249X0.017031X0.516999X-0.439219X-0.273249X-0.017031X-0.516999X0*%
G04 APERTURE END LIST*
D10*
%TO.C,D12*%
X26142500Y-58380000D03*
X28017500Y-58380000D03*
%TD*%
%TO.C,D18*%
X80142500Y-44830000D03*
X82017500Y-44830000D03*
%TD*%
D11*
%TO.C,D32*%
X90450175Y-91813003D03*
X88639065Y-91327717D03*
%TD*%
D10*
%TO.C,D22*%
X26142500Y-75380000D03*
X28017500Y-75380000D03*
%TD*%
%TO.C,D30*%
X98122500Y-64388000D03*
X99997500Y-64388000D03*
%TD*%
%TO.C,D20*%
X98122500Y-47370000D03*
X99997500Y-47370000D03*
%TD*%
%TO.C,D4*%
X44142500Y-29380000D03*
X46017500Y-29380000D03*
%TD*%
%TO.C,D24*%
X44142500Y-63372000D03*
X46017500Y-63372000D03*
%TD*%
D12*
%TO.C,J74*%
X123698000Y-66946000D03*
%TD*%
D10*
%TO.C,D14*%
X44142500Y-46354000D03*
X46017500Y-46354000D03*
%TD*%
D13*
%TO.C,J76*%
X108744000Y-53856000D03*
X108744000Y-54856000D03*
D14*
X112619000Y-52556000D03*
X112619000Y-56156000D03*
%TD*%
D15*
%TO.C,POWER_SW2*%
X92004564Y-25655640D03*
X94895456Y-26457355D03*
X96340901Y-26858213D03*
D16*
X90865264Y-24525056D03*
X91381034Y-22665250D03*
X98415536Y-24616090D03*
X97899766Y-26475896D03*
%TD*%
D10*
%TO.C,D26*%
X62142500Y-56514000D03*
X64017500Y-56514000D03*
%TD*%
%TO.C,D10*%
X98142500Y-30380000D03*
X100017500Y-30380000D03*
%TD*%
%TO.C,D8*%
X80142500Y-27880000D03*
X82017500Y-27880000D03*
%TD*%
%TO.C,D16*%
X62142500Y-39496000D03*
X64017500Y-39496000D03*
%TD*%
%TO.C,D6*%
X62142500Y-22380000D03*
X64017500Y-22380000D03*
%TD*%
%TO.C,D28*%
X80142500Y-61848000D03*
X82017500Y-61848000D03*
%TD*%
D17*
%TO.C,D34*%
X107812862Y-99267220D03*
X106189064Y-98329720D03*
%TD*%
D10*
%TO.C,D2*%
X26142500Y-41380000D03*
X28017500Y-41380000D03*
%TD*%
M02*
