%TF.GenerationSoftware,KiCad,Pcbnew,8.0.4*%
%TF.CreationDate,2024-08-19T15:24:43-07:00*%
%TF.ProjectId,swoon,73776f6f-6e2e-46b6-9963-61645f706362,rev?*%
%TF.SameCoordinates,Original*%
%TF.FileFunction,Legend,Top*%
%TF.FilePolarity,Positive*%
%FSLAX46Y46*%
G04 Gerber Fmt 4.6, Leading zero omitted, Abs format (unit mm)*
G04 Created by KiCad (PCBNEW 8.0.4) date 2024-08-19 15:24:43*
%MOMM*%
%LPD*%
G01*
G04 APERTURE LIST*
G04 Aperture macros list*
%AMRoundRect*
0 Rectangle with rounded corners*
0 $1 Rounding radius*
0 $2 $3 $4 $5 $6 $7 $8 $9 X,Y pos of 4 corners*
0 Add a 4 corners polygon primitive as box body*
4,1,4,$2,$3,$4,$5,$6,$7,$8,$9,$2,$3,0*
0 Add four circle primitives for the rounded corners*
1,1,$1+$1,$2,$3*
1,1,$1+$1,$4,$5*
1,1,$1+$1,$6,$7*
1,1,$1+$1,$8,$9*
0 Add four rect primitives between the rounded corners*
20,1,$1+$1,$2,$3,$4,$5,0*
20,1,$1+$1,$4,$5,$6,$7,0*
20,1,$1+$1,$6,$7,$8,$9,0*
20,1,$1+$1,$8,$9,$2,$3,0*%
%AMFreePoly0*
4,1,6,0.600000,0.200000,0.000000,-0.400000,-0.600000,0.200000,-0.600000,0.400000,0.600000,0.400000,0.600000,0.200000,0.600000,0.200000,$1*%
%AMFreePoly1*
4,1,6,0.600000,-0.250000,-0.600000,-0.250000,-0.600000,1.000000,0.000000,0.400000,0.600000,1.000000,0.600000,-0.250000,0.600000,-0.250000,$1*%
G04 Aperture macros list end*
%ADD10C,0.300000*%
%ADD11C,0.160000*%
%ADD12C,0.100000*%
%ADD13C,0.150000*%
%ADD14C,0.120000*%
%ADD15C,0.127000*%
%ADD16C,0.250000*%
%ADD17C,1.701800*%
%ADD18C,0.990600*%
%ADD19C,3.429000*%
%ADD20C,2.262000*%
%ADD21C,0.620000*%
%ADD22C,1.600000*%
%ADD23FreePoly0,270.000000*%
%ADD24FreePoly0,90.000000*%
%ADD25FreePoly1,90.000000*%
%ADD26FreePoly1,270.000000*%
%ADD27C,1.800000*%
%ADD28RoundRect,0.243750X-0.243750X-0.456250X0.243750X-0.456250X0.243750X0.456250X-0.243750X0.456250X0*%
%ADD29RoundRect,0.150000X0.625000X-0.150000X0.625000X0.150000X-0.625000X0.150000X-0.625000X-0.150000X0*%
%ADD30RoundRect,0.250000X0.650000X-0.350000X0.650000X0.350000X-0.650000X0.350000X-0.650000X-0.350000X0*%
%ADD31RoundRect,0.243750X0.353531X0.377617X-0.117358X0.503791X-0.353531X-0.377617X0.117358X-0.503791X0*%
%ADD32R,1.700000X1.700000*%
%ADD33O,1.700000X1.700000*%
%ADD34C,0.900000*%
%ADD35RoundRect,0.102000X0.537699X0.629189X-0.136842X0.816256X-0.537699X-0.629189X0.136842X-0.816256X0*%
%ADD36RoundRect,0.102000X0.588711X0.251833X-0.374920X0.519071X-0.588711X-0.251833X0.374920X-0.519071X0*%
%ADD37RoundRect,0.243750X0.439219X0.273249X0.017031X0.516999X-0.439219X-0.273249X-0.017031X-0.516999X0*%
%ADD38C,1.830000*%
G04 APERTURE END LIST*
D10*
X21939999Y-35778042D02*
X22939999Y-35778042D01*
X22725713Y-35563757D02*
X22154285Y-35563757D01*
X22154285Y-34778042D02*
X22297142Y-34706614D01*
X22297142Y-34706614D02*
X22439999Y-34563757D01*
X22439999Y-34563757D02*
X22439999Y-35563757D01*
X22154285Y-35992328D02*
X22297142Y-35920900D01*
X22297142Y-35920900D02*
X22511427Y-35920900D01*
X22511427Y-35920900D02*
X22654285Y-35992328D01*
X22654285Y-35992328D02*
X22725713Y-36135185D01*
X22725713Y-36135185D02*
X22725713Y-36278042D01*
X22725713Y-36278042D02*
X22654285Y-36420900D01*
X22654285Y-36420900D02*
X22154285Y-36920900D01*
X22154285Y-36920900D02*
X22725713Y-36920900D01*
X23582856Y-35920900D02*
X24725714Y-35920900D01*
X25368571Y-36420900D02*
X25582857Y-36492328D01*
X25582857Y-36492328D02*
X25939999Y-36492328D01*
X25939999Y-36492328D02*
X26082857Y-36420900D01*
X26082857Y-36420900D02*
X26154285Y-36349471D01*
X26154285Y-36349471D02*
X26225714Y-36206614D01*
X26225714Y-36206614D02*
X26225714Y-36063757D01*
X26225714Y-36063757D02*
X26154285Y-35920900D01*
X26154285Y-35920900D02*
X26082857Y-35849471D01*
X26082857Y-35849471D02*
X25939999Y-35778042D01*
X25939999Y-35778042D02*
X25654285Y-35706614D01*
X25654285Y-35706614D02*
X25511428Y-35635185D01*
X25511428Y-35635185D02*
X25439999Y-35563757D01*
X25439999Y-35563757D02*
X25368571Y-35420900D01*
X25368571Y-35420900D02*
X25368571Y-35278042D01*
X25368571Y-35278042D02*
X25439999Y-35135185D01*
X25439999Y-35135185D02*
X25511428Y-35063757D01*
X25511428Y-35063757D02*
X25654285Y-34992328D01*
X25654285Y-34992328D02*
X26011428Y-34992328D01*
X26011428Y-34992328D02*
X26225714Y-35063757D01*
X26725713Y-35492328D02*
X27011428Y-36492328D01*
X27011428Y-36492328D02*
X27297142Y-35778042D01*
X27297142Y-35778042D02*
X27582856Y-36492328D01*
X27582856Y-36492328D02*
X27868570Y-35492328D01*
X28654285Y-36492328D02*
X28511428Y-36420900D01*
X28511428Y-36420900D02*
X28439999Y-36349471D01*
X28439999Y-36349471D02*
X28368571Y-36206614D01*
X28368571Y-36206614D02*
X28368571Y-35778042D01*
X28368571Y-35778042D02*
X28439999Y-35635185D01*
X28439999Y-35635185D02*
X28511428Y-35563757D01*
X28511428Y-35563757D02*
X28654285Y-35492328D01*
X28654285Y-35492328D02*
X28868571Y-35492328D01*
X28868571Y-35492328D02*
X29011428Y-35563757D01*
X29011428Y-35563757D02*
X29082857Y-35635185D01*
X29082857Y-35635185D02*
X29154285Y-35778042D01*
X29154285Y-35778042D02*
X29154285Y-36206614D01*
X29154285Y-36206614D02*
X29082857Y-36349471D01*
X29082857Y-36349471D02*
X29011428Y-36420900D01*
X29011428Y-36420900D02*
X28868571Y-36492328D01*
X28868571Y-36492328D02*
X28654285Y-36492328D01*
X30011428Y-36492328D02*
X29868571Y-36420900D01*
X29868571Y-36420900D02*
X29797142Y-36349471D01*
X29797142Y-36349471D02*
X29725714Y-36206614D01*
X29725714Y-36206614D02*
X29725714Y-35778042D01*
X29725714Y-35778042D02*
X29797142Y-35635185D01*
X29797142Y-35635185D02*
X29868571Y-35563757D01*
X29868571Y-35563757D02*
X30011428Y-35492328D01*
X30011428Y-35492328D02*
X30225714Y-35492328D01*
X30225714Y-35492328D02*
X30368571Y-35563757D01*
X30368571Y-35563757D02*
X30440000Y-35635185D01*
X30440000Y-35635185D02*
X30511428Y-35778042D01*
X30511428Y-35778042D02*
X30511428Y-36206614D01*
X30511428Y-36206614D02*
X30440000Y-36349471D01*
X30440000Y-36349471D02*
X30368571Y-36420900D01*
X30368571Y-36420900D02*
X30225714Y-36492328D01*
X30225714Y-36492328D02*
X30011428Y-36492328D01*
X31154285Y-35492328D02*
X31154285Y-36492328D01*
X31154285Y-35635185D02*
X31225714Y-35563757D01*
X31225714Y-35563757D02*
X31368571Y-35492328D01*
X31368571Y-35492328D02*
X31582857Y-35492328D01*
X31582857Y-35492328D02*
X31725714Y-35563757D01*
X31725714Y-35563757D02*
X31797143Y-35706614D01*
X31797143Y-35706614D02*
X31797143Y-36492328D01*
X32582857Y-34992328D02*
X32440000Y-35278042D01*
X33868572Y-36492328D02*
X33868572Y-34992328D01*
X33868572Y-36420900D02*
X33725714Y-36492328D01*
X33725714Y-36492328D02*
X33440000Y-36492328D01*
X33440000Y-36492328D02*
X33297143Y-36420900D01*
X33297143Y-36420900D02*
X33225714Y-36349471D01*
X33225714Y-36349471D02*
X33154286Y-36206614D01*
X33154286Y-36206614D02*
X33154286Y-35778042D01*
X33154286Y-35778042D02*
X33225714Y-35635185D01*
X33225714Y-35635185D02*
X33297143Y-35563757D01*
X33297143Y-35563757D02*
X33440000Y-35492328D01*
X33440000Y-35492328D02*
X33725714Y-35492328D01*
X33725714Y-35492328D02*
X33868572Y-35563757D01*
D11*
X20752691Y-44413180D02*
X20881263Y-44456037D01*
X20881263Y-44456037D02*
X21095548Y-44456037D01*
X21095548Y-44456037D02*
X21181263Y-44413180D01*
X21181263Y-44413180D02*
X21224120Y-44370322D01*
X21224120Y-44370322D02*
X21266977Y-44284608D01*
X21266977Y-44284608D02*
X21266977Y-44198894D01*
X21266977Y-44198894D02*
X21224120Y-44113180D01*
X21224120Y-44113180D02*
X21181263Y-44070322D01*
X21181263Y-44070322D02*
X21095548Y-44027465D01*
X21095548Y-44027465D02*
X20924120Y-43984608D01*
X20924120Y-43984608D02*
X20838405Y-43941751D01*
X20838405Y-43941751D02*
X20795548Y-43898894D01*
X20795548Y-43898894D02*
X20752691Y-43813180D01*
X20752691Y-43813180D02*
X20752691Y-43727465D01*
X20752691Y-43727465D02*
X20795548Y-43641751D01*
X20795548Y-43641751D02*
X20838405Y-43598894D01*
X20838405Y-43598894D02*
X20924120Y-43556037D01*
X20924120Y-43556037D02*
X21138405Y-43556037D01*
X21138405Y-43556037D02*
X21266977Y-43598894D01*
X21566977Y-43556037D02*
X21781263Y-44456037D01*
X21781263Y-44456037D02*
X21952691Y-43813180D01*
X21952691Y-43813180D02*
X22124120Y-44456037D01*
X22124120Y-44456037D02*
X22338406Y-43556037D01*
X23152691Y-44456037D02*
X22638405Y-44456037D01*
X22895548Y-44456037D02*
X22895548Y-43556037D01*
X22895548Y-43556037D02*
X22809834Y-43684608D01*
X22809834Y-43684608D02*
X22724119Y-43770322D01*
X22724119Y-43770322D02*
X22638405Y-43813180D01*
X38752691Y-32413180D02*
X38881263Y-32456037D01*
X38881263Y-32456037D02*
X39095548Y-32456037D01*
X39095548Y-32456037D02*
X39181263Y-32413180D01*
X39181263Y-32413180D02*
X39224120Y-32370322D01*
X39224120Y-32370322D02*
X39266977Y-32284608D01*
X39266977Y-32284608D02*
X39266977Y-32198894D01*
X39266977Y-32198894D02*
X39224120Y-32113180D01*
X39224120Y-32113180D02*
X39181263Y-32070322D01*
X39181263Y-32070322D02*
X39095548Y-32027465D01*
X39095548Y-32027465D02*
X38924120Y-31984608D01*
X38924120Y-31984608D02*
X38838405Y-31941751D01*
X38838405Y-31941751D02*
X38795548Y-31898894D01*
X38795548Y-31898894D02*
X38752691Y-31813180D01*
X38752691Y-31813180D02*
X38752691Y-31727465D01*
X38752691Y-31727465D02*
X38795548Y-31641751D01*
X38795548Y-31641751D02*
X38838405Y-31598894D01*
X38838405Y-31598894D02*
X38924120Y-31556037D01*
X38924120Y-31556037D02*
X39138405Y-31556037D01*
X39138405Y-31556037D02*
X39266977Y-31598894D01*
X39566977Y-31556037D02*
X39781263Y-32456037D01*
X39781263Y-32456037D02*
X39952691Y-31813180D01*
X39952691Y-31813180D02*
X40124120Y-32456037D01*
X40124120Y-32456037D02*
X40338406Y-31556037D01*
X40638405Y-31641751D02*
X40681262Y-31598894D01*
X40681262Y-31598894D02*
X40766977Y-31556037D01*
X40766977Y-31556037D02*
X40981262Y-31556037D01*
X40981262Y-31556037D02*
X41066977Y-31598894D01*
X41066977Y-31598894D02*
X41109834Y-31641751D01*
X41109834Y-31641751D02*
X41152691Y-31727465D01*
X41152691Y-31727465D02*
X41152691Y-31813180D01*
X41152691Y-31813180D02*
X41109834Y-31941751D01*
X41109834Y-31941751D02*
X40595548Y-32456037D01*
X40595548Y-32456037D02*
X41152691Y-32456037D01*
X56752691Y-25413180D02*
X56881263Y-25456037D01*
X56881263Y-25456037D02*
X57095548Y-25456037D01*
X57095548Y-25456037D02*
X57181263Y-25413180D01*
X57181263Y-25413180D02*
X57224120Y-25370322D01*
X57224120Y-25370322D02*
X57266977Y-25284608D01*
X57266977Y-25284608D02*
X57266977Y-25198894D01*
X57266977Y-25198894D02*
X57224120Y-25113180D01*
X57224120Y-25113180D02*
X57181263Y-25070322D01*
X57181263Y-25070322D02*
X57095548Y-25027465D01*
X57095548Y-25027465D02*
X56924120Y-24984608D01*
X56924120Y-24984608D02*
X56838405Y-24941751D01*
X56838405Y-24941751D02*
X56795548Y-24898894D01*
X56795548Y-24898894D02*
X56752691Y-24813180D01*
X56752691Y-24813180D02*
X56752691Y-24727465D01*
X56752691Y-24727465D02*
X56795548Y-24641751D01*
X56795548Y-24641751D02*
X56838405Y-24598894D01*
X56838405Y-24598894D02*
X56924120Y-24556037D01*
X56924120Y-24556037D02*
X57138405Y-24556037D01*
X57138405Y-24556037D02*
X57266977Y-24598894D01*
X57566977Y-24556037D02*
X57781263Y-25456037D01*
X57781263Y-25456037D02*
X57952691Y-24813180D01*
X57952691Y-24813180D02*
X58124120Y-25456037D01*
X58124120Y-25456037D02*
X58338406Y-24556037D01*
X58595548Y-24556037D02*
X59152691Y-24556037D01*
X59152691Y-24556037D02*
X58852691Y-24898894D01*
X58852691Y-24898894D02*
X58981262Y-24898894D01*
X58981262Y-24898894D02*
X59066977Y-24941751D01*
X59066977Y-24941751D02*
X59109834Y-24984608D01*
X59109834Y-24984608D02*
X59152691Y-25070322D01*
X59152691Y-25070322D02*
X59152691Y-25284608D01*
X59152691Y-25284608D02*
X59109834Y-25370322D01*
X59109834Y-25370322D02*
X59066977Y-25413180D01*
X59066977Y-25413180D02*
X58981262Y-25456037D01*
X58981262Y-25456037D02*
X58724119Y-25456037D01*
X58724119Y-25456037D02*
X58638405Y-25413180D01*
X58638405Y-25413180D02*
X58595548Y-25370322D01*
X74752691Y-30913180D02*
X74881263Y-30956037D01*
X74881263Y-30956037D02*
X75095548Y-30956037D01*
X75095548Y-30956037D02*
X75181263Y-30913180D01*
X75181263Y-30913180D02*
X75224120Y-30870322D01*
X75224120Y-30870322D02*
X75266977Y-30784608D01*
X75266977Y-30784608D02*
X75266977Y-30698894D01*
X75266977Y-30698894D02*
X75224120Y-30613180D01*
X75224120Y-30613180D02*
X75181263Y-30570322D01*
X75181263Y-30570322D02*
X75095548Y-30527465D01*
X75095548Y-30527465D02*
X74924120Y-30484608D01*
X74924120Y-30484608D02*
X74838405Y-30441751D01*
X74838405Y-30441751D02*
X74795548Y-30398894D01*
X74795548Y-30398894D02*
X74752691Y-30313180D01*
X74752691Y-30313180D02*
X74752691Y-30227465D01*
X74752691Y-30227465D02*
X74795548Y-30141751D01*
X74795548Y-30141751D02*
X74838405Y-30098894D01*
X74838405Y-30098894D02*
X74924120Y-30056037D01*
X74924120Y-30056037D02*
X75138405Y-30056037D01*
X75138405Y-30056037D02*
X75266977Y-30098894D01*
X75566977Y-30056037D02*
X75781263Y-30956037D01*
X75781263Y-30956037D02*
X75952691Y-30313180D01*
X75952691Y-30313180D02*
X76124120Y-30956037D01*
X76124120Y-30956037D02*
X76338406Y-30056037D01*
X77066977Y-30356037D02*
X77066977Y-30956037D01*
X76852691Y-30013180D02*
X76638405Y-30656037D01*
X76638405Y-30656037D02*
X77195548Y-30656037D01*
X92752691Y-33413180D02*
X92881263Y-33456037D01*
X92881263Y-33456037D02*
X93095548Y-33456037D01*
X93095548Y-33456037D02*
X93181263Y-33413180D01*
X93181263Y-33413180D02*
X93224120Y-33370322D01*
X93224120Y-33370322D02*
X93266977Y-33284608D01*
X93266977Y-33284608D02*
X93266977Y-33198894D01*
X93266977Y-33198894D02*
X93224120Y-33113180D01*
X93224120Y-33113180D02*
X93181263Y-33070322D01*
X93181263Y-33070322D02*
X93095548Y-33027465D01*
X93095548Y-33027465D02*
X92924120Y-32984608D01*
X92924120Y-32984608D02*
X92838405Y-32941751D01*
X92838405Y-32941751D02*
X92795548Y-32898894D01*
X92795548Y-32898894D02*
X92752691Y-32813180D01*
X92752691Y-32813180D02*
X92752691Y-32727465D01*
X92752691Y-32727465D02*
X92795548Y-32641751D01*
X92795548Y-32641751D02*
X92838405Y-32598894D01*
X92838405Y-32598894D02*
X92924120Y-32556037D01*
X92924120Y-32556037D02*
X93138405Y-32556037D01*
X93138405Y-32556037D02*
X93266977Y-32598894D01*
X93566977Y-32556037D02*
X93781263Y-33456037D01*
X93781263Y-33456037D02*
X93952691Y-32813180D01*
X93952691Y-32813180D02*
X94124120Y-33456037D01*
X94124120Y-33456037D02*
X94338406Y-32556037D01*
X95109834Y-32556037D02*
X94681262Y-32556037D01*
X94681262Y-32556037D02*
X94638405Y-32984608D01*
X94638405Y-32984608D02*
X94681262Y-32941751D01*
X94681262Y-32941751D02*
X94766977Y-32898894D01*
X94766977Y-32898894D02*
X94981262Y-32898894D01*
X94981262Y-32898894D02*
X95066977Y-32941751D01*
X95066977Y-32941751D02*
X95109834Y-32984608D01*
X95109834Y-32984608D02*
X95152691Y-33070322D01*
X95152691Y-33070322D02*
X95152691Y-33284608D01*
X95152691Y-33284608D02*
X95109834Y-33370322D01*
X95109834Y-33370322D02*
X95066977Y-33413180D01*
X95066977Y-33413180D02*
X94981262Y-33456037D01*
X94981262Y-33456037D02*
X94766977Y-33456037D01*
X94766977Y-33456037D02*
X94681262Y-33413180D01*
X94681262Y-33413180D02*
X94638405Y-33370322D01*
X20752691Y-61413180D02*
X20881263Y-61456037D01*
X20881263Y-61456037D02*
X21095548Y-61456037D01*
X21095548Y-61456037D02*
X21181263Y-61413180D01*
X21181263Y-61413180D02*
X21224120Y-61370322D01*
X21224120Y-61370322D02*
X21266977Y-61284608D01*
X21266977Y-61284608D02*
X21266977Y-61198894D01*
X21266977Y-61198894D02*
X21224120Y-61113180D01*
X21224120Y-61113180D02*
X21181263Y-61070322D01*
X21181263Y-61070322D02*
X21095548Y-61027465D01*
X21095548Y-61027465D02*
X20924120Y-60984608D01*
X20924120Y-60984608D02*
X20838405Y-60941751D01*
X20838405Y-60941751D02*
X20795548Y-60898894D01*
X20795548Y-60898894D02*
X20752691Y-60813180D01*
X20752691Y-60813180D02*
X20752691Y-60727465D01*
X20752691Y-60727465D02*
X20795548Y-60641751D01*
X20795548Y-60641751D02*
X20838405Y-60598894D01*
X20838405Y-60598894D02*
X20924120Y-60556037D01*
X20924120Y-60556037D02*
X21138405Y-60556037D01*
X21138405Y-60556037D02*
X21266977Y-60598894D01*
X21566977Y-60556037D02*
X21781263Y-61456037D01*
X21781263Y-61456037D02*
X21952691Y-60813180D01*
X21952691Y-60813180D02*
X22124120Y-61456037D01*
X22124120Y-61456037D02*
X22338406Y-60556037D01*
X23066977Y-60556037D02*
X22895548Y-60556037D01*
X22895548Y-60556037D02*
X22809834Y-60598894D01*
X22809834Y-60598894D02*
X22766977Y-60641751D01*
X22766977Y-60641751D02*
X22681262Y-60770322D01*
X22681262Y-60770322D02*
X22638405Y-60941751D01*
X22638405Y-60941751D02*
X22638405Y-61284608D01*
X22638405Y-61284608D02*
X22681262Y-61370322D01*
X22681262Y-61370322D02*
X22724119Y-61413180D01*
X22724119Y-61413180D02*
X22809834Y-61456037D01*
X22809834Y-61456037D02*
X22981262Y-61456037D01*
X22981262Y-61456037D02*
X23066977Y-61413180D01*
X23066977Y-61413180D02*
X23109834Y-61370322D01*
X23109834Y-61370322D02*
X23152691Y-61284608D01*
X23152691Y-61284608D02*
X23152691Y-61070322D01*
X23152691Y-61070322D02*
X23109834Y-60984608D01*
X23109834Y-60984608D02*
X23066977Y-60941751D01*
X23066977Y-60941751D02*
X22981262Y-60898894D01*
X22981262Y-60898894D02*
X22809834Y-60898894D01*
X22809834Y-60898894D02*
X22724119Y-60941751D01*
X22724119Y-60941751D02*
X22681262Y-60984608D01*
X22681262Y-60984608D02*
X22638405Y-61070322D01*
X38752691Y-49387180D02*
X38881263Y-49430037D01*
X38881263Y-49430037D02*
X39095548Y-49430037D01*
X39095548Y-49430037D02*
X39181263Y-49387180D01*
X39181263Y-49387180D02*
X39224120Y-49344322D01*
X39224120Y-49344322D02*
X39266977Y-49258608D01*
X39266977Y-49258608D02*
X39266977Y-49172894D01*
X39266977Y-49172894D02*
X39224120Y-49087180D01*
X39224120Y-49087180D02*
X39181263Y-49044322D01*
X39181263Y-49044322D02*
X39095548Y-49001465D01*
X39095548Y-49001465D02*
X38924120Y-48958608D01*
X38924120Y-48958608D02*
X38838405Y-48915751D01*
X38838405Y-48915751D02*
X38795548Y-48872894D01*
X38795548Y-48872894D02*
X38752691Y-48787180D01*
X38752691Y-48787180D02*
X38752691Y-48701465D01*
X38752691Y-48701465D02*
X38795548Y-48615751D01*
X38795548Y-48615751D02*
X38838405Y-48572894D01*
X38838405Y-48572894D02*
X38924120Y-48530037D01*
X38924120Y-48530037D02*
X39138405Y-48530037D01*
X39138405Y-48530037D02*
X39266977Y-48572894D01*
X39566977Y-48530037D02*
X39781263Y-49430037D01*
X39781263Y-49430037D02*
X39952691Y-48787180D01*
X39952691Y-48787180D02*
X40124120Y-49430037D01*
X40124120Y-49430037D02*
X40338406Y-48530037D01*
X40595548Y-48530037D02*
X41195548Y-48530037D01*
X41195548Y-48530037D02*
X40809834Y-49430037D01*
X56752691Y-42529180D02*
X56881263Y-42572037D01*
X56881263Y-42572037D02*
X57095548Y-42572037D01*
X57095548Y-42572037D02*
X57181263Y-42529180D01*
X57181263Y-42529180D02*
X57224120Y-42486322D01*
X57224120Y-42486322D02*
X57266977Y-42400608D01*
X57266977Y-42400608D02*
X57266977Y-42314894D01*
X57266977Y-42314894D02*
X57224120Y-42229180D01*
X57224120Y-42229180D02*
X57181263Y-42186322D01*
X57181263Y-42186322D02*
X57095548Y-42143465D01*
X57095548Y-42143465D02*
X56924120Y-42100608D01*
X56924120Y-42100608D02*
X56838405Y-42057751D01*
X56838405Y-42057751D02*
X56795548Y-42014894D01*
X56795548Y-42014894D02*
X56752691Y-41929180D01*
X56752691Y-41929180D02*
X56752691Y-41843465D01*
X56752691Y-41843465D02*
X56795548Y-41757751D01*
X56795548Y-41757751D02*
X56838405Y-41714894D01*
X56838405Y-41714894D02*
X56924120Y-41672037D01*
X56924120Y-41672037D02*
X57138405Y-41672037D01*
X57138405Y-41672037D02*
X57266977Y-41714894D01*
X57566977Y-41672037D02*
X57781263Y-42572037D01*
X57781263Y-42572037D02*
X57952691Y-41929180D01*
X57952691Y-41929180D02*
X58124120Y-42572037D01*
X58124120Y-42572037D02*
X58338406Y-41672037D01*
X58809834Y-42057751D02*
X58724119Y-42014894D01*
X58724119Y-42014894D02*
X58681262Y-41972037D01*
X58681262Y-41972037D02*
X58638405Y-41886322D01*
X58638405Y-41886322D02*
X58638405Y-41843465D01*
X58638405Y-41843465D02*
X58681262Y-41757751D01*
X58681262Y-41757751D02*
X58724119Y-41714894D01*
X58724119Y-41714894D02*
X58809834Y-41672037D01*
X58809834Y-41672037D02*
X58981262Y-41672037D01*
X58981262Y-41672037D02*
X59066977Y-41714894D01*
X59066977Y-41714894D02*
X59109834Y-41757751D01*
X59109834Y-41757751D02*
X59152691Y-41843465D01*
X59152691Y-41843465D02*
X59152691Y-41886322D01*
X59152691Y-41886322D02*
X59109834Y-41972037D01*
X59109834Y-41972037D02*
X59066977Y-42014894D01*
X59066977Y-42014894D02*
X58981262Y-42057751D01*
X58981262Y-42057751D02*
X58809834Y-42057751D01*
X58809834Y-42057751D02*
X58724119Y-42100608D01*
X58724119Y-42100608D02*
X58681262Y-42143465D01*
X58681262Y-42143465D02*
X58638405Y-42229180D01*
X58638405Y-42229180D02*
X58638405Y-42400608D01*
X58638405Y-42400608D02*
X58681262Y-42486322D01*
X58681262Y-42486322D02*
X58724119Y-42529180D01*
X58724119Y-42529180D02*
X58809834Y-42572037D01*
X58809834Y-42572037D02*
X58981262Y-42572037D01*
X58981262Y-42572037D02*
X59066977Y-42529180D01*
X59066977Y-42529180D02*
X59109834Y-42486322D01*
X59109834Y-42486322D02*
X59152691Y-42400608D01*
X59152691Y-42400608D02*
X59152691Y-42229180D01*
X59152691Y-42229180D02*
X59109834Y-42143465D01*
X59109834Y-42143465D02*
X59066977Y-42100608D01*
X59066977Y-42100608D02*
X58981262Y-42057751D01*
X74752691Y-47863180D02*
X74881263Y-47906037D01*
X74881263Y-47906037D02*
X75095548Y-47906037D01*
X75095548Y-47906037D02*
X75181263Y-47863180D01*
X75181263Y-47863180D02*
X75224120Y-47820322D01*
X75224120Y-47820322D02*
X75266977Y-47734608D01*
X75266977Y-47734608D02*
X75266977Y-47648894D01*
X75266977Y-47648894D02*
X75224120Y-47563180D01*
X75224120Y-47563180D02*
X75181263Y-47520322D01*
X75181263Y-47520322D02*
X75095548Y-47477465D01*
X75095548Y-47477465D02*
X74924120Y-47434608D01*
X74924120Y-47434608D02*
X74838405Y-47391751D01*
X74838405Y-47391751D02*
X74795548Y-47348894D01*
X74795548Y-47348894D02*
X74752691Y-47263180D01*
X74752691Y-47263180D02*
X74752691Y-47177465D01*
X74752691Y-47177465D02*
X74795548Y-47091751D01*
X74795548Y-47091751D02*
X74838405Y-47048894D01*
X74838405Y-47048894D02*
X74924120Y-47006037D01*
X74924120Y-47006037D02*
X75138405Y-47006037D01*
X75138405Y-47006037D02*
X75266977Y-47048894D01*
X75566977Y-47006037D02*
X75781263Y-47906037D01*
X75781263Y-47906037D02*
X75952691Y-47263180D01*
X75952691Y-47263180D02*
X76124120Y-47906037D01*
X76124120Y-47906037D02*
X76338406Y-47006037D01*
X76724119Y-47906037D02*
X76895548Y-47906037D01*
X76895548Y-47906037D02*
X76981262Y-47863180D01*
X76981262Y-47863180D02*
X77024119Y-47820322D01*
X77024119Y-47820322D02*
X77109834Y-47691751D01*
X77109834Y-47691751D02*
X77152691Y-47520322D01*
X77152691Y-47520322D02*
X77152691Y-47177465D01*
X77152691Y-47177465D02*
X77109834Y-47091751D01*
X77109834Y-47091751D02*
X77066977Y-47048894D01*
X77066977Y-47048894D02*
X76981262Y-47006037D01*
X76981262Y-47006037D02*
X76809834Y-47006037D01*
X76809834Y-47006037D02*
X76724119Y-47048894D01*
X76724119Y-47048894D02*
X76681262Y-47091751D01*
X76681262Y-47091751D02*
X76638405Y-47177465D01*
X76638405Y-47177465D02*
X76638405Y-47391751D01*
X76638405Y-47391751D02*
X76681262Y-47477465D01*
X76681262Y-47477465D02*
X76724119Y-47520322D01*
X76724119Y-47520322D02*
X76809834Y-47563180D01*
X76809834Y-47563180D02*
X76981262Y-47563180D01*
X76981262Y-47563180D02*
X77066977Y-47520322D01*
X77066977Y-47520322D02*
X77109834Y-47477465D01*
X77109834Y-47477465D02*
X77152691Y-47391751D01*
X92732691Y-50403180D02*
X92861263Y-50446037D01*
X92861263Y-50446037D02*
X93075548Y-50446037D01*
X93075548Y-50446037D02*
X93161263Y-50403180D01*
X93161263Y-50403180D02*
X93204120Y-50360322D01*
X93204120Y-50360322D02*
X93246977Y-50274608D01*
X93246977Y-50274608D02*
X93246977Y-50188894D01*
X93246977Y-50188894D02*
X93204120Y-50103180D01*
X93204120Y-50103180D02*
X93161263Y-50060322D01*
X93161263Y-50060322D02*
X93075548Y-50017465D01*
X93075548Y-50017465D02*
X92904120Y-49974608D01*
X92904120Y-49974608D02*
X92818405Y-49931751D01*
X92818405Y-49931751D02*
X92775548Y-49888894D01*
X92775548Y-49888894D02*
X92732691Y-49803180D01*
X92732691Y-49803180D02*
X92732691Y-49717465D01*
X92732691Y-49717465D02*
X92775548Y-49631751D01*
X92775548Y-49631751D02*
X92818405Y-49588894D01*
X92818405Y-49588894D02*
X92904120Y-49546037D01*
X92904120Y-49546037D02*
X93118405Y-49546037D01*
X93118405Y-49546037D02*
X93246977Y-49588894D01*
X93546977Y-49546037D02*
X93761263Y-50446037D01*
X93761263Y-50446037D02*
X93932691Y-49803180D01*
X93932691Y-49803180D02*
X94104120Y-50446037D01*
X94104120Y-50446037D02*
X94318406Y-49546037D01*
X95132691Y-50446037D02*
X94618405Y-50446037D01*
X94875548Y-50446037D02*
X94875548Y-49546037D01*
X94875548Y-49546037D02*
X94789834Y-49674608D01*
X94789834Y-49674608D02*
X94704119Y-49760322D01*
X94704119Y-49760322D02*
X94618405Y-49803180D01*
X95689834Y-49546037D02*
X95775548Y-49546037D01*
X95775548Y-49546037D02*
X95861262Y-49588894D01*
X95861262Y-49588894D02*
X95904120Y-49631751D01*
X95904120Y-49631751D02*
X95946977Y-49717465D01*
X95946977Y-49717465D02*
X95989834Y-49888894D01*
X95989834Y-49888894D02*
X95989834Y-50103180D01*
X95989834Y-50103180D02*
X95946977Y-50274608D01*
X95946977Y-50274608D02*
X95904120Y-50360322D01*
X95904120Y-50360322D02*
X95861262Y-50403180D01*
X95861262Y-50403180D02*
X95775548Y-50446037D01*
X95775548Y-50446037D02*
X95689834Y-50446037D01*
X95689834Y-50446037D02*
X95604120Y-50403180D01*
X95604120Y-50403180D02*
X95561262Y-50360322D01*
X95561262Y-50360322D02*
X95518405Y-50274608D01*
X95518405Y-50274608D02*
X95475548Y-50103180D01*
X95475548Y-50103180D02*
X95475548Y-49888894D01*
X95475548Y-49888894D02*
X95518405Y-49717465D01*
X95518405Y-49717465D02*
X95561262Y-49631751D01*
X95561262Y-49631751D02*
X95604120Y-49588894D01*
X95604120Y-49588894D02*
X95689834Y-49546037D01*
X20752691Y-78413180D02*
X20881263Y-78456037D01*
X20881263Y-78456037D02*
X21095548Y-78456037D01*
X21095548Y-78456037D02*
X21181263Y-78413180D01*
X21181263Y-78413180D02*
X21224120Y-78370322D01*
X21224120Y-78370322D02*
X21266977Y-78284608D01*
X21266977Y-78284608D02*
X21266977Y-78198894D01*
X21266977Y-78198894D02*
X21224120Y-78113180D01*
X21224120Y-78113180D02*
X21181263Y-78070322D01*
X21181263Y-78070322D02*
X21095548Y-78027465D01*
X21095548Y-78027465D02*
X20924120Y-77984608D01*
X20924120Y-77984608D02*
X20838405Y-77941751D01*
X20838405Y-77941751D02*
X20795548Y-77898894D01*
X20795548Y-77898894D02*
X20752691Y-77813180D01*
X20752691Y-77813180D02*
X20752691Y-77727465D01*
X20752691Y-77727465D02*
X20795548Y-77641751D01*
X20795548Y-77641751D02*
X20838405Y-77598894D01*
X20838405Y-77598894D02*
X20924120Y-77556037D01*
X20924120Y-77556037D02*
X21138405Y-77556037D01*
X21138405Y-77556037D02*
X21266977Y-77598894D01*
X21566977Y-77556037D02*
X21781263Y-78456037D01*
X21781263Y-78456037D02*
X21952691Y-77813180D01*
X21952691Y-77813180D02*
X22124120Y-78456037D01*
X22124120Y-78456037D02*
X22338406Y-77556037D01*
X23152691Y-78456037D02*
X22638405Y-78456037D01*
X22895548Y-78456037D02*
X22895548Y-77556037D01*
X22895548Y-77556037D02*
X22809834Y-77684608D01*
X22809834Y-77684608D02*
X22724119Y-77770322D01*
X22724119Y-77770322D02*
X22638405Y-77813180D01*
X24009834Y-78456037D02*
X23495548Y-78456037D01*
X23752691Y-78456037D02*
X23752691Y-77556037D01*
X23752691Y-77556037D02*
X23666977Y-77684608D01*
X23666977Y-77684608D02*
X23581262Y-77770322D01*
X23581262Y-77770322D02*
X23495548Y-77813180D01*
X38752691Y-66405180D02*
X38881263Y-66448037D01*
X38881263Y-66448037D02*
X39095548Y-66448037D01*
X39095548Y-66448037D02*
X39181263Y-66405180D01*
X39181263Y-66405180D02*
X39224120Y-66362322D01*
X39224120Y-66362322D02*
X39266977Y-66276608D01*
X39266977Y-66276608D02*
X39266977Y-66190894D01*
X39266977Y-66190894D02*
X39224120Y-66105180D01*
X39224120Y-66105180D02*
X39181263Y-66062322D01*
X39181263Y-66062322D02*
X39095548Y-66019465D01*
X39095548Y-66019465D02*
X38924120Y-65976608D01*
X38924120Y-65976608D02*
X38838405Y-65933751D01*
X38838405Y-65933751D02*
X38795548Y-65890894D01*
X38795548Y-65890894D02*
X38752691Y-65805180D01*
X38752691Y-65805180D02*
X38752691Y-65719465D01*
X38752691Y-65719465D02*
X38795548Y-65633751D01*
X38795548Y-65633751D02*
X38838405Y-65590894D01*
X38838405Y-65590894D02*
X38924120Y-65548037D01*
X38924120Y-65548037D02*
X39138405Y-65548037D01*
X39138405Y-65548037D02*
X39266977Y-65590894D01*
X39566977Y-65548037D02*
X39781263Y-66448037D01*
X39781263Y-66448037D02*
X39952691Y-65805180D01*
X39952691Y-65805180D02*
X40124120Y-66448037D01*
X40124120Y-66448037D02*
X40338406Y-65548037D01*
X41152691Y-66448037D02*
X40638405Y-66448037D01*
X40895548Y-66448037D02*
X40895548Y-65548037D01*
X40895548Y-65548037D02*
X40809834Y-65676608D01*
X40809834Y-65676608D02*
X40724119Y-65762322D01*
X40724119Y-65762322D02*
X40638405Y-65805180D01*
X41495548Y-65633751D02*
X41538405Y-65590894D01*
X41538405Y-65590894D02*
X41624120Y-65548037D01*
X41624120Y-65548037D02*
X41838405Y-65548037D01*
X41838405Y-65548037D02*
X41924120Y-65590894D01*
X41924120Y-65590894D02*
X41966977Y-65633751D01*
X41966977Y-65633751D02*
X42009834Y-65719465D01*
X42009834Y-65719465D02*
X42009834Y-65805180D01*
X42009834Y-65805180D02*
X41966977Y-65933751D01*
X41966977Y-65933751D02*
X41452691Y-66448037D01*
X41452691Y-66448037D02*
X42009834Y-66448037D01*
X56752691Y-59547180D02*
X56881263Y-59590037D01*
X56881263Y-59590037D02*
X57095548Y-59590037D01*
X57095548Y-59590037D02*
X57181263Y-59547180D01*
X57181263Y-59547180D02*
X57224120Y-59504322D01*
X57224120Y-59504322D02*
X57266977Y-59418608D01*
X57266977Y-59418608D02*
X57266977Y-59332894D01*
X57266977Y-59332894D02*
X57224120Y-59247180D01*
X57224120Y-59247180D02*
X57181263Y-59204322D01*
X57181263Y-59204322D02*
X57095548Y-59161465D01*
X57095548Y-59161465D02*
X56924120Y-59118608D01*
X56924120Y-59118608D02*
X56838405Y-59075751D01*
X56838405Y-59075751D02*
X56795548Y-59032894D01*
X56795548Y-59032894D02*
X56752691Y-58947180D01*
X56752691Y-58947180D02*
X56752691Y-58861465D01*
X56752691Y-58861465D02*
X56795548Y-58775751D01*
X56795548Y-58775751D02*
X56838405Y-58732894D01*
X56838405Y-58732894D02*
X56924120Y-58690037D01*
X56924120Y-58690037D02*
X57138405Y-58690037D01*
X57138405Y-58690037D02*
X57266977Y-58732894D01*
X57566977Y-58690037D02*
X57781263Y-59590037D01*
X57781263Y-59590037D02*
X57952691Y-58947180D01*
X57952691Y-58947180D02*
X58124120Y-59590037D01*
X58124120Y-59590037D02*
X58338406Y-58690037D01*
X59152691Y-59590037D02*
X58638405Y-59590037D01*
X58895548Y-59590037D02*
X58895548Y-58690037D01*
X58895548Y-58690037D02*
X58809834Y-58818608D01*
X58809834Y-58818608D02*
X58724119Y-58904322D01*
X58724119Y-58904322D02*
X58638405Y-58947180D01*
X59452691Y-58690037D02*
X60009834Y-58690037D01*
X60009834Y-58690037D02*
X59709834Y-59032894D01*
X59709834Y-59032894D02*
X59838405Y-59032894D01*
X59838405Y-59032894D02*
X59924120Y-59075751D01*
X59924120Y-59075751D02*
X59966977Y-59118608D01*
X59966977Y-59118608D02*
X60009834Y-59204322D01*
X60009834Y-59204322D02*
X60009834Y-59418608D01*
X60009834Y-59418608D02*
X59966977Y-59504322D01*
X59966977Y-59504322D02*
X59924120Y-59547180D01*
X59924120Y-59547180D02*
X59838405Y-59590037D01*
X59838405Y-59590037D02*
X59581262Y-59590037D01*
X59581262Y-59590037D02*
X59495548Y-59547180D01*
X59495548Y-59547180D02*
X59452691Y-59504322D01*
X74752691Y-64881180D02*
X74881263Y-64924037D01*
X74881263Y-64924037D02*
X75095548Y-64924037D01*
X75095548Y-64924037D02*
X75181263Y-64881180D01*
X75181263Y-64881180D02*
X75224120Y-64838322D01*
X75224120Y-64838322D02*
X75266977Y-64752608D01*
X75266977Y-64752608D02*
X75266977Y-64666894D01*
X75266977Y-64666894D02*
X75224120Y-64581180D01*
X75224120Y-64581180D02*
X75181263Y-64538322D01*
X75181263Y-64538322D02*
X75095548Y-64495465D01*
X75095548Y-64495465D02*
X74924120Y-64452608D01*
X74924120Y-64452608D02*
X74838405Y-64409751D01*
X74838405Y-64409751D02*
X74795548Y-64366894D01*
X74795548Y-64366894D02*
X74752691Y-64281180D01*
X74752691Y-64281180D02*
X74752691Y-64195465D01*
X74752691Y-64195465D02*
X74795548Y-64109751D01*
X74795548Y-64109751D02*
X74838405Y-64066894D01*
X74838405Y-64066894D02*
X74924120Y-64024037D01*
X74924120Y-64024037D02*
X75138405Y-64024037D01*
X75138405Y-64024037D02*
X75266977Y-64066894D01*
X75566977Y-64024037D02*
X75781263Y-64924037D01*
X75781263Y-64924037D02*
X75952691Y-64281180D01*
X75952691Y-64281180D02*
X76124120Y-64924037D01*
X76124120Y-64924037D02*
X76338406Y-64024037D01*
X77152691Y-64924037D02*
X76638405Y-64924037D01*
X76895548Y-64924037D02*
X76895548Y-64024037D01*
X76895548Y-64024037D02*
X76809834Y-64152608D01*
X76809834Y-64152608D02*
X76724119Y-64238322D01*
X76724119Y-64238322D02*
X76638405Y-64281180D01*
X77924120Y-64324037D02*
X77924120Y-64924037D01*
X77709834Y-63981180D02*
X77495548Y-64624037D01*
X77495548Y-64624037D02*
X78052691Y-64624037D01*
X92732691Y-67421180D02*
X92861263Y-67464037D01*
X92861263Y-67464037D02*
X93075548Y-67464037D01*
X93075548Y-67464037D02*
X93161263Y-67421180D01*
X93161263Y-67421180D02*
X93204120Y-67378322D01*
X93204120Y-67378322D02*
X93246977Y-67292608D01*
X93246977Y-67292608D02*
X93246977Y-67206894D01*
X93246977Y-67206894D02*
X93204120Y-67121180D01*
X93204120Y-67121180D02*
X93161263Y-67078322D01*
X93161263Y-67078322D02*
X93075548Y-67035465D01*
X93075548Y-67035465D02*
X92904120Y-66992608D01*
X92904120Y-66992608D02*
X92818405Y-66949751D01*
X92818405Y-66949751D02*
X92775548Y-66906894D01*
X92775548Y-66906894D02*
X92732691Y-66821180D01*
X92732691Y-66821180D02*
X92732691Y-66735465D01*
X92732691Y-66735465D02*
X92775548Y-66649751D01*
X92775548Y-66649751D02*
X92818405Y-66606894D01*
X92818405Y-66606894D02*
X92904120Y-66564037D01*
X92904120Y-66564037D02*
X93118405Y-66564037D01*
X93118405Y-66564037D02*
X93246977Y-66606894D01*
X93546977Y-66564037D02*
X93761263Y-67464037D01*
X93761263Y-67464037D02*
X93932691Y-66821180D01*
X93932691Y-66821180D02*
X94104120Y-67464037D01*
X94104120Y-67464037D02*
X94318406Y-66564037D01*
X95132691Y-67464037D02*
X94618405Y-67464037D01*
X94875548Y-67464037D02*
X94875548Y-66564037D01*
X94875548Y-66564037D02*
X94789834Y-66692608D01*
X94789834Y-66692608D02*
X94704119Y-66778322D01*
X94704119Y-66778322D02*
X94618405Y-66821180D01*
X95946977Y-66564037D02*
X95518405Y-66564037D01*
X95518405Y-66564037D02*
X95475548Y-66992608D01*
X95475548Y-66992608D02*
X95518405Y-66949751D01*
X95518405Y-66949751D02*
X95604120Y-66906894D01*
X95604120Y-66906894D02*
X95818405Y-66906894D01*
X95818405Y-66906894D02*
X95904120Y-66949751D01*
X95904120Y-66949751D02*
X95946977Y-66992608D01*
X95946977Y-66992608D02*
X95989834Y-67078322D01*
X95989834Y-67078322D02*
X95989834Y-67292608D01*
X95989834Y-67292608D02*
X95946977Y-67378322D01*
X95946977Y-67378322D02*
X95904120Y-67421180D01*
X95904120Y-67421180D02*
X95818405Y-67464037D01*
X95818405Y-67464037D02*
X95604120Y-67464037D01*
X95604120Y-67464037D02*
X95518405Y-67421180D01*
X95518405Y-67421180D02*
X95475548Y-67378322D01*
X114116263Y-100296364D02*
X114206181Y-100397766D01*
X114206181Y-100397766D02*
X114391758Y-100504908D01*
X114391758Y-100504908D02*
X114487417Y-100510650D01*
X114487417Y-100510650D02*
X114545961Y-100494963D01*
X114545961Y-100494963D02*
X114625934Y-100442161D01*
X114625934Y-100442161D02*
X114668791Y-100367930D01*
X114668791Y-100367930D02*
X114674533Y-100272271D01*
X114674533Y-100272271D02*
X114658846Y-100213727D01*
X114658846Y-100213727D02*
X114606044Y-100133755D01*
X114606044Y-100133755D02*
X114479011Y-100010925D01*
X114479011Y-100010925D02*
X114426208Y-99930952D01*
X114426208Y-99930952D02*
X114410522Y-99872409D01*
X114410522Y-99872409D02*
X114416263Y-99776749D01*
X114416263Y-99776749D02*
X114459121Y-99702518D01*
X114459121Y-99702518D02*
X114539093Y-99649716D01*
X114539093Y-99649716D02*
X114597637Y-99634029D01*
X114597637Y-99634029D02*
X114693296Y-99639771D01*
X114693296Y-99639771D02*
X114878873Y-99746914D01*
X114878873Y-99746914D02*
X114968791Y-99848315D01*
X115250027Y-99961200D02*
X114985604Y-100847766D01*
X114985604Y-100847766D02*
X115455494Y-100376749D01*
X115455494Y-100376749D02*
X115282527Y-101019194D01*
X115282527Y-101019194D02*
X115918104Y-100346914D01*
X116173296Y-101533480D02*
X115727911Y-101276337D01*
X115950603Y-101404908D02*
X116400603Y-100625485D01*
X116400603Y-100625485D02*
X116262087Y-100693974D01*
X116262087Y-100693974D02*
X116144999Y-100725348D01*
X116144999Y-100725348D02*
X116049340Y-100719606D01*
X116883103Y-100904057D02*
X117402719Y-101204057D01*
X117402719Y-101204057D02*
X116618680Y-101790623D01*
X96821801Y-91126351D02*
X96934900Y-91201025D01*
X96934900Y-91201025D02*
X97141884Y-91256486D01*
X97141884Y-91256486D02*
X97235770Y-91237274D01*
X97235770Y-91237274D02*
X97288259Y-91206969D01*
X97288259Y-91206969D02*
X97351840Y-91135268D01*
X97351840Y-91135268D02*
X97374025Y-91052474D01*
X97374025Y-91052474D02*
X97354812Y-90958588D01*
X97354812Y-90958588D02*
X97324508Y-90906099D01*
X97324508Y-90906099D02*
X97252806Y-90842518D01*
X97252806Y-90842518D02*
X97098311Y-90756752D01*
X97098311Y-90756752D02*
X97026610Y-90693171D01*
X97026610Y-90693171D02*
X96996305Y-90640682D01*
X96996305Y-90640682D02*
X96977093Y-90546796D01*
X96977093Y-90546796D02*
X96999277Y-90464002D01*
X96999277Y-90464002D02*
X97062859Y-90392301D01*
X97062859Y-90392301D02*
X97115348Y-90361996D01*
X97115348Y-90361996D02*
X97209234Y-90342784D01*
X97209234Y-90342784D02*
X97416218Y-90398245D01*
X97416218Y-90398245D02*
X97529316Y-90472919D01*
X97830186Y-90509168D02*
X97804233Y-91433962D01*
X97804233Y-91433962D02*
X98136204Y-90857379D01*
X98136204Y-90857379D02*
X98135408Y-91522700D01*
X98135408Y-91522700D02*
X98575329Y-90708828D01*
X99128931Y-91788914D02*
X98632169Y-91655807D01*
X98880550Y-91722360D02*
X99113487Y-90853027D01*
X99113487Y-90853027D02*
X98997417Y-90955033D01*
X98997417Y-90955033D02*
X98892439Y-91015642D01*
X98892439Y-91015642D02*
X98798553Y-91034855D01*
X100107011Y-91119241D02*
X99941424Y-91074872D01*
X99941424Y-91074872D02*
X99847538Y-91094084D01*
X99847538Y-91094084D02*
X99795049Y-91124389D01*
X99795049Y-91124389D02*
X99678978Y-91226395D01*
X99678978Y-91226395D02*
X99593213Y-91380890D01*
X99593213Y-91380890D02*
X99504475Y-91712065D01*
X99504475Y-91712065D02*
X99523687Y-91805950D01*
X99523687Y-91805950D02*
X99553992Y-91858439D01*
X99553992Y-91858439D02*
X99625693Y-91922021D01*
X99625693Y-91922021D02*
X99791280Y-91966390D01*
X99791280Y-91966390D02*
X99885166Y-91947177D01*
X99885166Y-91947177D02*
X99937655Y-91916873D01*
X99937655Y-91916873D02*
X100001236Y-91845171D01*
X100001236Y-91845171D02*
X100056698Y-91638187D01*
X100056698Y-91638187D02*
X100037485Y-91544301D01*
X100037485Y-91544301D02*
X100007181Y-91491812D01*
X100007181Y-91491812D02*
X99935479Y-91428231D01*
X99935479Y-91428231D02*
X99769892Y-91383862D01*
X99769892Y-91383862D02*
X99676006Y-91403074D01*
X99676006Y-91403074D02*
X99623517Y-91433379D01*
X99623517Y-91433379D02*
X99559936Y-91505080D01*
D12*
X60079306Y-50930466D02*
X60079306Y-51644751D01*
X60079306Y-51644751D02*
X60031687Y-51787608D01*
X60031687Y-51787608D02*
X59936449Y-51882847D01*
X59936449Y-51882847D02*
X59793592Y-51930466D01*
X59793592Y-51930466D02*
X59698354Y-51930466D01*
X60460259Y-50930466D02*
X61079306Y-50930466D01*
X61079306Y-50930466D02*
X60745973Y-51311418D01*
X60745973Y-51311418D02*
X60888830Y-51311418D01*
X60888830Y-51311418D02*
X60984068Y-51359037D01*
X60984068Y-51359037D02*
X61031687Y-51406656D01*
X61031687Y-51406656D02*
X61079306Y-51501894D01*
X61079306Y-51501894D02*
X61079306Y-51739989D01*
X61079306Y-51739989D02*
X61031687Y-51835227D01*
X61031687Y-51835227D02*
X60984068Y-51882847D01*
X60984068Y-51882847D02*
X60888830Y-51930466D01*
X60888830Y-51930466D02*
X60603116Y-51930466D01*
X60603116Y-51930466D02*
X60507878Y-51882847D01*
X60507878Y-51882847D02*
X60460259Y-51835227D01*
X61698354Y-50930466D02*
X61793592Y-50930466D01*
X61793592Y-50930466D02*
X61888830Y-50978085D01*
X61888830Y-50978085D02*
X61936449Y-51025704D01*
X61936449Y-51025704D02*
X61984068Y-51120942D01*
X61984068Y-51120942D02*
X62031687Y-51311418D01*
X62031687Y-51311418D02*
X62031687Y-51549513D01*
X62031687Y-51549513D02*
X61984068Y-51739989D01*
X61984068Y-51739989D02*
X61936449Y-51835227D01*
X61936449Y-51835227D02*
X61888830Y-51882847D01*
X61888830Y-51882847D02*
X61793592Y-51930466D01*
X61793592Y-51930466D02*
X61698354Y-51930466D01*
X61698354Y-51930466D02*
X61603116Y-51882847D01*
X61603116Y-51882847D02*
X61555497Y-51835227D01*
X61555497Y-51835227D02*
X61507878Y-51739989D01*
X61507878Y-51739989D02*
X61460259Y-51549513D01*
X61460259Y-51549513D02*
X61460259Y-51311418D01*
X61460259Y-51311418D02*
X61507878Y-51120942D01*
X61507878Y-51120942D02*
X61555497Y-51025704D01*
X61555497Y-51025704D02*
X61603116Y-50978085D01*
X61603116Y-50978085D02*
X61698354Y-50930466D01*
X25031687Y-52814466D02*
X25031687Y-53528751D01*
X25031687Y-53528751D02*
X24984068Y-53671608D01*
X24984068Y-53671608D02*
X24888830Y-53766847D01*
X24888830Y-53766847D02*
X24745973Y-53814466D01*
X24745973Y-53814466D02*
X24650735Y-53814466D01*
X25460259Y-52909704D02*
X25507878Y-52862085D01*
X25507878Y-52862085D02*
X25603116Y-52814466D01*
X25603116Y-52814466D02*
X25841211Y-52814466D01*
X25841211Y-52814466D02*
X25936449Y-52862085D01*
X25936449Y-52862085D02*
X25984068Y-52909704D01*
X25984068Y-52909704D02*
X26031687Y-53004942D01*
X26031687Y-53004942D02*
X26031687Y-53100180D01*
X26031687Y-53100180D02*
X25984068Y-53243037D01*
X25984068Y-53243037D02*
X25412640Y-53814466D01*
X25412640Y-53814466D02*
X26031687Y-53814466D01*
D13*
X25865714Y-74184819D02*
X25865714Y-73184819D01*
X25865714Y-73184819D02*
X26103809Y-73184819D01*
X26103809Y-73184819D02*
X26246666Y-73232438D01*
X26246666Y-73232438D02*
X26341904Y-73327676D01*
X26341904Y-73327676D02*
X26389523Y-73422914D01*
X26389523Y-73422914D02*
X26437142Y-73613390D01*
X26437142Y-73613390D02*
X26437142Y-73756247D01*
X26437142Y-73756247D02*
X26389523Y-73946723D01*
X26389523Y-73946723D02*
X26341904Y-74041961D01*
X26341904Y-74041961D02*
X26246666Y-74137200D01*
X26246666Y-74137200D02*
X26103809Y-74184819D01*
X26103809Y-74184819D02*
X25865714Y-74184819D01*
X26818095Y-73280057D02*
X26865714Y-73232438D01*
X26865714Y-73232438D02*
X26960952Y-73184819D01*
X26960952Y-73184819D02*
X27199047Y-73184819D01*
X27199047Y-73184819D02*
X27294285Y-73232438D01*
X27294285Y-73232438D02*
X27341904Y-73280057D01*
X27341904Y-73280057D02*
X27389523Y-73375295D01*
X27389523Y-73375295D02*
X27389523Y-73470533D01*
X27389523Y-73470533D02*
X27341904Y-73613390D01*
X27341904Y-73613390D02*
X26770476Y-74184819D01*
X26770476Y-74184819D02*
X27389523Y-74184819D01*
X28341904Y-74184819D02*
X27770476Y-74184819D01*
X28056190Y-74184819D02*
X28056190Y-73184819D01*
X28056190Y-73184819D02*
X27960952Y-73327676D01*
X27960952Y-73327676D02*
X27865714Y-73422914D01*
X27865714Y-73422914D02*
X27770476Y-73470533D01*
D12*
X78079306Y-56264466D02*
X78079306Y-56978751D01*
X78079306Y-56978751D02*
X78031687Y-57121608D01*
X78031687Y-57121608D02*
X77936449Y-57216847D01*
X77936449Y-57216847D02*
X77793592Y-57264466D01*
X77793592Y-57264466D02*
X77698354Y-57264466D01*
X78460259Y-56264466D02*
X79079306Y-56264466D01*
X79079306Y-56264466D02*
X78745973Y-56645418D01*
X78745973Y-56645418D02*
X78888830Y-56645418D01*
X78888830Y-56645418D02*
X78984068Y-56693037D01*
X78984068Y-56693037D02*
X79031687Y-56740656D01*
X79031687Y-56740656D02*
X79079306Y-56835894D01*
X79079306Y-56835894D02*
X79079306Y-57073989D01*
X79079306Y-57073989D02*
X79031687Y-57169227D01*
X79031687Y-57169227D02*
X78984068Y-57216847D01*
X78984068Y-57216847D02*
X78888830Y-57264466D01*
X78888830Y-57264466D02*
X78603116Y-57264466D01*
X78603116Y-57264466D02*
X78507878Y-57216847D01*
X78507878Y-57216847D02*
X78460259Y-57169227D01*
X79936449Y-56597799D02*
X79936449Y-57264466D01*
X79698354Y-56216847D02*
X79460259Y-56931132D01*
X79460259Y-56931132D02*
X80079306Y-56931132D01*
X96079306Y-41814466D02*
X96079306Y-42528751D01*
X96079306Y-42528751D02*
X96031687Y-42671608D01*
X96031687Y-42671608D02*
X95936449Y-42766847D01*
X95936449Y-42766847D02*
X95793592Y-42814466D01*
X95793592Y-42814466D02*
X95698354Y-42814466D01*
X97079306Y-42814466D02*
X96507878Y-42814466D01*
X96793592Y-42814466D02*
X96793592Y-41814466D01*
X96793592Y-41814466D02*
X96698354Y-41957323D01*
X96698354Y-41957323D02*
X96603116Y-42052561D01*
X96603116Y-42052561D02*
X96507878Y-42100180D01*
X97650735Y-42243037D02*
X97555497Y-42195418D01*
X97555497Y-42195418D02*
X97507878Y-42147799D01*
X97507878Y-42147799D02*
X97460259Y-42052561D01*
X97460259Y-42052561D02*
X97460259Y-42004942D01*
X97460259Y-42004942D02*
X97507878Y-41909704D01*
X97507878Y-41909704D02*
X97555497Y-41862085D01*
X97555497Y-41862085D02*
X97650735Y-41814466D01*
X97650735Y-41814466D02*
X97841211Y-41814466D01*
X97841211Y-41814466D02*
X97936449Y-41862085D01*
X97936449Y-41862085D02*
X97984068Y-41909704D01*
X97984068Y-41909704D02*
X98031687Y-42004942D01*
X98031687Y-42004942D02*
X98031687Y-42052561D01*
X98031687Y-42052561D02*
X97984068Y-42147799D01*
X97984068Y-42147799D02*
X97936449Y-42195418D01*
X97936449Y-42195418D02*
X97841211Y-42243037D01*
X97841211Y-42243037D02*
X97650735Y-42243037D01*
X97650735Y-42243037D02*
X97555497Y-42290656D01*
X97555497Y-42290656D02*
X97507878Y-42338275D01*
X97507878Y-42338275D02*
X97460259Y-42433513D01*
X97460259Y-42433513D02*
X97460259Y-42623989D01*
X97460259Y-42623989D02*
X97507878Y-42719227D01*
X97507878Y-42719227D02*
X97555497Y-42766847D01*
X97555497Y-42766847D02*
X97650735Y-42814466D01*
X97650735Y-42814466D02*
X97841211Y-42814466D01*
X97841211Y-42814466D02*
X97936449Y-42766847D01*
X97936449Y-42766847D02*
X97984068Y-42719227D01*
X97984068Y-42719227D02*
X98031687Y-42623989D01*
X98031687Y-42623989D02*
X98031687Y-42433513D01*
X98031687Y-42433513D02*
X97984068Y-42338275D01*
X97984068Y-42338275D02*
X97936449Y-42290656D01*
X97936449Y-42290656D02*
X97841211Y-42243037D01*
X60079306Y-33814466D02*
X60079306Y-34528751D01*
X60079306Y-34528751D02*
X60031687Y-34671608D01*
X60031687Y-34671608D02*
X59936449Y-34766847D01*
X59936449Y-34766847D02*
X59793592Y-34814466D01*
X59793592Y-34814466D02*
X59698354Y-34814466D01*
X61079306Y-34814466D02*
X60507878Y-34814466D01*
X60793592Y-34814466D02*
X60793592Y-33814466D01*
X60793592Y-33814466D02*
X60698354Y-33957323D01*
X60698354Y-33957323D02*
X60603116Y-34052561D01*
X60603116Y-34052561D02*
X60507878Y-34100180D01*
X61698354Y-33814466D02*
X61793592Y-33814466D01*
X61793592Y-33814466D02*
X61888830Y-33862085D01*
X61888830Y-33862085D02*
X61936449Y-33909704D01*
X61936449Y-33909704D02*
X61984068Y-34004942D01*
X61984068Y-34004942D02*
X62031687Y-34195418D01*
X62031687Y-34195418D02*
X62031687Y-34433513D01*
X62031687Y-34433513D02*
X61984068Y-34623989D01*
X61984068Y-34623989D02*
X61936449Y-34719227D01*
X61936449Y-34719227D02*
X61888830Y-34766847D01*
X61888830Y-34766847D02*
X61793592Y-34814466D01*
X61793592Y-34814466D02*
X61698354Y-34814466D01*
X61698354Y-34814466D02*
X61603116Y-34766847D01*
X61603116Y-34766847D02*
X61555497Y-34719227D01*
X61555497Y-34719227D02*
X61507878Y-34623989D01*
X61507878Y-34623989D02*
X61460259Y-34433513D01*
X61460259Y-34433513D02*
X61460259Y-34195418D01*
X61460259Y-34195418D02*
X61507878Y-34004942D01*
X61507878Y-34004942D02*
X61555497Y-33909704D01*
X61555497Y-33909704D02*
X61603116Y-33862085D01*
X61603116Y-33862085D02*
X61698354Y-33814466D01*
D13*
X43865714Y-62176819D02*
X43865714Y-61176819D01*
X43865714Y-61176819D02*
X44103809Y-61176819D01*
X44103809Y-61176819D02*
X44246666Y-61224438D01*
X44246666Y-61224438D02*
X44341904Y-61319676D01*
X44341904Y-61319676D02*
X44389523Y-61414914D01*
X44389523Y-61414914D02*
X44437142Y-61605390D01*
X44437142Y-61605390D02*
X44437142Y-61748247D01*
X44437142Y-61748247D02*
X44389523Y-61938723D01*
X44389523Y-61938723D02*
X44341904Y-62033961D01*
X44341904Y-62033961D02*
X44246666Y-62129200D01*
X44246666Y-62129200D02*
X44103809Y-62176819D01*
X44103809Y-62176819D02*
X43865714Y-62176819D01*
X44818095Y-61272057D02*
X44865714Y-61224438D01*
X44865714Y-61224438D02*
X44960952Y-61176819D01*
X44960952Y-61176819D02*
X45199047Y-61176819D01*
X45199047Y-61176819D02*
X45294285Y-61224438D01*
X45294285Y-61224438D02*
X45341904Y-61272057D01*
X45341904Y-61272057D02*
X45389523Y-61367295D01*
X45389523Y-61367295D02*
X45389523Y-61462533D01*
X45389523Y-61462533D02*
X45341904Y-61605390D01*
X45341904Y-61605390D02*
X44770476Y-62176819D01*
X44770476Y-62176819D02*
X45389523Y-62176819D01*
X45722857Y-61176819D02*
X46341904Y-61176819D01*
X46341904Y-61176819D02*
X46008571Y-61557771D01*
X46008571Y-61557771D02*
X46151428Y-61557771D01*
X46151428Y-61557771D02*
X46246666Y-61605390D01*
X46246666Y-61605390D02*
X46294285Y-61653009D01*
X46294285Y-61653009D02*
X46341904Y-61748247D01*
X46341904Y-61748247D02*
X46341904Y-61986342D01*
X46341904Y-61986342D02*
X46294285Y-62081580D01*
X46294285Y-62081580D02*
X46246666Y-62129200D01*
X46246666Y-62129200D02*
X46151428Y-62176819D01*
X46151428Y-62176819D02*
X45865714Y-62176819D01*
X45865714Y-62176819D02*
X45770476Y-62129200D01*
X45770476Y-62129200D02*
X45722857Y-62081580D01*
D12*
X73079306Y-37214466D02*
X73079306Y-37928751D01*
X73079306Y-37928751D02*
X73031687Y-38071608D01*
X73031687Y-38071608D02*
X72936449Y-38166847D01*
X72936449Y-38166847D02*
X72793592Y-38214466D01*
X72793592Y-38214466D02*
X72698354Y-38214466D01*
X74079306Y-38214466D02*
X73507878Y-38214466D01*
X73793592Y-38214466D02*
X73793592Y-37214466D01*
X73793592Y-37214466D02*
X73698354Y-37357323D01*
X73698354Y-37357323D02*
X73603116Y-37452561D01*
X73603116Y-37452561D02*
X73507878Y-37500180D01*
X74412640Y-37214466D02*
X75031687Y-37214466D01*
X75031687Y-37214466D02*
X74698354Y-37595418D01*
X74698354Y-37595418D02*
X74841211Y-37595418D01*
X74841211Y-37595418D02*
X74936449Y-37643037D01*
X74936449Y-37643037D02*
X74984068Y-37690656D01*
X74984068Y-37690656D02*
X75031687Y-37785894D01*
X75031687Y-37785894D02*
X75031687Y-38023989D01*
X75031687Y-38023989D02*
X74984068Y-38119227D01*
X74984068Y-38119227D02*
X74936449Y-38166847D01*
X74936449Y-38166847D02*
X74841211Y-38214466D01*
X74841211Y-38214466D02*
X74555497Y-38214466D01*
X74555497Y-38214466D02*
X74460259Y-38166847D01*
X74460259Y-38166847D02*
X74412640Y-38119227D01*
D13*
X98341905Y-29184819D02*
X98341905Y-28184819D01*
X98341905Y-28184819D02*
X98580000Y-28184819D01*
X98580000Y-28184819D02*
X98722857Y-28232438D01*
X98722857Y-28232438D02*
X98818095Y-28327676D01*
X98818095Y-28327676D02*
X98865714Y-28422914D01*
X98865714Y-28422914D02*
X98913333Y-28613390D01*
X98913333Y-28613390D02*
X98913333Y-28756247D01*
X98913333Y-28756247D02*
X98865714Y-28946723D01*
X98865714Y-28946723D02*
X98818095Y-29041961D01*
X98818095Y-29041961D02*
X98722857Y-29137200D01*
X98722857Y-29137200D02*
X98580000Y-29184819D01*
X98580000Y-29184819D02*
X98341905Y-29184819D01*
X99389524Y-29184819D02*
X99580000Y-29184819D01*
X99580000Y-29184819D02*
X99675238Y-29137200D01*
X99675238Y-29137200D02*
X99722857Y-29089580D01*
X99722857Y-29089580D02*
X99818095Y-28946723D01*
X99818095Y-28946723D02*
X99865714Y-28756247D01*
X99865714Y-28756247D02*
X99865714Y-28375295D01*
X99865714Y-28375295D02*
X99818095Y-28280057D01*
X99818095Y-28280057D02*
X99770476Y-28232438D01*
X99770476Y-28232438D02*
X99675238Y-28184819D01*
X99675238Y-28184819D02*
X99484762Y-28184819D01*
X99484762Y-28184819D02*
X99389524Y-28232438D01*
X99389524Y-28232438D02*
X99341905Y-28280057D01*
X99341905Y-28280057D02*
X99294286Y-28375295D01*
X99294286Y-28375295D02*
X99294286Y-28613390D01*
X99294286Y-28613390D02*
X99341905Y-28708628D01*
X99341905Y-28708628D02*
X99389524Y-28756247D01*
X99389524Y-28756247D02*
X99484762Y-28803866D01*
X99484762Y-28803866D02*
X99675238Y-28803866D01*
X99675238Y-28803866D02*
X99770476Y-28756247D01*
X99770476Y-28756247D02*
X99818095Y-28708628D01*
X99818095Y-28708628D02*
X99865714Y-28613390D01*
D12*
X20031687Y-50714466D02*
X20031687Y-51428751D01*
X20031687Y-51428751D02*
X19984068Y-51571608D01*
X19984068Y-51571608D02*
X19888830Y-51666847D01*
X19888830Y-51666847D02*
X19745973Y-51714466D01*
X19745973Y-51714466D02*
X19650735Y-51714466D01*
X21031687Y-51714466D02*
X20460259Y-51714466D01*
X20745973Y-51714466D02*
X20745973Y-50714466D01*
X20745973Y-50714466D02*
X20650735Y-50857323D01*
X20650735Y-50857323D02*
X20555497Y-50952561D01*
X20555497Y-50952561D02*
X20460259Y-51000180D01*
X24079306Y-69814466D02*
X24079306Y-70528751D01*
X24079306Y-70528751D02*
X24031687Y-70671608D01*
X24031687Y-70671608D02*
X23936449Y-70766847D01*
X23936449Y-70766847D02*
X23793592Y-70814466D01*
X23793592Y-70814466D02*
X23698354Y-70814466D01*
X24507878Y-69909704D02*
X24555497Y-69862085D01*
X24555497Y-69862085D02*
X24650735Y-69814466D01*
X24650735Y-69814466D02*
X24888830Y-69814466D01*
X24888830Y-69814466D02*
X24984068Y-69862085D01*
X24984068Y-69862085D02*
X25031687Y-69909704D01*
X25031687Y-69909704D02*
X25079306Y-70004942D01*
X25079306Y-70004942D02*
X25079306Y-70100180D01*
X25079306Y-70100180D02*
X25031687Y-70243037D01*
X25031687Y-70243037D02*
X24460259Y-70814466D01*
X24460259Y-70814466D02*
X25079306Y-70814466D01*
X25460259Y-69909704D02*
X25507878Y-69862085D01*
X25507878Y-69862085D02*
X25603116Y-69814466D01*
X25603116Y-69814466D02*
X25841211Y-69814466D01*
X25841211Y-69814466D02*
X25936449Y-69862085D01*
X25936449Y-69862085D02*
X25984068Y-69909704D01*
X25984068Y-69909704D02*
X26031687Y-70004942D01*
X26031687Y-70004942D02*
X26031687Y-70100180D01*
X26031687Y-70100180D02*
X25984068Y-70243037D01*
X25984068Y-70243037D02*
X25412640Y-70814466D01*
X25412640Y-70814466D02*
X26031687Y-70814466D01*
X73079306Y-54164466D02*
X73079306Y-54878751D01*
X73079306Y-54878751D02*
X73031687Y-55021608D01*
X73031687Y-55021608D02*
X72936449Y-55116847D01*
X72936449Y-55116847D02*
X72793592Y-55164466D01*
X72793592Y-55164466D02*
X72698354Y-55164466D01*
X73460259Y-54164466D02*
X74079306Y-54164466D01*
X74079306Y-54164466D02*
X73745973Y-54545418D01*
X73745973Y-54545418D02*
X73888830Y-54545418D01*
X73888830Y-54545418D02*
X73984068Y-54593037D01*
X73984068Y-54593037D02*
X74031687Y-54640656D01*
X74031687Y-54640656D02*
X74079306Y-54735894D01*
X74079306Y-54735894D02*
X74079306Y-54973989D01*
X74079306Y-54973989D02*
X74031687Y-55069227D01*
X74031687Y-55069227D02*
X73984068Y-55116847D01*
X73984068Y-55116847D02*
X73888830Y-55164466D01*
X73888830Y-55164466D02*
X73603116Y-55164466D01*
X73603116Y-55164466D02*
X73507878Y-55116847D01*
X73507878Y-55116847D02*
X73460259Y-55069227D01*
X74412640Y-54164466D02*
X75031687Y-54164466D01*
X75031687Y-54164466D02*
X74698354Y-54545418D01*
X74698354Y-54545418D02*
X74841211Y-54545418D01*
X74841211Y-54545418D02*
X74936449Y-54593037D01*
X74936449Y-54593037D02*
X74984068Y-54640656D01*
X74984068Y-54640656D02*
X75031687Y-54735894D01*
X75031687Y-54735894D02*
X75031687Y-54973989D01*
X75031687Y-54973989D02*
X74984068Y-55069227D01*
X74984068Y-55069227D02*
X74936449Y-55116847D01*
X74936449Y-55116847D02*
X74841211Y-55164466D01*
X74841211Y-55164466D02*
X74555497Y-55164466D01*
X74555497Y-55164466D02*
X74460259Y-55116847D01*
X74460259Y-55116847D02*
X74412640Y-55069227D01*
X93608448Y-85488043D02*
X93608448Y-86202328D01*
X93608448Y-86202328D02*
X93560829Y-86345185D01*
X93560829Y-86345185D02*
X93465591Y-86440424D01*
X93465591Y-86440424D02*
X93322734Y-86488043D01*
X93322734Y-86488043D02*
X93227496Y-86488043D01*
X94513210Y-85488043D02*
X94322734Y-85488043D01*
X94322734Y-85488043D02*
X94227496Y-85535662D01*
X94227496Y-85535662D02*
X94179877Y-85583281D01*
X94179877Y-85583281D02*
X94084639Y-85726138D01*
X94084639Y-85726138D02*
X94037020Y-85916614D01*
X94037020Y-85916614D02*
X94037020Y-86297566D01*
X94037020Y-86297566D02*
X94084639Y-86392804D01*
X94084639Y-86392804D02*
X94132258Y-86440424D01*
X94132258Y-86440424D02*
X94227496Y-86488043D01*
X94227496Y-86488043D02*
X94417972Y-86488043D01*
X94417972Y-86488043D02*
X94513210Y-86440424D01*
X94513210Y-86440424D02*
X94560829Y-86392804D01*
X94560829Y-86392804D02*
X94608448Y-86297566D01*
X94608448Y-86297566D02*
X94608448Y-86059471D01*
X94608448Y-86059471D02*
X94560829Y-85964233D01*
X94560829Y-85964233D02*
X94513210Y-85916614D01*
X94513210Y-85916614D02*
X94417972Y-85868995D01*
X94417972Y-85868995D02*
X94227496Y-85868995D01*
X94227496Y-85868995D02*
X94132258Y-85916614D01*
X94132258Y-85916614D02*
X94084639Y-85964233D01*
X94084639Y-85964233D02*
X94037020Y-86059471D01*
X95560829Y-86488043D02*
X94989401Y-86488043D01*
X95275115Y-86488043D02*
X95275115Y-85488043D01*
X95275115Y-85488043D02*
X95179877Y-85630900D01*
X95179877Y-85630900D02*
X95084639Y-85726138D01*
X95084639Y-85726138D02*
X94989401Y-85773757D01*
X91059306Y-73722466D02*
X91059306Y-74436751D01*
X91059306Y-74436751D02*
X91011687Y-74579608D01*
X91011687Y-74579608D02*
X90916449Y-74674847D01*
X90916449Y-74674847D02*
X90773592Y-74722466D01*
X90773592Y-74722466D02*
X90678354Y-74722466D01*
X92011687Y-73722466D02*
X91535497Y-73722466D01*
X91535497Y-73722466D02*
X91487878Y-74198656D01*
X91487878Y-74198656D02*
X91535497Y-74151037D01*
X91535497Y-74151037D02*
X91630735Y-74103418D01*
X91630735Y-74103418D02*
X91868830Y-74103418D01*
X91868830Y-74103418D02*
X91964068Y-74151037D01*
X91964068Y-74151037D02*
X92011687Y-74198656D01*
X92011687Y-74198656D02*
X92059306Y-74293894D01*
X92059306Y-74293894D02*
X92059306Y-74531989D01*
X92059306Y-74531989D02*
X92011687Y-74627227D01*
X92011687Y-74627227D02*
X91964068Y-74674847D01*
X91964068Y-74674847D02*
X91868830Y-74722466D01*
X91868830Y-74722466D02*
X91630735Y-74722466D01*
X91630735Y-74722466D02*
X91535497Y-74674847D01*
X91535497Y-74674847D02*
X91487878Y-74627227D01*
X92392640Y-73722466D02*
X93059306Y-73722466D01*
X93059306Y-73722466D02*
X92630735Y-74722466D01*
X42079306Y-74806466D02*
X42079306Y-75520751D01*
X42079306Y-75520751D02*
X42031687Y-75663608D01*
X42031687Y-75663608D02*
X41936449Y-75758847D01*
X41936449Y-75758847D02*
X41793592Y-75806466D01*
X41793592Y-75806466D02*
X41698354Y-75806466D01*
X42984068Y-75139799D02*
X42984068Y-75806466D01*
X42745973Y-74758847D02*
X42507878Y-75473132D01*
X42507878Y-75473132D02*
X43126925Y-75473132D01*
X43936449Y-74806466D02*
X43745973Y-74806466D01*
X43745973Y-74806466D02*
X43650735Y-74854085D01*
X43650735Y-74854085D02*
X43603116Y-74901704D01*
X43603116Y-74901704D02*
X43507878Y-75044561D01*
X43507878Y-75044561D02*
X43460259Y-75235037D01*
X43460259Y-75235037D02*
X43460259Y-75615989D01*
X43460259Y-75615989D02*
X43507878Y-75711227D01*
X43507878Y-75711227D02*
X43555497Y-75758847D01*
X43555497Y-75758847D02*
X43650735Y-75806466D01*
X43650735Y-75806466D02*
X43841211Y-75806466D01*
X43841211Y-75806466D02*
X43936449Y-75758847D01*
X43936449Y-75758847D02*
X43984068Y-75711227D01*
X43984068Y-75711227D02*
X44031687Y-75615989D01*
X44031687Y-75615989D02*
X44031687Y-75377894D01*
X44031687Y-75377894D02*
X43984068Y-75282656D01*
X43984068Y-75282656D02*
X43936449Y-75235037D01*
X43936449Y-75235037D02*
X43841211Y-75187418D01*
X43841211Y-75187418D02*
X43650735Y-75187418D01*
X43650735Y-75187418D02*
X43555497Y-75235037D01*
X43555497Y-75235037D02*
X43507878Y-75282656D01*
X43507878Y-75282656D02*
X43460259Y-75377894D01*
X55079306Y-65848466D02*
X55079306Y-66562751D01*
X55079306Y-66562751D02*
X55031687Y-66705608D01*
X55031687Y-66705608D02*
X54936449Y-66800847D01*
X54936449Y-66800847D02*
X54793592Y-66848466D01*
X54793592Y-66848466D02*
X54698354Y-66848466D01*
X55984068Y-66181799D02*
X55984068Y-66848466D01*
X55745973Y-65800847D02*
X55507878Y-66515132D01*
X55507878Y-66515132D02*
X56126925Y-66515132D01*
X56555497Y-66848466D02*
X56745973Y-66848466D01*
X56745973Y-66848466D02*
X56841211Y-66800847D01*
X56841211Y-66800847D02*
X56888830Y-66753227D01*
X56888830Y-66753227D02*
X56984068Y-66610370D01*
X56984068Y-66610370D02*
X57031687Y-66419894D01*
X57031687Y-66419894D02*
X57031687Y-66038942D01*
X57031687Y-66038942D02*
X56984068Y-65943704D01*
X56984068Y-65943704D02*
X56936449Y-65896085D01*
X56936449Y-65896085D02*
X56841211Y-65848466D01*
X56841211Y-65848466D02*
X56650735Y-65848466D01*
X56650735Y-65848466D02*
X56555497Y-65896085D01*
X56555497Y-65896085D02*
X56507878Y-65943704D01*
X56507878Y-65943704D02*
X56460259Y-66038942D01*
X56460259Y-66038942D02*
X56460259Y-66277037D01*
X56460259Y-66277037D02*
X56507878Y-66372275D01*
X56507878Y-66372275D02*
X56555497Y-66419894D01*
X56555497Y-66419894D02*
X56650735Y-66467513D01*
X56650735Y-66467513D02*
X56841211Y-66467513D01*
X56841211Y-66467513D02*
X56936449Y-66419894D01*
X56936449Y-66419894D02*
X56984068Y-66372275D01*
X56984068Y-66372275D02*
X57031687Y-66277037D01*
D13*
X97845714Y-46174819D02*
X97845714Y-45174819D01*
X97845714Y-45174819D02*
X98083809Y-45174819D01*
X98083809Y-45174819D02*
X98226666Y-45222438D01*
X98226666Y-45222438D02*
X98321904Y-45317676D01*
X98321904Y-45317676D02*
X98369523Y-45412914D01*
X98369523Y-45412914D02*
X98417142Y-45603390D01*
X98417142Y-45603390D02*
X98417142Y-45746247D01*
X98417142Y-45746247D02*
X98369523Y-45936723D01*
X98369523Y-45936723D02*
X98321904Y-46031961D01*
X98321904Y-46031961D02*
X98226666Y-46127200D01*
X98226666Y-46127200D02*
X98083809Y-46174819D01*
X98083809Y-46174819D02*
X97845714Y-46174819D01*
X99369523Y-46174819D02*
X98798095Y-46174819D01*
X99083809Y-46174819D02*
X99083809Y-45174819D01*
X99083809Y-45174819D02*
X98988571Y-45317676D01*
X98988571Y-45317676D02*
X98893333Y-45412914D01*
X98893333Y-45412914D02*
X98798095Y-45460533D01*
X99845714Y-46174819D02*
X100036190Y-46174819D01*
X100036190Y-46174819D02*
X100131428Y-46127200D01*
X100131428Y-46127200D02*
X100179047Y-46079580D01*
X100179047Y-46079580D02*
X100274285Y-45936723D01*
X100274285Y-45936723D02*
X100321904Y-45746247D01*
X100321904Y-45746247D02*
X100321904Y-45365295D01*
X100321904Y-45365295D02*
X100274285Y-45270057D01*
X100274285Y-45270057D02*
X100226666Y-45222438D01*
X100226666Y-45222438D02*
X100131428Y-45174819D01*
X100131428Y-45174819D02*
X99940952Y-45174819D01*
X99940952Y-45174819D02*
X99845714Y-45222438D01*
X99845714Y-45222438D02*
X99798095Y-45270057D01*
X99798095Y-45270057D02*
X99750476Y-45365295D01*
X99750476Y-45365295D02*
X99750476Y-45603390D01*
X99750476Y-45603390D02*
X99798095Y-45698628D01*
X99798095Y-45698628D02*
X99845714Y-45746247D01*
X99845714Y-45746247D02*
X99940952Y-45793866D01*
X99940952Y-45793866D02*
X100131428Y-45793866D01*
X100131428Y-45793866D02*
X100226666Y-45746247D01*
X100226666Y-45746247D02*
X100274285Y-45698628D01*
X100274285Y-45698628D02*
X100321904Y-45603390D01*
D12*
X60079306Y-67948466D02*
X60079306Y-68662751D01*
X60079306Y-68662751D02*
X60031687Y-68805608D01*
X60031687Y-68805608D02*
X59936449Y-68900847D01*
X59936449Y-68900847D02*
X59793592Y-68948466D01*
X59793592Y-68948466D02*
X59698354Y-68948466D01*
X61031687Y-67948466D02*
X60555497Y-67948466D01*
X60555497Y-67948466D02*
X60507878Y-68424656D01*
X60507878Y-68424656D02*
X60555497Y-68377037D01*
X60555497Y-68377037D02*
X60650735Y-68329418D01*
X60650735Y-68329418D02*
X60888830Y-68329418D01*
X60888830Y-68329418D02*
X60984068Y-68377037D01*
X60984068Y-68377037D02*
X61031687Y-68424656D01*
X61031687Y-68424656D02*
X61079306Y-68519894D01*
X61079306Y-68519894D02*
X61079306Y-68757989D01*
X61079306Y-68757989D02*
X61031687Y-68853227D01*
X61031687Y-68853227D02*
X60984068Y-68900847D01*
X60984068Y-68900847D02*
X60888830Y-68948466D01*
X60888830Y-68948466D02*
X60650735Y-68948466D01*
X60650735Y-68948466D02*
X60555497Y-68900847D01*
X60555497Y-68900847D02*
X60507878Y-68853227D01*
X61698354Y-67948466D02*
X61793592Y-67948466D01*
X61793592Y-67948466D02*
X61888830Y-67996085D01*
X61888830Y-67996085D02*
X61936449Y-68043704D01*
X61936449Y-68043704D02*
X61984068Y-68138942D01*
X61984068Y-68138942D02*
X62031687Y-68329418D01*
X62031687Y-68329418D02*
X62031687Y-68567513D01*
X62031687Y-68567513D02*
X61984068Y-68757989D01*
X61984068Y-68757989D02*
X61936449Y-68853227D01*
X61936449Y-68853227D02*
X61888830Y-68900847D01*
X61888830Y-68900847D02*
X61793592Y-68948466D01*
X61793592Y-68948466D02*
X61698354Y-68948466D01*
X61698354Y-68948466D02*
X61603116Y-68900847D01*
X61603116Y-68900847D02*
X61555497Y-68853227D01*
X61555497Y-68853227D02*
X61507878Y-68757989D01*
X61507878Y-68757989D02*
X61460259Y-68567513D01*
X61460259Y-68567513D02*
X61460259Y-68329418D01*
X61460259Y-68329418D02*
X61507878Y-68138942D01*
X61507878Y-68138942D02*
X61555497Y-68043704D01*
X61555497Y-68043704D02*
X61603116Y-67996085D01*
X61603116Y-67996085D02*
X61698354Y-67948466D01*
X37079306Y-55688466D02*
X37079306Y-56402751D01*
X37079306Y-56402751D02*
X37031687Y-56545608D01*
X37031687Y-56545608D02*
X36936449Y-56640847D01*
X36936449Y-56640847D02*
X36793592Y-56688466D01*
X36793592Y-56688466D02*
X36698354Y-56688466D01*
X37507878Y-55783704D02*
X37555497Y-55736085D01*
X37555497Y-55736085D02*
X37650735Y-55688466D01*
X37650735Y-55688466D02*
X37888830Y-55688466D01*
X37888830Y-55688466D02*
X37984068Y-55736085D01*
X37984068Y-55736085D02*
X38031687Y-55783704D01*
X38031687Y-55783704D02*
X38079306Y-55878942D01*
X38079306Y-55878942D02*
X38079306Y-55974180D01*
X38079306Y-55974180D02*
X38031687Y-56117037D01*
X38031687Y-56117037D02*
X37460259Y-56688466D01*
X37460259Y-56688466D02*
X38079306Y-56688466D01*
X38984068Y-55688466D02*
X38507878Y-55688466D01*
X38507878Y-55688466D02*
X38460259Y-56164656D01*
X38460259Y-56164656D02*
X38507878Y-56117037D01*
X38507878Y-56117037D02*
X38603116Y-56069418D01*
X38603116Y-56069418D02*
X38841211Y-56069418D01*
X38841211Y-56069418D02*
X38936449Y-56117037D01*
X38936449Y-56117037D02*
X38984068Y-56164656D01*
X38984068Y-56164656D02*
X39031687Y-56259894D01*
X39031687Y-56259894D02*
X39031687Y-56497989D01*
X39031687Y-56497989D02*
X38984068Y-56593227D01*
X38984068Y-56593227D02*
X38936449Y-56640847D01*
X38936449Y-56640847D02*
X38841211Y-56688466D01*
X38841211Y-56688466D02*
X38603116Y-56688466D01*
X38603116Y-56688466D02*
X38507878Y-56640847D01*
X38507878Y-56640847D02*
X38460259Y-56593227D01*
X19079306Y-84714466D02*
X19079306Y-85428751D01*
X19079306Y-85428751D02*
X19031687Y-85571608D01*
X19031687Y-85571608D02*
X18936449Y-85666847D01*
X18936449Y-85666847D02*
X18793592Y-85714466D01*
X18793592Y-85714466D02*
X18698354Y-85714466D01*
X19984068Y-85047799D02*
X19984068Y-85714466D01*
X19745973Y-84666847D02*
X19507878Y-85381132D01*
X19507878Y-85381132D02*
X20126925Y-85381132D01*
X21031687Y-85714466D02*
X20460259Y-85714466D01*
X20745973Y-85714466D02*
X20745973Y-84714466D01*
X20745973Y-84714466D02*
X20650735Y-84857323D01*
X20650735Y-84857323D02*
X20555497Y-84952561D01*
X20555497Y-84952561D02*
X20460259Y-85000180D01*
X42079306Y-57788466D02*
X42079306Y-58502751D01*
X42079306Y-58502751D02*
X42031687Y-58645608D01*
X42031687Y-58645608D02*
X41936449Y-58740847D01*
X41936449Y-58740847D02*
X41793592Y-58788466D01*
X41793592Y-58788466D02*
X41698354Y-58788466D01*
X42507878Y-57883704D02*
X42555497Y-57836085D01*
X42555497Y-57836085D02*
X42650735Y-57788466D01*
X42650735Y-57788466D02*
X42888830Y-57788466D01*
X42888830Y-57788466D02*
X42984068Y-57836085D01*
X42984068Y-57836085D02*
X43031687Y-57883704D01*
X43031687Y-57883704D02*
X43079306Y-57978942D01*
X43079306Y-57978942D02*
X43079306Y-58074180D01*
X43079306Y-58074180D02*
X43031687Y-58217037D01*
X43031687Y-58217037D02*
X42460259Y-58788466D01*
X42460259Y-58788466D02*
X43079306Y-58788466D01*
X43936449Y-57788466D02*
X43745973Y-57788466D01*
X43745973Y-57788466D02*
X43650735Y-57836085D01*
X43650735Y-57836085D02*
X43603116Y-57883704D01*
X43603116Y-57883704D02*
X43507878Y-58026561D01*
X43507878Y-58026561D02*
X43460259Y-58217037D01*
X43460259Y-58217037D02*
X43460259Y-58597989D01*
X43460259Y-58597989D02*
X43507878Y-58693227D01*
X43507878Y-58693227D02*
X43555497Y-58740847D01*
X43555497Y-58740847D02*
X43650735Y-58788466D01*
X43650735Y-58788466D02*
X43841211Y-58788466D01*
X43841211Y-58788466D02*
X43936449Y-58740847D01*
X43936449Y-58740847D02*
X43984068Y-58693227D01*
X43984068Y-58693227D02*
X44031687Y-58597989D01*
X44031687Y-58597989D02*
X44031687Y-58359894D01*
X44031687Y-58359894D02*
X43984068Y-58264656D01*
X43984068Y-58264656D02*
X43936449Y-58217037D01*
X43936449Y-58217037D02*
X43841211Y-58169418D01*
X43841211Y-58169418D02*
X43650735Y-58169418D01*
X43650735Y-58169418D02*
X43555497Y-58217037D01*
X43555497Y-58217037D02*
X43507878Y-58264656D01*
X43507878Y-58264656D02*
X43460259Y-58359894D01*
D13*
X79865714Y-60652819D02*
X79865714Y-59652819D01*
X79865714Y-59652819D02*
X80103809Y-59652819D01*
X80103809Y-59652819D02*
X80246666Y-59700438D01*
X80246666Y-59700438D02*
X80341904Y-59795676D01*
X80341904Y-59795676D02*
X80389523Y-59890914D01*
X80389523Y-59890914D02*
X80437142Y-60081390D01*
X80437142Y-60081390D02*
X80437142Y-60224247D01*
X80437142Y-60224247D02*
X80389523Y-60414723D01*
X80389523Y-60414723D02*
X80341904Y-60509961D01*
X80341904Y-60509961D02*
X80246666Y-60605200D01*
X80246666Y-60605200D02*
X80103809Y-60652819D01*
X80103809Y-60652819D02*
X79865714Y-60652819D01*
X80818095Y-59748057D02*
X80865714Y-59700438D01*
X80865714Y-59700438D02*
X80960952Y-59652819D01*
X80960952Y-59652819D02*
X81199047Y-59652819D01*
X81199047Y-59652819D02*
X81294285Y-59700438D01*
X81294285Y-59700438D02*
X81341904Y-59748057D01*
X81341904Y-59748057D02*
X81389523Y-59843295D01*
X81389523Y-59843295D02*
X81389523Y-59938533D01*
X81389523Y-59938533D02*
X81341904Y-60081390D01*
X81341904Y-60081390D02*
X80770476Y-60652819D01*
X80770476Y-60652819D02*
X81389523Y-60652819D01*
X81722857Y-59652819D02*
X82389523Y-59652819D01*
X82389523Y-59652819D02*
X81960952Y-60652819D01*
X44341905Y-28184819D02*
X44341905Y-27184819D01*
X44341905Y-27184819D02*
X44580000Y-27184819D01*
X44580000Y-27184819D02*
X44722857Y-27232438D01*
X44722857Y-27232438D02*
X44818095Y-27327676D01*
X44818095Y-27327676D02*
X44865714Y-27422914D01*
X44865714Y-27422914D02*
X44913333Y-27613390D01*
X44913333Y-27613390D02*
X44913333Y-27756247D01*
X44913333Y-27756247D02*
X44865714Y-27946723D01*
X44865714Y-27946723D02*
X44818095Y-28041961D01*
X44818095Y-28041961D02*
X44722857Y-28137200D01*
X44722857Y-28137200D02*
X44580000Y-28184819D01*
X44580000Y-28184819D02*
X44341905Y-28184819D01*
X45246667Y-27184819D02*
X45865714Y-27184819D01*
X45865714Y-27184819D02*
X45532381Y-27565771D01*
X45532381Y-27565771D02*
X45675238Y-27565771D01*
X45675238Y-27565771D02*
X45770476Y-27613390D01*
X45770476Y-27613390D02*
X45818095Y-27661009D01*
X45818095Y-27661009D02*
X45865714Y-27756247D01*
X45865714Y-27756247D02*
X45865714Y-27994342D01*
X45865714Y-27994342D02*
X45818095Y-28089580D01*
X45818095Y-28089580D02*
X45770476Y-28137200D01*
X45770476Y-28137200D02*
X45675238Y-28184819D01*
X45675238Y-28184819D02*
X45389524Y-28184819D01*
X45389524Y-28184819D02*
X45294286Y-28137200D01*
X45294286Y-28137200D02*
X45246667Y-28089580D01*
D12*
X112585433Y-94823569D02*
X112585433Y-95537854D01*
X112585433Y-95537854D02*
X112537814Y-95680711D01*
X112537814Y-95680711D02*
X112442576Y-95775950D01*
X112442576Y-95775950D02*
X112299719Y-95823569D01*
X112299719Y-95823569D02*
X112204481Y-95823569D01*
X113490195Y-94823569D02*
X113299719Y-94823569D01*
X113299719Y-94823569D02*
X113204481Y-94871188D01*
X113204481Y-94871188D02*
X113156862Y-94918807D01*
X113156862Y-94918807D02*
X113061624Y-95061664D01*
X113061624Y-95061664D02*
X113014005Y-95252140D01*
X113014005Y-95252140D02*
X113014005Y-95633092D01*
X113014005Y-95633092D02*
X113061624Y-95728330D01*
X113061624Y-95728330D02*
X113109243Y-95775950D01*
X113109243Y-95775950D02*
X113204481Y-95823569D01*
X113204481Y-95823569D02*
X113394957Y-95823569D01*
X113394957Y-95823569D02*
X113490195Y-95775950D01*
X113490195Y-95775950D02*
X113537814Y-95728330D01*
X113537814Y-95728330D02*
X113585433Y-95633092D01*
X113585433Y-95633092D02*
X113585433Y-95394997D01*
X113585433Y-95394997D02*
X113537814Y-95299759D01*
X113537814Y-95299759D02*
X113490195Y-95252140D01*
X113490195Y-95252140D02*
X113394957Y-95204521D01*
X113394957Y-95204521D02*
X113204481Y-95204521D01*
X113204481Y-95204521D02*
X113109243Y-95252140D01*
X113109243Y-95252140D02*
X113061624Y-95299759D01*
X113061624Y-95299759D02*
X113014005Y-95394997D01*
X114490195Y-94823569D02*
X114014005Y-94823569D01*
X114014005Y-94823569D02*
X113966386Y-95299759D01*
X113966386Y-95299759D02*
X114014005Y-95252140D01*
X114014005Y-95252140D02*
X114109243Y-95204521D01*
X114109243Y-95204521D02*
X114347338Y-95204521D01*
X114347338Y-95204521D02*
X114442576Y-95252140D01*
X114442576Y-95252140D02*
X114490195Y-95299759D01*
X114490195Y-95299759D02*
X114537814Y-95394997D01*
X114537814Y-95394997D02*
X114537814Y-95633092D01*
X114537814Y-95633092D02*
X114490195Y-95728330D01*
X114490195Y-95728330D02*
X114442576Y-95775950D01*
X114442576Y-95775950D02*
X114347338Y-95823569D01*
X114347338Y-95823569D02*
X114109243Y-95823569D01*
X114109243Y-95823569D02*
X114014005Y-95775950D01*
X114014005Y-95775950D02*
X113966386Y-95728330D01*
X56031687Y-31714466D02*
X56031687Y-32428751D01*
X56031687Y-32428751D02*
X55984068Y-32571608D01*
X55984068Y-32571608D02*
X55888830Y-32666847D01*
X55888830Y-32666847D02*
X55745973Y-32714466D01*
X55745973Y-32714466D02*
X55650735Y-32714466D01*
X56555497Y-32714466D02*
X56745973Y-32714466D01*
X56745973Y-32714466D02*
X56841211Y-32666847D01*
X56841211Y-32666847D02*
X56888830Y-32619227D01*
X56888830Y-32619227D02*
X56984068Y-32476370D01*
X56984068Y-32476370D02*
X57031687Y-32285894D01*
X57031687Y-32285894D02*
X57031687Y-31904942D01*
X57031687Y-31904942D02*
X56984068Y-31809704D01*
X56984068Y-31809704D02*
X56936449Y-31762085D01*
X56936449Y-31762085D02*
X56841211Y-31714466D01*
X56841211Y-31714466D02*
X56650735Y-31714466D01*
X56650735Y-31714466D02*
X56555497Y-31762085D01*
X56555497Y-31762085D02*
X56507878Y-31809704D01*
X56507878Y-31809704D02*
X56460259Y-31904942D01*
X56460259Y-31904942D02*
X56460259Y-32143037D01*
X56460259Y-32143037D02*
X56507878Y-32238275D01*
X56507878Y-32238275D02*
X56555497Y-32285894D01*
X56555497Y-32285894D02*
X56650735Y-32333513D01*
X56650735Y-32333513D02*
X56841211Y-32333513D01*
X56841211Y-32333513D02*
X56936449Y-32285894D01*
X56936449Y-32285894D02*
X56984068Y-32238275D01*
X56984068Y-32238275D02*
X57031687Y-32143037D01*
X24079306Y-86814466D02*
X24079306Y-87528751D01*
X24079306Y-87528751D02*
X24031687Y-87671608D01*
X24031687Y-87671608D02*
X23936449Y-87766847D01*
X23936449Y-87766847D02*
X23793592Y-87814466D01*
X23793592Y-87814466D02*
X23698354Y-87814466D01*
X24984068Y-87147799D02*
X24984068Y-87814466D01*
X24745973Y-86766847D02*
X24507878Y-87481132D01*
X24507878Y-87481132D02*
X25126925Y-87481132D01*
X25460259Y-86909704D02*
X25507878Y-86862085D01*
X25507878Y-86862085D02*
X25603116Y-86814466D01*
X25603116Y-86814466D02*
X25841211Y-86814466D01*
X25841211Y-86814466D02*
X25936449Y-86862085D01*
X25936449Y-86862085D02*
X25984068Y-86909704D01*
X25984068Y-86909704D02*
X26031687Y-87004942D01*
X26031687Y-87004942D02*
X26031687Y-87100180D01*
X26031687Y-87100180D02*
X25984068Y-87243037D01*
X25984068Y-87243037D02*
X25412640Y-87814466D01*
X25412640Y-87814466D02*
X26031687Y-87814466D01*
D13*
X106218819Y-55165523D02*
X106933104Y-55165523D01*
X106933104Y-55165523D02*
X107075961Y-55213142D01*
X107075961Y-55213142D02*
X107171200Y-55308380D01*
X107171200Y-55308380D02*
X107218819Y-55451237D01*
X107218819Y-55451237D02*
X107218819Y-55546475D01*
X106218819Y-54784570D02*
X106218819Y-54117904D01*
X106218819Y-54117904D02*
X107218819Y-54546475D01*
X106218819Y-53260761D02*
X106218819Y-53736951D01*
X106218819Y-53736951D02*
X106695009Y-53784570D01*
X106695009Y-53784570D02*
X106647390Y-53736951D01*
X106647390Y-53736951D02*
X106599771Y-53641713D01*
X106599771Y-53641713D02*
X106599771Y-53403618D01*
X106599771Y-53403618D02*
X106647390Y-53308380D01*
X106647390Y-53308380D02*
X106695009Y-53260761D01*
X106695009Y-53260761D02*
X106790247Y-53213142D01*
X106790247Y-53213142D02*
X107028342Y-53213142D01*
X107028342Y-53213142D02*
X107123580Y-53260761D01*
X107123580Y-53260761D02*
X107171200Y-53308380D01*
X107171200Y-53308380D02*
X107218819Y-53403618D01*
X107218819Y-53403618D02*
X107218819Y-53641713D01*
X107218819Y-53641713D02*
X107171200Y-53736951D01*
X107171200Y-53736951D02*
X107123580Y-53784570D01*
D12*
X91059306Y-56704466D02*
X91059306Y-57418751D01*
X91059306Y-57418751D02*
X91011687Y-57561608D01*
X91011687Y-57561608D02*
X90916449Y-57656847D01*
X90916449Y-57656847D02*
X90773592Y-57704466D01*
X90773592Y-57704466D02*
X90678354Y-57704466D01*
X91440259Y-56704466D02*
X92059306Y-56704466D01*
X92059306Y-56704466D02*
X91725973Y-57085418D01*
X91725973Y-57085418D02*
X91868830Y-57085418D01*
X91868830Y-57085418D02*
X91964068Y-57133037D01*
X91964068Y-57133037D02*
X92011687Y-57180656D01*
X92011687Y-57180656D02*
X92059306Y-57275894D01*
X92059306Y-57275894D02*
X92059306Y-57513989D01*
X92059306Y-57513989D02*
X92011687Y-57609227D01*
X92011687Y-57609227D02*
X91964068Y-57656847D01*
X91964068Y-57656847D02*
X91868830Y-57704466D01*
X91868830Y-57704466D02*
X91583116Y-57704466D01*
X91583116Y-57704466D02*
X91487878Y-57656847D01*
X91487878Y-57656847D02*
X91440259Y-57609227D01*
X92392640Y-56704466D02*
X93059306Y-56704466D01*
X93059306Y-56704466D02*
X92630735Y-57704466D01*
D13*
X87826944Y-93289179D02*
X88085763Y-92323253D01*
X88085763Y-92323253D02*
X88315745Y-92384876D01*
X88315745Y-92384876D02*
X88441410Y-92467847D01*
X88441410Y-92467847D02*
X88508753Y-92584489D01*
X88508753Y-92584489D02*
X88530100Y-92688807D01*
X88530100Y-92688807D02*
X88526798Y-92885118D01*
X88526798Y-92885118D02*
X88489824Y-93023107D01*
X88489824Y-93023107D02*
X88394528Y-93194768D01*
X88394528Y-93194768D02*
X88323883Y-93274436D01*
X88323883Y-93274436D02*
X88207240Y-93341780D01*
X88207240Y-93341780D02*
X88056926Y-93350802D01*
X88056926Y-93350802D02*
X87826944Y-93289179D01*
X88959696Y-92557422D02*
X89557650Y-92717644D01*
X89557650Y-92717644D02*
X89137077Y-92999343D01*
X89137077Y-92999343D02*
X89275066Y-93036317D01*
X89275066Y-93036317D02*
X89354734Y-93106963D01*
X89354734Y-93106963D02*
X89388406Y-93165284D01*
X89388406Y-93165284D02*
X89409753Y-93269601D01*
X89409753Y-93269601D02*
X89348130Y-93499584D01*
X89348130Y-93499584D02*
X89277484Y-93579252D01*
X89277484Y-93579252D02*
X89219162Y-93612924D01*
X89219162Y-93612924D02*
X89114845Y-93634271D01*
X89114845Y-93634271D02*
X88838866Y-93560322D01*
X88838866Y-93560322D02*
X88759198Y-93489677D01*
X88759198Y-93489677D02*
X88725526Y-93431355D01*
X90218760Y-93930064D02*
X89666802Y-93782167D01*
X89942781Y-93856116D02*
X90201600Y-92890190D01*
X90201600Y-92890190D02*
X90072633Y-93003530D01*
X90072633Y-93003530D02*
X89955991Y-93070873D01*
X89955991Y-93070873D02*
X89851673Y-93092220D01*
D12*
X43031687Y-40814466D02*
X43031687Y-41528751D01*
X43031687Y-41528751D02*
X42984068Y-41671608D01*
X42984068Y-41671608D02*
X42888830Y-41766847D01*
X42888830Y-41766847D02*
X42745973Y-41814466D01*
X42745973Y-41814466D02*
X42650735Y-41814466D01*
X43936449Y-40814466D02*
X43745973Y-40814466D01*
X43745973Y-40814466D02*
X43650735Y-40862085D01*
X43650735Y-40862085D02*
X43603116Y-40909704D01*
X43603116Y-40909704D02*
X43507878Y-41052561D01*
X43507878Y-41052561D02*
X43460259Y-41243037D01*
X43460259Y-41243037D02*
X43460259Y-41623989D01*
X43460259Y-41623989D02*
X43507878Y-41719227D01*
X43507878Y-41719227D02*
X43555497Y-41766847D01*
X43555497Y-41766847D02*
X43650735Y-41814466D01*
X43650735Y-41814466D02*
X43841211Y-41814466D01*
X43841211Y-41814466D02*
X43936449Y-41766847D01*
X43936449Y-41766847D02*
X43984068Y-41719227D01*
X43984068Y-41719227D02*
X44031687Y-41623989D01*
X44031687Y-41623989D02*
X44031687Y-41385894D01*
X44031687Y-41385894D02*
X43984068Y-41290656D01*
X43984068Y-41290656D02*
X43936449Y-41243037D01*
X43936449Y-41243037D02*
X43841211Y-41195418D01*
X43841211Y-41195418D02*
X43650735Y-41195418D01*
X43650735Y-41195418D02*
X43555497Y-41243037D01*
X43555497Y-41243037D02*
X43507878Y-41290656D01*
X43507878Y-41290656D02*
X43460259Y-41385894D01*
X38031687Y-38714466D02*
X38031687Y-39428751D01*
X38031687Y-39428751D02*
X37984068Y-39571608D01*
X37984068Y-39571608D02*
X37888830Y-39666847D01*
X37888830Y-39666847D02*
X37745973Y-39714466D01*
X37745973Y-39714466D02*
X37650735Y-39714466D01*
X38984068Y-38714466D02*
X38507878Y-38714466D01*
X38507878Y-38714466D02*
X38460259Y-39190656D01*
X38460259Y-39190656D02*
X38507878Y-39143037D01*
X38507878Y-39143037D02*
X38603116Y-39095418D01*
X38603116Y-39095418D02*
X38841211Y-39095418D01*
X38841211Y-39095418D02*
X38936449Y-39143037D01*
X38936449Y-39143037D02*
X38984068Y-39190656D01*
X38984068Y-39190656D02*
X39031687Y-39285894D01*
X39031687Y-39285894D02*
X39031687Y-39523989D01*
X39031687Y-39523989D02*
X38984068Y-39619227D01*
X38984068Y-39619227D02*
X38936449Y-39666847D01*
X38936449Y-39666847D02*
X38841211Y-39714466D01*
X38841211Y-39714466D02*
X38603116Y-39714466D01*
X38603116Y-39714466D02*
X38507878Y-39666847D01*
X38507878Y-39666847D02*
X38460259Y-39619227D01*
D13*
X43865714Y-45158819D02*
X43865714Y-44158819D01*
X43865714Y-44158819D02*
X44103809Y-44158819D01*
X44103809Y-44158819D02*
X44246666Y-44206438D01*
X44246666Y-44206438D02*
X44341904Y-44301676D01*
X44341904Y-44301676D02*
X44389523Y-44396914D01*
X44389523Y-44396914D02*
X44437142Y-44587390D01*
X44437142Y-44587390D02*
X44437142Y-44730247D01*
X44437142Y-44730247D02*
X44389523Y-44920723D01*
X44389523Y-44920723D02*
X44341904Y-45015961D01*
X44341904Y-45015961D02*
X44246666Y-45111200D01*
X44246666Y-45111200D02*
X44103809Y-45158819D01*
X44103809Y-45158819D02*
X43865714Y-45158819D01*
X45389523Y-45158819D02*
X44818095Y-45158819D01*
X45103809Y-45158819D02*
X45103809Y-44158819D01*
X45103809Y-44158819D02*
X45008571Y-44301676D01*
X45008571Y-44301676D02*
X44913333Y-44396914D01*
X44913333Y-44396914D02*
X44818095Y-44444533D01*
X45722857Y-44158819D02*
X46341904Y-44158819D01*
X46341904Y-44158819D02*
X46008571Y-44539771D01*
X46008571Y-44539771D02*
X46151428Y-44539771D01*
X46151428Y-44539771D02*
X46246666Y-44587390D01*
X46246666Y-44587390D02*
X46294285Y-44635009D01*
X46294285Y-44635009D02*
X46341904Y-44730247D01*
X46341904Y-44730247D02*
X46341904Y-44968342D01*
X46341904Y-44968342D02*
X46294285Y-45063580D01*
X46294285Y-45063580D02*
X46246666Y-45111200D01*
X46246666Y-45111200D02*
X46151428Y-45158819D01*
X46151428Y-45158819D02*
X45865714Y-45158819D01*
X45865714Y-45158819D02*
X45770476Y-45111200D01*
X45770476Y-45111200D02*
X45722857Y-45063580D01*
X97845714Y-63192819D02*
X97845714Y-62192819D01*
X97845714Y-62192819D02*
X98083809Y-62192819D01*
X98083809Y-62192819D02*
X98226666Y-62240438D01*
X98226666Y-62240438D02*
X98321904Y-62335676D01*
X98321904Y-62335676D02*
X98369523Y-62430914D01*
X98369523Y-62430914D02*
X98417142Y-62621390D01*
X98417142Y-62621390D02*
X98417142Y-62764247D01*
X98417142Y-62764247D02*
X98369523Y-62954723D01*
X98369523Y-62954723D02*
X98321904Y-63049961D01*
X98321904Y-63049961D02*
X98226666Y-63145200D01*
X98226666Y-63145200D02*
X98083809Y-63192819D01*
X98083809Y-63192819D02*
X97845714Y-63192819D01*
X98798095Y-62288057D02*
X98845714Y-62240438D01*
X98845714Y-62240438D02*
X98940952Y-62192819D01*
X98940952Y-62192819D02*
X99179047Y-62192819D01*
X99179047Y-62192819D02*
X99274285Y-62240438D01*
X99274285Y-62240438D02*
X99321904Y-62288057D01*
X99321904Y-62288057D02*
X99369523Y-62383295D01*
X99369523Y-62383295D02*
X99369523Y-62478533D01*
X99369523Y-62478533D02*
X99321904Y-62621390D01*
X99321904Y-62621390D02*
X98750476Y-63192819D01*
X98750476Y-63192819D02*
X99369523Y-63192819D01*
X99845714Y-63192819D02*
X100036190Y-63192819D01*
X100036190Y-63192819D02*
X100131428Y-63145200D01*
X100131428Y-63145200D02*
X100179047Y-63097580D01*
X100179047Y-63097580D02*
X100274285Y-62954723D01*
X100274285Y-62954723D02*
X100321904Y-62764247D01*
X100321904Y-62764247D02*
X100321904Y-62383295D01*
X100321904Y-62383295D02*
X100274285Y-62288057D01*
X100274285Y-62288057D02*
X100226666Y-62240438D01*
X100226666Y-62240438D02*
X100131428Y-62192819D01*
X100131428Y-62192819D02*
X99940952Y-62192819D01*
X99940952Y-62192819D02*
X99845714Y-62240438D01*
X99845714Y-62240438D02*
X99798095Y-62288057D01*
X99798095Y-62288057D02*
X99750476Y-62383295D01*
X99750476Y-62383295D02*
X99750476Y-62621390D01*
X99750476Y-62621390D02*
X99798095Y-62716628D01*
X99798095Y-62716628D02*
X99845714Y-62764247D01*
X99845714Y-62764247D02*
X99940952Y-62811866D01*
X99940952Y-62811866D02*
X100131428Y-62811866D01*
X100131428Y-62811866D02*
X100226666Y-62764247D01*
X100226666Y-62764247D02*
X100274285Y-62716628D01*
X100274285Y-62716628D02*
X100321904Y-62621390D01*
D12*
X37079306Y-72706466D02*
X37079306Y-73420751D01*
X37079306Y-73420751D02*
X37031687Y-73563608D01*
X37031687Y-73563608D02*
X36936449Y-73658847D01*
X36936449Y-73658847D02*
X36793592Y-73706466D01*
X36793592Y-73706466D02*
X36698354Y-73706466D01*
X37984068Y-73039799D02*
X37984068Y-73706466D01*
X37745973Y-72658847D02*
X37507878Y-73373132D01*
X37507878Y-73373132D02*
X38126925Y-73373132D01*
X38984068Y-72706466D02*
X38507878Y-72706466D01*
X38507878Y-72706466D02*
X38460259Y-73182656D01*
X38460259Y-73182656D02*
X38507878Y-73135037D01*
X38507878Y-73135037D02*
X38603116Y-73087418D01*
X38603116Y-73087418D02*
X38841211Y-73087418D01*
X38841211Y-73087418D02*
X38936449Y-73135037D01*
X38936449Y-73135037D02*
X38984068Y-73182656D01*
X38984068Y-73182656D02*
X39031687Y-73277894D01*
X39031687Y-73277894D02*
X39031687Y-73515989D01*
X39031687Y-73515989D02*
X38984068Y-73611227D01*
X38984068Y-73611227D02*
X38936449Y-73658847D01*
X38936449Y-73658847D02*
X38841211Y-73706466D01*
X38841211Y-73706466D02*
X38603116Y-73706466D01*
X38603116Y-73706466D02*
X38507878Y-73658847D01*
X38507878Y-73658847D02*
X38460259Y-73611227D01*
D13*
X61865714Y-38300819D02*
X61865714Y-37300819D01*
X61865714Y-37300819D02*
X62103809Y-37300819D01*
X62103809Y-37300819D02*
X62246666Y-37348438D01*
X62246666Y-37348438D02*
X62341904Y-37443676D01*
X62341904Y-37443676D02*
X62389523Y-37538914D01*
X62389523Y-37538914D02*
X62437142Y-37729390D01*
X62437142Y-37729390D02*
X62437142Y-37872247D01*
X62437142Y-37872247D02*
X62389523Y-38062723D01*
X62389523Y-38062723D02*
X62341904Y-38157961D01*
X62341904Y-38157961D02*
X62246666Y-38253200D01*
X62246666Y-38253200D02*
X62103809Y-38300819D01*
X62103809Y-38300819D02*
X61865714Y-38300819D01*
X63389523Y-38300819D02*
X62818095Y-38300819D01*
X63103809Y-38300819D02*
X63103809Y-37300819D01*
X63103809Y-37300819D02*
X63008571Y-37443676D01*
X63008571Y-37443676D02*
X62913333Y-37538914D01*
X62913333Y-37538914D02*
X62818095Y-37586533D01*
X64294285Y-37300819D02*
X63818095Y-37300819D01*
X63818095Y-37300819D02*
X63770476Y-37777009D01*
X63770476Y-37777009D02*
X63818095Y-37729390D01*
X63818095Y-37729390D02*
X63913333Y-37681771D01*
X63913333Y-37681771D02*
X64151428Y-37681771D01*
X64151428Y-37681771D02*
X64246666Y-37729390D01*
X64246666Y-37729390D02*
X64294285Y-37777009D01*
X64294285Y-37777009D02*
X64341904Y-37872247D01*
X64341904Y-37872247D02*
X64341904Y-38110342D01*
X64341904Y-38110342D02*
X64294285Y-38205580D01*
X64294285Y-38205580D02*
X64246666Y-38253200D01*
X64246666Y-38253200D02*
X64151428Y-38300819D01*
X64151428Y-38300819D02*
X63913333Y-38300819D01*
X63913333Y-38300819D02*
X63818095Y-38253200D01*
X63818095Y-38253200D02*
X63770476Y-38205580D01*
D12*
X96059306Y-75822466D02*
X96059306Y-76536751D01*
X96059306Y-76536751D02*
X96011687Y-76679608D01*
X96011687Y-76679608D02*
X95916449Y-76774847D01*
X95916449Y-76774847D02*
X95773592Y-76822466D01*
X95773592Y-76822466D02*
X95678354Y-76822466D01*
X97011687Y-75822466D02*
X96535497Y-75822466D01*
X96535497Y-75822466D02*
X96487878Y-76298656D01*
X96487878Y-76298656D02*
X96535497Y-76251037D01*
X96535497Y-76251037D02*
X96630735Y-76203418D01*
X96630735Y-76203418D02*
X96868830Y-76203418D01*
X96868830Y-76203418D02*
X96964068Y-76251037D01*
X96964068Y-76251037D02*
X97011687Y-76298656D01*
X97011687Y-76298656D02*
X97059306Y-76393894D01*
X97059306Y-76393894D02*
X97059306Y-76631989D01*
X97059306Y-76631989D02*
X97011687Y-76727227D01*
X97011687Y-76727227D02*
X96964068Y-76774847D01*
X96964068Y-76774847D02*
X96868830Y-76822466D01*
X96868830Y-76822466D02*
X96630735Y-76822466D01*
X96630735Y-76822466D02*
X96535497Y-76774847D01*
X96535497Y-76774847D02*
X96487878Y-76727227D01*
X97630735Y-76251037D02*
X97535497Y-76203418D01*
X97535497Y-76203418D02*
X97487878Y-76155799D01*
X97487878Y-76155799D02*
X97440259Y-76060561D01*
X97440259Y-76060561D02*
X97440259Y-76012942D01*
X97440259Y-76012942D02*
X97487878Y-75917704D01*
X97487878Y-75917704D02*
X97535497Y-75870085D01*
X97535497Y-75870085D02*
X97630735Y-75822466D01*
X97630735Y-75822466D02*
X97821211Y-75822466D01*
X97821211Y-75822466D02*
X97916449Y-75870085D01*
X97916449Y-75870085D02*
X97964068Y-75917704D01*
X97964068Y-75917704D02*
X98011687Y-76012942D01*
X98011687Y-76012942D02*
X98011687Y-76060561D01*
X98011687Y-76060561D02*
X97964068Y-76155799D01*
X97964068Y-76155799D02*
X97916449Y-76203418D01*
X97916449Y-76203418D02*
X97821211Y-76251037D01*
X97821211Y-76251037D02*
X97630735Y-76251037D01*
X97630735Y-76251037D02*
X97535497Y-76298656D01*
X97535497Y-76298656D02*
X97487878Y-76346275D01*
X97487878Y-76346275D02*
X97440259Y-76441513D01*
X97440259Y-76441513D02*
X97440259Y-76631989D01*
X97440259Y-76631989D02*
X97487878Y-76727227D01*
X97487878Y-76727227D02*
X97535497Y-76774847D01*
X97535497Y-76774847D02*
X97630735Y-76822466D01*
X97630735Y-76822466D02*
X97821211Y-76822466D01*
X97821211Y-76822466D02*
X97916449Y-76774847D01*
X97916449Y-76774847D02*
X97964068Y-76727227D01*
X97964068Y-76727227D02*
X98011687Y-76631989D01*
X98011687Y-76631989D02*
X98011687Y-76441513D01*
X98011687Y-76441513D02*
X97964068Y-76346275D01*
X97964068Y-76346275D02*
X97916449Y-76298656D01*
X97916449Y-76298656D02*
X97821211Y-76251037D01*
D13*
X79865714Y-43634819D02*
X79865714Y-42634819D01*
X79865714Y-42634819D02*
X80103809Y-42634819D01*
X80103809Y-42634819D02*
X80246666Y-42682438D01*
X80246666Y-42682438D02*
X80341904Y-42777676D01*
X80341904Y-42777676D02*
X80389523Y-42872914D01*
X80389523Y-42872914D02*
X80437142Y-43063390D01*
X80437142Y-43063390D02*
X80437142Y-43206247D01*
X80437142Y-43206247D02*
X80389523Y-43396723D01*
X80389523Y-43396723D02*
X80341904Y-43491961D01*
X80341904Y-43491961D02*
X80246666Y-43587200D01*
X80246666Y-43587200D02*
X80103809Y-43634819D01*
X80103809Y-43634819D02*
X79865714Y-43634819D01*
X81389523Y-43634819D02*
X80818095Y-43634819D01*
X81103809Y-43634819D02*
X81103809Y-42634819D01*
X81103809Y-42634819D02*
X81008571Y-42777676D01*
X81008571Y-42777676D02*
X80913333Y-42872914D01*
X80913333Y-42872914D02*
X80818095Y-42920533D01*
X81722857Y-42634819D02*
X82389523Y-42634819D01*
X82389523Y-42634819D02*
X81960952Y-43634819D01*
D12*
X109305306Y-90504916D02*
X109305306Y-91219201D01*
X109305306Y-91219201D02*
X109257687Y-91362058D01*
X109257687Y-91362058D02*
X109162449Y-91457297D01*
X109162449Y-91457297D02*
X109019592Y-91504916D01*
X109019592Y-91504916D02*
X108924354Y-91504916D01*
X110210068Y-90504916D02*
X110019592Y-90504916D01*
X110019592Y-90504916D02*
X109924354Y-90552535D01*
X109924354Y-90552535D02*
X109876735Y-90600154D01*
X109876735Y-90600154D02*
X109781497Y-90743011D01*
X109781497Y-90743011D02*
X109733878Y-90933487D01*
X109733878Y-90933487D02*
X109733878Y-91314439D01*
X109733878Y-91314439D02*
X109781497Y-91409677D01*
X109781497Y-91409677D02*
X109829116Y-91457297D01*
X109829116Y-91457297D02*
X109924354Y-91504916D01*
X109924354Y-91504916D02*
X110114830Y-91504916D01*
X110114830Y-91504916D02*
X110210068Y-91457297D01*
X110210068Y-91457297D02*
X110257687Y-91409677D01*
X110257687Y-91409677D02*
X110305306Y-91314439D01*
X110305306Y-91314439D02*
X110305306Y-91076344D01*
X110305306Y-91076344D02*
X110257687Y-90981106D01*
X110257687Y-90981106D02*
X110210068Y-90933487D01*
X110210068Y-90933487D02*
X110114830Y-90885868D01*
X110114830Y-90885868D02*
X109924354Y-90885868D01*
X109924354Y-90885868D02*
X109829116Y-90933487D01*
X109829116Y-90933487D02*
X109781497Y-90981106D01*
X109781497Y-90981106D02*
X109733878Y-91076344D01*
X111162449Y-90504916D02*
X110971973Y-90504916D01*
X110971973Y-90504916D02*
X110876735Y-90552535D01*
X110876735Y-90552535D02*
X110829116Y-90600154D01*
X110829116Y-90600154D02*
X110733878Y-90743011D01*
X110733878Y-90743011D02*
X110686259Y-90933487D01*
X110686259Y-90933487D02*
X110686259Y-91314439D01*
X110686259Y-91314439D02*
X110733878Y-91409677D01*
X110733878Y-91409677D02*
X110781497Y-91457297D01*
X110781497Y-91457297D02*
X110876735Y-91504916D01*
X110876735Y-91504916D02*
X111067211Y-91504916D01*
X111067211Y-91504916D02*
X111162449Y-91457297D01*
X111162449Y-91457297D02*
X111210068Y-91409677D01*
X111210068Y-91409677D02*
X111257687Y-91314439D01*
X111257687Y-91314439D02*
X111257687Y-91076344D01*
X111257687Y-91076344D02*
X111210068Y-90981106D01*
X111210068Y-90981106D02*
X111162449Y-90933487D01*
X111162449Y-90933487D02*
X111067211Y-90885868D01*
X111067211Y-90885868D02*
X110876735Y-90885868D01*
X110876735Y-90885868D02*
X110781497Y-90933487D01*
X110781497Y-90933487D02*
X110733878Y-90981106D01*
X110733878Y-90981106D02*
X110686259Y-91076344D01*
D13*
X125682476Y-56264819D02*
X125682476Y-56979104D01*
X125682476Y-56979104D02*
X125634857Y-57121961D01*
X125634857Y-57121961D02*
X125539619Y-57217200D01*
X125539619Y-57217200D02*
X125396762Y-57264819D01*
X125396762Y-57264819D02*
X125301524Y-57264819D01*
X126063429Y-56264819D02*
X126730095Y-56264819D01*
X126730095Y-56264819D02*
X126301524Y-57264819D01*
X127634857Y-57264819D02*
X127063429Y-57264819D01*
X127349143Y-57264819D02*
X127349143Y-56264819D01*
X127349143Y-56264819D02*
X127253905Y-56407676D01*
X127253905Y-56407676D02*
X127158667Y-56502914D01*
X127158667Y-56502914D02*
X127063429Y-56550533D01*
D12*
X96059306Y-58804466D02*
X96059306Y-59518751D01*
X96059306Y-59518751D02*
X96011687Y-59661608D01*
X96011687Y-59661608D02*
X95916449Y-59756847D01*
X95916449Y-59756847D02*
X95773592Y-59804466D01*
X95773592Y-59804466D02*
X95678354Y-59804466D01*
X96440259Y-58804466D02*
X97059306Y-58804466D01*
X97059306Y-58804466D02*
X96725973Y-59185418D01*
X96725973Y-59185418D02*
X96868830Y-59185418D01*
X96868830Y-59185418D02*
X96964068Y-59233037D01*
X96964068Y-59233037D02*
X97011687Y-59280656D01*
X97011687Y-59280656D02*
X97059306Y-59375894D01*
X97059306Y-59375894D02*
X97059306Y-59613989D01*
X97059306Y-59613989D02*
X97011687Y-59709227D01*
X97011687Y-59709227D02*
X96964068Y-59756847D01*
X96964068Y-59756847D02*
X96868830Y-59804466D01*
X96868830Y-59804466D02*
X96583116Y-59804466D01*
X96583116Y-59804466D02*
X96487878Y-59756847D01*
X96487878Y-59756847D02*
X96440259Y-59709227D01*
X97630735Y-59233037D02*
X97535497Y-59185418D01*
X97535497Y-59185418D02*
X97487878Y-59137799D01*
X97487878Y-59137799D02*
X97440259Y-59042561D01*
X97440259Y-59042561D02*
X97440259Y-58994942D01*
X97440259Y-58994942D02*
X97487878Y-58899704D01*
X97487878Y-58899704D02*
X97535497Y-58852085D01*
X97535497Y-58852085D02*
X97630735Y-58804466D01*
X97630735Y-58804466D02*
X97821211Y-58804466D01*
X97821211Y-58804466D02*
X97916449Y-58852085D01*
X97916449Y-58852085D02*
X97964068Y-58899704D01*
X97964068Y-58899704D02*
X98011687Y-58994942D01*
X98011687Y-58994942D02*
X98011687Y-59042561D01*
X98011687Y-59042561D02*
X97964068Y-59137799D01*
X97964068Y-59137799D02*
X97916449Y-59185418D01*
X97916449Y-59185418D02*
X97821211Y-59233037D01*
X97821211Y-59233037D02*
X97630735Y-59233037D01*
X97630735Y-59233037D02*
X97535497Y-59280656D01*
X97535497Y-59280656D02*
X97487878Y-59328275D01*
X97487878Y-59328275D02*
X97440259Y-59423513D01*
X97440259Y-59423513D02*
X97440259Y-59613989D01*
X97440259Y-59613989D02*
X97487878Y-59709227D01*
X97487878Y-59709227D02*
X97535497Y-59756847D01*
X97535497Y-59756847D02*
X97630735Y-59804466D01*
X97630735Y-59804466D02*
X97821211Y-59804466D01*
X97821211Y-59804466D02*
X97916449Y-59756847D01*
X97916449Y-59756847D02*
X97964068Y-59709227D01*
X97964068Y-59709227D02*
X98011687Y-59613989D01*
X98011687Y-59613989D02*
X98011687Y-59423513D01*
X98011687Y-59423513D02*
X97964068Y-59328275D01*
X97964068Y-59328275D02*
X97916449Y-59280656D01*
X97916449Y-59280656D02*
X97821211Y-59233037D01*
D13*
X26341905Y-40184819D02*
X26341905Y-39184819D01*
X26341905Y-39184819D02*
X26580000Y-39184819D01*
X26580000Y-39184819D02*
X26722857Y-39232438D01*
X26722857Y-39232438D02*
X26818095Y-39327676D01*
X26818095Y-39327676D02*
X26865714Y-39422914D01*
X26865714Y-39422914D02*
X26913333Y-39613390D01*
X26913333Y-39613390D02*
X26913333Y-39756247D01*
X26913333Y-39756247D02*
X26865714Y-39946723D01*
X26865714Y-39946723D02*
X26818095Y-40041961D01*
X26818095Y-40041961D02*
X26722857Y-40137200D01*
X26722857Y-40137200D02*
X26580000Y-40184819D01*
X26580000Y-40184819D02*
X26341905Y-40184819D01*
X27865714Y-40184819D02*
X27294286Y-40184819D01*
X27580000Y-40184819D02*
X27580000Y-39184819D01*
X27580000Y-39184819D02*
X27484762Y-39327676D01*
X27484762Y-39327676D02*
X27389524Y-39422914D01*
X27389524Y-39422914D02*
X27294286Y-39470533D01*
X110442476Y-56264819D02*
X110442476Y-56979104D01*
X110442476Y-56979104D02*
X110394857Y-57121961D01*
X110394857Y-57121961D02*
X110299619Y-57217200D01*
X110299619Y-57217200D02*
X110156762Y-57264819D01*
X110156762Y-57264819D02*
X110061524Y-57264819D01*
X111347238Y-56264819D02*
X111156762Y-56264819D01*
X111156762Y-56264819D02*
X111061524Y-56312438D01*
X111061524Y-56312438D02*
X111013905Y-56360057D01*
X111013905Y-56360057D02*
X110918667Y-56502914D01*
X110918667Y-56502914D02*
X110871048Y-56693390D01*
X110871048Y-56693390D02*
X110871048Y-57074342D01*
X110871048Y-57074342D02*
X110918667Y-57169580D01*
X110918667Y-57169580D02*
X110966286Y-57217200D01*
X110966286Y-57217200D02*
X111061524Y-57264819D01*
X111061524Y-57264819D02*
X111252000Y-57264819D01*
X111252000Y-57264819D02*
X111347238Y-57217200D01*
X111347238Y-57217200D02*
X111394857Y-57169580D01*
X111394857Y-57169580D02*
X111442476Y-57074342D01*
X111442476Y-57074342D02*
X111442476Y-56836247D01*
X111442476Y-56836247D02*
X111394857Y-56741009D01*
X111394857Y-56741009D02*
X111347238Y-56693390D01*
X111347238Y-56693390D02*
X111252000Y-56645771D01*
X111252000Y-56645771D02*
X111061524Y-56645771D01*
X111061524Y-56645771D02*
X110966286Y-56693390D01*
X110966286Y-56693390D02*
X110918667Y-56741009D01*
X110918667Y-56741009D02*
X110871048Y-56836247D01*
X111918667Y-57264819D02*
X112109143Y-57264819D01*
X112109143Y-57264819D02*
X112204381Y-57217200D01*
X112204381Y-57217200D02*
X112252000Y-57169580D01*
X112252000Y-57169580D02*
X112347238Y-57026723D01*
X112347238Y-57026723D02*
X112394857Y-56836247D01*
X112394857Y-56836247D02*
X112394857Y-56455295D01*
X112394857Y-56455295D02*
X112347238Y-56360057D01*
X112347238Y-56360057D02*
X112299619Y-56312438D01*
X112299619Y-56312438D02*
X112204381Y-56264819D01*
X112204381Y-56264819D02*
X112013905Y-56264819D01*
X112013905Y-56264819D02*
X111918667Y-56312438D01*
X111918667Y-56312438D02*
X111871048Y-56360057D01*
X111871048Y-56360057D02*
X111823429Y-56455295D01*
X111823429Y-56455295D02*
X111823429Y-56693390D01*
X111823429Y-56693390D02*
X111871048Y-56788628D01*
X111871048Y-56788628D02*
X111918667Y-56836247D01*
X111918667Y-56836247D02*
X112013905Y-56883866D01*
X112013905Y-56883866D02*
X112204381Y-56883866D01*
X112204381Y-56883866D02*
X112299619Y-56836247D01*
X112299619Y-56836247D02*
X112347238Y-56788628D01*
X112347238Y-56788628D02*
X112394857Y-56693390D01*
D12*
X89322338Y-82165504D02*
X89322338Y-82879789D01*
X89322338Y-82879789D02*
X89274719Y-83022646D01*
X89274719Y-83022646D02*
X89179481Y-83117885D01*
X89179481Y-83117885D02*
X89036624Y-83165504D01*
X89036624Y-83165504D02*
X88941386Y-83165504D01*
X90227100Y-82165504D02*
X90036624Y-82165504D01*
X90036624Y-82165504D02*
X89941386Y-82213123D01*
X89941386Y-82213123D02*
X89893767Y-82260742D01*
X89893767Y-82260742D02*
X89798529Y-82403599D01*
X89798529Y-82403599D02*
X89750910Y-82594075D01*
X89750910Y-82594075D02*
X89750910Y-82975027D01*
X89750910Y-82975027D02*
X89798529Y-83070265D01*
X89798529Y-83070265D02*
X89846148Y-83117885D01*
X89846148Y-83117885D02*
X89941386Y-83165504D01*
X89941386Y-83165504D02*
X90131862Y-83165504D01*
X90131862Y-83165504D02*
X90227100Y-83117885D01*
X90227100Y-83117885D02*
X90274719Y-83070265D01*
X90274719Y-83070265D02*
X90322338Y-82975027D01*
X90322338Y-82975027D02*
X90322338Y-82736932D01*
X90322338Y-82736932D02*
X90274719Y-82641694D01*
X90274719Y-82641694D02*
X90227100Y-82594075D01*
X90227100Y-82594075D02*
X90131862Y-82546456D01*
X90131862Y-82546456D02*
X89941386Y-82546456D01*
X89941386Y-82546456D02*
X89846148Y-82594075D01*
X89846148Y-82594075D02*
X89798529Y-82641694D01*
X89798529Y-82641694D02*
X89750910Y-82736932D01*
X90703291Y-82260742D02*
X90750910Y-82213123D01*
X90750910Y-82213123D02*
X90846148Y-82165504D01*
X90846148Y-82165504D02*
X91084243Y-82165504D01*
X91084243Y-82165504D02*
X91179481Y-82213123D01*
X91179481Y-82213123D02*
X91227100Y-82260742D01*
X91227100Y-82260742D02*
X91274719Y-82355980D01*
X91274719Y-82355980D02*
X91274719Y-82451218D01*
X91274719Y-82451218D02*
X91227100Y-82594075D01*
X91227100Y-82594075D02*
X90655672Y-83165504D01*
X90655672Y-83165504D02*
X91274719Y-83165504D01*
D13*
X80341905Y-26684819D02*
X80341905Y-25684819D01*
X80341905Y-25684819D02*
X80580000Y-25684819D01*
X80580000Y-25684819D02*
X80722857Y-25732438D01*
X80722857Y-25732438D02*
X80818095Y-25827676D01*
X80818095Y-25827676D02*
X80865714Y-25922914D01*
X80865714Y-25922914D02*
X80913333Y-26113390D01*
X80913333Y-26113390D02*
X80913333Y-26256247D01*
X80913333Y-26256247D02*
X80865714Y-26446723D01*
X80865714Y-26446723D02*
X80818095Y-26541961D01*
X80818095Y-26541961D02*
X80722857Y-26637200D01*
X80722857Y-26637200D02*
X80580000Y-26684819D01*
X80580000Y-26684819D02*
X80341905Y-26684819D01*
X81246667Y-25684819D02*
X81913333Y-25684819D01*
X81913333Y-25684819D02*
X81484762Y-26684819D01*
D12*
X55079306Y-48830466D02*
X55079306Y-49544751D01*
X55079306Y-49544751D02*
X55031687Y-49687608D01*
X55031687Y-49687608D02*
X54936449Y-49782847D01*
X54936449Y-49782847D02*
X54793592Y-49830466D01*
X54793592Y-49830466D02*
X54698354Y-49830466D01*
X55507878Y-48925704D02*
X55555497Y-48878085D01*
X55555497Y-48878085D02*
X55650735Y-48830466D01*
X55650735Y-48830466D02*
X55888830Y-48830466D01*
X55888830Y-48830466D02*
X55984068Y-48878085D01*
X55984068Y-48878085D02*
X56031687Y-48925704D01*
X56031687Y-48925704D02*
X56079306Y-49020942D01*
X56079306Y-49020942D02*
X56079306Y-49116180D01*
X56079306Y-49116180D02*
X56031687Y-49259037D01*
X56031687Y-49259037D02*
X55460259Y-49830466D01*
X55460259Y-49830466D02*
X56079306Y-49830466D01*
X56555497Y-49830466D02*
X56745973Y-49830466D01*
X56745973Y-49830466D02*
X56841211Y-49782847D01*
X56841211Y-49782847D02*
X56888830Y-49735227D01*
X56888830Y-49735227D02*
X56984068Y-49592370D01*
X56984068Y-49592370D02*
X57031687Y-49401894D01*
X57031687Y-49401894D02*
X57031687Y-49020942D01*
X57031687Y-49020942D02*
X56984068Y-48925704D01*
X56984068Y-48925704D02*
X56936449Y-48878085D01*
X56936449Y-48878085D02*
X56841211Y-48830466D01*
X56841211Y-48830466D02*
X56650735Y-48830466D01*
X56650735Y-48830466D02*
X56555497Y-48878085D01*
X56555497Y-48878085D02*
X56507878Y-48925704D01*
X56507878Y-48925704D02*
X56460259Y-49020942D01*
X56460259Y-49020942D02*
X56460259Y-49259037D01*
X56460259Y-49259037D02*
X56507878Y-49354275D01*
X56507878Y-49354275D02*
X56555497Y-49401894D01*
X56555497Y-49401894D02*
X56650735Y-49449513D01*
X56650735Y-49449513D02*
X56841211Y-49449513D01*
X56841211Y-49449513D02*
X56936449Y-49401894D01*
X56936449Y-49401894D02*
X56984068Y-49354275D01*
X56984068Y-49354275D02*
X57031687Y-49259037D01*
X78079306Y-73282466D02*
X78079306Y-73996751D01*
X78079306Y-73996751D02*
X78031687Y-74139608D01*
X78031687Y-74139608D02*
X77936449Y-74234847D01*
X77936449Y-74234847D02*
X77793592Y-74282466D01*
X77793592Y-74282466D02*
X77698354Y-74282466D01*
X79031687Y-73282466D02*
X78555497Y-73282466D01*
X78555497Y-73282466D02*
X78507878Y-73758656D01*
X78507878Y-73758656D02*
X78555497Y-73711037D01*
X78555497Y-73711037D02*
X78650735Y-73663418D01*
X78650735Y-73663418D02*
X78888830Y-73663418D01*
X78888830Y-73663418D02*
X78984068Y-73711037D01*
X78984068Y-73711037D02*
X79031687Y-73758656D01*
X79031687Y-73758656D02*
X79079306Y-73853894D01*
X79079306Y-73853894D02*
X79079306Y-74091989D01*
X79079306Y-74091989D02*
X79031687Y-74187227D01*
X79031687Y-74187227D02*
X78984068Y-74234847D01*
X78984068Y-74234847D02*
X78888830Y-74282466D01*
X78888830Y-74282466D02*
X78650735Y-74282466D01*
X78650735Y-74282466D02*
X78555497Y-74234847D01*
X78555497Y-74234847D02*
X78507878Y-74187227D01*
X79936449Y-73615799D02*
X79936449Y-74282466D01*
X79698354Y-73234847D02*
X79460259Y-73949132D01*
X79460259Y-73949132D02*
X80079306Y-73949132D01*
D13*
X88140135Y-28308257D02*
X88514269Y-26959175D01*
X88514269Y-26959175D02*
X89028205Y-27101702D01*
X89028205Y-27101702D02*
X89138873Y-27201575D01*
X89138873Y-27201575D02*
X89185299Y-27283633D01*
X89185299Y-27283633D02*
X89213910Y-27429933D01*
X89213910Y-27429933D02*
X89160462Y-27622659D01*
X89160462Y-27622659D02*
X89060588Y-27733328D01*
X89060588Y-27733328D02*
X88978530Y-27779754D01*
X88978530Y-27779754D02*
X88832230Y-27808364D01*
X88832230Y-27808364D02*
X88318294Y-27665837D01*
X90120320Y-27404572D02*
X90377288Y-27475835D01*
X90377288Y-27475835D02*
X90487956Y-27575709D01*
X90487956Y-27575709D02*
X90580808Y-27739825D01*
X90580808Y-27739825D02*
X90573787Y-28014609D01*
X90573787Y-28014609D02*
X90449075Y-28464303D01*
X90449075Y-28464303D02*
X90313570Y-28703456D01*
X90313570Y-28703456D02*
X90149454Y-28796308D01*
X90149454Y-28796308D02*
X90003154Y-28824918D01*
X90003154Y-28824918D02*
X89746186Y-28753654D01*
X89746186Y-28753654D02*
X89635518Y-28653781D01*
X89635518Y-28653781D02*
X89542666Y-28489665D01*
X89542666Y-28489665D02*
X89549687Y-28214881D01*
X89549687Y-28214881D02*
X89674398Y-27765187D01*
X89674398Y-27765187D02*
X89809904Y-27526034D01*
X89809904Y-27526034D02*
X89974020Y-27433182D01*
X89974020Y-27433182D02*
X90120320Y-27404572D01*
X91148193Y-27689626D02*
X91095269Y-29127788D01*
X91095269Y-29127788D02*
X91619475Y-28235421D01*
X91619475Y-28235421D02*
X91609205Y-29270315D01*
X91609205Y-29270315D02*
X92304549Y-28010312D01*
X92640326Y-28795260D02*
X93090021Y-28919971D01*
X93086772Y-29680081D02*
X92444352Y-29501922D01*
X92444352Y-29501922D02*
X92818485Y-28152839D01*
X92818485Y-28152839D02*
X93460906Y-28330998D01*
X94435855Y-30054215D02*
X94164320Y-29287083D01*
X93664950Y-29840424D02*
X94039084Y-28491341D01*
X94039084Y-28491341D02*
X94553020Y-28633869D01*
X94553020Y-28633869D02*
X94663689Y-28733742D01*
X94663689Y-28733742D02*
X94710115Y-28815800D01*
X94710115Y-28815800D02*
X94738725Y-28962100D01*
X94738725Y-28962100D02*
X94685277Y-29154826D01*
X94685277Y-29154826D02*
X94585403Y-29265494D01*
X94585403Y-29265494D02*
X94503346Y-29311921D01*
X94503346Y-29311921D02*
X94357046Y-29340531D01*
X94357046Y-29340531D02*
X93843109Y-29198004D01*
X94657191Y-30253962D02*
X95685064Y-30539017D01*
X95995480Y-30417554D02*
X96170390Y-30535244D01*
X96170390Y-30535244D02*
X96491600Y-30624323D01*
X96491600Y-30624323D02*
X96637900Y-30595713D01*
X96637900Y-30595713D02*
X96719958Y-30549287D01*
X96719958Y-30549287D02*
X96819832Y-30438619D01*
X96819832Y-30438619D02*
X96855464Y-30310135D01*
X96855464Y-30310135D02*
X96826853Y-30163835D01*
X96826853Y-30163835D02*
X96780427Y-30081777D01*
X96780427Y-30081777D02*
X96669759Y-29981903D01*
X96669759Y-29981903D02*
X96430607Y-29846397D01*
X96430607Y-29846397D02*
X96319939Y-29746524D01*
X96319939Y-29746524D02*
X96273512Y-29664466D01*
X96273512Y-29664466D02*
X96244902Y-29518166D01*
X96244902Y-29518166D02*
X96280534Y-29389682D01*
X96280534Y-29389682D02*
X96380408Y-29279014D01*
X96380408Y-29279014D02*
X96462466Y-29232587D01*
X96462466Y-29232587D02*
X96608766Y-29203977D01*
X96608766Y-29203977D02*
X96929976Y-29293057D01*
X96929976Y-29293057D02*
X97104886Y-29410746D01*
X97572396Y-29471215D02*
X97519472Y-30909378D01*
X97519472Y-30909378D02*
X98043679Y-30017011D01*
X98043679Y-30017011D02*
X98033409Y-31051905D01*
X98033409Y-31051905D02*
X98728752Y-29791902D01*
X99575217Y-31479486D02*
X98804313Y-31265695D01*
X99189765Y-31372591D02*
X99563899Y-30023508D01*
X99563899Y-30023508D02*
X99381967Y-30180602D01*
X99381967Y-30180602D02*
X99217851Y-30273455D01*
X99217851Y-30273455D02*
X99071551Y-30302065D01*
D12*
X78079306Y-39314466D02*
X78079306Y-40028751D01*
X78079306Y-40028751D02*
X78031687Y-40171608D01*
X78031687Y-40171608D02*
X77936449Y-40266847D01*
X77936449Y-40266847D02*
X77793592Y-40314466D01*
X77793592Y-40314466D02*
X77698354Y-40314466D01*
X79079306Y-40314466D02*
X78507878Y-40314466D01*
X78793592Y-40314466D02*
X78793592Y-39314466D01*
X78793592Y-39314466D02*
X78698354Y-39457323D01*
X78698354Y-39457323D02*
X78603116Y-39552561D01*
X78603116Y-39552561D02*
X78507878Y-39600180D01*
X79936449Y-39647799D02*
X79936449Y-40314466D01*
X79698354Y-39266847D02*
X79460259Y-39981132D01*
X79460259Y-39981132D02*
X80079306Y-39981132D01*
D13*
X104896951Y-100014153D02*
X105396951Y-99148128D01*
X105396951Y-99148128D02*
X105603147Y-99267176D01*
X105603147Y-99267176D02*
X105703056Y-99379844D01*
X105703056Y-99379844D02*
X105737915Y-99509941D01*
X105737915Y-99509941D02*
X105731535Y-99616229D01*
X105731535Y-99616229D02*
X105677537Y-99804996D01*
X105677537Y-99804996D02*
X105606108Y-99928714D01*
X105606108Y-99928714D02*
X105469631Y-100069862D01*
X105469631Y-100069862D02*
X105380772Y-100128531D01*
X105380772Y-100128531D02*
X105250675Y-100163390D01*
X105250675Y-100163390D02*
X105103147Y-100133201D01*
X105103147Y-100133201D02*
X104896951Y-100014153D01*
X106180497Y-99600509D02*
X106716608Y-99910033D01*
X106716608Y-99910033D02*
X106237457Y-100073281D01*
X106237457Y-100073281D02*
X106361175Y-100144709D01*
X106361175Y-100144709D02*
X106419844Y-100233568D01*
X106419844Y-100233568D02*
X106437274Y-100298616D01*
X106437274Y-100298616D02*
X106430894Y-100404904D01*
X106430894Y-100404904D02*
X106311847Y-100611101D01*
X106311847Y-100611101D02*
X106222988Y-100669770D01*
X106222988Y-100669770D02*
X106157939Y-100687200D01*
X106157939Y-100687200D02*
X106051651Y-100680820D01*
X106051651Y-100680820D02*
X105804215Y-100537963D01*
X105804215Y-100537963D02*
X105745546Y-100449105D01*
X105745546Y-100449105D02*
X105728117Y-100384056D01*
X107005284Y-100076700D02*
X107541395Y-100386223D01*
X107541395Y-100386223D02*
X107062243Y-100549471D01*
X107062243Y-100549471D02*
X107185961Y-100620900D01*
X107185961Y-100620900D02*
X107244630Y-100709758D01*
X107244630Y-100709758D02*
X107262060Y-100774807D01*
X107262060Y-100774807D02*
X107255680Y-100881095D01*
X107255680Y-100881095D02*
X107136633Y-101087292D01*
X107136633Y-101087292D02*
X107047774Y-101145961D01*
X107047774Y-101145961D02*
X106982725Y-101163390D01*
X106982725Y-101163390D02*
X106876437Y-101157011D01*
X106876437Y-101157011D02*
X106629002Y-101014153D01*
X106629002Y-101014153D02*
X106570332Y-100925295D01*
X106570332Y-100925295D02*
X106552903Y-100860246D01*
D12*
X19079306Y-67714466D02*
X19079306Y-68428751D01*
X19079306Y-68428751D02*
X19031687Y-68571608D01*
X19031687Y-68571608D02*
X18936449Y-68666847D01*
X18936449Y-68666847D02*
X18793592Y-68714466D01*
X18793592Y-68714466D02*
X18698354Y-68714466D01*
X19507878Y-67809704D02*
X19555497Y-67762085D01*
X19555497Y-67762085D02*
X19650735Y-67714466D01*
X19650735Y-67714466D02*
X19888830Y-67714466D01*
X19888830Y-67714466D02*
X19984068Y-67762085D01*
X19984068Y-67762085D02*
X20031687Y-67809704D01*
X20031687Y-67809704D02*
X20079306Y-67904942D01*
X20079306Y-67904942D02*
X20079306Y-68000180D01*
X20079306Y-68000180D02*
X20031687Y-68143037D01*
X20031687Y-68143037D02*
X19460259Y-68714466D01*
X19460259Y-68714466D02*
X20079306Y-68714466D01*
X21031687Y-68714466D02*
X20460259Y-68714466D01*
X20745973Y-68714466D02*
X20745973Y-67714466D01*
X20745973Y-67714466D02*
X20650735Y-67857323D01*
X20650735Y-67857323D02*
X20555497Y-67952561D01*
X20555497Y-67952561D02*
X20460259Y-68000180D01*
D13*
X61865714Y-55318819D02*
X61865714Y-54318819D01*
X61865714Y-54318819D02*
X62103809Y-54318819D01*
X62103809Y-54318819D02*
X62246666Y-54366438D01*
X62246666Y-54366438D02*
X62341904Y-54461676D01*
X62341904Y-54461676D02*
X62389523Y-54556914D01*
X62389523Y-54556914D02*
X62437142Y-54747390D01*
X62437142Y-54747390D02*
X62437142Y-54890247D01*
X62437142Y-54890247D02*
X62389523Y-55080723D01*
X62389523Y-55080723D02*
X62341904Y-55175961D01*
X62341904Y-55175961D02*
X62246666Y-55271200D01*
X62246666Y-55271200D02*
X62103809Y-55318819D01*
X62103809Y-55318819D02*
X61865714Y-55318819D01*
X62818095Y-54414057D02*
X62865714Y-54366438D01*
X62865714Y-54366438D02*
X62960952Y-54318819D01*
X62960952Y-54318819D02*
X63199047Y-54318819D01*
X63199047Y-54318819D02*
X63294285Y-54366438D01*
X63294285Y-54366438D02*
X63341904Y-54414057D01*
X63341904Y-54414057D02*
X63389523Y-54509295D01*
X63389523Y-54509295D02*
X63389523Y-54604533D01*
X63389523Y-54604533D02*
X63341904Y-54747390D01*
X63341904Y-54747390D02*
X62770476Y-55318819D01*
X62770476Y-55318819D02*
X63389523Y-55318819D01*
X64294285Y-54318819D02*
X63818095Y-54318819D01*
X63818095Y-54318819D02*
X63770476Y-54795009D01*
X63770476Y-54795009D02*
X63818095Y-54747390D01*
X63818095Y-54747390D02*
X63913333Y-54699771D01*
X63913333Y-54699771D02*
X64151428Y-54699771D01*
X64151428Y-54699771D02*
X64246666Y-54747390D01*
X64246666Y-54747390D02*
X64294285Y-54795009D01*
X64294285Y-54795009D02*
X64341904Y-54890247D01*
X64341904Y-54890247D02*
X64341904Y-55128342D01*
X64341904Y-55128342D02*
X64294285Y-55223580D01*
X64294285Y-55223580D02*
X64246666Y-55271200D01*
X64246666Y-55271200D02*
X64151428Y-55318819D01*
X64151428Y-55318819D02*
X63913333Y-55318819D01*
X63913333Y-55318819D02*
X63818095Y-55271200D01*
X63818095Y-55271200D02*
X63770476Y-55223580D01*
D12*
X91079306Y-39714466D02*
X91079306Y-40428751D01*
X91079306Y-40428751D02*
X91031687Y-40571608D01*
X91031687Y-40571608D02*
X90936449Y-40666847D01*
X90936449Y-40666847D02*
X90793592Y-40714466D01*
X90793592Y-40714466D02*
X90698354Y-40714466D01*
X92079306Y-40714466D02*
X91507878Y-40714466D01*
X91793592Y-40714466D02*
X91793592Y-39714466D01*
X91793592Y-39714466D02*
X91698354Y-39857323D01*
X91698354Y-39857323D02*
X91603116Y-39952561D01*
X91603116Y-39952561D02*
X91507878Y-40000180D01*
X92412640Y-39714466D02*
X93079306Y-39714466D01*
X93079306Y-39714466D02*
X92650735Y-40714466D01*
D13*
X25865714Y-57184819D02*
X25865714Y-56184819D01*
X25865714Y-56184819D02*
X26103809Y-56184819D01*
X26103809Y-56184819D02*
X26246666Y-56232438D01*
X26246666Y-56232438D02*
X26341904Y-56327676D01*
X26341904Y-56327676D02*
X26389523Y-56422914D01*
X26389523Y-56422914D02*
X26437142Y-56613390D01*
X26437142Y-56613390D02*
X26437142Y-56756247D01*
X26437142Y-56756247D02*
X26389523Y-56946723D01*
X26389523Y-56946723D02*
X26341904Y-57041961D01*
X26341904Y-57041961D02*
X26246666Y-57137200D01*
X26246666Y-57137200D02*
X26103809Y-57184819D01*
X26103809Y-57184819D02*
X25865714Y-57184819D01*
X27389523Y-57184819D02*
X26818095Y-57184819D01*
X27103809Y-57184819D02*
X27103809Y-56184819D01*
X27103809Y-56184819D02*
X27008571Y-56327676D01*
X27008571Y-56327676D02*
X26913333Y-56422914D01*
X26913333Y-56422914D02*
X26818095Y-56470533D01*
X28341904Y-57184819D02*
X27770476Y-57184819D01*
X28056190Y-57184819D02*
X28056190Y-56184819D01*
X28056190Y-56184819D02*
X27960952Y-56327676D01*
X27960952Y-56327676D02*
X27865714Y-56422914D01*
X27865714Y-56422914D02*
X27770476Y-56470533D01*
X62341905Y-21184819D02*
X62341905Y-20184819D01*
X62341905Y-20184819D02*
X62580000Y-20184819D01*
X62580000Y-20184819D02*
X62722857Y-20232438D01*
X62722857Y-20232438D02*
X62818095Y-20327676D01*
X62818095Y-20327676D02*
X62865714Y-20422914D01*
X62865714Y-20422914D02*
X62913333Y-20613390D01*
X62913333Y-20613390D02*
X62913333Y-20756247D01*
X62913333Y-20756247D02*
X62865714Y-20946723D01*
X62865714Y-20946723D02*
X62818095Y-21041961D01*
X62818095Y-21041961D02*
X62722857Y-21137200D01*
X62722857Y-21137200D02*
X62580000Y-21184819D01*
X62580000Y-21184819D02*
X62341905Y-21184819D01*
X63818095Y-20184819D02*
X63341905Y-20184819D01*
X63341905Y-20184819D02*
X63294286Y-20661009D01*
X63294286Y-20661009D02*
X63341905Y-20613390D01*
X63341905Y-20613390D02*
X63437143Y-20565771D01*
X63437143Y-20565771D02*
X63675238Y-20565771D01*
X63675238Y-20565771D02*
X63770476Y-20613390D01*
X63770476Y-20613390D02*
X63818095Y-20661009D01*
X63818095Y-20661009D02*
X63865714Y-20756247D01*
X63865714Y-20756247D02*
X63865714Y-20994342D01*
X63865714Y-20994342D02*
X63818095Y-21089580D01*
X63818095Y-21089580D02*
X63770476Y-21137200D01*
X63770476Y-21137200D02*
X63675238Y-21184819D01*
X63675238Y-21184819D02*
X63437143Y-21184819D01*
X63437143Y-21184819D02*
X63341905Y-21137200D01*
X63341905Y-21137200D02*
X63294286Y-21089580D01*
X116182876Y-65181619D02*
X116182876Y-65895904D01*
X116182876Y-65895904D02*
X116135257Y-66038761D01*
X116135257Y-66038761D02*
X116040019Y-66134000D01*
X116040019Y-66134000D02*
X115897162Y-66181619D01*
X115897162Y-66181619D02*
X115801924Y-66181619D01*
X116563829Y-65181619D02*
X117230495Y-65181619D01*
X117230495Y-65181619D02*
X116801924Y-66181619D01*
X117516210Y-65181619D02*
X118135257Y-65181619D01*
X118135257Y-65181619D02*
X117801924Y-65562571D01*
X117801924Y-65562571D02*
X117944781Y-65562571D01*
X117944781Y-65562571D02*
X118040019Y-65610190D01*
X118040019Y-65610190D02*
X118087638Y-65657809D01*
X118087638Y-65657809D02*
X118135257Y-65753047D01*
X118135257Y-65753047D02*
X118135257Y-65991142D01*
X118135257Y-65991142D02*
X118087638Y-66086380D01*
X118087638Y-66086380D02*
X118040019Y-66134000D01*
X118040019Y-66134000D02*
X117944781Y-66181619D01*
X117944781Y-66181619D02*
X117659067Y-66181619D01*
X117659067Y-66181619D02*
X117563829Y-66134000D01*
X117563829Y-66134000D02*
X117516210Y-66086380D01*
D12*
X73079306Y-71182466D02*
X73079306Y-71896751D01*
X73079306Y-71896751D02*
X73031687Y-72039608D01*
X73031687Y-72039608D02*
X72936449Y-72134847D01*
X72936449Y-72134847D02*
X72793592Y-72182466D01*
X72793592Y-72182466D02*
X72698354Y-72182466D01*
X74031687Y-71182466D02*
X73555497Y-71182466D01*
X73555497Y-71182466D02*
X73507878Y-71658656D01*
X73507878Y-71658656D02*
X73555497Y-71611037D01*
X73555497Y-71611037D02*
X73650735Y-71563418D01*
X73650735Y-71563418D02*
X73888830Y-71563418D01*
X73888830Y-71563418D02*
X73984068Y-71611037D01*
X73984068Y-71611037D02*
X74031687Y-71658656D01*
X74031687Y-71658656D02*
X74079306Y-71753894D01*
X74079306Y-71753894D02*
X74079306Y-71991989D01*
X74079306Y-71991989D02*
X74031687Y-72087227D01*
X74031687Y-72087227D02*
X73984068Y-72134847D01*
X73984068Y-72134847D02*
X73888830Y-72182466D01*
X73888830Y-72182466D02*
X73650735Y-72182466D01*
X73650735Y-72182466D02*
X73555497Y-72134847D01*
X73555497Y-72134847D02*
X73507878Y-72087227D01*
X74412640Y-71182466D02*
X75031687Y-71182466D01*
X75031687Y-71182466D02*
X74698354Y-71563418D01*
X74698354Y-71563418D02*
X74841211Y-71563418D01*
X74841211Y-71563418D02*
X74936449Y-71611037D01*
X74936449Y-71611037D02*
X74984068Y-71658656D01*
X74984068Y-71658656D02*
X75031687Y-71753894D01*
X75031687Y-71753894D02*
X75031687Y-71991989D01*
X75031687Y-71991989D02*
X74984068Y-72087227D01*
X74984068Y-72087227D02*
X74936449Y-72134847D01*
X74936449Y-72134847D02*
X74841211Y-72182466D01*
X74841211Y-72182466D02*
X74555497Y-72182466D01*
X74555497Y-72182466D02*
X74460259Y-72134847D01*
X74460259Y-72134847D02*
X74412640Y-72087227D01*
D14*
%TO.C,D21*%
X25395000Y-74420000D02*
X25395000Y-76340000D01*
X25395000Y-76340000D02*
X28080000Y-76340000D01*
X28080000Y-74420000D02*
X25395000Y-74420000D01*
%TO.C,D23*%
X43395000Y-62412000D02*
X43395000Y-64332000D01*
X43395000Y-64332000D02*
X46080000Y-64332000D01*
X46080000Y-62412000D02*
X43395000Y-62412000D01*
%TO.C,D9*%
X97395000Y-29420000D02*
X97395000Y-31340000D01*
X97395000Y-31340000D02*
X100080000Y-31340000D01*
X100080000Y-29420000D02*
X97395000Y-29420000D01*
%TO.C,D19*%
X97375000Y-46410000D02*
X97375000Y-48330000D01*
X97375000Y-48330000D02*
X100060000Y-48330000D01*
X100060000Y-46410000D02*
X97375000Y-46410000D01*
%TO.C,D27*%
X79395000Y-60888000D02*
X79395000Y-62808000D01*
X79395000Y-62808000D02*
X82080000Y-62808000D01*
X82080000Y-60888000D02*
X79395000Y-60888000D01*
%TO.C,D3*%
X43395000Y-28420000D02*
X43395000Y-30340000D01*
X43395000Y-30340000D02*
X46080000Y-30340000D01*
X46080000Y-28420000D02*
X43395000Y-28420000D01*
%TO.C,J75*%
X108959000Y-52246000D02*
X108959000Y-53296000D01*
X108959000Y-55416000D02*
X107969000Y-55416000D01*
X108959000Y-56466000D02*
X108959000Y-55416000D01*
X111459000Y-52246000D02*
X108959000Y-52246000D01*
X111459000Y-56466000D02*
X108959000Y-56466000D01*
X113429000Y-55296000D02*
X113429000Y-53416000D01*
%TO.C,D31*%
X88330228Y-92238830D02*
X90923739Y-92933759D01*
X90923739Y-92933759D02*
X91420671Y-91079181D01*
X91420671Y-91079181D02*
X88827160Y-90384252D01*
%TO.C,D13*%
X43395000Y-45394000D02*
X43395000Y-47314000D01*
X43395000Y-47314000D02*
X46080000Y-47314000D01*
X46080000Y-45394000D02*
X43395000Y-45394000D01*
%TO.C,D29*%
X97375000Y-63428000D02*
X97375000Y-65348000D01*
X97375000Y-65348000D02*
X100060000Y-65348000D01*
X100060000Y-63428000D02*
X97375000Y-63428000D01*
%TO.C,D15*%
X61395000Y-38536000D02*
X61395000Y-40456000D01*
X61395000Y-40456000D02*
X64080000Y-40456000D01*
X64080000Y-38536000D02*
X61395000Y-38536000D01*
%TO.C,D17*%
X79395000Y-43870000D02*
X79395000Y-45790000D01*
X79395000Y-45790000D02*
X82080000Y-45790000D01*
X82080000Y-43870000D02*
X79395000Y-43870000D01*
%TO.C,J71*%
X125162000Y-60850000D02*
X125162000Y-76150000D01*
X125162000Y-60850000D02*
X127822000Y-60850000D01*
X125162000Y-76150000D02*
X127822000Y-76150000D01*
X126492000Y-58250000D02*
X127822000Y-58250000D01*
X127822000Y-58250000D02*
X127822000Y-59580000D01*
X127822000Y-60850000D02*
X127822000Y-76150000D01*
%TO.C,D1*%
X25395000Y-40420000D02*
X25395000Y-42340000D01*
X25395000Y-42340000D02*
X28080000Y-42340000D01*
X28080000Y-40420000D02*
X25395000Y-40420000D01*
%TO.C,J69*%
X109922000Y-60850000D02*
X109922000Y-76150000D01*
X109922000Y-60850000D02*
X112582000Y-60850000D01*
X109922000Y-76150000D02*
X112582000Y-76150000D01*
X111252000Y-58250000D02*
X112582000Y-58250000D01*
X112582000Y-58250000D02*
X112582000Y-59580000D01*
X112582000Y-60850000D02*
X112582000Y-76150000D01*
%TO.C,D7*%
X79395000Y-26920000D02*
X79395000Y-28840000D01*
X79395000Y-28840000D02*
X82080000Y-28840000D01*
X82080000Y-26920000D02*
X79395000Y-26920000D01*
D15*
%TO.C,POWER_SW1*%
X91332066Y-23964415D02*
X91492409Y-23386235D01*
X95834799Y-26250874D02*
X94196627Y-25796569D01*
X97782338Y-24092845D02*
X92193282Y-22542862D01*
X97948734Y-25176731D02*
X97788391Y-25754911D01*
D16*
X97155923Y-27834812D02*
G75*
G02*
X96955921Y-27834812I-100001J0D01*
G01*
X96955921Y-27834812D02*
G75*
G02*
X97155923Y-27834812I100001J0D01*
G01*
D14*
%TO.C,D33*%
X105654938Y-99129854D02*
X107980216Y-100472354D01*
X107980216Y-100472354D02*
X108940216Y-98809586D01*
X108940216Y-98809586D02*
X106614938Y-97467086D01*
%TO.C,D25*%
X61395000Y-55554000D02*
X61395000Y-57474000D01*
X61395000Y-57474000D02*
X64080000Y-57474000D01*
X64080000Y-55554000D02*
X61395000Y-55554000D01*
%TO.C,D11*%
X25395000Y-57420000D02*
X25395000Y-59340000D01*
X25395000Y-59340000D02*
X28080000Y-59340000D01*
X28080000Y-57420000D02*
X25395000Y-57420000D01*
%TO.C,D5*%
X61395000Y-21420000D02*
X61395000Y-23340000D01*
X61395000Y-23340000D02*
X64080000Y-23340000D01*
X64080000Y-21420000D02*
X61395000Y-21420000D01*
D12*
%TO.C,J73*%
X115012536Y-66946000D02*
G75*
G02*
X113079464Y-66946000I-966536J0D01*
G01*
X113079464Y-66946000D02*
G75*
G02*
X115012536Y-66946000I966536J0D01*
G01*
%TD*%
%LPC*%
D16*
%TO.C,U1*%
X118235000Y-59580000D02*
G75*
G02*
X117985000Y-59580000I-125000J0D01*
G01*
X117985000Y-59580000D02*
G75*
G02*
X118235000Y-59580000I125000J0D01*
G01*
X118235000Y-62120000D02*
G75*
G02*
X117985000Y-62120000I-125000J0D01*
G01*
X117985000Y-62120000D02*
G75*
G02*
X118235000Y-62120000I125000J0D01*
G01*
X118235000Y-64660000D02*
G75*
G02*
X117985000Y-64660000I-125000J0D01*
G01*
X117985000Y-64660000D02*
G75*
G02*
X118235000Y-64660000I125000J0D01*
G01*
X118235000Y-67200000D02*
G75*
G02*
X117985000Y-67200000I-125000J0D01*
G01*
X117985000Y-67200000D02*
G75*
G02*
X118235000Y-67200000I125000J0D01*
G01*
X118235000Y-69740000D02*
G75*
G02*
X117985000Y-69740000I-125000J0D01*
G01*
X117985000Y-69740000D02*
G75*
G02*
X118235000Y-69740000I125000J0D01*
G01*
X118235000Y-72280000D02*
G75*
G02*
X117985000Y-72280000I-125000J0D01*
G01*
X117985000Y-72280000D02*
G75*
G02*
X118235000Y-72280000I125000J0D01*
G01*
X118235000Y-74820000D02*
G75*
G02*
X117985000Y-74820000I-125000J0D01*
G01*
X117985000Y-74820000D02*
G75*
G02*
X118235000Y-74820000I125000J0D01*
G01*
X119759000Y-59580000D02*
G75*
G02*
X119509000Y-59580000I-125000J0D01*
G01*
X119509000Y-59580000D02*
G75*
G02*
X119759000Y-59580000I125000J0D01*
G01*
X119759000Y-62120000D02*
G75*
G02*
X119509000Y-62120000I-125000J0D01*
G01*
X119509000Y-62120000D02*
G75*
G02*
X119759000Y-62120000I125000J0D01*
G01*
X119759000Y-64660000D02*
G75*
G02*
X119509000Y-64660000I-125000J0D01*
G01*
X119509000Y-64660000D02*
G75*
G02*
X119759000Y-64660000I125000J0D01*
G01*
X119759000Y-67200000D02*
G75*
G02*
X119509000Y-67200000I-125000J0D01*
G01*
X119509000Y-67200000D02*
G75*
G02*
X119759000Y-67200000I125000J0D01*
G01*
X119759000Y-69740000D02*
G75*
G02*
X119509000Y-69740000I-125000J0D01*
G01*
X119509000Y-69740000D02*
G75*
G02*
X119759000Y-69740000I125000J0D01*
G01*
X119759000Y-72280000D02*
G75*
G02*
X119509000Y-72280000I-125000J0D01*
G01*
X119509000Y-72280000D02*
G75*
G02*
X119759000Y-72280000I125000J0D01*
G01*
X119759000Y-74820000D02*
G75*
G02*
X119509000Y-74820000I-125000J0D01*
G01*
X119509000Y-74820000D02*
G75*
G02*
X119759000Y-74820000I125000J0D01*
G01*
D12*
X113792000Y-60088000D02*
X112776000Y-60088000D01*
X112776000Y-59072000D01*
X113792000Y-59072000D01*
X113792000Y-60088000D01*
G36*
X113792000Y-60088000D02*
G01*
X112776000Y-60088000D01*
X112776000Y-59072000D01*
X113792000Y-59072000D01*
X113792000Y-60088000D01*
G37*
X113792000Y-62628000D02*
X112776000Y-62628000D01*
X112776000Y-61612000D01*
X113792000Y-61612000D01*
X113792000Y-62628000D01*
G36*
X113792000Y-62628000D02*
G01*
X112776000Y-62628000D01*
X112776000Y-61612000D01*
X113792000Y-61612000D01*
X113792000Y-62628000D01*
G37*
X113792000Y-65168000D02*
X112776000Y-65168000D01*
X112776000Y-64152000D01*
X113792000Y-64152000D01*
X113792000Y-65168000D01*
G36*
X113792000Y-65168000D02*
G01*
X112776000Y-65168000D01*
X112776000Y-64152000D01*
X113792000Y-64152000D01*
X113792000Y-65168000D01*
G37*
X113792000Y-70248000D02*
X112776000Y-70248000D01*
X112776000Y-69232000D01*
X113792000Y-69232000D01*
X113792000Y-70248000D01*
G36*
X113792000Y-70248000D02*
G01*
X112776000Y-70248000D01*
X112776000Y-69232000D01*
X113792000Y-69232000D01*
X113792000Y-70248000D01*
G37*
X113792000Y-72788000D02*
X112776000Y-72788000D01*
X112776000Y-71772000D01*
X113792000Y-71772000D01*
X113792000Y-72788000D01*
G36*
X113792000Y-72788000D02*
G01*
X112776000Y-72788000D01*
X112776000Y-71772000D01*
X113792000Y-71772000D01*
X113792000Y-72788000D01*
G37*
X113792000Y-75328000D02*
X112776000Y-75328000D01*
X112776000Y-74312000D01*
X113792000Y-74312000D01*
X113792000Y-75328000D01*
G36*
X113792000Y-75328000D02*
G01*
X112776000Y-75328000D01*
X112776000Y-74312000D01*
X113792000Y-74312000D01*
X113792000Y-75328000D01*
G37*
X116484400Y-67403200D02*
X115468400Y-67403200D01*
X115468400Y-66387200D01*
X116484400Y-66387200D01*
X116484400Y-67403200D01*
G36*
X116484400Y-67403200D02*
G01*
X115468400Y-67403200D01*
X115468400Y-66387200D01*
X116484400Y-66387200D01*
X116484400Y-67403200D01*
G37*
X122326400Y-68091000D02*
X121310400Y-68091000D01*
X121310400Y-67075000D01*
X122326400Y-67075000D01*
X122326400Y-68091000D01*
G36*
X122326400Y-68091000D02*
G01*
X121310400Y-68091000D01*
X121310400Y-67075000D01*
X122326400Y-67075000D01*
X122326400Y-68091000D01*
G37*
X124968000Y-60088000D02*
X123952000Y-60088000D01*
X123952000Y-59072000D01*
X124968000Y-59072000D01*
X124968000Y-60088000D01*
G36*
X124968000Y-60088000D02*
G01*
X123952000Y-60088000D01*
X123952000Y-59072000D01*
X124968000Y-59072000D01*
X124968000Y-60088000D01*
G37*
X124968000Y-62628000D02*
X123952000Y-62628000D01*
X123952000Y-61612000D01*
X124968000Y-61612000D01*
X124968000Y-62628000D01*
G36*
X124968000Y-62628000D02*
G01*
X123952000Y-62628000D01*
X123952000Y-61612000D01*
X124968000Y-61612000D01*
X124968000Y-62628000D01*
G37*
X124968000Y-65168000D02*
X123952000Y-65168000D01*
X123952000Y-64152000D01*
X124968000Y-64152000D01*
X124968000Y-65168000D01*
G36*
X124968000Y-65168000D02*
G01*
X123952000Y-65168000D01*
X123952000Y-64152000D01*
X124968000Y-64152000D01*
X124968000Y-65168000D01*
G37*
X124968000Y-70248000D02*
X123952000Y-70248000D01*
X123952000Y-69232000D01*
X124968000Y-69232000D01*
X124968000Y-70248000D01*
G36*
X124968000Y-70248000D02*
G01*
X123952000Y-70248000D01*
X123952000Y-69232000D01*
X124968000Y-69232000D01*
X124968000Y-70248000D01*
G37*
X124968000Y-72788000D02*
X123952000Y-72788000D01*
X123952000Y-71772000D01*
X124968000Y-71772000D01*
X124968000Y-72788000D01*
G36*
X124968000Y-72788000D02*
G01*
X123952000Y-72788000D01*
X123952000Y-71772000D01*
X124968000Y-71772000D01*
X124968000Y-72788000D01*
G37*
X124968000Y-75328000D02*
X123952000Y-75328000D01*
X123952000Y-74312000D01*
X124968000Y-74312000D01*
X124968000Y-75328000D01*
G36*
X124968000Y-75328000D02*
G01*
X123952000Y-75328000D01*
X123952000Y-74312000D01*
X124968000Y-74312000D01*
X124968000Y-75328000D01*
G37*
%TD*%
D17*
%TO.C,SW1*%
X21580000Y-46080000D03*
D18*
X21860000Y-41880000D03*
D19*
X27080000Y-46080000D03*
D18*
X32300000Y-41880000D03*
D17*
X32580000Y-46080000D03*
D20*
X27080000Y-51980000D03*
D21*
X30480000Y-51980000D03*
D20*
X22080000Y-49880000D03*
D21*
X24980000Y-41380000D03*
X28680000Y-48280000D03*
D20*
X32080000Y-49880000D03*
D21*
X29180000Y-41380000D03*
%TD*%
D17*
%TO.C,SW2*%
X39580000Y-34080000D03*
D18*
X39860000Y-29880000D03*
D19*
X45080000Y-34080000D03*
D18*
X50300000Y-29880000D03*
D17*
X50580000Y-34080000D03*
D20*
X45080000Y-39980000D03*
D21*
X48480000Y-39980000D03*
D20*
X40080000Y-37880000D03*
D21*
X42980000Y-29380000D03*
X46680000Y-36280000D03*
D20*
X50080000Y-37880000D03*
D21*
X47180000Y-29380000D03*
%TD*%
D17*
%TO.C,SW3*%
X57580000Y-27080000D03*
D18*
X57860000Y-22880000D03*
D19*
X63080000Y-27080000D03*
D18*
X68300000Y-22880000D03*
D17*
X68580000Y-27080000D03*
D20*
X63080000Y-32980000D03*
D21*
X66480000Y-32980000D03*
D20*
X58080000Y-30880000D03*
D21*
X60980000Y-22380000D03*
X64680000Y-29280000D03*
D20*
X68080000Y-30880000D03*
D21*
X65180000Y-22380000D03*
%TD*%
D17*
%TO.C,SW4*%
X75580000Y-32580000D03*
D18*
X75860000Y-28380000D03*
D19*
X81080000Y-32580000D03*
D18*
X86300000Y-28380000D03*
D17*
X86580000Y-32580000D03*
D20*
X81080000Y-38480000D03*
D21*
X84480000Y-38480000D03*
D20*
X76080000Y-36380000D03*
D21*
X78980000Y-27880000D03*
X82680000Y-34780000D03*
D20*
X86080000Y-36380000D03*
D21*
X83180000Y-27880000D03*
%TD*%
D17*
%TO.C,SW5*%
X93580000Y-35080000D03*
D18*
X93860000Y-30880000D03*
D19*
X99080000Y-35080000D03*
D18*
X104300000Y-30880000D03*
D17*
X104580000Y-35080000D03*
D20*
X99080000Y-40980000D03*
D21*
X102480000Y-40980000D03*
D20*
X94080000Y-38880000D03*
D21*
X96980000Y-30380000D03*
X100680000Y-37280000D03*
D20*
X104080000Y-38880000D03*
D21*
X101180000Y-30380000D03*
%TD*%
D17*
%TO.C,SW6*%
X21580000Y-63080000D03*
D18*
X21860000Y-58880000D03*
D19*
X27080000Y-63080000D03*
D18*
X32300000Y-58880000D03*
D17*
X32580000Y-63080000D03*
D20*
X27080000Y-68980000D03*
D21*
X30480000Y-68980000D03*
D20*
X22080000Y-66880000D03*
D21*
X24980000Y-58380000D03*
X28680000Y-65280000D03*
D20*
X32080000Y-66880000D03*
D21*
X29180000Y-58380000D03*
%TD*%
D17*
%TO.C,SW7*%
X39580000Y-51054000D03*
D18*
X39860000Y-46854000D03*
D19*
X45080000Y-51054000D03*
D18*
X50300000Y-46854000D03*
D17*
X50580000Y-51054000D03*
D20*
X45080000Y-56954000D03*
D21*
X48480000Y-56954000D03*
D20*
X40080000Y-54854000D03*
D21*
X42980000Y-46354000D03*
X46680000Y-53254000D03*
D20*
X50080000Y-54854000D03*
D21*
X47180000Y-46354000D03*
%TD*%
D17*
%TO.C,SW8*%
X57580000Y-44196000D03*
D18*
X57860000Y-39996000D03*
D19*
X63080000Y-44196000D03*
D18*
X68300000Y-39996000D03*
D17*
X68580000Y-44196000D03*
D20*
X63080000Y-50096000D03*
D21*
X66480000Y-50096000D03*
D20*
X58080000Y-47996000D03*
D21*
X60980000Y-39496000D03*
X64680000Y-46396000D03*
D20*
X68080000Y-47996000D03*
D21*
X65180000Y-39496000D03*
%TD*%
D17*
%TO.C,SW9*%
X75580000Y-49530000D03*
D18*
X75860000Y-45330000D03*
D19*
X81080000Y-49530000D03*
D18*
X86300000Y-45330000D03*
D17*
X86580000Y-49530000D03*
D20*
X81080000Y-55430000D03*
D21*
X84480000Y-55430000D03*
D20*
X76080000Y-53330000D03*
D21*
X78980000Y-44830000D03*
X82680000Y-51730000D03*
D20*
X86080000Y-53330000D03*
D21*
X83180000Y-44830000D03*
%TD*%
D17*
%TO.C,SW10*%
X93560000Y-52070000D03*
D18*
X93840000Y-47870000D03*
D19*
X99060000Y-52070000D03*
D18*
X104280000Y-47870000D03*
D17*
X104560000Y-52070000D03*
D20*
X99060000Y-57970000D03*
D21*
X102460000Y-57970000D03*
D20*
X94060000Y-55870000D03*
D21*
X96960000Y-47370000D03*
X100660000Y-54270000D03*
D20*
X104060000Y-55870000D03*
D21*
X101160000Y-47370000D03*
%TD*%
D17*
%TO.C,SW11*%
X21580000Y-80080000D03*
D18*
X21860000Y-75880000D03*
D19*
X27080000Y-80080000D03*
D18*
X32300000Y-75880000D03*
D17*
X32580000Y-80080000D03*
D20*
X27080000Y-85980000D03*
D21*
X30480000Y-85980000D03*
D20*
X22080000Y-83880000D03*
D21*
X24980000Y-75380000D03*
X28680000Y-82280000D03*
D20*
X32080000Y-83880000D03*
D21*
X29180000Y-75380000D03*
%TD*%
D17*
%TO.C,SW12*%
X39580000Y-68072000D03*
D18*
X39860000Y-63872000D03*
D19*
X45080000Y-68072000D03*
D18*
X50300000Y-63872000D03*
D17*
X50580000Y-68072000D03*
D20*
X45080000Y-73972000D03*
D21*
X48480000Y-73972000D03*
D20*
X40080000Y-71872000D03*
D21*
X42980000Y-63372000D03*
X46680000Y-70272000D03*
D20*
X50080000Y-71872000D03*
D21*
X47180000Y-63372000D03*
%TD*%
D17*
%TO.C,SW13*%
X57580000Y-61214000D03*
D18*
X57860000Y-57014000D03*
D19*
X63080000Y-61214000D03*
D18*
X68300000Y-57014000D03*
D17*
X68580000Y-61214000D03*
D20*
X63080000Y-67114000D03*
D21*
X66480000Y-67114000D03*
D20*
X58080000Y-65014000D03*
D21*
X60980000Y-56514000D03*
X64680000Y-63414000D03*
D20*
X68080000Y-65014000D03*
D21*
X65180000Y-56514000D03*
%TD*%
D17*
%TO.C,SW14*%
X75580000Y-66548000D03*
D18*
X75860000Y-62348000D03*
D19*
X81080000Y-66548000D03*
D18*
X86300000Y-62348000D03*
D17*
X86580000Y-66548000D03*
D20*
X81080000Y-72448000D03*
D21*
X84480000Y-72448000D03*
D20*
X76080000Y-70348000D03*
D21*
X78980000Y-61848000D03*
X82680000Y-68748000D03*
D20*
X86080000Y-70348000D03*
D21*
X83180000Y-61848000D03*
%TD*%
D17*
%TO.C,SW15*%
X93560000Y-69088000D03*
D18*
X93840000Y-64888000D03*
D19*
X99060000Y-69088000D03*
D18*
X104280000Y-64888000D03*
D17*
X104560000Y-69088000D03*
D20*
X99060000Y-74988000D03*
D21*
X102460000Y-74988000D03*
D20*
X94060000Y-72888000D03*
D21*
X96960000Y-64388000D03*
X100660000Y-71288000D03*
D20*
X104060000Y-72888000D03*
D21*
X101160000Y-64388000D03*
%TD*%
D17*
%TO.C,SW17*%
X114119140Y-97530000D03*
D18*
X111776653Y-101027307D03*
D19*
X109356000Y-94780000D03*
D18*
X102735347Y-95807307D03*
D17*
X104592860Y-92030000D03*
D20*
X112306000Y-89670450D03*
D21*
X109361514Y-87970450D03*
D20*
X115586127Y-93989103D03*
D21*
X108824652Y-99900319D03*
X109070359Y-92074744D03*
D20*
X106925873Y-88989103D03*
D21*
X105187347Y-97800319D03*
%TD*%
D17*
%TO.C,SW16*%
X96108592Y-88453505D03*
D18*
X94751093Y-92437924D03*
D19*
X90796000Y-87030000D03*
D18*
X84666827Y-89735853D03*
D17*
X85483408Y-85606495D03*
D20*
X92323032Y-81331038D03*
D21*
X89038885Y-80451053D03*
D20*
X96609142Y-84653577D03*
D21*
X91607995Y-92113371D03*
X89819921Y-84490853D03*
D20*
X86949883Y-82065387D03*
D21*
X87551106Y-91026331D03*
%TD*%
D22*
%TO.C,U1*%
X126492000Y-59580000D03*
D23*
X124714000Y-59580000D03*
D24*
X113030000Y-59580000D03*
D22*
X111252000Y-59580000D03*
X111252000Y-59580000D03*
X126492000Y-62120000D03*
D23*
X124714000Y-62120000D03*
D24*
X113030000Y-62120000D03*
D22*
X111252000Y-62120000D03*
X126492000Y-64660000D03*
D23*
X124714000Y-64660000D03*
D24*
X113030000Y-64660000D03*
D22*
X111252000Y-64660000D03*
D24*
X115722400Y-66895200D03*
D22*
X126492000Y-67200000D03*
X111252000Y-67200000D03*
D23*
X122072400Y-67583000D03*
D22*
X126492000Y-69740000D03*
D23*
X124714000Y-69740000D03*
D24*
X113030000Y-69740000D03*
D22*
X111252000Y-69740000D03*
X126492000Y-72280000D03*
D23*
X124714000Y-72280000D03*
D24*
X113030000Y-72280000D03*
D22*
X111252000Y-72280000D03*
X126492000Y-74820000D03*
D23*
X124714000Y-74820000D03*
D24*
X113030000Y-74820000D03*
D22*
X111252000Y-74820000D03*
D25*
X114046000Y-59580000D03*
X114046000Y-62120000D03*
X114046000Y-64660000D03*
X116738400Y-66895200D03*
X114046000Y-69740000D03*
X114046000Y-72280000D03*
X114046000Y-74820000D03*
D26*
X123698000Y-74820000D03*
X123698000Y-72280000D03*
X123698000Y-69740000D03*
X121056400Y-67583000D03*
X123698000Y-64660000D03*
X123698000Y-62120000D03*
X123698000Y-59580000D03*
D27*
X123698000Y-66946000D03*
X114046000Y-66946000D03*
%TD*%
D20*
%TO.C,J30*%
X63080000Y-50096000D03*
%TD*%
%TO.C,J2*%
X27080000Y-51980000D03*
%TD*%
D28*
%TO.C,D21*%
X26142500Y-75380000D03*
X28017500Y-75380000D03*
%TD*%
D20*
%TO.C,J34*%
X81080000Y-55430000D03*
%TD*%
%TO.C,J18*%
X99080000Y-40980000D03*
%TD*%
%TO.C,J10*%
X63080000Y-32980000D03*
%TD*%
D28*
%TO.C,D23*%
X44142500Y-63372000D03*
X46017500Y-63372000D03*
%TD*%
D20*
%TO.C,J13*%
X76080000Y-36380000D03*
%TD*%
D28*
%TO.C,D9*%
X98142500Y-30380000D03*
X100017500Y-30380000D03*
%TD*%
D20*
%TO.C,J1*%
X22080000Y-49880000D03*
%TD*%
%TO.C,J22*%
X27080000Y-68980000D03*
%TD*%
%TO.C,J33*%
X76080000Y-53330000D03*
%TD*%
%TO.C,J61*%
X96609142Y-84653577D03*
%TD*%
%TO.C,J57*%
X94060000Y-72888000D03*
%TD*%
%TO.C,J46*%
X45080000Y-73972000D03*
%TD*%
%TO.C,J49*%
X58080000Y-65014000D03*
%TD*%
D28*
%TO.C,D19*%
X98122500Y-47370000D03*
X99997500Y-47370000D03*
%TD*%
D20*
%TO.C,J50*%
X63080000Y-67114000D03*
%TD*%
%TO.C,J25*%
X40080000Y-54854000D03*
%TD*%
%TO.C,J41*%
X22080000Y-83880000D03*
%TD*%
%TO.C,J26*%
X45080000Y-56954000D03*
%TD*%
D28*
%TO.C,D27*%
X80142500Y-61848000D03*
X82017500Y-61848000D03*
%TD*%
%TO.C,D3*%
X44142500Y-29380000D03*
X46017500Y-29380000D03*
%TD*%
D20*
%TO.C,J65*%
X115586127Y-93989103D03*
%TD*%
%TO.C,J9*%
X58080000Y-30880000D03*
%TD*%
%TO.C,J42*%
X27080000Y-85980000D03*
%TD*%
D29*
%TO.C,J75*%
X108744000Y-54856000D03*
X108744000Y-53856000D03*
D30*
X112619000Y-56156000D03*
X112619000Y-52556000D03*
%TD*%
D20*
%TO.C,J37*%
X94060000Y-55870000D03*
%TD*%
D31*
%TO.C,D31*%
X90450175Y-91813003D03*
X88639065Y-91327717D03*
%TD*%
D20*
%TO.C,J6*%
X45080000Y-39980000D03*
%TD*%
%TO.C,J5*%
X40080000Y-37880000D03*
%TD*%
D28*
%TO.C,D13*%
X44142500Y-46354000D03*
X46017500Y-46354000D03*
%TD*%
%TO.C,D29*%
X98122500Y-64388000D03*
X99997500Y-64388000D03*
%TD*%
D20*
%TO.C,J45*%
X40080000Y-71872000D03*
%TD*%
D28*
%TO.C,D15*%
X62142500Y-39496000D03*
X64017500Y-39496000D03*
%TD*%
D20*
%TO.C,J58*%
X99060000Y-74988000D03*
%TD*%
D28*
%TO.C,D17*%
X80142500Y-44830000D03*
X82017500Y-44830000D03*
%TD*%
D20*
%TO.C,J66*%
X112306000Y-89670450D03*
%TD*%
D32*
%TO.C,J71*%
X126492000Y-59580000D03*
D33*
X126492000Y-62120000D03*
X126492000Y-64660000D03*
X126492000Y-67200000D03*
X126492000Y-69740000D03*
X126492000Y-72280000D03*
X126492000Y-74820000D03*
%TD*%
D20*
%TO.C,J38*%
X99060000Y-57970000D03*
%TD*%
D28*
%TO.C,D1*%
X26142500Y-41380000D03*
X28017500Y-41380000D03*
%TD*%
D32*
%TO.C,J69*%
X111252000Y-59580000D03*
D33*
X111252000Y-62120000D03*
X111252000Y-64660000D03*
X111252000Y-67200000D03*
X111252000Y-69740000D03*
X111252000Y-72280000D03*
X111252000Y-74820000D03*
%TD*%
D20*
%TO.C,J62*%
X92323032Y-81331038D03*
%TD*%
D28*
%TO.C,D7*%
X80142500Y-27880000D03*
X82017500Y-27880000D03*
%TD*%
D20*
%TO.C,J29*%
X58080000Y-47996000D03*
%TD*%
%TO.C,J54*%
X81080000Y-72448000D03*
%TD*%
D34*
%TO.C,POWER_SW1*%
X96085846Y-24971431D03*
X93194954Y-24169715D03*
D35*
X96340901Y-26858213D03*
X93450010Y-26056498D03*
X92004564Y-25655640D03*
D36*
X97899766Y-26475896D03*
X98415536Y-24616090D03*
X91381034Y-22665250D03*
X90865264Y-24525056D03*
%TD*%
D20*
%TO.C,J14*%
X81080000Y-38480000D03*
%TD*%
D37*
%TO.C,D33*%
X107812862Y-99267220D03*
X106189064Y-98329720D03*
%TD*%
D20*
%TO.C,J21*%
X22080000Y-66880000D03*
%TD*%
D28*
%TO.C,D25*%
X62142500Y-56514000D03*
X64017500Y-56514000D03*
%TD*%
D20*
%TO.C,J17*%
X94080000Y-38880000D03*
%TD*%
D28*
%TO.C,D11*%
X26142500Y-58380000D03*
X28017500Y-58380000D03*
%TD*%
%TO.C,D5*%
X62142500Y-22380000D03*
X64017500Y-22380000D03*
%TD*%
D38*
%TO.C,J73*%
X114046000Y-66946000D03*
%TD*%
D20*
%TO.C,J53*%
X76080000Y-70348000D03*
%TD*%
%TO.C,J8*%
X45080000Y-39980000D03*
%TD*%
%TO.C,J56*%
X81080000Y-72448000D03*
%TD*%
%TO.C,J48*%
X45080000Y-73972000D03*
%TD*%
%TO.C,J28*%
X45080000Y-56954000D03*
%TD*%
%TO.C,J27*%
X50080000Y-54854000D03*
%TD*%
D32*
%TO.C,J72*%
X126492000Y-59580000D03*
D33*
X126492000Y-62120000D03*
X126492000Y-64660000D03*
X126492000Y-67200000D03*
X126492000Y-69740000D03*
X126492000Y-72280000D03*
X126492000Y-74820000D03*
%TD*%
D20*
%TO.C,J47*%
X50080000Y-71872000D03*
%TD*%
%TO.C,J16*%
X81080000Y-38480000D03*
%TD*%
D32*
%TO.C,J70*%
X111252000Y-59580000D03*
D33*
X111252000Y-62120000D03*
X111252000Y-64660000D03*
X111252000Y-67200000D03*
X111252000Y-69740000D03*
X111252000Y-72280000D03*
X111252000Y-74820000D03*
%TD*%
D20*
%TO.C,J31*%
X68080000Y-47996000D03*
%TD*%
%TO.C,J7*%
X50080000Y-37880000D03*
%TD*%
%TO.C,J19*%
X104080000Y-38880000D03*
%TD*%
%TO.C,J36*%
X81080000Y-55430000D03*
%TD*%
%TO.C,J44*%
X27080000Y-85980000D03*
%TD*%
%TO.C,J68*%
X112306000Y-89670450D03*
%TD*%
%TO.C,J64*%
X92323032Y-81331038D03*
%TD*%
%TO.C,J20*%
X99080000Y-40980000D03*
%TD*%
%TO.C,J39*%
X104060000Y-55870000D03*
%TD*%
%TO.C,J24*%
X27080000Y-68980000D03*
%TD*%
%TO.C,J12*%
X63080000Y-32980000D03*
%TD*%
%TO.C,J67*%
X106925873Y-88989103D03*
%TD*%
%TO.C,J15*%
X86080000Y-36380000D03*
%TD*%
%TO.C,J23*%
X32080000Y-66880000D03*
%TD*%
%TO.C,J55*%
X86080000Y-70348000D03*
%TD*%
D38*
%TO.C,J74*%
X123698000Y-66946000D03*
%TD*%
D20*
%TO.C,J35*%
X86080000Y-53330000D03*
%TD*%
%TO.C,J51*%
X68080000Y-65014000D03*
%TD*%
%TO.C,J52*%
X63080000Y-67114000D03*
%TD*%
D34*
%TO.C,POWER_SW2*%
X93194954Y-24169715D03*
X96085846Y-24971431D03*
%TD*%
D20*
%TO.C,J11*%
X68080000Y-30880000D03*
%TD*%
%TO.C,J3*%
X32080000Y-49880000D03*
%TD*%
%TO.C,J63*%
X86949883Y-82065387D03*
%TD*%
%TO.C,J32*%
X63080000Y-50096000D03*
%TD*%
%TO.C,J60*%
X99060000Y-74988000D03*
%TD*%
%TO.C,J4*%
X27080000Y-51980000D03*
%TD*%
%TO.C,J40*%
X99060000Y-57970000D03*
%TD*%
%TO.C,J59*%
X104060000Y-72888000D03*
%TD*%
%TO.C,J43*%
X32080000Y-83880000D03*
%TD*%
%LPD*%
M02*
