M48
; DRILL file {KiCad 8.0.4} date 2024-08-21T07:41:27-0700
; FORMAT={-:-/ absolute / inch / decimal}
; #@! TF.CreationDate,2024-08-21T07:41:27-07:00
; #@! TF.GenerationSoftware,Kicad,Pcbnew,8.0.4
; #@! TF.FileFunction,NonPlated,1,2,NPTH
FMAT,2
INCH
; #@! TA.AperFunction,NonPlated,NPTH,ComponentDrill
T1C0.0354
; #@! TA.AperFunction,NonPlated,NPTH,ComponentDrill
T2C0.0394
; #@! TA.AperFunction,NonPlated,NPTH,ComponentDrill
T3C0.0669
; #@! TA.AperFunction,NonPlated,NPTH,ComponentDrill
T4C0.1350
%
G90
G05
T1
X7.6884Y-3.4654
X7.6884Y-3.4654
X7.8065Y-3.4654
X7.8065Y-3.4654
T2
X3.759Y-2.8092
X3.759Y-3.4785
X3.759Y-4.1478
X4.17Y-2.8092
X4.17Y-3.4785
X4.17Y-4.1478
X4.4677Y-2.3367
X4.4677Y-3.005
X4.4677Y-3.675
X4.8787Y-2.3367
X4.8787Y-3.005
X4.8787Y-3.675
X5.1763Y-2.0611
X5.1763Y-2.735
X5.1763Y-3.405
X5.5874Y-2.0611
X5.5874Y-2.735
X5.5874Y-3.405
X5.885Y-2.2777
X5.885Y-2.945
X5.885Y-3.615
X6.2317Y-4.6933
X6.296Y-2.2777
X6.296Y-2.945
X6.296Y-3.615
X6.5929Y-3.045
X6.5929Y-3.715
X6.5937Y-2.3761
X6.6287Y-4.7996
X6.9431Y-4.9323
X7.0039Y-3.045
X7.0039Y-3.715
X7.0047Y-2.3761
X7.299Y-5.1378
T3
X3.748Y-2.9745
X3.748Y-3.6438
X3.748Y-4.3131
X4.1811Y-2.9745
X4.1811Y-3.6438
X4.1811Y-4.3131
X4.4567Y-2.5021
X4.4567Y-3.1704
X4.4567Y-3.8404
X4.8897Y-2.5021
X4.8897Y-3.1704
X4.8897Y-3.8404
X5.1653Y-2.2265
X5.1653Y-2.9004
X5.1653Y-3.5704
X5.5984Y-2.2265
X5.5984Y-2.9004
X5.5984Y-3.5704
X5.874Y-2.443
X5.874Y-3.1104
X5.874Y-3.7804
X6.2639Y-4.5307
X6.307Y-2.443
X6.307Y-3.1104
X6.307Y-3.7804
X6.5819Y-3.2104
X6.5819Y-3.8804
X6.5826Y-2.5415
X6.6822Y-4.6428
X7.0149Y-3.2104
X7.0149Y-3.8804
X7.0157Y-2.5415
X7.0162Y-4.7836
X7.3913Y-5.0001
T4
X3.9645Y-2.9745
X3.9645Y-3.6438
X3.9645Y-4.3131
X4.6732Y-2.5021
X4.6732Y-3.1704
X4.6732Y-3.8404
X5.3819Y-2.2265
X5.3819Y-2.9004
X5.3819Y-3.5704
X6.0905Y-2.443
X6.0905Y-3.1104
X6.0905Y-3.7804
X6.473Y-4.5867
X6.7984Y-3.2104
X6.7984Y-3.8804
X6.7992Y-2.5415
X7.2037Y-4.8919
M30
