%TF.GenerationSoftware,KiCad,Pcbnew,8.0.4*%
%TF.CreationDate,2024-08-21T07:41:27-07:00*%
%TF.ProjectId,swoon,73776f6f-6e2e-46b6-9963-61645f706362,rev?*%
%TF.SameCoordinates,Original*%
%TF.FileFunction,Paste,Bot*%
%TF.FilePolarity,Positive*%
%FSLAX46Y46*%
G04 Gerber Fmt 4.6, Leading zero omitted, Abs format (unit mm)*
G04 Created by KiCad (PCBNEW 8.0.4) date 2024-08-21 07:41:27*
%MOMM*%
%LPD*%
G01*
G04 APERTURE LIST*
G04 Aperture macros list*
%AMRoundRect*
0 Rectangle with rounded corners*
0 $1 Rounding radius*
0 $2 $3 $4 $5 $6 $7 $8 $9 X,Y pos of 4 corners*
0 Add a 4 corners polygon primitive as box body*
4,1,4,$2,$3,$4,$5,$6,$7,$8,$9,$2,$3,0*
0 Add four circle primitives for the rounded corners*
1,1,$1+$1,$2,$3*
1,1,$1+$1,$4,$5*
1,1,$1+$1,$6,$7*
1,1,$1+$1,$8,$9*
0 Add four rect primitives between the rounded corners*
20,1,$1+$1,$2,$3,$4,$5,0*
20,1,$1+$1,$4,$5,$6,$7,0*
20,1,$1+$1,$6,$7,$8,$9,0*
20,1,$1+$1,$8,$9,$2,$3,0*%
G04 Aperture macros list end*
%ADD10RoundRect,0.243750X-0.243750X-0.456250X0.243750X-0.456250X0.243750X0.456250X-0.243750X0.456250X0*%
%ADD11RoundRect,0.243750X0.353531X0.377617X-0.117358X0.503791X-0.353531X-0.377617X0.117358X-0.503791X0*%
%ADD12C,1.400000*%
%ADD13RoundRect,0.150000X-0.625000X0.150000X-0.625000X-0.150000X0.625000X-0.150000X0.625000X0.150000X0*%
%ADD14RoundRect,0.250000X-0.650000X0.350000X-0.650000X-0.350000X0.650000X-0.350000X0.650000X0.350000X0*%
%ADD15R,0.700000X1.500000*%
%ADD16R,1.000000X0.800000*%
%ADD17RoundRect,0.243750X0.439219X0.273249X0.017031X0.516999X-0.439219X-0.273249X-0.017031X-0.516999X0*%
G04 APERTURE END LIST*
D10*
%TO.C,D12*%
X99761500Y-87853000D03*
X101636500Y-87853000D03*
%TD*%
%TO.C,D18*%
X153761500Y-74303000D03*
X155636500Y-74303000D03*
%TD*%
D11*
%TO.C,D32*%
X164069175Y-121286003D03*
X162258065Y-120800717D03*
%TD*%
D10*
%TO.C,D22*%
X99761500Y-104853000D03*
X101636500Y-104853000D03*
%TD*%
%TO.C,D30*%
X171741500Y-93861000D03*
X173616500Y-93861000D03*
%TD*%
%TO.C,D20*%
X171741500Y-76843000D03*
X173616500Y-76843000D03*
%TD*%
%TO.C,D4*%
X117761500Y-58853000D03*
X119636500Y-58853000D03*
%TD*%
%TO.C,D24*%
X117761500Y-92845000D03*
X119636500Y-92845000D03*
%TD*%
D12*
%TO.C,J74*%
X196555000Y-101355000D03*
%TD*%
D10*
%TO.C,D14*%
X117761500Y-75827000D03*
X119636500Y-75827000D03*
%TD*%
D13*
%TO.C,J76*%
X181728000Y-88282000D03*
X181728000Y-89282000D03*
D14*
X185603000Y-86982000D03*
X185603000Y-90582000D03*
%TD*%
D15*
%TO.C,SW19*%
X194535000Y-89770000D03*
X197535000Y-89770000D03*
X199035000Y-89770000D03*
D16*
X193135000Y-88985000D03*
X193135000Y-87055000D03*
X200435000Y-87055000D03*
X200435000Y-88985000D03*
%TD*%
D10*
%TO.C,D26*%
X135761500Y-85987000D03*
X137636500Y-85987000D03*
%TD*%
%TO.C,D10*%
X171761500Y-59853000D03*
X173636500Y-59853000D03*
%TD*%
%TO.C,D8*%
X153761500Y-57353000D03*
X155636500Y-57353000D03*
%TD*%
%TO.C,D16*%
X135761500Y-68969000D03*
X137636500Y-68969000D03*
%TD*%
%TO.C,D6*%
X135761500Y-51853000D03*
X137636500Y-51853000D03*
%TD*%
%TO.C,D28*%
X153761500Y-91321000D03*
X155636500Y-91321000D03*
%TD*%
D17*
%TO.C,D34*%
X181431862Y-128740220D03*
X179808064Y-127802720D03*
%TD*%
D10*
%TO.C,D2*%
X99761500Y-70853000D03*
X101636500Y-70853000D03*
%TD*%
M02*
