%TF.GenerationSoftware,KiCad,Pcbnew,8.0.4*%
%TF.CreationDate,2024-08-19T15:24:44-07:00*%
%TF.ProjectId,swoon,73776f6f-6e2e-46b6-9963-61645f706362,rev?*%
%TF.SameCoordinates,Original*%
%TF.FileFunction,Legend,Bot*%
%TF.FilePolarity,Positive*%
%FSLAX46Y46*%
G04 Gerber Fmt 4.6, Leading zero omitted, Abs format (unit mm)*
G04 Created by KiCad (PCBNEW 8.0.4) date 2024-08-19 15:24:44*
%MOMM*%
%LPD*%
G01*
G04 APERTURE LIST*
G04 Aperture macros list*
%AMRoundRect*
0 Rectangle with rounded corners*
0 $1 Rounding radius*
0 $2 $3 $4 $5 $6 $7 $8 $9 X,Y pos of 4 corners*
0 Add a 4 corners polygon primitive as box body*
4,1,4,$2,$3,$4,$5,$6,$7,$8,$9,$2,$3,0*
0 Add four circle primitives for the rounded corners*
1,1,$1+$1,$2,$3*
1,1,$1+$1,$4,$5*
1,1,$1+$1,$6,$7*
1,1,$1+$1,$8,$9*
0 Add four rect primitives between the rounded corners*
20,1,$1+$1,$2,$3,$4,$5,0*
20,1,$1+$1,$4,$5,$6,$7,0*
20,1,$1+$1,$6,$7,$8,$9,0*
20,1,$1+$1,$8,$9,$2,$3,0*%
%AMFreePoly0*
4,1,6,0.600000,0.200000,0.000000,-0.400000,-0.600000,0.200000,-0.600000,0.400000,0.600000,0.400000,0.600000,0.200000,0.600000,0.200000,$1*%
%AMFreePoly1*
4,1,6,0.600000,-0.250000,-0.600000,-0.250000,-0.600000,1.000000,0.000000,0.400000,0.600000,1.000000,0.600000,-0.250000,0.600000,-0.250000,$1*%
G04 Aperture macros list end*
%ADD10C,0.160000*%
%ADD11C,0.100000*%
%ADD12C,0.150000*%
%ADD13C,0.120000*%
%ADD14C,0.127000*%
%ADD15C,0.250000*%
%ADD16C,1.701800*%
%ADD17C,0.990600*%
%ADD18C,3.429000*%
%ADD19C,2.262000*%
%ADD20C,0.620000*%
%ADD21C,1.600000*%
%ADD22FreePoly0,270.000000*%
%ADD23FreePoly0,90.000000*%
%ADD24FreePoly1,270.000000*%
%ADD25FreePoly1,90.000000*%
%ADD26C,1.800000*%
%ADD27R,1.700000X1.700000*%
%ADD28O,1.700000X1.700000*%
%ADD29C,0.900000*%
%ADD30C,1.830000*%
%ADD31RoundRect,0.243750X-0.243750X-0.456250X0.243750X-0.456250X0.243750X0.456250X-0.243750X0.456250X0*%
%ADD32RoundRect,0.243750X0.353531X0.377617X-0.117358X0.503791X-0.353531X-0.377617X0.117358X-0.503791X0*%
%ADD33RoundRect,0.150000X-0.625000X0.150000X-0.625000X-0.150000X0.625000X-0.150000X0.625000X0.150000X0*%
%ADD34RoundRect,0.250000X-0.650000X0.350000X-0.650000X-0.350000X0.650000X-0.350000X0.650000X0.350000X0*%
%ADD35RoundRect,0.102000X-0.537699X-0.629189X0.136842X-0.816256X0.537699X0.629189X-0.136842X0.816256X0*%
%ADD36RoundRect,0.102000X-0.588711X-0.251833X0.374920X-0.519071X0.588711X0.251833X-0.374920X0.519071X0*%
%ADD37RoundRect,0.243750X0.439219X0.273249X0.017031X0.516999X-0.439219X-0.273249X-0.017031X-0.516999X0*%
G04 APERTURE END LIST*
D10*
X33407308Y-44413180D02*
X33278737Y-44456037D01*
X33278737Y-44456037D02*
X33064451Y-44456037D01*
X33064451Y-44456037D02*
X32978737Y-44413180D01*
X32978737Y-44413180D02*
X32935879Y-44370322D01*
X32935879Y-44370322D02*
X32893022Y-44284608D01*
X32893022Y-44284608D02*
X32893022Y-44198894D01*
X32893022Y-44198894D02*
X32935879Y-44113180D01*
X32935879Y-44113180D02*
X32978737Y-44070322D01*
X32978737Y-44070322D02*
X33064451Y-44027465D01*
X33064451Y-44027465D02*
X33235879Y-43984608D01*
X33235879Y-43984608D02*
X33321594Y-43941751D01*
X33321594Y-43941751D02*
X33364451Y-43898894D01*
X33364451Y-43898894D02*
X33407308Y-43813180D01*
X33407308Y-43813180D02*
X33407308Y-43727465D01*
X33407308Y-43727465D02*
X33364451Y-43641751D01*
X33364451Y-43641751D02*
X33321594Y-43598894D01*
X33321594Y-43598894D02*
X33235879Y-43556037D01*
X33235879Y-43556037D02*
X33021594Y-43556037D01*
X33021594Y-43556037D02*
X32893022Y-43598894D01*
X32593022Y-43556037D02*
X32378736Y-44456037D01*
X32378736Y-44456037D02*
X32207308Y-43813180D01*
X32207308Y-43813180D02*
X32035879Y-44456037D01*
X32035879Y-44456037D02*
X31821594Y-43556037D01*
X31007308Y-44456037D02*
X31521594Y-44456037D01*
X31264451Y-44456037D02*
X31264451Y-43556037D01*
X31264451Y-43556037D02*
X31350165Y-43684608D01*
X31350165Y-43684608D02*
X31435880Y-43770322D01*
X31435880Y-43770322D02*
X31521594Y-43813180D01*
X51407308Y-32413180D02*
X51278737Y-32456037D01*
X51278737Y-32456037D02*
X51064451Y-32456037D01*
X51064451Y-32456037D02*
X50978737Y-32413180D01*
X50978737Y-32413180D02*
X50935879Y-32370322D01*
X50935879Y-32370322D02*
X50893022Y-32284608D01*
X50893022Y-32284608D02*
X50893022Y-32198894D01*
X50893022Y-32198894D02*
X50935879Y-32113180D01*
X50935879Y-32113180D02*
X50978737Y-32070322D01*
X50978737Y-32070322D02*
X51064451Y-32027465D01*
X51064451Y-32027465D02*
X51235879Y-31984608D01*
X51235879Y-31984608D02*
X51321594Y-31941751D01*
X51321594Y-31941751D02*
X51364451Y-31898894D01*
X51364451Y-31898894D02*
X51407308Y-31813180D01*
X51407308Y-31813180D02*
X51407308Y-31727465D01*
X51407308Y-31727465D02*
X51364451Y-31641751D01*
X51364451Y-31641751D02*
X51321594Y-31598894D01*
X51321594Y-31598894D02*
X51235879Y-31556037D01*
X51235879Y-31556037D02*
X51021594Y-31556037D01*
X51021594Y-31556037D02*
X50893022Y-31598894D01*
X50593022Y-31556037D02*
X50378736Y-32456037D01*
X50378736Y-32456037D02*
X50207308Y-31813180D01*
X50207308Y-31813180D02*
X50035879Y-32456037D01*
X50035879Y-32456037D02*
X49821594Y-31556037D01*
X49521594Y-31641751D02*
X49478737Y-31598894D01*
X49478737Y-31598894D02*
X49393023Y-31556037D01*
X49393023Y-31556037D02*
X49178737Y-31556037D01*
X49178737Y-31556037D02*
X49093023Y-31598894D01*
X49093023Y-31598894D02*
X49050165Y-31641751D01*
X49050165Y-31641751D02*
X49007308Y-31727465D01*
X49007308Y-31727465D02*
X49007308Y-31813180D01*
X49007308Y-31813180D02*
X49050165Y-31941751D01*
X49050165Y-31941751D02*
X49564451Y-32456037D01*
X49564451Y-32456037D02*
X49007308Y-32456037D01*
X69407308Y-25413180D02*
X69278737Y-25456037D01*
X69278737Y-25456037D02*
X69064451Y-25456037D01*
X69064451Y-25456037D02*
X68978737Y-25413180D01*
X68978737Y-25413180D02*
X68935879Y-25370322D01*
X68935879Y-25370322D02*
X68893022Y-25284608D01*
X68893022Y-25284608D02*
X68893022Y-25198894D01*
X68893022Y-25198894D02*
X68935879Y-25113180D01*
X68935879Y-25113180D02*
X68978737Y-25070322D01*
X68978737Y-25070322D02*
X69064451Y-25027465D01*
X69064451Y-25027465D02*
X69235879Y-24984608D01*
X69235879Y-24984608D02*
X69321594Y-24941751D01*
X69321594Y-24941751D02*
X69364451Y-24898894D01*
X69364451Y-24898894D02*
X69407308Y-24813180D01*
X69407308Y-24813180D02*
X69407308Y-24727465D01*
X69407308Y-24727465D02*
X69364451Y-24641751D01*
X69364451Y-24641751D02*
X69321594Y-24598894D01*
X69321594Y-24598894D02*
X69235879Y-24556037D01*
X69235879Y-24556037D02*
X69021594Y-24556037D01*
X69021594Y-24556037D02*
X68893022Y-24598894D01*
X68593022Y-24556037D02*
X68378736Y-25456037D01*
X68378736Y-25456037D02*
X68207308Y-24813180D01*
X68207308Y-24813180D02*
X68035879Y-25456037D01*
X68035879Y-25456037D02*
X67821594Y-24556037D01*
X67564451Y-24556037D02*
X67007308Y-24556037D01*
X67007308Y-24556037D02*
X67307308Y-24898894D01*
X67307308Y-24898894D02*
X67178737Y-24898894D01*
X67178737Y-24898894D02*
X67093023Y-24941751D01*
X67093023Y-24941751D02*
X67050165Y-24984608D01*
X67050165Y-24984608D02*
X67007308Y-25070322D01*
X67007308Y-25070322D02*
X67007308Y-25284608D01*
X67007308Y-25284608D02*
X67050165Y-25370322D01*
X67050165Y-25370322D02*
X67093023Y-25413180D01*
X67093023Y-25413180D02*
X67178737Y-25456037D01*
X67178737Y-25456037D02*
X67435880Y-25456037D01*
X67435880Y-25456037D02*
X67521594Y-25413180D01*
X67521594Y-25413180D02*
X67564451Y-25370322D01*
X87407308Y-30913180D02*
X87278737Y-30956037D01*
X87278737Y-30956037D02*
X87064451Y-30956037D01*
X87064451Y-30956037D02*
X86978737Y-30913180D01*
X86978737Y-30913180D02*
X86935879Y-30870322D01*
X86935879Y-30870322D02*
X86893022Y-30784608D01*
X86893022Y-30784608D02*
X86893022Y-30698894D01*
X86893022Y-30698894D02*
X86935879Y-30613180D01*
X86935879Y-30613180D02*
X86978737Y-30570322D01*
X86978737Y-30570322D02*
X87064451Y-30527465D01*
X87064451Y-30527465D02*
X87235879Y-30484608D01*
X87235879Y-30484608D02*
X87321594Y-30441751D01*
X87321594Y-30441751D02*
X87364451Y-30398894D01*
X87364451Y-30398894D02*
X87407308Y-30313180D01*
X87407308Y-30313180D02*
X87407308Y-30227465D01*
X87407308Y-30227465D02*
X87364451Y-30141751D01*
X87364451Y-30141751D02*
X87321594Y-30098894D01*
X87321594Y-30098894D02*
X87235879Y-30056037D01*
X87235879Y-30056037D02*
X87021594Y-30056037D01*
X87021594Y-30056037D02*
X86893022Y-30098894D01*
X86593022Y-30056037D02*
X86378736Y-30956037D01*
X86378736Y-30956037D02*
X86207308Y-30313180D01*
X86207308Y-30313180D02*
X86035879Y-30956037D01*
X86035879Y-30956037D02*
X85821594Y-30056037D01*
X85093023Y-30356037D02*
X85093023Y-30956037D01*
X85307308Y-30013180D02*
X85521594Y-30656037D01*
X85521594Y-30656037D02*
X84964451Y-30656037D01*
X105407308Y-33413180D02*
X105278737Y-33456037D01*
X105278737Y-33456037D02*
X105064451Y-33456037D01*
X105064451Y-33456037D02*
X104978737Y-33413180D01*
X104978737Y-33413180D02*
X104935879Y-33370322D01*
X104935879Y-33370322D02*
X104893022Y-33284608D01*
X104893022Y-33284608D02*
X104893022Y-33198894D01*
X104893022Y-33198894D02*
X104935879Y-33113180D01*
X104935879Y-33113180D02*
X104978737Y-33070322D01*
X104978737Y-33070322D02*
X105064451Y-33027465D01*
X105064451Y-33027465D02*
X105235879Y-32984608D01*
X105235879Y-32984608D02*
X105321594Y-32941751D01*
X105321594Y-32941751D02*
X105364451Y-32898894D01*
X105364451Y-32898894D02*
X105407308Y-32813180D01*
X105407308Y-32813180D02*
X105407308Y-32727465D01*
X105407308Y-32727465D02*
X105364451Y-32641751D01*
X105364451Y-32641751D02*
X105321594Y-32598894D01*
X105321594Y-32598894D02*
X105235879Y-32556037D01*
X105235879Y-32556037D02*
X105021594Y-32556037D01*
X105021594Y-32556037D02*
X104893022Y-32598894D01*
X104593022Y-32556037D02*
X104378736Y-33456037D01*
X104378736Y-33456037D02*
X104207308Y-32813180D01*
X104207308Y-32813180D02*
X104035879Y-33456037D01*
X104035879Y-33456037D02*
X103821594Y-32556037D01*
X103050165Y-32556037D02*
X103478737Y-32556037D01*
X103478737Y-32556037D02*
X103521594Y-32984608D01*
X103521594Y-32984608D02*
X103478737Y-32941751D01*
X103478737Y-32941751D02*
X103393023Y-32898894D01*
X103393023Y-32898894D02*
X103178737Y-32898894D01*
X103178737Y-32898894D02*
X103093023Y-32941751D01*
X103093023Y-32941751D02*
X103050165Y-32984608D01*
X103050165Y-32984608D02*
X103007308Y-33070322D01*
X103007308Y-33070322D02*
X103007308Y-33284608D01*
X103007308Y-33284608D02*
X103050165Y-33370322D01*
X103050165Y-33370322D02*
X103093023Y-33413180D01*
X103093023Y-33413180D02*
X103178737Y-33456037D01*
X103178737Y-33456037D02*
X103393023Y-33456037D01*
X103393023Y-33456037D02*
X103478737Y-33413180D01*
X103478737Y-33413180D02*
X103521594Y-33370322D01*
X33407308Y-61413180D02*
X33278737Y-61456037D01*
X33278737Y-61456037D02*
X33064451Y-61456037D01*
X33064451Y-61456037D02*
X32978737Y-61413180D01*
X32978737Y-61413180D02*
X32935879Y-61370322D01*
X32935879Y-61370322D02*
X32893022Y-61284608D01*
X32893022Y-61284608D02*
X32893022Y-61198894D01*
X32893022Y-61198894D02*
X32935879Y-61113180D01*
X32935879Y-61113180D02*
X32978737Y-61070322D01*
X32978737Y-61070322D02*
X33064451Y-61027465D01*
X33064451Y-61027465D02*
X33235879Y-60984608D01*
X33235879Y-60984608D02*
X33321594Y-60941751D01*
X33321594Y-60941751D02*
X33364451Y-60898894D01*
X33364451Y-60898894D02*
X33407308Y-60813180D01*
X33407308Y-60813180D02*
X33407308Y-60727465D01*
X33407308Y-60727465D02*
X33364451Y-60641751D01*
X33364451Y-60641751D02*
X33321594Y-60598894D01*
X33321594Y-60598894D02*
X33235879Y-60556037D01*
X33235879Y-60556037D02*
X33021594Y-60556037D01*
X33021594Y-60556037D02*
X32893022Y-60598894D01*
X32593022Y-60556037D02*
X32378736Y-61456037D01*
X32378736Y-61456037D02*
X32207308Y-60813180D01*
X32207308Y-60813180D02*
X32035879Y-61456037D01*
X32035879Y-61456037D02*
X31821594Y-60556037D01*
X31093023Y-60556037D02*
X31264451Y-60556037D01*
X31264451Y-60556037D02*
X31350165Y-60598894D01*
X31350165Y-60598894D02*
X31393023Y-60641751D01*
X31393023Y-60641751D02*
X31478737Y-60770322D01*
X31478737Y-60770322D02*
X31521594Y-60941751D01*
X31521594Y-60941751D02*
X31521594Y-61284608D01*
X31521594Y-61284608D02*
X31478737Y-61370322D01*
X31478737Y-61370322D02*
X31435880Y-61413180D01*
X31435880Y-61413180D02*
X31350165Y-61456037D01*
X31350165Y-61456037D02*
X31178737Y-61456037D01*
X31178737Y-61456037D02*
X31093023Y-61413180D01*
X31093023Y-61413180D02*
X31050165Y-61370322D01*
X31050165Y-61370322D02*
X31007308Y-61284608D01*
X31007308Y-61284608D02*
X31007308Y-61070322D01*
X31007308Y-61070322D02*
X31050165Y-60984608D01*
X31050165Y-60984608D02*
X31093023Y-60941751D01*
X31093023Y-60941751D02*
X31178737Y-60898894D01*
X31178737Y-60898894D02*
X31350165Y-60898894D01*
X31350165Y-60898894D02*
X31435880Y-60941751D01*
X31435880Y-60941751D02*
X31478737Y-60984608D01*
X31478737Y-60984608D02*
X31521594Y-61070322D01*
X51407308Y-49387180D02*
X51278737Y-49430037D01*
X51278737Y-49430037D02*
X51064451Y-49430037D01*
X51064451Y-49430037D02*
X50978737Y-49387180D01*
X50978737Y-49387180D02*
X50935879Y-49344322D01*
X50935879Y-49344322D02*
X50893022Y-49258608D01*
X50893022Y-49258608D02*
X50893022Y-49172894D01*
X50893022Y-49172894D02*
X50935879Y-49087180D01*
X50935879Y-49087180D02*
X50978737Y-49044322D01*
X50978737Y-49044322D02*
X51064451Y-49001465D01*
X51064451Y-49001465D02*
X51235879Y-48958608D01*
X51235879Y-48958608D02*
X51321594Y-48915751D01*
X51321594Y-48915751D02*
X51364451Y-48872894D01*
X51364451Y-48872894D02*
X51407308Y-48787180D01*
X51407308Y-48787180D02*
X51407308Y-48701465D01*
X51407308Y-48701465D02*
X51364451Y-48615751D01*
X51364451Y-48615751D02*
X51321594Y-48572894D01*
X51321594Y-48572894D02*
X51235879Y-48530037D01*
X51235879Y-48530037D02*
X51021594Y-48530037D01*
X51021594Y-48530037D02*
X50893022Y-48572894D01*
X50593022Y-48530037D02*
X50378736Y-49430037D01*
X50378736Y-49430037D02*
X50207308Y-48787180D01*
X50207308Y-48787180D02*
X50035879Y-49430037D01*
X50035879Y-49430037D02*
X49821594Y-48530037D01*
X49564451Y-48530037D02*
X48964451Y-48530037D01*
X48964451Y-48530037D02*
X49350165Y-49430037D01*
X69407308Y-42529180D02*
X69278737Y-42572037D01*
X69278737Y-42572037D02*
X69064451Y-42572037D01*
X69064451Y-42572037D02*
X68978737Y-42529180D01*
X68978737Y-42529180D02*
X68935879Y-42486322D01*
X68935879Y-42486322D02*
X68893022Y-42400608D01*
X68893022Y-42400608D02*
X68893022Y-42314894D01*
X68893022Y-42314894D02*
X68935879Y-42229180D01*
X68935879Y-42229180D02*
X68978737Y-42186322D01*
X68978737Y-42186322D02*
X69064451Y-42143465D01*
X69064451Y-42143465D02*
X69235879Y-42100608D01*
X69235879Y-42100608D02*
X69321594Y-42057751D01*
X69321594Y-42057751D02*
X69364451Y-42014894D01*
X69364451Y-42014894D02*
X69407308Y-41929180D01*
X69407308Y-41929180D02*
X69407308Y-41843465D01*
X69407308Y-41843465D02*
X69364451Y-41757751D01*
X69364451Y-41757751D02*
X69321594Y-41714894D01*
X69321594Y-41714894D02*
X69235879Y-41672037D01*
X69235879Y-41672037D02*
X69021594Y-41672037D01*
X69021594Y-41672037D02*
X68893022Y-41714894D01*
X68593022Y-41672037D02*
X68378736Y-42572037D01*
X68378736Y-42572037D02*
X68207308Y-41929180D01*
X68207308Y-41929180D02*
X68035879Y-42572037D01*
X68035879Y-42572037D02*
X67821594Y-41672037D01*
X67350165Y-42057751D02*
X67435880Y-42014894D01*
X67435880Y-42014894D02*
X67478737Y-41972037D01*
X67478737Y-41972037D02*
X67521594Y-41886322D01*
X67521594Y-41886322D02*
X67521594Y-41843465D01*
X67521594Y-41843465D02*
X67478737Y-41757751D01*
X67478737Y-41757751D02*
X67435880Y-41714894D01*
X67435880Y-41714894D02*
X67350165Y-41672037D01*
X67350165Y-41672037D02*
X67178737Y-41672037D01*
X67178737Y-41672037D02*
X67093023Y-41714894D01*
X67093023Y-41714894D02*
X67050165Y-41757751D01*
X67050165Y-41757751D02*
X67007308Y-41843465D01*
X67007308Y-41843465D02*
X67007308Y-41886322D01*
X67007308Y-41886322D02*
X67050165Y-41972037D01*
X67050165Y-41972037D02*
X67093023Y-42014894D01*
X67093023Y-42014894D02*
X67178737Y-42057751D01*
X67178737Y-42057751D02*
X67350165Y-42057751D01*
X67350165Y-42057751D02*
X67435880Y-42100608D01*
X67435880Y-42100608D02*
X67478737Y-42143465D01*
X67478737Y-42143465D02*
X67521594Y-42229180D01*
X67521594Y-42229180D02*
X67521594Y-42400608D01*
X67521594Y-42400608D02*
X67478737Y-42486322D01*
X67478737Y-42486322D02*
X67435880Y-42529180D01*
X67435880Y-42529180D02*
X67350165Y-42572037D01*
X67350165Y-42572037D02*
X67178737Y-42572037D01*
X67178737Y-42572037D02*
X67093023Y-42529180D01*
X67093023Y-42529180D02*
X67050165Y-42486322D01*
X67050165Y-42486322D02*
X67007308Y-42400608D01*
X67007308Y-42400608D02*
X67007308Y-42229180D01*
X67007308Y-42229180D02*
X67050165Y-42143465D01*
X67050165Y-42143465D02*
X67093023Y-42100608D01*
X67093023Y-42100608D02*
X67178737Y-42057751D01*
X87407308Y-47863180D02*
X87278737Y-47906037D01*
X87278737Y-47906037D02*
X87064451Y-47906037D01*
X87064451Y-47906037D02*
X86978737Y-47863180D01*
X86978737Y-47863180D02*
X86935879Y-47820322D01*
X86935879Y-47820322D02*
X86893022Y-47734608D01*
X86893022Y-47734608D02*
X86893022Y-47648894D01*
X86893022Y-47648894D02*
X86935879Y-47563180D01*
X86935879Y-47563180D02*
X86978737Y-47520322D01*
X86978737Y-47520322D02*
X87064451Y-47477465D01*
X87064451Y-47477465D02*
X87235879Y-47434608D01*
X87235879Y-47434608D02*
X87321594Y-47391751D01*
X87321594Y-47391751D02*
X87364451Y-47348894D01*
X87364451Y-47348894D02*
X87407308Y-47263180D01*
X87407308Y-47263180D02*
X87407308Y-47177465D01*
X87407308Y-47177465D02*
X87364451Y-47091751D01*
X87364451Y-47091751D02*
X87321594Y-47048894D01*
X87321594Y-47048894D02*
X87235879Y-47006037D01*
X87235879Y-47006037D02*
X87021594Y-47006037D01*
X87021594Y-47006037D02*
X86893022Y-47048894D01*
X86593022Y-47006037D02*
X86378736Y-47906037D01*
X86378736Y-47906037D02*
X86207308Y-47263180D01*
X86207308Y-47263180D02*
X86035879Y-47906037D01*
X86035879Y-47906037D02*
X85821594Y-47006037D01*
X85435880Y-47906037D02*
X85264451Y-47906037D01*
X85264451Y-47906037D02*
X85178737Y-47863180D01*
X85178737Y-47863180D02*
X85135880Y-47820322D01*
X85135880Y-47820322D02*
X85050165Y-47691751D01*
X85050165Y-47691751D02*
X85007308Y-47520322D01*
X85007308Y-47520322D02*
X85007308Y-47177465D01*
X85007308Y-47177465D02*
X85050165Y-47091751D01*
X85050165Y-47091751D02*
X85093023Y-47048894D01*
X85093023Y-47048894D02*
X85178737Y-47006037D01*
X85178737Y-47006037D02*
X85350165Y-47006037D01*
X85350165Y-47006037D02*
X85435880Y-47048894D01*
X85435880Y-47048894D02*
X85478737Y-47091751D01*
X85478737Y-47091751D02*
X85521594Y-47177465D01*
X85521594Y-47177465D02*
X85521594Y-47391751D01*
X85521594Y-47391751D02*
X85478737Y-47477465D01*
X85478737Y-47477465D02*
X85435880Y-47520322D01*
X85435880Y-47520322D02*
X85350165Y-47563180D01*
X85350165Y-47563180D02*
X85178737Y-47563180D01*
X85178737Y-47563180D02*
X85093023Y-47520322D01*
X85093023Y-47520322D02*
X85050165Y-47477465D01*
X85050165Y-47477465D02*
X85007308Y-47391751D01*
X105387308Y-50403180D02*
X105258737Y-50446037D01*
X105258737Y-50446037D02*
X105044451Y-50446037D01*
X105044451Y-50446037D02*
X104958737Y-50403180D01*
X104958737Y-50403180D02*
X104915879Y-50360322D01*
X104915879Y-50360322D02*
X104873022Y-50274608D01*
X104873022Y-50274608D02*
X104873022Y-50188894D01*
X104873022Y-50188894D02*
X104915879Y-50103180D01*
X104915879Y-50103180D02*
X104958737Y-50060322D01*
X104958737Y-50060322D02*
X105044451Y-50017465D01*
X105044451Y-50017465D02*
X105215879Y-49974608D01*
X105215879Y-49974608D02*
X105301594Y-49931751D01*
X105301594Y-49931751D02*
X105344451Y-49888894D01*
X105344451Y-49888894D02*
X105387308Y-49803180D01*
X105387308Y-49803180D02*
X105387308Y-49717465D01*
X105387308Y-49717465D02*
X105344451Y-49631751D01*
X105344451Y-49631751D02*
X105301594Y-49588894D01*
X105301594Y-49588894D02*
X105215879Y-49546037D01*
X105215879Y-49546037D02*
X105001594Y-49546037D01*
X105001594Y-49546037D02*
X104873022Y-49588894D01*
X104573022Y-49546037D02*
X104358736Y-50446037D01*
X104358736Y-50446037D02*
X104187308Y-49803180D01*
X104187308Y-49803180D02*
X104015879Y-50446037D01*
X104015879Y-50446037D02*
X103801594Y-49546037D01*
X102987308Y-50446037D02*
X103501594Y-50446037D01*
X103244451Y-50446037D02*
X103244451Y-49546037D01*
X103244451Y-49546037D02*
X103330165Y-49674608D01*
X103330165Y-49674608D02*
X103415880Y-49760322D01*
X103415880Y-49760322D02*
X103501594Y-49803180D01*
X102430165Y-49546037D02*
X102344451Y-49546037D01*
X102344451Y-49546037D02*
X102258737Y-49588894D01*
X102258737Y-49588894D02*
X102215880Y-49631751D01*
X102215880Y-49631751D02*
X102173022Y-49717465D01*
X102173022Y-49717465D02*
X102130165Y-49888894D01*
X102130165Y-49888894D02*
X102130165Y-50103180D01*
X102130165Y-50103180D02*
X102173022Y-50274608D01*
X102173022Y-50274608D02*
X102215880Y-50360322D01*
X102215880Y-50360322D02*
X102258737Y-50403180D01*
X102258737Y-50403180D02*
X102344451Y-50446037D01*
X102344451Y-50446037D02*
X102430165Y-50446037D01*
X102430165Y-50446037D02*
X102515880Y-50403180D01*
X102515880Y-50403180D02*
X102558737Y-50360322D01*
X102558737Y-50360322D02*
X102601594Y-50274608D01*
X102601594Y-50274608D02*
X102644451Y-50103180D01*
X102644451Y-50103180D02*
X102644451Y-49888894D01*
X102644451Y-49888894D02*
X102601594Y-49717465D01*
X102601594Y-49717465D02*
X102558737Y-49631751D01*
X102558737Y-49631751D02*
X102515880Y-49588894D01*
X102515880Y-49588894D02*
X102430165Y-49546037D01*
X33407308Y-78413180D02*
X33278737Y-78456037D01*
X33278737Y-78456037D02*
X33064451Y-78456037D01*
X33064451Y-78456037D02*
X32978737Y-78413180D01*
X32978737Y-78413180D02*
X32935879Y-78370322D01*
X32935879Y-78370322D02*
X32893022Y-78284608D01*
X32893022Y-78284608D02*
X32893022Y-78198894D01*
X32893022Y-78198894D02*
X32935879Y-78113180D01*
X32935879Y-78113180D02*
X32978737Y-78070322D01*
X32978737Y-78070322D02*
X33064451Y-78027465D01*
X33064451Y-78027465D02*
X33235879Y-77984608D01*
X33235879Y-77984608D02*
X33321594Y-77941751D01*
X33321594Y-77941751D02*
X33364451Y-77898894D01*
X33364451Y-77898894D02*
X33407308Y-77813180D01*
X33407308Y-77813180D02*
X33407308Y-77727465D01*
X33407308Y-77727465D02*
X33364451Y-77641751D01*
X33364451Y-77641751D02*
X33321594Y-77598894D01*
X33321594Y-77598894D02*
X33235879Y-77556037D01*
X33235879Y-77556037D02*
X33021594Y-77556037D01*
X33021594Y-77556037D02*
X32893022Y-77598894D01*
X32593022Y-77556037D02*
X32378736Y-78456037D01*
X32378736Y-78456037D02*
X32207308Y-77813180D01*
X32207308Y-77813180D02*
X32035879Y-78456037D01*
X32035879Y-78456037D02*
X31821594Y-77556037D01*
X31007308Y-78456037D02*
X31521594Y-78456037D01*
X31264451Y-78456037D02*
X31264451Y-77556037D01*
X31264451Y-77556037D02*
X31350165Y-77684608D01*
X31350165Y-77684608D02*
X31435880Y-77770322D01*
X31435880Y-77770322D02*
X31521594Y-77813180D01*
X30150165Y-78456037D02*
X30664451Y-78456037D01*
X30407308Y-78456037D02*
X30407308Y-77556037D01*
X30407308Y-77556037D02*
X30493022Y-77684608D01*
X30493022Y-77684608D02*
X30578737Y-77770322D01*
X30578737Y-77770322D02*
X30664451Y-77813180D01*
X51407308Y-66405180D02*
X51278737Y-66448037D01*
X51278737Y-66448037D02*
X51064451Y-66448037D01*
X51064451Y-66448037D02*
X50978737Y-66405180D01*
X50978737Y-66405180D02*
X50935879Y-66362322D01*
X50935879Y-66362322D02*
X50893022Y-66276608D01*
X50893022Y-66276608D02*
X50893022Y-66190894D01*
X50893022Y-66190894D02*
X50935879Y-66105180D01*
X50935879Y-66105180D02*
X50978737Y-66062322D01*
X50978737Y-66062322D02*
X51064451Y-66019465D01*
X51064451Y-66019465D02*
X51235879Y-65976608D01*
X51235879Y-65976608D02*
X51321594Y-65933751D01*
X51321594Y-65933751D02*
X51364451Y-65890894D01*
X51364451Y-65890894D02*
X51407308Y-65805180D01*
X51407308Y-65805180D02*
X51407308Y-65719465D01*
X51407308Y-65719465D02*
X51364451Y-65633751D01*
X51364451Y-65633751D02*
X51321594Y-65590894D01*
X51321594Y-65590894D02*
X51235879Y-65548037D01*
X51235879Y-65548037D02*
X51021594Y-65548037D01*
X51021594Y-65548037D02*
X50893022Y-65590894D01*
X50593022Y-65548037D02*
X50378736Y-66448037D01*
X50378736Y-66448037D02*
X50207308Y-65805180D01*
X50207308Y-65805180D02*
X50035879Y-66448037D01*
X50035879Y-66448037D02*
X49821594Y-65548037D01*
X49007308Y-66448037D02*
X49521594Y-66448037D01*
X49264451Y-66448037D02*
X49264451Y-65548037D01*
X49264451Y-65548037D02*
X49350165Y-65676608D01*
X49350165Y-65676608D02*
X49435880Y-65762322D01*
X49435880Y-65762322D02*
X49521594Y-65805180D01*
X48664451Y-65633751D02*
X48621594Y-65590894D01*
X48621594Y-65590894D02*
X48535880Y-65548037D01*
X48535880Y-65548037D02*
X48321594Y-65548037D01*
X48321594Y-65548037D02*
X48235880Y-65590894D01*
X48235880Y-65590894D02*
X48193022Y-65633751D01*
X48193022Y-65633751D02*
X48150165Y-65719465D01*
X48150165Y-65719465D02*
X48150165Y-65805180D01*
X48150165Y-65805180D02*
X48193022Y-65933751D01*
X48193022Y-65933751D02*
X48707308Y-66448037D01*
X48707308Y-66448037D02*
X48150165Y-66448037D01*
X69407308Y-59547180D02*
X69278737Y-59590037D01*
X69278737Y-59590037D02*
X69064451Y-59590037D01*
X69064451Y-59590037D02*
X68978737Y-59547180D01*
X68978737Y-59547180D02*
X68935879Y-59504322D01*
X68935879Y-59504322D02*
X68893022Y-59418608D01*
X68893022Y-59418608D02*
X68893022Y-59332894D01*
X68893022Y-59332894D02*
X68935879Y-59247180D01*
X68935879Y-59247180D02*
X68978737Y-59204322D01*
X68978737Y-59204322D02*
X69064451Y-59161465D01*
X69064451Y-59161465D02*
X69235879Y-59118608D01*
X69235879Y-59118608D02*
X69321594Y-59075751D01*
X69321594Y-59075751D02*
X69364451Y-59032894D01*
X69364451Y-59032894D02*
X69407308Y-58947180D01*
X69407308Y-58947180D02*
X69407308Y-58861465D01*
X69407308Y-58861465D02*
X69364451Y-58775751D01*
X69364451Y-58775751D02*
X69321594Y-58732894D01*
X69321594Y-58732894D02*
X69235879Y-58690037D01*
X69235879Y-58690037D02*
X69021594Y-58690037D01*
X69021594Y-58690037D02*
X68893022Y-58732894D01*
X68593022Y-58690037D02*
X68378736Y-59590037D01*
X68378736Y-59590037D02*
X68207308Y-58947180D01*
X68207308Y-58947180D02*
X68035879Y-59590037D01*
X68035879Y-59590037D02*
X67821594Y-58690037D01*
X67007308Y-59590037D02*
X67521594Y-59590037D01*
X67264451Y-59590037D02*
X67264451Y-58690037D01*
X67264451Y-58690037D02*
X67350165Y-58818608D01*
X67350165Y-58818608D02*
X67435880Y-58904322D01*
X67435880Y-58904322D02*
X67521594Y-58947180D01*
X66707308Y-58690037D02*
X66150165Y-58690037D01*
X66150165Y-58690037D02*
X66450165Y-59032894D01*
X66450165Y-59032894D02*
X66321594Y-59032894D01*
X66321594Y-59032894D02*
X66235880Y-59075751D01*
X66235880Y-59075751D02*
X66193022Y-59118608D01*
X66193022Y-59118608D02*
X66150165Y-59204322D01*
X66150165Y-59204322D02*
X66150165Y-59418608D01*
X66150165Y-59418608D02*
X66193022Y-59504322D01*
X66193022Y-59504322D02*
X66235880Y-59547180D01*
X66235880Y-59547180D02*
X66321594Y-59590037D01*
X66321594Y-59590037D02*
X66578737Y-59590037D01*
X66578737Y-59590037D02*
X66664451Y-59547180D01*
X66664451Y-59547180D02*
X66707308Y-59504322D01*
X87407308Y-64881180D02*
X87278737Y-64924037D01*
X87278737Y-64924037D02*
X87064451Y-64924037D01*
X87064451Y-64924037D02*
X86978737Y-64881180D01*
X86978737Y-64881180D02*
X86935879Y-64838322D01*
X86935879Y-64838322D02*
X86893022Y-64752608D01*
X86893022Y-64752608D02*
X86893022Y-64666894D01*
X86893022Y-64666894D02*
X86935879Y-64581180D01*
X86935879Y-64581180D02*
X86978737Y-64538322D01*
X86978737Y-64538322D02*
X87064451Y-64495465D01*
X87064451Y-64495465D02*
X87235879Y-64452608D01*
X87235879Y-64452608D02*
X87321594Y-64409751D01*
X87321594Y-64409751D02*
X87364451Y-64366894D01*
X87364451Y-64366894D02*
X87407308Y-64281180D01*
X87407308Y-64281180D02*
X87407308Y-64195465D01*
X87407308Y-64195465D02*
X87364451Y-64109751D01*
X87364451Y-64109751D02*
X87321594Y-64066894D01*
X87321594Y-64066894D02*
X87235879Y-64024037D01*
X87235879Y-64024037D02*
X87021594Y-64024037D01*
X87021594Y-64024037D02*
X86893022Y-64066894D01*
X86593022Y-64024037D02*
X86378736Y-64924037D01*
X86378736Y-64924037D02*
X86207308Y-64281180D01*
X86207308Y-64281180D02*
X86035879Y-64924037D01*
X86035879Y-64924037D02*
X85821594Y-64024037D01*
X85007308Y-64924037D02*
X85521594Y-64924037D01*
X85264451Y-64924037D02*
X85264451Y-64024037D01*
X85264451Y-64024037D02*
X85350165Y-64152608D01*
X85350165Y-64152608D02*
X85435880Y-64238322D01*
X85435880Y-64238322D02*
X85521594Y-64281180D01*
X84235880Y-64324037D02*
X84235880Y-64924037D01*
X84450165Y-63981180D02*
X84664451Y-64624037D01*
X84664451Y-64624037D02*
X84107308Y-64624037D01*
X105387308Y-67421180D02*
X105258737Y-67464037D01*
X105258737Y-67464037D02*
X105044451Y-67464037D01*
X105044451Y-67464037D02*
X104958737Y-67421180D01*
X104958737Y-67421180D02*
X104915879Y-67378322D01*
X104915879Y-67378322D02*
X104873022Y-67292608D01*
X104873022Y-67292608D02*
X104873022Y-67206894D01*
X104873022Y-67206894D02*
X104915879Y-67121180D01*
X104915879Y-67121180D02*
X104958737Y-67078322D01*
X104958737Y-67078322D02*
X105044451Y-67035465D01*
X105044451Y-67035465D02*
X105215879Y-66992608D01*
X105215879Y-66992608D02*
X105301594Y-66949751D01*
X105301594Y-66949751D02*
X105344451Y-66906894D01*
X105344451Y-66906894D02*
X105387308Y-66821180D01*
X105387308Y-66821180D02*
X105387308Y-66735465D01*
X105387308Y-66735465D02*
X105344451Y-66649751D01*
X105344451Y-66649751D02*
X105301594Y-66606894D01*
X105301594Y-66606894D02*
X105215879Y-66564037D01*
X105215879Y-66564037D02*
X105001594Y-66564037D01*
X105001594Y-66564037D02*
X104873022Y-66606894D01*
X104573022Y-66564037D02*
X104358736Y-67464037D01*
X104358736Y-67464037D02*
X104187308Y-66821180D01*
X104187308Y-66821180D02*
X104015879Y-67464037D01*
X104015879Y-67464037D02*
X103801594Y-66564037D01*
X102987308Y-67464037D02*
X103501594Y-67464037D01*
X103244451Y-67464037D02*
X103244451Y-66564037D01*
X103244451Y-66564037D02*
X103330165Y-66692608D01*
X103330165Y-66692608D02*
X103415880Y-66778322D01*
X103415880Y-66778322D02*
X103501594Y-66821180D01*
X102173022Y-66564037D02*
X102601594Y-66564037D01*
X102601594Y-66564037D02*
X102644451Y-66992608D01*
X102644451Y-66992608D02*
X102601594Y-66949751D01*
X102601594Y-66949751D02*
X102515880Y-66906894D01*
X102515880Y-66906894D02*
X102301594Y-66906894D01*
X102301594Y-66906894D02*
X102215880Y-66949751D01*
X102215880Y-66949751D02*
X102173022Y-66992608D01*
X102173022Y-66992608D02*
X102130165Y-67078322D01*
X102130165Y-67078322D02*
X102130165Y-67292608D01*
X102130165Y-67292608D02*
X102173022Y-67378322D01*
X102173022Y-67378322D02*
X102215880Y-67421180D01*
X102215880Y-67421180D02*
X102301594Y-67464037D01*
X102301594Y-67464037D02*
X102515880Y-67464037D01*
X102515880Y-67464037D02*
X102601594Y-67421180D01*
X102601594Y-67421180D02*
X102644451Y-67378322D01*
X102198556Y-93415673D02*
X102065781Y-93388503D01*
X102065781Y-93388503D02*
X101880204Y-93281360D01*
X101880204Y-93281360D02*
X101827402Y-93201387D01*
X101827402Y-93201387D02*
X101811715Y-93142843D01*
X101811715Y-93142843D02*
X101817457Y-93047184D01*
X101817457Y-93047184D02*
X101860314Y-92972953D01*
X101860314Y-92972953D02*
X101940286Y-92920151D01*
X101940286Y-92920151D02*
X101998830Y-92904464D01*
X101998830Y-92904464D02*
X102094490Y-92910206D01*
X102094490Y-92910206D02*
X102264380Y-92958805D01*
X102264380Y-92958805D02*
X102360039Y-92964547D01*
X102360039Y-92964547D02*
X102418583Y-92948860D01*
X102418583Y-92948860D02*
X102498556Y-92896058D01*
X102498556Y-92896058D02*
X102541413Y-92821827D01*
X102541413Y-92821827D02*
X102547154Y-92726168D01*
X102547154Y-92726168D02*
X102531468Y-92667624D01*
X102531468Y-92667624D02*
X102478666Y-92587651D01*
X102478666Y-92587651D02*
X102293089Y-92480508D01*
X102293089Y-92480508D02*
X102160314Y-92453338D01*
X101921935Y-92266222D02*
X101286358Y-92938502D01*
X101286358Y-92938502D02*
X101459325Y-92296058D01*
X101459325Y-92296058D02*
X100989435Y-92767074D01*
X100989435Y-92767074D02*
X101253858Y-91880508D01*
X100098666Y-92252788D02*
X100544051Y-92509931D01*
X100321359Y-92381360D02*
X100771359Y-91601937D01*
X100771359Y-91601937D02*
X100781304Y-91756140D01*
X100781304Y-91756140D02*
X100812677Y-91873228D01*
X100812677Y-91873228D02*
X100865479Y-91953201D01*
X100288859Y-91323365D02*
X99769243Y-91023365D01*
X99769243Y-91023365D02*
X99653282Y-91995645D01*
X83529326Y-87564643D02*
X83394044Y-87572763D01*
X83394044Y-87572763D02*
X83187060Y-87517302D01*
X83187060Y-87517302D02*
X83115358Y-87453721D01*
X83115358Y-87453721D02*
X83085054Y-87401232D01*
X83085054Y-87401232D02*
X83065841Y-87307346D01*
X83065841Y-87307346D02*
X83088026Y-87224552D01*
X83088026Y-87224552D02*
X83151607Y-87152851D01*
X83151607Y-87152851D02*
X83204096Y-87122546D01*
X83204096Y-87122546D02*
X83297982Y-87103334D01*
X83297982Y-87103334D02*
X83474662Y-87106306D01*
X83474662Y-87106306D02*
X83568547Y-87087094D01*
X83568547Y-87087094D02*
X83621037Y-87056789D01*
X83621037Y-87056789D02*
X83684618Y-86985088D01*
X83684618Y-86985088D02*
X83706802Y-86902294D01*
X83706802Y-86902294D02*
X83687590Y-86808408D01*
X83687590Y-86808408D02*
X83657285Y-86755919D01*
X83657285Y-86755919D02*
X83585584Y-86692338D01*
X83585584Y-86692338D02*
X83378600Y-86636877D01*
X83378600Y-86636877D02*
X83243317Y-86644997D01*
X82964632Y-86525954D02*
X82524710Y-87339826D01*
X82524710Y-87339826D02*
X82525507Y-86674505D01*
X82525507Y-86674505D02*
X82193536Y-87251088D01*
X82193536Y-87251088D02*
X82219489Y-86326294D01*
X81200012Y-86984874D02*
X81696774Y-87117981D01*
X81448393Y-87051428D02*
X81681331Y-86182095D01*
X81681331Y-86182095D02*
X81730847Y-86328470D01*
X81730847Y-86328470D02*
X81791457Y-86433448D01*
X81791457Y-86433448D02*
X81863158Y-86497029D01*
X80687807Y-85915881D02*
X80853394Y-85960250D01*
X80853394Y-85960250D02*
X80925095Y-86023831D01*
X80925095Y-86023831D02*
X80955400Y-86076320D01*
X80955400Y-86076320D02*
X81004917Y-86222695D01*
X81004917Y-86222695D02*
X81001945Y-86399375D01*
X81001945Y-86399375D02*
X80913207Y-86730549D01*
X80913207Y-86730549D02*
X80849625Y-86802251D01*
X80849625Y-86802251D02*
X80797136Y-86832555D01*
X80797136Y-86832555D02*
X80703250Y-86851767D01*
X80703250Y-86851767D02*
X80537663Y-86807398D01*
X80537663Y-86807398D02*
X80465962Y-86743817D01*
X80465962Y-86743817D02*
X80435657Y-86691328D01*
X80435657Y-86691328D02*
X80416445Y-86597442D01*
X80416445Y-86597442D02*
X80471906Y-86390458D01*
X80471906Y-86390458D02*
X80535487Y-86318757D01*
X80535487Y-86318757D02*
X80587976Y-86288452D01*
X80587976Y-86288452D02*
X80681862Y-86269240D01*
X80681862Y-86269240D02*
X80847450Y-86313609D01*
X80847450Y-86313609D02*
X80919151Y-86377190D01*
X80919151Y-86377190D02*
X80949456Y-86429679D01*
X80949456Y-86429679D02*
X80968668Y-86523565D01*
D11*
X47128312Y-40814466D02*
X47128312Y-41528751D01*
X47128312Y-41528751D02*
X47175931Y-41671608D01*
X47175931Y-41671608D02*
X47271169Y-41766847D01*
X47271169Y-41766847D02*
X47414026Y-41814466D01*
X47414026Y-41814466D02*
X47509264Y-41814466D01*
X46509264Y-41243037D02*
X46604502Y-41195418D01*
X46604502Y-41195418D02*
X46652121Y-41147799D01*
X46652121Y-41147799D02*
X46699740Y-41052561D01*
X46699740Y-41052561D02*
X46699740Y-41004942D01*
X46699740Y-41004942D02*
X46652121Y-40909704D01*
X46652121Y-40909704D02*
X46604502Y-40862085D01*
X46604502Y-40862085D02*
X46509264Y-40814466D01*
X46509264Y-40814466D02*
X46318788Y-40814466D01*
X46318788Y-40814466D02*
X46223550Y-40862085D01*
X46223550Y-40862085D02*
X46175931Y-40909704D01*
X46175931Y-40909704D02*
X46128312Y-41004942D01*
X46128312Y-41004942D02*
X46128312Y-41052561D01*
X46128312Y-41052561D02*
X46175931Y-41147799D01*
X46175931Y-41147799D02*
X46223550Y-41195418D01*
X46223550Y-41195418D02*
X46318788Y-41243037D01*
X46318788Y-41243037D02*
X46509264Y-41243037D01*
X46509264Y-41243037D02*
X46604502Y-41290656D01*
X46604502Y-41290656D02*
X46652121Y-41338275D01*
X46652121Y-41338275D02*
X46699740Y-41433513D01*
X46699740Y-41433513D02*
X46699740Y-41623989D01*
X46699740Y-41623989D02*
X46652121Y-41719227D01*
X46652121Y-41719227D02*
X46604502Y-41766847D01*
X46604502Y-41766847D02*
X46509264Y-41814466D01*
X46509264Y-41814466D02*
X46318788Y-41814466D01*
X46318788Y-41814466D02*
X46223550Y-41766847D01*
X46223550Y-41766847D02*
X46175931Y-41719227D01*
X46175931Y-41719227D02*
X46128312Y-41623989D01*
X46128312Y-41623989D02*
X46128312Y-41433513D01*
X46128312Y-41433513D02*
X46175931Y-41338275D01*
X46175931Y-41338275D02*
X46223550Y-41290656D01*
X46223550Y-41290656D02*
X46318788Y-41243037D01*
X84080693Y-73282466D02*
X84080693Y-73996751D01*
X84080693Y-73996751D02*
X84128312Y-74139608D01*
X84128312Y-74139608D02*
X84223550Y-74234847D01*
X84223550Y-74234847D02*
X84366407Y-74282466D01*
X84366407Y-74282466D02*
X84461645Y-74282466D01*
X83128312Y-73282466D02*
X83604502Y-73282466D01*
X83604502Y-73282466D02*
X83652121Y-73758656D01*
X83652121Y-73758656D02*
X83604502Y-73711037D01*
X83604502Y-73711037D02*
X83509264Y-73663418D01*
X83509264Y-73663418D02*
X83271169Y-73663418D01*
X83271169Y-73663418D02*
X83175931Y-73711037D01*
X83175931Y-73711037D02*
X83128312Y-73758656D01*
X83128312Y-73758656D02*
X83080693Y-73853894D01*
X83080693Y-73853894D02*
X83080693Y-74091989D01*
X83080693Y-74091989D02*
X83128312Y-74187227D01*
X83128312Y-74187227D02*
X83175931Y-74234847D01*
X83175931Y-74234847D02*
X83271169Y-74282466D01*
X83271169Y-74282466D02*
X83509264Y-74282466D01*
X83509264Y-74282466D02*
X83604502Y-74234847D01*
X83604502Y-74234847D02*
X83652121Y-74187227D01*
X82223550Y-73282466D02*
X82414026Y-73282466D01*
X82414026Y-73282466D02*
X82509264Y-73330085D01*
X82509264Y-73330085D02*
X82556883Y-73377704D01*
X82556883Y-73377704D02*
X82652121Y-73520561D01*
X82652121Y-73520561D02*
X82699740Y-73711037D01*
X82699740Y-73711037D02*
X82699740Y-74091989D01*
X82699740Y-74091989D02*
X82652121Y-74187227D01*
X82652121Y-74187227D02*
X82604502Y-74234847D01*
X82604502Y-74234847D02*
X82509264Y-74282466D01*
X82509264Y-74282466D02*
X82318788Y-74282466D01*
X82318788Y-74282466D02*
X82223550Y-74234847D01*
X82223550Y-74234847D02*
X82175931Y-74187227D01*
X82175931Y-74187227D02*
X82128312Y-74091989D01*
X82128312Y-74091989D02*
X82128312Y-73853894D01*
X82128312Y-73853894D02*
X82175931Y-73758656D01*
X82175931Y-73758656D02*
X82223550Y-73711037D01*
X82223550Y-73711037D02*
X82318788Y-73663418D01*
X82318788Y-73663418D02*
X82509264Y-73663418D01*
X82509264Y-73663418D02*
X82604502Y-73711037D01*
X82604502Y-73711037D02*
X82652121Y-73758656D01*
X82652121Y-73758656D02*
X82699740Y-73853894D01*
X48080693Y-74806466D02*
X48080693Y-75520751D01*
X48080693Y-75520751D02*
X48128312Y-75663608D01*
X48128312Y-75663608D02*
X48223550Y-75758847D01*
X48223550Y-75758847D02*
X48366407Y-75806466D01*
X48366407Y-75806466D02*
X48461645Y-75806466D01*
X47175931Y-75139799D02*
X47175931Y-75806466D01*
X47414026Y-74758847D02*
X47652121Y-75473132D01*
X47652121Y-75473132D02*
X47033074Y-75473132D01*
X46509264Y-75235037D02*
X46604502Y-75187418D01*
X46604502Y-75187418D02*
X46652121Y-75139799D01*
X46652121Y-75139799D02*
X46699740Y-75044561D01*
X46699740Y-75044561D02*
X46699740Y-74996942D01*
X46699740Y-74996942D02*
X46652121Y-74901704D01*
X46652121Y-74901704D02*
X46604502Y-74854085D01*
X46604502Y-74854085D02*
X46509264Y-74806466D01*
X46509264Y-74806466D02*
X46318788Y-74806466D01*
X46318788Y-74806466D02*
X46223550Y-74854085D01*
X46223550Y-74854085D02*
X46175931Y-74901704D01*
X46175931Y-74901704D02*
X46128312Y-74996942D01*
X46128312Y-74996942D02*
X46128312Y-75044561D01*
X46128312Y-75044561D02*
X46175931Y-75139799D01*
X46175931Y-75139799D02*
X46223550Y-75187418D01*
X46223550Y-75187418D02*
X46318788Y-75235037D01*
X46318788Y-75235037D02*
X46509264Y-75235037D01*
X46509264Y-75235037D02*
X46604502Y-75282656D01*
X46604502Y-75282656D02*
X46652121Y-75330275D01*
X46652121Y-75330275D02*
X46699740Y-75425513D01*
X46699740Y-75425513D02*
X46699740Y-75615989D01*
X46699740Y-75615989D02*
X46652121Y-75711227D01*
X46652121Y-75711227D02*
X46604502Y-75758847D01*
X46604502Y-75758847D02*
X46509264Y-75806466D01*
X46509264Y-75806466D02*
X46318788Y-75806466D01*
X46318788Y-75806466D02*
X46223550Y-75758847D01*
X46223550Y-75758847D02*
X46175931Y-75711227D01*
X46175931Y-75711227D02*
X46128312Y-75615989D01*
X46128312Y-75615989D02*
X46128312Y-75425513D01*
X46128312Y-75425513D02*
X46175931Y-75330275D01*
X46175931Y-75330275D02*
X46223550Y-75282656D01*
X46223550Y-75282656D02*
X46318788Y-75235037D01*
D12*
X28294285Y-60484819D02*
X28294285Y-59484819D01*
X28294285Y-59484819D02*
X28056190Y-59484819D01*
X28056190Y-59484819D02*
X27913333Y-59532438D01*
X27913333Y-59532438D02*
X27818095Y-59627676D01*
X27818095Y-59627676D02*
X27770476Y-59722914D01*
X27770476Y-59722914D02*
X27722857Y-59913390D01*
X27722857Y-59913390D02*
X27722857Y-60056247D01*
X27722857Y-60056247D02*
X27770476Y-60246723D01*
X27770476Y-60246723D02*
X27818095Y-60341961D01*
X27818095Y-60341961D02*
X27913333Y-60437200D01*
X27913333Y-60437200D02*
X28056190Y-60484819D01*
X28056190Y-60484819D02*
X28294285Y-60484819D01*
X26770476Y-60484819D02*
X27341904Y-60484819D01*
X27056190Y-60484819D02*
X27056190Y-59484819D01*
X27056190Y-59484819D02*
X27151428Y-59627676D01*
X27151428Y-59627676D02*
X27246666Y-59722914D01*
X27246666Y-59722914D02*
X27341904Y-59770533D01*
X26389523Y-59580057D02*
X26341904Y-59532438D01*
X26341904Y-59532438D02*
X26246666Y-59484819D01*
X26246666Y-59484819D02*
X26008571Y-59484819D01*
X26008571Y-59484819D02*
X25913333Y-59532438D01*
X25913333Y-59532438D02*
X25865714Y-59580057D01*
X25865714Y-59580057D02*
X25818095Y-59675295D01*
X25818095Y-59675295D02*
X25818095Y-59770533D01*
X25818095Y-59770533D02*
X25865714Y-59913390D01*
X25865714Y-59913390D02*
X26437142Y-60484819D01*
X26437142Y-60484819D02*
X25818095Y-60484819D01*
D11*
X48080693Y-57788466D02*
X48080693Y-58502751D01*
X48080693Y-58502751D02*
X48128312Y-58645608D01*
X48128312Y-58645608D02*
X48223550Y-58740847D01*
X48223550Y-58740847D02*
X48366407Y-58788466D01*
X48366407Y-58788466D02*
X48461645Y-58788466D01*
X47652121Y-57883704D02*
X47604502Y-57836085D01*
X47604502Y-57836085D02*
X47509264Y-57788466D01*
X47509264Y-57788466D02*
X47271169Y-57788466D01*
X47271169Y-57788466D02*
X47175931Y-57836085D01*
X47175931Y-57836085D02*
X47128312Y-57883704D01*
X47128312Y-57883704D02*
X47080693Y-57978942D01*
X47080693Y-57978942D02*
X47080693Y-58074180D01*
X47080693Y-58074180D02*
X47128312Y-58217037D01*
X47128312Y-58217037D02*
X47699740Y-58788466D01*
X47699740Y-58788466D02*
X47080693Y-58788466D01*
X46509264Y-58217037D02*
X46604502Y-58169418D01*
X46604502Y-58169418D02*
X46652121Y-58121799D01*
X46652121Y-58121799D02*
X46699740Y-58026561D01*
X46699740Y-58026561D02*
X46699740Y-57978942D01*
X46699740Y-57978942D02*
X46652121Y-57883704D01*
X46652121Y-57883704D02*
X46604502Y-57836085D01*
X46604502Y-57836085D02*
X46509264Y-57788466D01*
X46509264Y-57788466D02*
X46318788Y-57788466D01*
X46318788Y-57788466D02*
X46223550Y-57836085D01*
X46223550Y-57836085D02*
X46175931Y-57883704D01*
X46175931Y-57883704D02*
X46128312Y-57978942D01*
X46128312Y-57978942D02*
X46128312Y-58026561D01*
X46128312Y-58026561D02*
X46175931Y-58121799D01*
X46175931Y-58121799D02*
X46223550Y-58169418D01*
X46223550Y-58169418D02*
X46318788Y-58217037D01*
X46318788Y-58217037D02*
X46509264Y-58217037D01*
X46509264Y-58217037D02*
X46604502Y-58264656D01*
X46604502Y-58264656D02*
X46652121Y-58312275D01*
X46652121Y-58312275D02*
X46699740Y-58407513D01*
X46699740Y-58407513D02*
X46699740Y-58597989D01*
X46699740Y-58597989D02*
X46652121Y-58693227D01*
X46652121Y-58693227D02*
X46604502Y-58740847D01*
X46604502Y-58740847D02*
X46509264Y-58788466D01*
X46509264Y-58788466D02*
X46318788Y-58788466D01*
X46318788Y-58788466D02*
X46223550Y-58740847D01*
X46223550Y-58740847D02*
X46175931Y-58693227D01*
X46175931Y-58693227D02*
X46128312Y-58597989D01*
X46128312Y-58597989D02*
X46128312Y-58407513D01*
X46128312Y-58407513D02*
X46175931Y-58312275D01*
X46175931Y-58312275D02*
X46223550Y-58264656D01*
X46223550Y-58264656D02*
X46318788Y-58217037D01*
D12*
X82294285Y-46934819D02*
X82294285Y-45934819D01*
X82294285Y-45934819D02*
X82056190Y-45934819D01*
X82056190Y-45934819D02*
X81913333Y-45982438D01*
X81913333Y-45982438D02*
X81818095Y-46077676D01*
X81818095Y-46077676D02*
X81770476Y-46172914D01*
X81770476Y-46172914D02*
X81722857Y-46363390D01*
X81722857Y-46363390D02*
X81722857Y-46506247D01*
X81722857Y-46506247D02*
X81770476Y-46696723D01*
X81770476Y-46696723D02*
X81818095Y-46791961D01*
X81818095Y-46791961D02*
X81913333Y-46887200D01*
X81913333Y-46887200D02*
X82056190Y-46934819D01*
X82056190Y-46934819D02*
X82294285Y-46934819D01*
X80770476Y-46934819D02*
X81341904Y-46934819D01*
X81056190Y-46934819D02*
X81056190Y-45934819D01*
X81056190Y-45934819D02*
X81151428Y-46077676D01*
X81151428Y-46077676D02*
X81246666Y-46172914D01*
X81246666Y-46172914D02*
X81341904Y-46220533D01*
X80199047Y-46363390D02*
X80294285Y-46315771D01*
X80294285Y-46315771D02*
X80341904Y-46268152D01*
X80341904Y-46268152D02*
X80389523Y-46172914D01*
X80389523Y-46172914D02*
X80389523Y-46125295D01*
X80389523Y-46125295D02*
X80341904Y-46030057D01*
X80341904Y-46030057D02*
X80294285Y-45982438D01*
X80294285Y-45982438D02*
X80199047Y-45934819D01*
X80199047Y-45934819D02*
X80008571Y-45934819D01*
X80008571Y-45934819D02*
X79913333Y-45982438D01*
X79913333Y-45982438D02*
X79865714Y-46030057D01*
X79865714Y-46030057D02*
X79818095Y-46125295D01*
X79818095Y-46125295D02*
X79818095Y-46172914D01*
X79818095Y-46172914D02*
X79865714Y-46268152D01*
X79865714Y-46268152D02*
X79913333Y-46315771D01*
X79913333Y-46315771D02*
X80008571Y-46363390D01*
X80008571Y-46363390D02*
X80199047Y-46363390D01*
X80199047Y-46363390D02*
X80294285Y-46411009D01*
X80294285Y-46411009D02*
X80341904Y-46458628D01*
X80341904Y-46458628D02*
X80389523Y-46553866D01*
X80389523Y-46553866D02*
X80389523Y-46744342D01*
X80389523Y-46744342D02*
X80341904Y-46839580D01*
X80341904Y-46839580D02*
X80294285Y-46887200D01*
X80294285Y-46887200D02*
X80199047Y-46934819D01*
X80199047Y-46934819D02*
X80008571Y-46934819D01*
X80008571Y-46934819D02*
X79913333Y-46887200D01*
X79913333Y-46887200D02*
X79865714Y-46839580D01*
X79865714Y-46839580D02*
X79818095Y-46744342D01*
X79818095Y-46744342D02*
X79818095Y-46553866D01*
X79818095Y-46553866D02*
X79865714Y-46458628D01*
X79865714Y-46458628D02*
X79913333Y-46411009D01*
X79913333Y-46411009D02*
X80008571Y-46363390D01*
D11*
X53080693Y-55688466D02*
X53080693Y-56402751D01*
X53080693Y-56402751D02*
X53128312Y-56545608D01*
X53128312Y-56545608D02*
X53223550Y-56640847D01*
X53223550Y-56640847D02*
X53366407Y-56688466D01*
X53366407Y-56688466D02*
X53461645Y-56688466D01*
X52652121Y-55783704D02*
X52604502Y-55736085D01*
X52604502Y-55736085D02*
X52509264Y-55688466D01*
X52509264Y-55688466D02*
X52271169Y-55688466D01*
X52271169Y-55688466D02*
X52175931Y-55736085D01*
X52175931Y-55736085D02*
X52128312Y-55783704D01*
X52128312Y-55783704D02*
X52080693Y-55878942D01*
X52080693Y-55878942D02*
X52080693Y-55974180D01*
X52080693Y-55974180D02*
X52128312Y-56117037D01*
X52128312Y-56117037D02*
X52699740Y-56688466D01*
X52699740Y-56688466D02*
X52080693Y-56688466D01*
X51747359Y-55688466D02*
X51080693Y-55688466D01*
X51080693Y-55688466D02*
X51509264Y-56688466D01*
D12*
X127301523Y-56264819D02*
X127301523Y-56979104D01*
X127301523Y-56979104D02*
X127349142Y-57121961D01*
X127349142Y-57121961D02*
X127444380Y-57217200D01*
X127444380Y-57217200D02*
X127587237Y-57264819D01*
X127587237Y-57264819D02*
X127682475Y-57264819D01*
X126920570Y-56264819D02*
X126253904Y-56264819D01*
X126253904Y-56264819D02*
X126682475Y-57264819D01*
X125920570Y-56360057D02*
X125872951Y-56312438D01*
X125872951Y-56312438D02*
X125777713Y-56264819D01*
X125777713Y-56264819D02*
X125539618Y-56264819D01*
X125539618Y-56264819D02*
X125444380Y-56312438D01*
X125444380Y-56312438D02*
X125396761Y-56360057D01*
X125396761Y-56360057D02*
X125349142Y-56455295D01*
X125349142Y-56455295D02*
X125349142Y-56550533D01*
X125349142Y-56550533D02*
X125396761Y-56693390D01*
X125396761Y-56693390D02*
X125968189Y-57264819D01*
X125968189Y-57264819D02*
X125349142Y-57264819D01*
D11*
X53080693Y-72706466D02*
X53080693Y-73420751D01*
X53080693Y-73420751D02*
X53128312Y-73563608D01*
X53128312Y-73563608D02*
X53223550Y-73658847D01*
X53223550Y-73658847D02*
X53366407Y-73706466D01*
X53366407Y-73706466D02*
X53461645Y-73706466D01*
X52175931Y-73039799D02*
X52175931Y-73706466D01*
X52414026Y-72658847D02*
X52652121Y-73373132D01*
X52652121Y-73373132D02*
X52033074Y-73373132D01*
X51747359Y-72706466D02*
X51080693Y-72706466D01*
X51080693Y-72706466D02*
X51509264Y-73706466D01*
X84080693Y-39314466D02*
X84080693Y-40028751D01*
X84080693Y-40028751D02*
X84128312Y-40171608D01*
X84128312Y-40171608D02*
X84223550Y-40266847D01*
X84223550Y-40266847D02*
X84366407Y-40314466D01*
X84366407Y-40314466D02*
X84461645Y-40314466D01*
X83080693Y-40314466D02*
X83652121Y-40314466D01*
X83366407Y-40314466D02*
X83366407Y-39314466D01*
X83366407Y-39314466D02*
X83461645Y-39457323D01*
X83461645Y-39457323D02*
X83556883Y-39552561D01*
X83556883Y-39552561D02*
X83652121Y-39600180D01*
X82223550Y-39314466D02*
X82414026Y-39314466D01*
X82414026Y-39314466D02*
X82509264Y-39362085D01*
X82509264Y-39362085D02*
X82556883Y-39409704D01*
X82556883Y-39409704D02*
X82652121Y-39552561D01*
X82652121Y-39552561D02*
X82699740Y-39743037D01*
X82699740Y-39743037D02*
X82699740Y-40123989D01*
X82699740Y-40123989D02*
X82652121Y-40219227D01*
X82652121Y-40219227D02*
X82604502Y-40266847D01*
X82604502Y-40266847D02*
X82509264Y-40314466D01*
X82509264Y-40314466D02*
X82318788Y-40314466D01*
X82318788Y-40314466D02*
X82223550Y-40266847D01*
X82223550Y-40266847D02*
X82175931Y-40219227D01*
X82175931Y-40219227D02*
X82128312Y-40123989D01*
X82128312Y-40123989D02*
X82128312Y-39885894D01*
X82128312Y-39885894D02*
X82175931Y-39790656D01*
X82175931Y-39790656D02*
X82223550Y-39743037D01*
X82223550Y-39743037D02*
X82318788Y-39695418D01*
X82318788Y-39695418D02*
X82509264Y-39695418D01*
X82509264Y-39695418D02*
X82604502Y-39743037D01*
X82604502Y-39743037D02*
X82652121Y-39790656D01*
X82652121Y-39790656D02*
X82699740Y-39885894D01*
D12*
X112061523Y-56264819D02*
X112061523Y-56979104D01*
X112061523Y-56979104D02*
X112109142Y-57121961D01*
X112109142Y-57121961D02*
X112204380Y-57217200D01*
X112204380Y-57217200D02*
X112347237Y-57264819D01*
X112347237Y-57264819D02*
X112442475Y-57264819D01*
X111680570Y-56264819D02*
X111013904Y-56264819D01*
X111013904Y-56264819D02*
X111442475Y-57264819D01*
X110442475Y-56264819D02*
X110347237Y-56264819D01*
X110347237Y-56264819D02*
X110251999Y-56312438D01*
X110251999Y-56312438D02*
X110204380Y-56360057D01*
X110204380Y-56360057D02*
X110156761Y-56455295D01*
X110156761Y-56455295D02*
X110109142Y-56645771D01*
X110109142Y-56645771D02*
X110109142Y-56883866D01*
X110109142Y-56883866D02*
X110156761Y-57074342D01*
X110156761Y-57074342D02*
X110204380Y-57169580D01*
X110204380Y-57169580D02*
X110251999Y-57217200D01*
X110251999Y-57217200D02*
X110347237Y-57264819D01*
X110347237Y-57264819D02*
X110442475Y-57264819D01*
X110442475Y-57264819D02*
X110537713Y-57217200D01*
X110537713Y-57217200D02*
X110585332Y-57169580D01*
X110585332Y-57169580D02*
X110632951Y-57074342D01*
X110632951Y-57074342D02*
X110680570Y-56883866D01*
X110680570Y-56883866D02*
X110680570Y-56645771D01*
X110680570Y-56645771D02*
X110632951Y-56455295D01*
X110632951Y-56455295D02*
X110585332Y-56360057D01*
X110585332Y-56360057D02*
X110537713Y-56312438D01*
X110537713Y-56312438D02*
X110442475Y-56264819D01*
D11*
X71080693Y-48830466D02*
X71080693Y-49544751D01*
X71080693Y-49544751D02*
X71128312Y-49687608D01*
X71128312Y-49687608D02*
X71223550Y-49782847D01*
X71223550Y-49782847D02*
X71366407Y-49830466D01*
X71366407Y-49830466D02*
X71461645Y-49830466D01*
X70699740Y-48830466D02*
X70080693Y-48830466D01*
X70080693Y-48830466D02*
X70414026Y-49211418D01*
X70414026Y-49211418D02*
X70271169Y-49211418D01*
X70271169Y-49211418D02*
X70175931Y-49259037D01*
X70175931Y-49259037D02*
X70128312Y-49306656D01*
X70128312Y-49306656D02*
X70080693Y-49401894D01*
X70080693Y-49401894D02*
X70080693Y-49639989D01*
X70080693Y-49639989D02*
X70128312Y-49735227D01*
X70128312Y-49735227D02*
X70175931Y-49782847D01*
X70175931Y-49782847D02*
X70271169Y-49830466D01*
X70271169Y-49830466D02*
X70556883Y-49830466D01*
X70556883Y-49830466D02*
X70652121Y-49782847D01*
X70652121Y-49782847D02*
X70699740Y-49735227D01*
X69128312Y-49830466D02*
X69699740Y-49830466D01*
X69414026Y-49830466D02*
X69414026Y-48830466D01*
X69414026Y-48830466D02*
X69509264Y-48973323D01*
X69509264Y-48973323D02*
X69604502Y-49068561D01*
X69604502Y-49068561D02*
X69699740Y-49116180D01*
X52128312Y-38714466D02*
X52128312Y-39428751D01*
X52128312Y-39428751D02*
X52175931Y-39571608D01*
X52175931Y-39571608D02*
X52271169Y-39666847D01*
X52271169Y-39666847D02*
X52414026Y-39714466D01*
X52414026Y-39714466D02*
X52509264Y-39714466D01*
X51747359Y-38714466D02*
X51080693Y-38714466D01*
X51080693Y-38714466D02*
X51509264Y-39714466D01*
D12*
X91026864Y-90730183D02*
X91285683Y-89764257D01*
X91285683Y-89764257D02*
X91055700Y-89702634D01*
X91055700Y-89702634D02*
X90905386Y-89711656D01*
X90905386Y-89711656D02*
X90788744Y-89779000D01*
X90788744Y-89779000D02*
X90718098Y-89858668D01*
X90718098Y-89858668D02*
X90622803Y-90030329D01*
X90622803Y-90030329D02*
X90585828Y-90168318D01*
X90585828Y-90168318D02*
X90582526Y-90364629D01*
X90582526Y-90364629D02*
X90603873Y-90468947D01*
X90603873Y-90468947D02*
X90671217Y-90585589D01*
X90671217Y-90585589D02*
X90796881Y-90668560D01*
X90796881Y-90668560D02*
X91026864Y-90730183D01*
X90411750Y-89530088D02*
X89813796Y-89369866D01*
X89813796Y-89369866D02*
X90037173Y-89824111D01*
X90037173Y-89824111D02*
X89899184Y-89787137D01*
X89899184Y-89787137D02*
X89794866Y-89808484D01*
X89794866Y-89808484D02*
X89736545Y-89842156D01*
X89736545Y-89842156D02*
X89665899Y-89921824D01*
X89665899Y-89921824D02*
X89604276Y-90151806D01*
X89604276Y-90151806D02*
X89625623Y-90256124D01*
X89625623Y-90256124D02*
X89659294Y-90314445D01*
X89659294Y-90314445D02*
X89738963Y-90385091D01*
X89738963Y-90385091D02*
X90014941Y-90459039D01*
X90014941Y-90459039D02*
X90119259Y-90437692D01*
X90119259Y-90437692D02*
X90177580Y-90404021D01*
X89421174Y-89363262D02*
X89387503Y-89304941D01*
X89387503Y-89304941D02*
X89307835Y-89234295D01*
X89307835Y-89234295D02*
X89077852Y-89172671D01*
X89077852Y-89172671D02*
X88973535Y-89194018D01*
X88973535Y-89194018D02*
X88915213Y-89227690D01*
X88915213Y-89227690D02*
X88844567Y-89307358D01*
X88844567Y-89307358D02*
X88819918Y-89399351D01*
X88819918Y-89399351D02*
X88828940Y-89549665D01*
X88828940Y-89549665D02*
X89233001Y-90249519D01*
X89233001Y-90249519D02*
X88635047Y-90089298D01*
D11*
X107080693Y-39714466D02*
X107080693Y-40428751D01*
X107080693Y-40428751D02*
X107128312Y-40571608D01*
X107128312Y-40571608D02*
X107223550Y-40666847D01*
X107223550Y-40666847D02*
X107366407Y-40714466D01*
X107366407Y-40714466D02*
X107461645Y-40714466D01*
X106080693Y-40714466D02*
X106652121Y-40714466D01*
X106366407Y-40714466D02*
X106366407Y-39714466D01*
X106366407Y-39714466D02*
X106461645Y-39857323D01*
X106461645Y-39857323D02*
X106556883Y-39952561D01*
X106556883Y-39952561D02*
X106652121Y-40000180D01*
X105604502Y-40714466D02*
X105414026Y-40714466D01*
X105414026Y-40714466D02*
X105318788Y-40666847D01*
X105318788Y-40666847D02*
X105271169Y-40619227D01*
X105271169Y-40619227D02*
X105175931Y-40476370D01*
X105175931Y-40476370D02*
X105128312Y-40285894D01*
X105128312Y-40285894D02*
X105128312Y-39904942D01*
X105128312Y-39904942D02*
X105175931Y-39809704D01*
X105175931Y-39809704D02*
X105223550Y-39762085D01*
X105223550Y-39762085D02*
X105318788Y-39714466D01*
X105318788Y-39714466D02*
X105509264Y-39714466D01*
X105509264Y-39714466D02*
X105604502Y-39762085D01*
X105604502Y-39762085D02*
X105652121Y-39809704D01*
X105652121Y-39809704D02*
X105699740Y-39904942D01*
X105699740Y-39904942D02*
X105699740Y-40143037D01*
X105699740Y-40143037D02*
X105652121Y-40238275D01*
X105652121Y-40238275D02*
X105604502Y-40285894D01*
X105604502Y-40285894D02*
X105509264Y-40333513D01*
X105509264Y-40333513D02*
X105318788Y-40333513D01*
X105318788Y-40333513D02*
X105223550Y-40285894D01*
X105223550Y-40285894D02*
X105175931Y-40238275D01*
X105175931Y-40238275D02*
X105128312Y-40143037D01*
D12*
X28294285Y-77484819D02*
X28294285Y-76484819D01*
X28294285Y-76484819D02*
X28056190Y-76484819D01*
X28056190Y-76484819D02*
X27913333Y-76532438D01*
X27913333Y-76532438D02*
X27818095Y-76627676D01*
X27818095Y-76627676D02*
X27770476Y-76722914D01*
X27770476Y-76722914D02*
X27722857Y-76913390D01*
X27722857Y-76913390D02*
X27722857Y-77056247D01*
X27722857Y-77056247D02*
X27770476Y-77246723D01*
X27770476Y-77246723D02*
X27818095Y-77341961D01*
X27818095Y-77341961D02*
X27913333Y-77437200D01*
X27913333Y-77437200D02*
X28056190Y-77484819D01*
X28056190Y-77484819D02*
X28294285Y-77484819D01*
X27341904Y-76580057D02*
X27294285Y-76532438D01*
X27294285Y-76532438D02*
X27199047Y-76484819D01*
X27199047Y-76484819D02*
X26960952Y-76484819D01*
X26960952Y-76484819D02*
X26865714Y-76532438D01*
X26865714Y-76532438D02*
X26818095Y-76580057D01*
X26818095Y-76580057D02*
X26770476Y-76675295D01*
X26770476Y-76675295D02*
X26770476Y-76770533D01*
X26770476Y-76770533D02*
X26818095Y-76913390D01*
X26818095Y-76913390D02*
X27389523Y-77484819D01*
X27389523Y-77484819D02*
X26770476Y-77484819D01*
X26389523Y-76580057D02*
X26341904Y-76532438D01*
X26341904Y-76532438D02*
X26246666Y-76484819D01*
X26246666Y-76484819D02*
X26008571Y-76484819D01*
X26008571Y-76484819D02*
X25913333Y-76532438D01*
X25913333Y-76532438D02*
X25865714Y-76580057D01*
X25865714Y-76580057D02*
X25818095Y-76675295D01*
X25818095Y-76675295D02*
X25818095Y-76770533D01*
X25818095Y-76770533D02*
X25865714Y-76913390D01*
X25865714Y-76913390D02*
X26437142Y-77484819D01*
X26437142Y-77484819D02*
X25818095Y-77484819D01*
D11*
X84080693Y-56264466D02*
X84080693Y-56978751D01*
X84080693Y-56978751D02*
X84128312Y-57121608D01*
X84128312Y-57121608D02*
X84223550Y-57216847D01*
X84223550Y-57216847D02*
X84366407Y-57264466D01*
X84366407Y-57264466D02*
X84461645Y-57264466D01*
X83699740Y-56264466D02*
X83080693Y-56264466D01*
X83080693Y-56264466D02*
X83414026Y-56645418D01*
X83414026Y-56645418D02*
X83271169Y-56645418D01*
X83271169Y-56645418D02*
X83175931Y-56693037D01*
X83175931Y-56693037D02*
X83128312Y-56740656D01*
X83128312Y-56740656D02*
X83080693Y-56835894D01*
X83080693Y-56835894D02*
X83080693Y-57073989D01*
X83080693Y-57073989D02*
X83128312Y-57169227D01*
X83128312Y-57169227D02*
X83175931Y-57216847D01*
X83175931Y-57216847D02*
X83271169Y-57264466D01*
X83271169Y-57264466D02*
X83556883Y-57264466D01*
X83556883Y-57264466D02*
X83652121Y-57216847D01*
X83652121Y-57216847D02*
X83699740Y-57169227D01*
X82223550Y-56264466D02*
X82414026Y-56264466D01*
X82414026Y-56264466D02*
X82509264Y-56312085D01*
X82509264Y-56312085D02*
X82556883Y-56359704D01*
X82556883Y-56359704D02*
X82652121Y-56502561D01*
X82652121Y-56502561D02*
X82699740Y-56693037D01*
X82699740Y-56693037D02*
X82699740Y-57073989D01*
X82699740Y-57073989D02*
X82652121Y-57169227D01*
X82652121Y-57169227D02*
X82604502Y-57216847D01*
X82604502Y-57216847D02*
X82509264Y-57264466D01*
X82509264Y-57264466D02*
X82318788Y-57264466D01*
X82318788Y-57264466D02*
X82223550Y-57216847D01*
X82223550Y-57216847D02*
X82175931Y-57169227D01*
X82175931Y-57169227D02*
X82128312Y-57073989D01*
X82128312Y-57073989D02*
X82128312Y-56835894D01*
X82128312Y-56835894D02*
X82175931Y-56740656D01*
X82175931Y-56740656D02*
X82223550Y-56693037D01*
X82223550Y-56693037D02*
X82318788Y-56645418D01*
X82318788Y-56645418D02*
X82509264Y-56645418D01*
X82509264Y-56645418D02*
X82604502Y-56693037D01*
X82604502Y-56693037D02*
X82652121Y-56740656D01*
X82652121Y-56740656D02*
X82699740Y-56835894D01*
D12*
X100274285Y-66492819D02*
X100274285Y-65492819D01*
X100274285Y-65492819D02*
X100036190Y-65492819D01*
X100036190Y-65492819D02*
X99893333Y-65540438D01*
X99893333Y-65540438D02*
X99798095Y-65635676D01*
X99798095Y-65635676D02*
X99750476Y-65730914D01*
X99750476Y-65730914D02*
X99702857Y-65921390D01*
X99702857Y-65921390D02*
X99702857Y-66064247D01*
X99702857Y-66064247D02*
X99750476Y-66254723D01*
X99750476Y-66254723D02*
X99798095Y-66349961D01*
X99798095Y-66349961D02*
X99893333Y-66445200D01*
X99893333Y-66445200D02*
X100036190Y-66492819D01*
X100036190Y-66492819D02*
X100274285Y-66492819D01*
X99369523Y-65492819D02*
X98750476Y-65492819D01*
X98750476Y-65492819D02*
X99083809Y-65873771D01*
X99083809Y-65873771D02*
X98940952Y-65873771D01*
X98940952Y-65873771D02*
X98845714Y-65921390D01*
X98845714Y-65921390D02*
X98798095Y-65969009D01*
X98798095Y-65969009D02*
X98750476Y-66064247D01*
X98750476Y-66064247D02*
X98750476Y-66302342D01*
X98750476Y-66302342D02*
X98798095Y-66397580D01*
X98798095Y-66397580D02*
X98845714Y-66445200D01*
X98845714Y-66445200D02*
X98940952Y-66492819D01*
X98940952Y-66492819D02*
X99226666Y-66492819D01*
X99226666Y-66492819D02*
X99321904Y-66445200D01*
X99321904Y-66445200D02*
X99369523Y-66397580D01*
X98131428Y-65492819D02*
X98036190Y-65492819D01*
X98036190Y-65492819D02*
X97940952Y-65540438D01*
X97940952Y-65540438D02*
X97893333Y-65588057D01*
X97893333Y-65588057D02*
X97845714Y-65683295D01*
X97845714Y-65683295D02*
X97798095Y-65873771D01*
X97798095Y-65873771D02*
X97798095Y-66111866D01*
X97798095Y-66111866D02*
X97845714Y-66302342D01*
X97845714Y-66302342D02*
X97893333Y-66397580D01*
X97893333Y-66397580D02*
X97940952Y-66445200D01*
X97940952Y-66445200D02*
X98036190Y-66492819D01*
X98036190Y-66492819D02*
X98131428Y-66492819D01*
X98131428Y-66492819D02*
X98226666Y-66445200D01*
X98226666Y-66445200D02*
X98274285Y-66397580D01*
X98274285Y-66397580D02*
X98321904Y-66302342D01*
X98321904Y-66302342D02*
X98369523Y-66111866D01*
X98369523Y-66111866D02*
X98369523Y-65873771D01*
X98369523Y-65873771D02*
X98321904Y-65683295D01*
X98321904Y-65683295D02*
X98274285Y-65588057D01*
X98274285Y-65588057D02*
X98226666Y-65540438D01*
X98226666Y-65540438D02*
X98131428Y-65492819D01*
D11*
X30080693Y-86814466D02*
X30080693Y-87528751D01*
X30080693Y-87528751D02*
X30128312Y-87671608D01*
X30128312Y-87671608D02*
X30223550Y-87766847D01*
X30223550Y-87766847D02*
X30366407Y-87814466D01*
X30366407Y-87814466D02*
X30461645Y-87814466D01*
X29175931Y-87147799D02*
X29175931Y-87814466D01*
X29414026Y-86766847D02*
X29652121Y-87481132D01*
X29652121Y-87481132D02*
X29033074Y-87481132D01*
X28223550Y-87147799D02*
X28223550Y-87814466D01*
X28461645Y-86766847D02*
X28699740Y-87481132D01*
X28699740Y-87481132D02*
X28080693Y-87481132D01*
X115306693Y-90504916D02*
X115306693Y-91219201D01*
X115306693Y-91219201D02*
X115354312Y-91362058D01*
X115354312Y-91362058D02*
X115449550Y-91457297D01*
X115449550Y-91457297D02*
X115592407Y-91504916D01*
X115592407Y-91504916D02*
X115687645Y-91504916D01*
X114401931Y-90504916D02*
X114592407Y-90504916D01*
X114592407Y-90504916D02*
X114687645Y-90552535D01*
X114687645Y-90552535D02*
X114735264Y-90600154D01*
X114735264Y-90600154D02*
X114830502Y-90743011D01*
X114830502Y-90743011D02*
X114878121Y-90933487D01*
X114878121Y-90933487D02*
X114878121Y-91314439D01*
X114878121Y-91314439D02*
X114830502Y-91409677D01*
X114830502Y-91409677D02*
X114782883Y-91457297D01*
X114782883Y-91457297D02*
X114687645Y-91504916D01*
X114687645Y-91504916D02*
X114497169Y-91504916D01*
X114497169Y-91504916D02*
X114401931Y-91457297D01*
X114401931Y-91457297D02*
X114354312Y-91409677D01*
X114354312Y-91409677D02*
X114306693Y-91314439D01*
X114306693Y-91314439D02*
X114306693Y-91076344D01*
X114306693Y-91076344D02*
X114354312Y-90981106D01*
X114354312Y-90981106D02*
X114401931Y-90933487D01*
X114401931Y-90933487D02*
X114497169Y-90885868D01*
X114497169Y-90885868D02*
X114687645Y-90885868D01*
X114687645Y-90885868D02*
X114782883Y-90933487D01*
X114782883Y-90933487D02*
X114830502Y-90981106D01*
X114830502Y-90981106D02*
X114878121Y-91076344D01*
X113735264Y-90933487D02*
X113830502Y-90885868D01*
X113830502Y-90885868D02*
X113878121Y-90838249D01*
X113878121Y-90838249D02*
X113925740Y-90743011D01*
X113925740Y-90743011D02*
X113925740Y-90695392D01*
X113925740Y-90695392D02*
X113878121Y-90600154D01*
X113878121Y-90600154D02*
X113830502Y-90552535D01*
X113830502Y-90552535D02*
X113735264Y-90504916D01*
X113735264Y-90504916D02*
X113544788Y-90504916D01*
X113544788Y-90504916D02*
X113449550Y-90552535D01*
X113449550Y-90552535D02*
X113401931Y-90600154D01*
X113401931Y-90600154D02*
X113354312Y-90695392D01*
X113354312Y-90695392D02*
X113354312Y-90743011D01*
X113354312Y-90743011D02*
X113401931Y-90838249D01*
X113401931Y-90838249D02*
X113449550Y-90885868D01*
X113449550Y-90885868D02*
X113544788Y-90933487D01*
X113544788Y-90933487D02*
X113735264Y-90933487D01*
X113735264Y-90933487D02*
X113830502Y-90981106D01*
X113830502Y-90981106D02*
X113878121Y-91028725D01*
X113878121Y-91028725D02*
X113925740Y-91123963D01*
X113925740Y-91123963D02*
X113925740Y-91314439D01*
X113925740Y-91314439D02*
X113878121Y-91409677D01*
X113878121Y-91409677D02*
X113830502Y-91457297D01*
X113830502Y-91457297D02*
X113735264Y-91504916D01*
X113735264Y-91504916D02*
X113544788Y-91504916D01*
X113544788Y-91504916D02*
X113449550Y-91457297D01*
X113449550Y-91457297D02*
X113401931Y-91409677D01*
X113401931Y-91409677D02*
X113354312Y-91314439D01*
X113354312Y-91314439D02*
X113354312Y-91123963D01*
X113354312Y-91123963D02*
X113401931Y-91028725D01*
X113401931Y-91028725D02*
X113449550Y-90981106D01*
X113449550Y-90981106D02*
X113544788Y-90933487D01*
D12*
X100274285Y-49474819D02*
X100274285Y-48474819D01*
X100274285Y-48474819D02*
X100036190Y-48474819D01*
X100036190Y-48474819D02*
X99893333Y-48522438D01*
X99893333Y-48522438D02*
X99798095Y-48617676D01*
X99798095Y-48617676D02*
X99750476Y-48712914D01*
X99750476Y-48712914D02*
X99702857Y-48903390D01*
X99702857Y-48903390D02*
X99702857Y-49046247D01*
X99702857Y-49046247D02*
X99750476Y-49236723D01*
X99750476Y-49236723D02*
X99798095Y-49331961D01*
X99798095Y-49331961D02*
X99893333Y-49427200D01*
X99893333Y-49427200D02*
X100036190Y-49474819D01*
X100036190Y-49474819D02*
X100274285Y-49474819D01*
X99321904Y-48570057D02*
X99274285Y-48522438D01*
X99274285Y-48522438D02*
X99179047Y-48474819D01*
X99179047Y-48474819D02*
X98940952Y-48474819D01*
X98940952Y-48474819D02*
X98845714Y-48522438D01*
X98845714Y-48522438D02*
X98798095Y-48570057D01*
X98798095Y-48570057D02*
X98750476Y-48665295D01*
X98750476Y-48665295D02*
X98750476Y-48760533D01*
X98750476Y-48760533D02*
X98798095Y-48903390D01*
X98798095Y-48903390D02*
X99369523Y-49474819D01*
X99369523Y-49474819D02*
X98750476Y-49474819D01*
X98131428Y-48474819D02*
X98036190Y-48474819D01*
X98036190Y-48474819D02*
X97940952Y-48522438D01*
X97940952Y-48522438D02*
X97893333Y-48570057D01*
X97893333Y-48570057D02*
X97845714Y-48665295D01*
X97845714Y-48665295D02*
X97798095Y-48855771D01*
X97798095Y-48855771D02*
X97798095Y-49093866D01*
X97798095Y-49093866D02*
X97845714Y-49284342D01*
X97845714Y-49284342D02*
X97893333Y-49379580D01*
X97893333Y-49379580D02*
X97940952Y-49427200D01*
X97940952Y-49427200D02*
X98036190Y-49474819D01*
X98036190Y-49474819D02*
X98131428Y-49474819D01*
X98131428Y-49474819D02*
X98226666Y-49427200D01*
X98226666Y-49427200D02*
X98274285Y-49379580D01*
X98274285Y-49379580D02*
X98321904Y-49284342D01*
X98321904Y-49284342D02*
X98369523Y-49093866D01*
X98369523Y-49093866D02*
X98369523Y-48855771D01*
X98369523Y-48855771D02*
X98321904Y-48665295D01*
X98321904Y-48665295D02*
X98274285Y-48570057D01*
X98274285Y-48570057D02*
X98226666Y-48522438D01*
X98226666Y-48522438D02*
X98131428Y-48474819D01*
D11*
X95323725Y-82165504D02*
X95323725Y-82879789D01*
X95323725Y-82879789D02*
X95371344Y-83022646D01*
X95371344Y-83022646D02*
X95466582Y-83117885D01*
X95466582Y-83117885D02*
X95609439Y-83165504D01*
X95609439Y-83165504D02*
X95704677Y-83165504D01*
X94418963Y-82165504D02*
X94609439Y-82165504D01*
X94609439Y-82165504D02*
X94704677Y-82213123D01*
X94704677Y-82213123D02*
X94752296Y-82260742D01*
X94752296Y-82260742D02*
X94847534Y-82403599D01*
X94847534Y-82403599D02*
X94895153Y-82594075D01*
X94895153Y-82594075D02*
X94895153Y-82975027D01*
X94895153Y-82975027D02*
X94847534Y-83070265D01*
X94847534Y-83070265D02*
X94799915Y-83117885D01*
X94799915Y-83117885D02*
X94704677Y-83165504D01*
X94704677Y-83165504D02*
X94514201Y-83165504D01*
X94514201Y-83165504D02*
X94418963Y-83117885D01*
X94418963Y-83117885D02*
X94371344Y-83070265D01*
X94371344Y-83070265D02*
X94323725Y-82975027D01*
X94323725Y-82975027D02*
X94323725Y-82736932D01*
X94323725Y-82736932D02*
X94371344Y-82641694D01*
X94371344Y-82641694D02*
X94418963Y-82594075D01*
X94418963Y-82594075D02*
X94514201Y-82546456D01*
X94514201Y-82546456D02*
X94704677Y-82546456D01*
X94704677Y-82546456D02*
X94799915Y-82594075D01*
X94799915Y-82594075D02*
X94847534Y-82641694D01*
X94847534Y-82641694D02*
X94895153Y-82736932D01*
X93466582Y-82498837D02*
X93466582Y-83165504D01*
X93704677Y-82117885D02*
X93942772Y-82832170D01*
X93942772Y-82832170D02*
X93323725Y-82832170D01*
X102080693Y-41814466D02*
X102080693Y-42528751D01*
X102080693Y-42528751D02*
X102128312Y-42671608D01*
X102128312Y-42671608D02*
X102223550Y-42766847D01*
X102223550Y-42766847D02*
X102366407Y-42814466D01*
X102366407Y-42814466D02*
X102461645Y-42814466D01*
X101652121Y-41909704D02*
X101604502Y-41862085D01*
X101604502Y-41862085D02*
X101509264Y-41814466D01*
X101509264Y-41814466D02*
X101271169Y-41814466D01*
X101271169Y-41814466D02*
X101175931Y-41862085D01*
X101175931Y-41862085D02*
X101128312Y-41909704D01*
X101128312Y-41909704D02*
X101080693Y-42004942D01*
X101080693Y-42004942D02*
X101080693Y-42100180D01*
X101080693Y-42100180D02*
X101128312Y-42243037D01*
X101128312Y-42243037D02*
X101699740Y-42814466D01*
X101699740Y-42814466D02*
X101080693Y-42814466D01*
X100461645Y-41814466D02*
X100366407Y-41814466D01*
X100366407Y-41814466D02*
X100271169Y-41862085D01*
X100271169Y-41862085D02*
X100223550Y-41909704D01*
X100223550Y-41909704D02*
X100175931Y-42004942D01*
X100175931Y-42004942D02*
X100128312Y-42195418D01*
X100128312Y-42195418D02*
X100128312Y-42433513D01*
X100128312Y-42433513D02*
X100175931Y-42623989D01*
X100175931Y-42623989D02*
X100223550Y-42719227D01*
X100223550Y-42719227D02*
X100271169Y-42766847D01*
X100271169Y-42766847D02*
X100366407Y-42814466D01*
X100366407Y-42814466D02*
X100461645Y-42814466D01*
X100461645Y-42814466D02*
X100556883Y-42766847D01*
X100556883Y-42766847D02*
X100604502Y-42719227D01*
X100604502Y-42719227D02*
X100652121Y-42623989D01*
X100652121Y-42623989D02*
X100699740Y-42433513D01*
X100699740Y-42433513D02*
X100699740Y-42195418D01*
X100699740Y-42195418D02*
X100652121Y-42004942D01*
X100652121Y-42004942D02*
X100604502Y-41909704D01*
X100604502Y-41909704D02*
X100556883Y-41862085D01*
X100556883Y-41862085D02*
X100461645Y-41814466D01*
X107060693Y-56704466D02*
X107060693Y-57418751D01*
X107060693Y-57418751D02*
X107108312Y-57561608D01*
X107108312Y-57561608D02*
X107203550Y-57656847D01*
X107203550Y-57656847D02*
X107346407Y-57704466D01*
X107346407Y-57704466D02*
X107441645Y-57704466D01*
X106679740Y-56704466D02*
X106060693Y-56704466D01*
X106060693Y-56704466D02*
X106394026Y-57085418D01*
X106394026Y-57085418D02*
X106251169Y-57085418D01*
X106251169Y-57085418D02*
X106155931Y-57133037D01*
X106155931Y-57133037D02*
X106108312Y-57180656D01*
X106108312Y-57180656D02*
X106060693Y-57275894D01*
X106060693Y-57275894D02*
X106060693Y-57513989D01*
X106060693Y-57513989D02*
X106108312Y-57609227D01*
X106108312Y-57609227D02*
X106155931Y-57656847D01*
X106155931Y-57656847D02*
X106251169Y-57704466D01*
X106251169Y-57704466D02*
X106536883Y-57704466D01*
X106536883Y-57704466D02*
X106632121Y-57656847D01*
X106632121Y-57656847D02*
X106679740Y-57609227D01*
X105584502Y-57704466D02*
X105394026Y-57704466D01*
X105394026Y-57704466D02*
X105298788Y-57656847D01*
X105298788Y-57656847D02*
X105251169Y-57609227D01*
X105251169Y-57609227D02*
X105155931Y-57466370D01*
X105155931Y-57466370D02*
X105108312Y-57275894D01*
X105108312Y-57275894D02*
X105108312Y-56894942D01*
X105108312Y-56894942D02*
X105155931Y-56799704D01*
X105155931Y-56799704D02*
X105203550Y-56752085D01*
X105203550Y-56752085D02*
X105298788Y-56704466D01*
X105298788Y-56704466D02*
X105489264Y-56704466D01*
X105489264Y-56704466D02*
X105584502Y-56752085D01*
X105584502Y-56752085D02*
X105632121Y-56799704D01*
X105632121Y-56799704D02*
X105679740Y-56894942D01*
X105679740Y-56894942D02*
X105679740Y-57133037D01*
X105679740Y-57133037D02*
X105632121Y-57228275D01*
X105632121Y-57228275D02*
X105584502Y-57275894D01*
X105584502Y-57275894D02*
X105489264Y-57323513D01*
X105489264Y-57323513D02*
X105298788Y-57323513D01*
X105298788Y-57323513D02*
X105203550Y-57275894D01*
X105203550Y-57275894D02*
X105155931Y-57228275D01*
X105155931Y-57228275D02*
X105108312Y-57133037D01*
D12*
X45818094Y-31484819D02*
X45818094Y-30484819D01*
X45818094Y-30484819D02*
X45579999Y-30484819D01*
X45579999Y-30484819D02*
X45437142Y-30532438D01*
X45437142Y-30532438D02*
X45341904Y-30627676D01*
X45341904Y-30627676D02*
X45294285Y-30722914D01*
X45294285Y-30722914D02*
X45246666Y-30913390D01*
X45246666Y-30913390D02*
X45246666Y-31056247D01*
X45246666Y-31056247D02*
X45294285Y-31246723D01*
X45294285Y-31246723D02*
X45341904Y-31341961D01*
X45341904Y-31341961D02*
X45437142Y-31437200D01*
X45437142Y-31437200D02*
X45579999Y-31484819D01*
X45579999Y-31484819D02*
X45818094Y-31484819D01*
X44389523Y-30818152D02*
X44389523Y-31484819D01*
X44627618Y-30437200D02*
X44865713Y-31151485D01*
X44865713Y-31151485D02*
X44246666Y-31151485D01*
D11*
X30080693Y-69814466D02*
X30080693Y-70528751D01*
X30080693Y-70528751D02*
X30128312Y-70671608D01*
X30128312Y-70671608D02*
X30223550Y-70766847D01*
X30223550Y-70766847D02*
X30366407Y-70814466D01*
X30366407Y-70814466D02*
X30461645Y-70814466D01*
X29652121Y-69909704D02*
X29604502Y-69862085D01*
X29604502Y-69862085D02*
X29509264Y-69814466D01*
X29509264Y-69814466D02*
X29271169Y-69814466D01*
X29271169Y-69814466D02*
X29175931Y-69862085D01*
X29175931Y-69862085D02*
X29128312Y-69909704D01*
X29128312Y-69909704D02*
X29080693Y-70004942D01*
X29080693Y-70004942D02*
X29080693Y-70100180D01*
X29080693Y-70100180D02*
X29128312Y-70243037D01*
X29128312Y-70243037D02*
X29699740Y-70814466D01*
X29699740Y-70814466D02*
X29080693Y-70814466D01*
X28223550Y-70147799D02*
X28223550Y-70814466D01*
X28461645Y-69766847D02*
X28699740Y-70481132D01*
X28699740Y-70481132D02*
X28080693Y-70481132D01*
X66080693Y-33814466D02*
X66080693Y-34528751D01*
X66080693Y-34528751D02*
X66128312Y-34671608D01*
X66128312Y-34671608D02*
X66223550Y-34766847D01*
X66223550Y-34766847D02*
X66366407Y-34814466D01*
X66366407Y-34814466D02*
X66461645Y-34814466D01*
X65080693Y-34814466D02*
X65652121Y-34814466D01*
X65366407Y-34814466D02*
X65366407Y-33814466D01*
X65366407Y-33814466D02*
X65461645Y-33957323D01*
X65461645Y-33957323D02*
X65556883Y-34052561D01*
X65556883Y-34052561D02*
X65652121Y-34100180D01*
X64699740Y-33909704D02*
X64652121Y-33862085D01*
X64652121Y-33862085D02*
X64556883Y-33814466D01*
X64556883Y-33814466D02*
X64318788Y-33814466D01*
X64318788Y-33814466D02*
X64223550Y-33862085D01*
X64223550Y-33862085D02*
X64175931Y-33909704D01*
X64175931Y-33909704D02*
X64128312Y-34004942D01*
X64128312Y-34004942D02*
X64128312Y-34100180D01*
X64128312Y-34100180D02*
X64175931Y-34243037D01*
X64175931Y-34243037D02*
X64747359Y-34814466D01*
X64747359Y-34814466D02*
X64128312Y-34814466D01*
X109926566Y-89823569D02*
X109926566Y-90537854D01*
X109926566Y-90537854D02*
X109974185Y-90680711D01*
X109974185Y-90680711D02*
X110069423Y-90775950D01*
X110069423Y-90775950D02*
X110212280Y-90823569D01*
X110212280Y-90823569D02*
X110307518Y-90823569D01*
X109021804Y-89823569D02*
X109212280Y-89823569D01*
X109212280Y-89823569D02*
X109307518Y-89871188D01*
X109307518Y-89871188D02*
X109355137Y-89918807D01*
X109355137Y-89918807D02*
X109450375Y-90061664D01*
X109450375Y-90061664D02*
X109497994Y-90252140D01*
X109497994Y-90252140D02*
X109497994Y-90633092D01*
X109497994Y-90633092D02*
X109450375Y-90728330D01*
X109450375Y-90728330D02*
X109402756Y-90775950D01*
X109402756Y-90775950D02*
X109307518Y-90823569D01*
X109307518Y-90823569D02*
X109117042Y-90823569D01*
X109117042Y-90823569D02*
X109021804Y-90775950D01*
X109021804Y-90775950D02*
X108974185Y-90728330D01*
X108974185Y-90728330D02*
X108926566Y-90633092D01*
X108926566Y-90633092D02*
X108926566Y-90394997D01*
X108926566Y-90394997D02*
X108974185Y-90299759D01*
X108974185Y-90299759D02*
X109021804Y-90252140D01*
X109021804Y-90252140D02*
X109117042Y-90204521D01*
X109117042Y-90204521D02*
X109307518Y-90204521D01*
X109307518Y-90204521D02*
X109402756Y-90252140D01*
X109402756Y-90252140D02*
X109450375Y-90299759D01*
X109450375Y-90299759D02*
X109497994Y-90394997D01*
X108593232Y-89823569D02*
X107926566Y-89823569D01*
X107926566Y-89823569D02*
X108355137Y-90823569D01*
X89080693Y-37214466D02*
X89080693Y-37928751D01*
X89080693Y-37928751D02*
X89128312Y-38071608D01*
X89128312Y-38071608D02*
X89223550Y-38166847D01*
X89223550Y-38166847D02*
X89366407Y-38214466D01*
X89366407Y-38214466D02*
X89461645Y-38214466D01*
X88080693Y-38214466D02*
X88652121Y-38214466D01*
X88366407Y-38214466D02*
X88366407Y-37214466D01*
X88366407Y-37214466D02*
X88461645Y-37357323D01*
X88461645Y-37357323D02*
X88556883Y-37452561D01*
X88556883Y-37452561D02*
X88652121Y-37500180D01*
X87175931Y-37214466D02*
X87652121Y-37214466D01*
X87652121Y-37214466D02*
X87699740Y-37690656D01*
X87699740Y-37690656D02*
X87652121Y-37643037D01*
X87652121Y-37643037D02*
X87556883Y-37595418D01*
X87556883Y-37595418D02*
X87318788Y-37595418D01*
X87318788Y-37595418D02*
X87223550Y-37643037D01*
X87223550Y-37643037D02*
X87175931Y-37690656D01*
X87175931Y-37690656D02*
X87128312Y-37785894D01*
X87128312Y-37785894D02*
X87128312Y-38023989D01*
X87128312Y-38023989D02*
X87175931Y-38119227D01*
X87175931Y-38119227D02*
X87223550Y-38166847D01*
X87223550Y-38166847D02*
X87318788Y-38214466D01*
X87318788Y-38214466D02*
X87556883Y-38214466D01*
X87556883Y-38214466D02*
X87652121Y-38166847D01*
X87652121Y-38166847D02*
X87699740Y-38119227D01*
X35080693Y-67714466D02*
X35080693Y-68428751D01*
X35080693Y-68428751D02*
X35128312Y-68571608D01*
X35128312Y-68571608D02*
X35223550Y-68666847D01*
X35223550Y-68666847D02*
X35366407Y-68714466D01*
X35366407Y-68714466D02*
X35461645Y-68714466D01*
X34652121Y-67809704D02*
X34604502Y-67762085D01*
X34604502Y-67762085D02*
X34509264Y-67714466D01*
X34509264Y-67714466D02*
X34271169Y-67714466D01*
X34271169Y-67714466D02*
X34175931Y-67762085D01*
X34175931Y-67762085D02*
X34128312Y-67809704D01*
X34128312Y-67809704D02*
X34080693Y-67904942D01*
X34080693Y-67904942D02*
X34080693Y-68000180D01*
X34080693Y-68000180D02*
X34128312Y-68143037D01*
X34128312Y-68143037D02*
X34699740Y-68714466D01*
X34699740Y-68714466D02*
X34080693Y-68714466D01*
X33747359Y-67714466D02*
X33128312Y-67714466D01*
X33128312Y-67714466D02*
X33461645Y-68095418D01*
X33461645Y-68095418D02*
X33318788Y-68095418D01*
X33318788Y-68095418D02*
X33223550Y-68143037D01*
X33223550Y-68143037D02*
X33175931Y-68190656D01*
X33175931Y-68190656D02*
X33128312Y-68285894D01*
X33128312Y-68285894D02*
X33128312Y-68523989D01*
X33128312Y-68523989D02*
X33175931Y-68619227D01*
X33175931Y-68619227D02*
X33223550Y-68666847D01*
X33223550Y-68666847D02*
X33318788Y-68714466D01*
X33318788Y-68714466D02*
X33604502Y-68714466D01*
X33604502Y-68714466D02*
X33699740Y-68666847D01*
X33699740Y-68666847D02*
X33747359Y-68619227D01*
X89080693Y-71182466D02*
X89080693Y-71896751D01*
X89080693Y-71896751D02*
X89128312Y-72039608D01*
X89128312Y-72039608D02*
X89223550Y-72134847D01*
X89223550Y-72134847D02*
X89366407Y-72182466D01*
X89366407Y-72182466D02*
X89461645Y-72182466D01*
X88128312Y-71182466D02*
X88604502Y-71182466D01*
X88604502Y-71182466D02*
X88652121Y-71658656D01*
X88652121Y-71658656D02*
X88604502Y-71611037D01*
X88604502Y-71611037D02*
X88509264Y-71563418D01*
X88509264Y-71563418D02*
X88271169Y-71563418D01*
X88271169Y-71563418D02*
X88175931Y-71611037D01*
X88175931Y-71611037D02*
X88128312Y-71658656D01*
X88128312Y-71658656D02*
X88080693Y-71753894D01*
X88080693Y-71753894D02*
X88080693Y-71991989D01*
X88080693Y-71991989D02*
X88128312Y-72087227D01*
X88128312Y-72087227D02*
X88175931Y-72134847D01*
X88175931Y-72134847D02*
X88271169Y-72182466D01*
X88271169Y-72182466D02*
X88509264Y-72182466D01*
X88509264Y-72182466D02*
X88604502Y-72134847D01*
X88604502Y-72134847D02*
X88652121Y-72087227D01*
X87175931Y-71182466D02*
X87652121Y-71182466D01*
X87652121Y-71182466D02*
X87699740Y-71658656D01*
X87699740Y-71658656D02*
X87652121Y-71611037D01*
X87652121Y-71611037D02*
X87556883Y-71563418D01*
X87556883Y-71563418D02*
X87318788Y-71563418D01*
X87318788Y-71563418D02*
X87223550Y-71611037D01*
X87223550Y-71611037D02*
X87175931Y-71658656D01*
X87175931Y-71658656D02*
X87128312Y-71753894D01*
X87128312Y-71753894D02*
X87128312Y-71991989D01*
X87128312Y-71991989D02*
X87175931Y-72087227D01*
X87175931Y-72087227D02*
X87223550Y-72134847D01*
X87223550Y-72134847D02*
X87318788Y-72182466D01*
X87318788Y-72182466D02*
X87556883Y-72182466D01*
X87556883Y-72182466D02*
X87652121Y-72134847D01*
X87652121Y-72134847D02*
X87699740Y-72087227D01*
D12*
X46294285Y-65476819D02*
X46294285Y-64476819D01*
X46294285Y-64476819D02*
X46056190Y-64476819D01*
X46056190Y-64476819D02*
X45913333Y-64524438D01*
X45913333Y-64524438D02*
X45818095Y-64619676D01*
X45818095Y-64619676D02*
X45770476Y-64714914D01*
X45770476Y-64714914D02*
X45722857Y-64905390D01*
X45722857Y-64905390D02*
X45722857Y-65048247D01*
X45722857Y-65048247D02*
X45770476Y-65238723D01*
X45770476Y-65238723D02*
X45818095Y-65333961D01*
X45818095Y-65333961D02*
X45913333Y-65429200D01*
X45913333Y-65429200D02*
X46056190Y-65476819D01*
X46056190Y-65476819D02*
X46294285Y-65476819D01*
X45341904Y-64572057D02*
X45294285Y-64524438D01*
X45294285Y-64524438D02*
X45199047Y-64476819D01*
X45199047Y-64476819D02*
X44960952Y-64476819D01*
X44960952Y-64476819D02*
X44865714Y-64524438D01*
X44865714Y-64524438D02*
X44818095Y-64572057D01*
X44818095Y-64572057D02*
X44770476Y-64667295D01*
X44770476Y-64667295D02*
X44770476Y-64762533D01*
X44770476Y-64762533D02*
X44818095Y-64905390D01*
X44818095Y-64905390D02*
X45389523Y-65476819D01*
X45389523Y-65476819D02*
X44770476Y-65476819D01*
X43913333Y-64810152D02*
X43913333Y-65476819D01*
X44151428Y-64429200D02*
X44389523Y-65143485D01*
X44389523Y-65143485D02*
X43770476Y-65143485D01*
X121561123Y-65181619D02*
X121561123Y-65895904D01*
X121561123Y-65895904D02*
X121608742Y-66038761D01*
X121608742Y-66038761D02*
X121703980Y-66134000D01*
X121703980Y-66134000D02*
X121846837Y-66181619D01*
X121846837Y-66181619D02*
X121942075Y-66181619D01*
X121180170Y-65181619D02*
X120513504Y-65181619D01*
X120513504Y-65181619D02*
X120942075Y-66181619D01*
X119703980Y-65514952D02*
X119703980Y-66181619D01*
X119942075Y-65134000D02*
X120180170Y-65848285D01*
X120180170Y-65848285D02*
X119561123Y-65848285D01*
D11*
X89080693Y-54164466D02*
X89080693Y-54878751D01*
X89080693Y-54878751D02*
X89128312Y-55021608D01*
X89128312Y-55021608D02*
X89223550Y-55116847D01*
X89223550Y-55116847D02*
X89366407Y-55164466D01*
X89366407Y-55164466D02*
X89461645Y-55164466D01*
X88699740Y-54164466D02*
X88080693Y-54164466D01*
X88080693Y-54164466D02*
X88414026Y-54545418D01*
X88414026Y-54545418D02*
X88271169Y-54545418D01*
X88271169Y-54545418D02*
X88175931Y-54593037D01*
X88175931Y-54593037D02*
X88128312Y-54640656D01*
X88128312Y-54640656D02*
X88080693Y-54735894D01*
X88080693Y-54735894D02*
X88080693Y-54973989D01*
X88080693Y-54973989D02*
X88128312Y-55069227D01*
X88128312Y-55069227D02*
X88175931Y-55116847D01*
X88175931Y-55116847D02*
X88271169Y-55164466D01*
X88271169Y-55164466D02*
X88556883Y-55164466D01*
X88556883Y-55164466D02*
X88652121Y-55116847D01*
X88652121Y-55116847D02*
X88699740Y-55069227D01*
X87175931Y-54164466D02*
X87652121Y-54164466D01*
X87652121Y-54164466D02*
X87699740Y-54640656D01*
X87699740Y-54640656D02*
X87652121Y-54593037D01*
X87652121Y-54593037D02*
X87556883Y-54545418D01*
X87556883Y-54545418D02*
X87318788Y-54545418D01*
X87318788Y-54545418D02*
X87223550Y-54593037D01*
X87223550Y-54593037D02*
X87175931Y-54640656D01*
X87175931Y-54640656D02*
X87128312Y-54735894D01*
X87128312Y-54735894D02*
X87128312Y-54973989D01*
X87128312Y-54973989D02*
X87175931Y-55069227D01*
X87175931Y-55069227D02*
X87223550Y-55116847D01*
X87223550Y-55116847D02*
X87318788Y-55164466D01*
X87318788Y-55164466D02*
X87556883Y-55164466D01*
X87556883Y-55164466D02*
X87652121Y-55116847D01*
X87652121Y-55116847D02*
X87699740Y-55069227D01*
D12*
X46294285Y-48458819D02*
X46294285Y-47458819D01*
X46294285Y-47458819D02*
X46056190Y-47458819D01*
X46056190Y-47458819D02*
X45913333Y-47506438D01*
X45913333Y-47506438D02*
X45818095Y-47601676D01*
X45818095Y-47601676D02*
X45770476Y-47696914D01*
X45770476Y-47696914D02*
X45722857Y-47887390D01*
X45722857Y-47887390D02*
X45722857Y-48030247D01*
X45722857Y-48030247D02*
X45770476Y-48220723D01*
X45770476Y-48220723D02*
X45818095Y-48315961D01*
X45818095Y-48315961D02*
X45913333Y-48411200D01*
X45913333Y-48411200D02*
X46056190Y-48458819D01*
X46056190Y-48458819D02*
X46294285Y-48458819D01*
X44770476Y-48458819D02*
X45341904Y-48458819D01*
X45056190Y-48458819D02*
X45056190Y-47458819D01*
X45056190Y-47458819D02*
X45151428Y-47601676D01*
X45151428Y-47601676D02*
X45246666Y-47696914D01*
X45246666Y-47696914D02*
X45341904Y-47744533D01*
X43913333Y-47792152D02*
X43913333Y-48458819D01*
X44151428Y-47411200D02*
X44389523Y-48125485D01*
X44389523Y-48125485D02*
X43770476Y-48125485D01*
X106218819Y-53546476D02*
X106933104Y-53546476D01*
X106933104Y-53546476D02*
X107075961Y-53498857D01*
X107075961Y-53498857D02*
X107171200Y-53403619D01*
X107171200Y-53403619D02*
X107218819Y-53260762D01*
X107218819Y-53260762D02*
X107218819Y-53165524D01*
X106218819Y-53927429D02*
X106218819Y-54594095D01*
X106218819Y-54594095D02*
X107218819Y-54165524D01*
X106218819Y-55403619D02*
X106218819Y-55213143D01*
X106218819Y-55213143D02*
X106266438Y-55117905D01*
X106266438Y-55117905D02*
X106314057Y-55070286D01*
X106314057Y-55070286D02*
X106456914Y-54975048D01*
X106456914Y-54975048D02*
X106647390Y-54927429D01*
X106647390Y-54927429D02*
X107028342Y-54927429D01*
X107028342Y-54927429D02*
X107123580Y-54975048D01*
X107123580Y-54975048D02*
X107171200Y-55022667D01*
X107171200Y-55022667D02*
X107218819Y-55117905D01*
X107218819Y-55117905D02*
X107218819Y-55308381D01*
X107218819Y-55308381D02*
X107171200Y-55403619D01*
X107171200Y-55403619D02*
X107123580Y-55451238D01*
X107123580Y-55451238D02*
X107028342Y-55498857D01*
X107028342Y-55498857D02*
X106790247Y-55498857D01*
X106790247Y-55498857D02*
X106695009Y-55451238D01*
X106695009Y-55451238D02*
X106647390Y-55403619D01*
X106647390Y-55403619D02*
X106599771Y-55308381D01*
X106599771Y-55308381D02*
X106599771Y-55117905D01*
X106599771Y-55117905D02*
X106647390Y-55022667D01*
X106647390Y-55022667D02*
X106695009Y-54975048D01*
X106695009Y-54975048D02*
X106790247Y-54927429D01*
D11*
X71080693Y-65848466D02*
X71080693Y-66562751D01*
X71080693Y-66562751D02*
X71128312Y-66705608D01*
X71128312Y-66705608D02*
X71223550Y-66800847D01*
X71223550Y-66800847D02*
X71366407Y-66848466D01*
X71366407Y-66848466D02*
X71461645Y-66848466D01*
X70128312Y-65848466D02*
X70604502Y-65848466D01*
X70604502Y-65848466D02*
X70652121Y-66324656D01*
X70652121Y-66324656D02*
X70604502Y-66277037D01*
X70604502Y-66277037D02*
X70509264Y-66229418D01*
X70509264Y-66229418D02*
X70271169Y-66229418D01*
X70271169Y-66229418D02*
X70175931Y-66277037D01*
X70175931Y-66277037D02*
X70128312Y-66324656D01*
X70128312Y-66324656D02*
X70080693Y-66419894D01*
X70080693Y-66419894D02*
X70080693Y-66657989D01*
X70080693Y-66657989D02*
X70128312Y-66753227D01*
X70128312Y-66753227D02*
X70175931Y-66800847D01*
X70175931Y-66800847D02*
X70271169Y-66848466D01*
X70271169Y-66848466D02*
X70509264Y-66848466D01*
X70509264Y-66848466D02*
X70604502Y-66800847D01*
X70604502Y-66800847D02*
X70652121Y-66753227D01*
X69128312Y-66848466D02*
X69699740Y-66848466D01*
X69414026Y-66848466D02*
X69414026Y-65848466D01*
X69414026Y-65848466D02*
X69509264Y-65991323D01*
X69509264Y-65991323D02*
X69604502Y-66086561D01*
X69604502Y-66086561D02*
X69699740Y-66134180D01*
X66080693Y-67948466D02*
X66080693Y-68662751D01*
X66080693Y-68662751D02*
X66128312Y-68805608D01*
X66128312Y-68805608D02*
X66223550Y-68900847D01*
X66223550Y-68900847D02*
X66366407Y-68948466D01*
X66366407Y-68948466D02*
X66461645Y-68948466D01*
X65128312Y-67948466D02*
X65604502Y-67948466D01*
X65604502Y-67948466D02*
X65652121Y-68424656D01*
X65652121Y-68424656D02*
X65604502Y-68377037D01*
X65604502Y-68377037D02*
X65509264Y-68329418D01*
X65509264Y-68329418D02*
X65271169Y-68329418D01*
X65271169Y-68329418D02*
X65175931Y-68377037D01*
X65175931Y-68377037D02*
X65128312Y-68424656D01*
X65128312Y-68424656D02*
X65080693Y-68519894D01*
X65080693Y-68519894D02*
X65080693Y-68757989D01*
X65080693Y-68757989D02*
X65128312Y-68853227D01*
X65128312Y-68853227D02*
X65175931Y-68900847D01*
X65175931Y-68900847D02*
X65271169Y-68948466D01*
X65271169Y-68948466D02*
X65509264Y-68948466D01*
X65509264Y-68948466D02*
X65604502Y-68900847D01*
X65604502Y-68900847D02*
X65652121Y-68853227D01*
X64699740Y-68043704D02*
X64652121Y-67996085D01*
X64652121Y-67996085D02*
X64556883Y-67948466D01*
X64556883Y-67948466D02*
X64318788Y-67948466D01*
X64318788Y-67948466D02*
X64223550Y-67996085D01*
X64223550Y-67996085D02*
X64175931Y-68043704D01*
X64175931Y-68043704D02*
X64128312Y-68138942D01*
X64128312Y-68138942D02*
X64128312Y-68234180D01*
X64128312Y-68234180D02*
X64175931Y-68377037D01*
X64175931Y-68377037D02*
X64747359Y-68948466D01*
X64747359Y-68948466D02*
X64128312Y-68948466D01*
D12*
X98287164Y-31122277D02*
X98661298Y-29773194D01*
X98661298Y-29773194D02*
X98147361Y-29630667D01*
X98147361Y-29630667D02*
X98001061Y-29659277D01*
X98001061Y-29659277D02*
X97919004Y-29705703D01*
X97919004Y-29705703D02*
X97819130Y-29816372D01*
X97819130Y-29816372D02*
X97765682Y-30009098D01*
X97765682Y-30009098D02*
X97794292Y-30155398D01*
X97794292Y-30155398D02*
X97840718Y-30237456D01*
X97840718Y-30237456D02*
X97951387Y-30337329D01*
X97951387Y-30337329D02*
X98465323Y-30479857D01*
X97055247Y-29327797D02*
X96798279Y-29256533D01*
X96798279Y-29256533D02*
X96651979Y-29285144D01*
X96651979Y-29285144D02*
X96487863Y-29377996D01*
X96487863Y-29377996D02*
X96352357Y-29617148D01*
X96352357Y-29617148D02*
X96227646Y-30066842D01*
X96227646Y-30066842D02*
X96220625Y-30341626D01*
X96220625Y-30341626D02*
X96313477Y-30505742D01*
X96313477Y-30505742D02*
X96424145Y-30605616D01*
X96424145Y-30605616D02*
X96681113Y-30676880D01*
X96681113Y-30676880D02*
X96827413Y-30648269D01*
X96827413Y-30648269D02*
X96991529Y-30555417D01*
X96991529Y-30555417D02*
X97127035Y-30316265D01*
X97127035Y-30316265D02*
X97251746Y-29866571D01*
X97251746Y-29866571D02*
X97258767Y-29591787D01*
X97258767Y-29591787D02*
X97165915Y-29427671D01*
X97165915Y-29427671D02*
X97055247Y-29327797D01*
X96027374Y-29042743D02*
X95332030Y-30302746D01*
X95332030Y-30302746D02*
X95342300Y-29267852D01*
X95342300Y-29267852D02*
X94818094Y-30160219D01*
X94818094Y-30160219D02*
X94871018Y-28722056D01*
X94178922Y-29221950D02*
X93729228Y-29097238D01*
X93340527Y-29750453D02*
X93982948Y-29928612D01*
X93982948Y-29928612D02*
X94357081Y-28579529D01*
X94357081Y-28579529D02*
X93714661Y-28401370D01*
X91991444Y-29376319D02*
X92619297Y-28858610D01*
X92762349Y-29590110D02*
X93136482Y-28241027D01*
X93136482Y-28241027D02*
X92622546Y-28098500D01*
X92622546Y-28098500D02*
X92476246Y-28127110D01*
X92476246Y-28127110D02*
X92394188Y-28173537D01*
X92394188Y-28173537D02*
X92294314Y-28284205D01*
X92294314Y-28284205D02*
X92240867Y-28476931D01*
X92240867Y-28476931D02*
X92269477Y-28623231D01*
X92269477Y-28623231D02*
X92315903Y-28705289D01*
X92315903Y-28705289D02*
X92426571Y-28805163D01*
X92426571Y-28805163D02*
X92940508Y-28947690D01*
X91698844Y-29433540D02*
X90670972Y-29148485D01*
X90467451Y-28884496D02*
X90256909Y-28895290D01*
X90256909Y-28895290D02*
X89935699Y-28806211D01*
X89935699Y-28806211D02*
X89825031Y-28706337D01*
X89825031Y-28706337D02*
X89778605Y-28624279D01*
X89778605Y-28624279D02*
X89749994Y-28477979D01*
X89749994Y-28477979D02*
X89785626Y-28349495D01*
X89785626Y-28349495D02*
X89885500Y-28238827D01*
X89885500Y-28238827D02*
X89967558Y-28192401D01*
X89967558Y-28192401D02*
X90113858Y-28163790D01*
X90113858Y-28163790D02*
X90388642Y-28170812D01*
X90388642Y-28170812D02*
X90534942Y-28142202D01*
X90534942Y-28142202D02*
X90617000Y-28095775D01*
X90617000Y-28095775D02*
X90716874Y-27985107D01*
X90716874Y-27985107D02*
X90752505Y-27856623D01*
X90752505Y-27856623D02*
X90723895Y-27710323D01*
X90723895Y-27710323D02*
X90677469Y-27628265D01*
X90677469Y-27628265D02*
X90566801Y-27528392D01*
X90566801Y-27528392D02*
X90245591Y-27439312D01*
X90245591Y-27439312D02*
X90035049Y-27450106D01*
X89603171Y-27261153D02*
X88907827Y-28521156D01*
X88907827Y-28521156D02*
X88918097Y-27486262D01*
X88918097Y-27486262D02*
X88393891Y-28378629D01*
X88393891Y-28378629D02*
X88446814Y-26940467D01*
X87961488Y-26944240D02*
X87915062Y-26862182D01*
X87915062Y-26862182D02*
X87804394Y-26762308D01*
X87804394Y-26762308D02*
X87483184Y-26673229D01*
X87483184Y-26673229D02*
X87336884Y-26701839D01*
X87336884Y-26701839D02*
X87254826Y-26748265D01*
X87254826Y-26748265D02*
X87154952Y-26858933D01*
X87154952Y-26858933D02*
X87119320Y-26987417D01*
X87119320Y-26987417D02*
X87130115Y-27197959D01*
X87130115Y-27197959D02*
X87687228Y-28182655D01*
X87687228Y-28182655D02*
X86852082Y-27951048D01*
D11*
X71080693Y-31714466D02*
X71080693Y-32428751D01*
X71080693Y-32428751D02*
X71128312Y-32571608D01*
X71128312Y-32571608D02*
X71223550Y-32666847D01*
X71223550Y-32666847D02*
X71366407Y-32714466D01*
X71366407Y-32714466D02*
X71461645Y-32714466D01*
X70080693Y-32714466D02*
X70652121Y-32714466D01*
X70366407Y-32714466D02*
X70366407Y-31714466D01*
X70366407Y-31714466D02*
X70461645Y-31857323D01*
X70461645Y-31857323D02*
X70556883Y-31952561D01*
X70556883Y-31952561D02*
X70652121Y-32000180D01*
X69128312Y-32714466D02*
X69699740Y-32714466D01*
X69414026Y-32714466D02*
X69414026Y-31714466D01*
X69414026Y-31714466D02*
X69509264Y-31857323D01*
X69509264Y-31857323D02*
X69604502Y-31952561D01*
X69604502Y-31952561D02*
X69699740Y-32000180D01*
D12*
X64294285Y-58618819D02*
X64294285Y-57618819D01*
X64294285Y-57618819D02*
X64056190Y-57618819D01*
X64056190Y-57618819D02*
X63913333Y-57666438D01*
X63913333Y-57666438D02*
X63818095Y-57761676D01*
X63818095Y-57761676D02*
X63770476Y-57856914D01*
X63770476Y-57856914D02*
X63722857Y-58047390D01*
X63722857Y-58047390D02*
X63722857Y-58190247D01*
X63722857Y-58190247D02*
X63770476Y-58380723D01*
X63770476Y-58380723D02*
X63818095Y-58475961D01*
X63818095Y-58475961D02*
X63913333Y-58571200D01*
X63913333Y-58571200D02*
X64056190Y-58618819D01*
X64056190Y-58618819D02*
X64294285Y-58618819D01*
X63341904Y-57714057D02*
X63294285Y-57666438D01*
X63294285Y-57666438D02*
X63199047Y-57618819D01*
X63199047Y-57618819D02*
X62960952Y-57618819D01*
X62960952Y-57618819D02*
X62865714Y-57666438D01*
X62865714Y-57666438D02*
X62818095Y-57714057D01*
X62818095Y-57714057D02*
X62770476Y-57809295D01*
X62770476Y-57809295D02*
X62770476Y-57904533D01*
X62770476Y-57904533D02*
X62818095Y-58047390D01*
X62818095Y-58047390D02*
X63389523Y-58618819D01*
X63389523Y-58618819D02*
X62770476Y-58618819D01*
X61913333Y-57618819D02*
X62103809Y-57618819D01*
X62103809Y-57618819D02*
X62199047Y-57666438D01*
X62199047Y-57666438D02*
X62246666Y-57714057D01*
X62246666Y-57714057D02*
X62341904Y-57856914D01*
X62341904Y-57856914D02*
X62389523Y-58047390D01*
X62389523Y-58047390D02*
X62389523Y-58428342D01*
X62389523Y-58428342D02*
X62341904Y-58523580D01*
X62341904Y-58523580D02*
X62294285Y-58571200D01*
X62294285Y-58571200D02*
X62199047Y-58618819D01*
X62199047Y-58618819D02*
X62008571Y-58618819D01*
X62008571Y-58618819D02*
X61913333Y-58571200D01*
X61913333Y-58571200D02*
X61865714Y-58523580D01*
X61865714Y-58523580D02*
X61818095Y-58428342D01*
X61818095Y-58428342D02*
X61818095Y-58190247D01*
X61818095Y-58190247D02*
X61865714Y-58095009D01*
X61865714Y-58095009D02*
X61913333Y-58047390D01*
X61913333Y-58047390D02*
X62008571Y-57999771D01*
X62008571Y-57999771D02*
X62199047Y-57999771D01*
X62199047Y-57999771D02*
X62294285Y-58047390D01*
X62294285Y-58047390D02*
X62341904Y-58095009D01*
X62341904Y-58095009D02*
X62389523Y-58190247D01*
D11*
X34128312Y-50714466D02*
X34128312Y-51428751D01*
X34128312Y-51428751D02*
X34175931Y-51571608D01*
X34175931Y-51571608D02*
X34271169Y-51666847D01*
X34271169Y-51666847D02*
X34414026Y-51714466D01*
X34414026Y-51714466D02*
X34509264Y-51714466D01*
X33747359Y-50714466D02*
X33128312Y-50714466D01*
X33128312Y-50714466D02*
X33461645Y-51095418D01*
X33461645Y-51095418D02*
X33318788Y-51095418D01*
X33318788Y-51095418D02*
X33223550Y-51143037D01*
X33223550Y-51143037D02*
X33175931Y-51190656D01*
X33175931Y-51190656D02*
X33128312Y-51285894D01*
X33128312Y-51285894D02*
X33128312Y-51523989D01*
X33128312Y-51523989D02*
X33175931Y-51619227D01*
X33175931Y-51619227D02*
X33223550Y-51666847D01*
X33223550Y-51666847D02*
X33318788Y-51714466D01*
X33318788Y-51714466D02*
X33604502Y-51714466D01*
X33604502Y-51714466D02*
X33699740Y-51666847D01*
X33699740Y-51666847D02*
X33747359Y-51619227D01*
D12*
X100294285Y-32484819D02*
X100294285Y-31484819D01*
X100294285Y-31484819D02*
X100056190Y-31484819D01*
X100056190Y-31484819D02*
X99913333Y-31532438D01*
X99913333Y-31532438D02*
X99818095Y-31627676D01*
X99818095Y-31627676D02*
X99770476Y-31722914D01*
X99770476Y-31722914D02*
X99722857Y-31913390D01*
X99722857Y-31913390D02*
X99722857Y-32056247D01*
X99722857Y-32056247D02*
X99770476Y-32246723D01*
X99770476Y-32246723D02*
X99818095Y-32341961D01*
X99818095Y-32341961D02*
X99913333Y-32437200D01*
X99913333Y-32437200D02*
X100056190Y-32484819D01*
X100056190Y-32484819D02*
X100294285Y-32484819D01*
X98770476Y-32484819D02*
X99341904Y-32484819D01*
X99056190Y-32484819D02*
X99056190Y-31484819D01*
X99056190Y-31484819D02*
X99151428Y-31627676D01*
X99151428Y-31627676D02*
X99246666Y-31722914D01*
X99246666Y-31722914D02*
X99341904Y-31770533D01*
X98151428Y-31484819D02*
X98056190Y-31484819D01*
X98056190Y-31484819D02*
X97960952Y-31532438D01*
X97960952Y-31532438D02*
X97913333Y-31580057D01*
X97913333Y-31580057D02*
X97865714Y-31675295D01*
X97865714Y-31675295D02*
X97818095Y-31865771D01*
X97818095Y-31865771D02*
X97818095Y-32103866D01*
X97818095Y-32103866D02*
X97865714Y-32294342D01*
X97865714Y-32294342D02*
X97913333Y-32389580D01*
X97913333Y-32389580D02*
X97960952Y-32437200D01*
X97960952Y-32437200D02*
X98056190Y-32484819D01*
X98056190Y-32484819D02*
X98151428Y-32484819D01*
X98151428Y-32484819D02*
X98246666Y-32437200D01*
X98246666Y-32437200D02*
X98294285Y-32389580D01*
X98294285Y-32389580D02*
X98341904Y-32294342D01*
X98341904Y-32294342D02*
X98389523Y-32103866D01*
X98389523Y-32103866D02*
X98389523Y-31865771D01*
X98389523Y-31865771D02*
X98341904Y-31675295D01*
X98341904Y-31675295D02*
X98294285Y-31580057D01*
X98294285Y-31580057D02*
X98246666Y-31532438D01*
X98246666Y-31532438D02*
X98151428Y-31484819D01*
D11*
X89950576Y-82899853D02*
X89950576Y-83614138D01*
X89950576Y-83614138D02*
X89998195Y-83756995D01*
X89998195Y-83756995D02*
X90093433Y-83852234D01*
X90093433Y-83852234D02*
X90236290Y-83899853D01*
X90236290Y-83899853D02*
X90331528Y-83899853D01*
X89045814Y-82899853D02*
X89236290Y-82899853D01*
X89236290Y-82899853D02*
X89331528Y-82947472D01*
X89331528Y-82947472D02*
X89379147Y-82995091D01*
X89379147Y-82995091D02*
X89474385Y-83137948D01*
X89474385Y-83137948D02*
X89522004Y-83328424D01*
X89522004Y-83328424D02*
X89522004Y-83709376D01*
X89522004Y-83709376D02*
X89474385Y-83804614D01*
X89474385Y-83804614D02*
X89426766Y-83852234D01*
X89426766Y-83852234D02*
X89331528Y-83899853D01*
X89331528Y-83899853D02*
X89141052Y-83899853D01*
X89141052Y-83899853D02*
X89045814Y-83852234D01*
X89045814Y-83852234D02*
X88998195Y-83804614D01*
X88998195Y-83804614D02*
X88950576Y-83709376D01*
X88950576Y-83709376D02*
X88950576Y-83471281D01*
X88950576Y-83471281D02*
X88998195Y-83376043D01*
X88998195Y-83376043D02*
X89045814Y-83328424D01*
X89045814Y-83328424D02*
X89141052Y-83280805D01*
X89141052Y-83280805D02*
X89331528Y-83280805D01*
X89331528Y-83280805D02*
X89426766Y-83328424D01*
X89426766Y-83328424D02*
X89474385Y-83376043D01*
X89474385Y-83376043D02*
X89522004Y-83471281D01*
X88617242Y-82899853D02*
X87998195Y-82899853D01*
X87998195Y-82899853D02*
X88331528Y-83280805D01*
X88331528Y-83280805D02*
X88188671Y-83280805D01*
X88188671Y-83280805D02*
X88093433Y-83328424D01*
X88093433Y-83328424D02*
X88045814Y-83376043D01*
X88045814Y-83376043D02*
X87998195Y-83471281D01*
X87998195Y-83471281D02*
X87998195Y-83709376D01*
X87998195Y-83709376D02*
X88045814Y-83804614D01*
X88045814Y-83804614D02*
X88093433Y-83852234D01*
X88093433Y-83852234D02*
X88188671Y-83899853D01*
X88188671Y-83899853D02*
X88474385Y-83899853D01*
X88474385Y-83899853D02*
X88569623Y-83852234D01*
X88569623Y-83852234D02*
X88617242Y-83804614D01*
X66080693Y-50930466D02*
X66080693Y-51644751D01*
X66080693Y-51644751D02*
X66128312Y-51787608D01*
X66128312Y-51787608D02*
X66223550Y-51882847D01*
X66223550Y-51882847D02*
X66366407Y-51930466D01*
X66366407Y-51930466D02*
X66461645Y-51930466D01*
X65699740Y-50930466D02*
X65080693Y-50930466D01*
X65080693Y-50930466D02*
X65414026Y-51311418D01*
X65414026Y-51311418D02*
X65271169Y-51311418D01*
X65271169Y-51311418D02*
X65175931Y-51359037D01*
X65175931Y-51359037D02*
X65128312Y-51406656D01*
X65128312Y-51406656D02*
X65080693Y-51501894D01*
X65080693Y-51501894D02*
X65080693Y-51739989D01*
X65080693Y-51739989D02*
X65128312Y-51835227D01*
X65128312Y-51835227D02*
X65175931Y-51882847D01*
X65175931Y-51882847D02*
X65271169Y-51930466D01*
X65271169Y-51930466D02*
X65556883Y-51930466D01*
X65556883Y-51930466D02*
X65652121Y-51882847D01*
X65652121Y-51882847D02*
X65699740Y-51835227D01*
X64699740Y-51025704D02*
X64652121Y-50978085D01*
X64652121Y-50978085D02*
X64556883Y-50930466D01*
X64556883Y-50930466D02*
X64318788Y-50930466D01*
X64318788Y-50930466D02*
X64223550Y-50978085D01*
X64223550Y-50978085D02*
X64175931Y-51025704D01*
X64175931Y-51025704D02*
X64128312Y-51120942D01*
X64128312Y-51120942D02*
X64128312Y-51216180D01*
X64128312Y-51216180D02*
X64175931Y-51359037D01*
X64175931Y-51359037D02*
X64747359Y-51930466D01*
X64747359Y-51930466D02*
X64128312Y-51930466D01*
X102060693Y-75822466D02*
X102060693Y-76536751D01*
X102060693Y-76536751D02*
X102108312Y-76679608D01*
X102108312Y-76679608D02*
X102203550Y-76774847D01*
X102203550Y-76774847D02*
X102346407Y-76822466D01*
X102346407Y-76822466D02*
X102441645Y-76822466D01*
X101155931Y-75822466D02*
X101346407Y-75822466D01*
X101346407Y-75822466D02*
X101441645Y-75870085D01*
X101441645Y-75870085D02*
X101489264Y-75917704D01*
X101489264Y-75917704D02*
X101584502Y-76060561D01*
X101584502Y-76060561D02*
X101632121Y-76251037D01*
X101632121Y-76251037D02*
X101632121Y-76631989D01*
X101632121Y-76631989D02*
X101584502Y-76727227D01*
X101584502Y-76727227D02*
X101536883Y-76774847D01*
X101536883Y-76774847D02*
X101441645Y-76822466D01*
X101441645Y-76822466D02*
X101251169Y-76822466D01*
X101251169Y-76822466D02*
X101155931Y-76774847D01*
X101155931Y-76774847D02*
X101108312Y-76727227D01*
X101108312Y-76727227D02*
X101060693Y-76631989D01*
X101060693Y-76631989D02*
X101060693Y-76393894D01*
X101060693Y-76393894D02*
X101108312Y-76298656D01*
X101108312Y-76298656D02*
X101155931Y-76251037D01*
X101155931Y-76251037D02*
X101251169Y-76203418D01*
X101251169Y-76203418D02*
X101441645Y-76203418D01*
X101441645Y-76203418D02*
X101536883Y-76251037D01*
X101536883Y-76251037D02*
X101584502Y-76298656D01*
X101584502Y-76298656D02*
X101632121Y-76393894D01*
X100441645Y-75822466D02*
X100346407Y-75822466D01*
X100346407Y-75822466D02*
X100251169Y-75870085D01*
X100251169Y-75870085D02*
X100203550Y-75917704D01*
X100203550Y-75917704D02*
X100155931Y-76012942D01*
X100155931Y-76012942D02*
X100108312Y-76203418D01*
X100108312Y-76203418D02*
X100108312Y-76441513D01*
X100108312Y-76441513D02*
X100155931Y-76631989D01*
X100155931Y-76631989D02*
X100203550Y-76727227D01*
X100203550Y-76727227D02*
X100251169Y-76774847D01*
X100251169Y-76774847D02*
X100346407Y-76822466D01*
X100346407Y-76822466D02*
X100441645Y-76822466D01*
X100441645Y-76822466D02*
X100536883Y-76774847D01*
X100536883Y-76774847D02*
X100584502Y-76727227D01*
X100584502Y-76727227D02*
X100632121Y-76631989D01*
X100632121Y-76631989D02*
X100679740Y-76441513D01*
X100679740Y-76441513D02*
X100679740Y-76203418D01*
X100679740Y-76203418D02*
X100632121Y-76012942D01*
X100632121Y-76012942D02*
X100584502Y-75917704D01*
X100584502Y-75917704D02*
X100536883Y-75870085D01*
X100536883Y-75870085D02*
X100441645Y-75822466D01*
D12*
X81818094Y-29984819D02*
X81818094Y-28984819D01*
X81818094Y-28984819D02*
X81579999Y-28984819D01*
X81579999Y-28984819D02*
X81437142Y-29032438D01*
X81437142Y-29032438D02*
X81341904Y-29127676D01*
X81341904Y-29127676D02*
X81294285Y-29222914D01*
X81294285Y-29222914D02*
X81246666Y-29413390D01*
X81246666Y-29413390D02*
X81246666Y-29556247D01*
X81246666Y-29556247D02*
X81294285Y-29746723D01*
X81294285Y-29746723D02*
X81341904Y-29841961D01*
X81341904Y-29841961D02*
X81437142Y-29937200D01*
X81437142Y-29937200D02*
X81579999Y-29984819D01*
X81579999Y-29984819D02*
X81818094Y-29984819D01*
X80675237Y-29413390D02*
X80770475Y-29365771D01*
X80770475Y-29365771D02*
X80818094Y-29318152D01*
X80818094Y-29318152D02*
X80865713Y-29222914D01*
X80865713Y-29222914D02*
X80865713Y-29175295D01*
X80865713Y-29175295D02*
X80818094Y-29080057D01*
X80818094Y-29080057D02*
X80770475Y-29032438D01*
X80770475Y-29032438D02*
X80675237Y-28984819D01*
X80675237Y-28984819D02*
X80484761Y-28984819D01*
X80484761Y-28984819D02*
X80389523Y-29032438D01*
X80389523Y-29032438D02*
X80341904Y-29080057D01*
X80341904Y-29080057D02*
X80294285Y-29175295D01*
X80294285Y-29175295D02*
X80294285Y-29222914D01*
X80294285Y-29222914D02*
X80341904Y-29318152D01*
X80341904Y-29318152D02*
X80389523Y-29365771D01*
X80389523Y-29365771D02*
X80484761Y-29413390D01*
X80484761Y-29413390D02*
X80675237Y-29413390D01*
X80675237Y-29413390D02*
X80770475Y-29461009D01*
X80770475Y-29461009D02*
X80818094Y-29508628D01*
X80818094Y-29508628D02*
X80865713Y-29603866D01*
X80865713Y-29603866D02*
X80865713Y-29794342D01*
X80865713Y-29794342D02*
X80818094Y-29889580D01*
X80818094Y-29889580D02*
X80770475Y-29937200D01*
X80770475Y-29937200D02*
X80675237Y-29984819D01*
X80675237Y-29984819D02*
X80484761Y-29984819D01*
X80484761Y-29984819D02*
X80389523Y-29937200D01*
X80389523Y-29937200D02*
X80341904Y-29889580D01*
X80341904Y-29889580D02*
X80294285Y-29794342D01*
X80294285Y-29794342D02*
X80294285Y-29603866D01*
X80294285Y-29603866D02*
X80341904Y-29508628D01*
X80341904Y-29508628D02*
X80389523Y-29461009D01*
X80389523Y-29461009D02*
X80484761Y-29413390D01*
D11*
X29128312Y-52814466D02*
X29128312Y-53528751D01*
X29128312Y-53528751D02*
X29175931Y-53671608D01*
X29175931Y-53671608D02*
X29271169Y-53766847D01*
X29271169Y-53766847D02*
X29414026Y-53814466D01*
X29414026Y-53814466D02*
X29509264Y-53814466D01*
X28223550Y-53147799D02*
X28223550Y-53814466D01*
X28461645Y-52766847D02*
X28699740Y-53481132D01*
X28699740Y-53481132D02*
X28080693Y-53481132D01*
D12*
X64294285Y-41600819D02*
X64294285Y-40600819D01*
X64294285Y-40600819D02*
X64056190Y-40600819D01*
X64056190Y-40600819D02*
X63913333Y-40648438D01*
X63913333Y-40648438D02*
X63818095Y-40743676D01*
X63818095Y-40743676D02*
X63770476Y-40838914D01*
X63770476Y-40838914D02*
X63722857Y-41029390D01*
X63722857Y-41029390D02*
X63722857Y-41172247D01*
X63722857Y-41172247D02*
X63770476Y-41362723D01*
X63770476Y-41362723D02*
X63818095Y-41457961D01*
X63818095Y-41457961D02*
X63913333Y-41553200D01*
X63913333Y-41553200D02*
X64056190Y-41600819D01*
X64056190Y-41600819D02*
X64294285Y-41600819D01*
X62770476Y-41600819D02*
X63341904Y-41600819D01*
X63056190Y-41600819D02*
X63056190Y-40600819D01*
X63056190Y-40600819D02*
X63151428Y-40743676D01*
X63151428Y-40743676D02*
X63246666Y-40838914D01*
X63246666Y-40838914D02*
X63341904Y-40886533D01*
X61913333Y-40600819D02*
X62103809Y-40600819D01*
X62103809Y-40600819D02*
X62199047Y-40648438D01*
X62199047Y-40648438D02*
X62246666Y-40696057D01*
X62246666Y-40696057D02*
X62341904Y-40838914D01*
X62341904Y-40838914D02*
X62389523Y-41029390D01*
X62389523Y-41029390D02*
X62389523Y-41410342D01*
X62389523Y-41410342D02*
X62341904Y-41505580D01*
X62341904Y-41505580D02*
X62294285Y-41553200D01*
X62294285Y-41553200D02*
X62199047Y-41600819D01*
X62199047Y-41600819D02*
X62008571Y-41600819D01*
X62008571Y-41600819D02*
X61913333Y-41553200D01*
X61913333Y-41553200D02*
X61865714Y-41505580D01*
X61865714Y-41505580D02*
X61818095Y-41410342D01*
X61818095Y-41410342D02*
X61818095Y-41172247D01*
X61818095Y-41172247D02*
X61865714Y-41077009D01*
X61865714Y-41077009D02*
X61913333Y-41029390D01*
X61913333Y-41029390D02*
X62008571Y-40981771D01*
X62008571Y-40981771D02*
X62199047Y-40981771D01*
X62199047Y-40981771D02*
X62294285Y-41029390D01*
X62294285Y-41029390D02*
X62341904Y-41077009D01*
X62341904Y-41077009D02*
X62389523Y-41172247D01*
X63818094Y-24484819D02*
X63818094Y-23484819D01*
X63818094Y-23484819D02*
X63579999Y-23484819D01*
X63579999Y-23484819D02*
X63437142Y-23532438D01*
X63437142Y-23532438D02*
X63341904Y-23627676D01*
X63341904Y-23627676D02*
X63294285Y-23722914D01*
X63294285Y-23722914D02*
X63246666Y-23913390D01*
X63246666Y-23913390D02*
X63246666Y-24056247D01*
X63246666Y-24056247D02*
X63294285Y-24246723D01*
X63294285Y-24246723D02*
X63341904Y-24341961D01*
X63341904Y-24341961D02*
X63437142Y-24437200D01*
X63437142Y-24437200D02*
X63579999Y-24484819D01*
X63579999Y-24484819D02*
X63818094Y-24484819D01*
X62389523Y-23484819D02*
X62579999Y-23484819D01*
X62579999Y-23484819D02*
X62675237Y-23532438D01*
X62675237Y-23532438D02*
X62722856Y-23580057D01*
X62722856Y-23580057D02*
X62818094Y-23722914D01*
X62818094Y-23722914D02*
X62865713Y-23913390D01*
X62865713Y-23913390D02*
X62865713Y-24294342D01*
X62865713Y-24294342D02*
X62818094Y-24389580D01*
X62818094Y-24389580D02*
X62770475Y-24437200D01*
X62770475Y-24437200D02*
X62675237Y-24484819D01*
X62675237Y-24484819D02*
X62484761Y-24484819D01*
X62484761Y-24484819D02*
X62389523Y-24437200D01*
X62389523Y-24437200D02*
X62341904Y-24389580D01*
X62341904Y-24389580D02*
X62294285Y-24294342D01*
X62294285Y-24294342D02*
X62294285Y-24056247D01*
X62294285Y-24056247D02*
X62341904Y-23961009D01*
X62341904Y-23961009D02*
X62389523Y-23913390D01*
X62389523Y-23913390D02*
X62484761Y-23865771D01*
X62484761Y-23865771D02*
X62675237Y-23865771D01*
X62675237Y-23865771D02*
X62770475Y-23913390D01*
X62770475Y-23913390D02*
X62818094Y-23961009D01*
X62818094Y-23961009D02*
X62865713Y-24056247D01*
D11*
X102060693Y-58804466D02*
X102060693Y-59518751D01*
X102060693Y-59518751D02*
X102108312Y-59661608D01*
X102108312Y-59661608D02*
X102203550Y-59756847D01*
X102203550Y-59756847D02*
X102346407Y-59804466D01*
X102346407Y-59804466D02*
X102441645Y-59804466D01*
X101155931Y-59137799D02*
X101155931Y-59804466D01*
X101394026Y-58756847D02*
X101632121Y-59471132D01*
X101632121Y-59471132D02*
X101013074Y-59471132D01*
X100441645Y-58804466D02*
X100346407Y-58804466D01*
X100346407Y-58804466D02*
X100251169Y-58852085D01*
X100251169Y-58852085D02*
X100203550Y-58899704D01*
X100203550Y-58899704D02*
X100155931Y-58994942D01*
X100155931Y-58994942D02*
X100108312Y-59185418D01*
X100108312Y-59185418D02*
X100108312Y-59423513D01*
X100108312Y-59423513D02*
X100155931Y-59613989D01*
X100155931Y-59613989D02*
X100203550Y-59709227D01*
X100203550Y-59709227D02*
X100251169Y-59756847D01*
X100251169Y-59756847D02*
X100346407Y-59804466D01*
X100346407Y-59804466D02*
X100441645Y-59804466D01*
X100441645Y-59804466D02*
X100536883Y-59756847D01*
X100536883Y-59756847D02*
X100584502Y-59709227D01*
X100584502Y-59709227D02*
X100632121Y-59613989D01*
X100632121Y-59613989D02*
X100679740Y-59423513D01*
X100679740Y-59423513D02*
X100679740Y-59185418D01*
X100679740Y-59185418D02*
X100632121Y-58994942D01*
X100632121Y-58994942D02*
X100584502Y-58899704D01*
X100584502Y-58899704D02*
X100536883Y-58852085D01*
X100536883Y-58852085D02*
X100441645Y-58804466D01*
D12*
X82294285Y-63952819D02*
X82294285Y-62952819D01*
X82294285Y-62952819D02*
X82056190Y-62952819D01*
X82056190Y-62952819D02*
X81913333Y-63000438D01*
X81913333Y-63000438D02*
X81818095Y-63095676D01*
X81818095Y-63095676D02*
X81770476Y-63190914D01*
X81770476Y-63190914D02*
X81722857Y-63381390D01*
X81722857Y-63381390D02*
X81722857Y-63524247D01*
X81722857Y-63524247D02*
X81770476Y-63714723D01*
X81770476Y-63714723D02*
X81818095Y-63809961D01*
X81818095Y-63809961D02*
X81913333Y-63905200D01*
X81913333Y-63905200D02*
X82056190Y-63952819D01*
X82056190Y-63952819D02*
X82294285Y-63952819D01*
X81341904Y-63048057D02*
X81294285Y-63000438D01*
X81294285Y-63000438D02*
X81199047Y-62952819D01*
X81199047Y-62952819D02*
X80960952Y-62952819D01*
X80960952Y-62952819D02*
X80865714Y-63000438D01*
X80865714Y-63000438D02*
X80818095Y-63048057D01*
X80818095Y-63048057D02*
X80770476Y-63143295D01*
X80770476Y-63143295D02*
X80770476Y-63238533D01*
X80770476Y-63238533D02*
X80818095Y-63381390D01*
X80818095Y-63381390D02*
X81389523Y-63952819D01*
X81389523Y-63952819D02*
X80770476Y-63952819D01*
X80199047Y-63381390D02*
X80294285Y-63333771D01*
X80294285Y-63333771D02*
X80341904Y-63286152D01*
X80341904Y-63286152D02*
X80389523Y-63190914D01*
X80389523Y-63190914D02*
X80389523Y-63143295D01*
X80389523Y-63143295D02*
X80341904Y-63048057D01*
X80341904Y-63048057D02*
X80294285Y-63000438D01*
X80294285Y-63000438D02*
X80199047Y-62952819D01*
X80199047Y-62952819D02*
X80008571Y-62952819D01*
X80008571Y-62952819D02*
X79913333Y-63000438D01*
X79913333Y-63000438D02*
X79865714Y-63048057D01*
X79865714Y-63048057D02*
X79818095Y-63143295D01*
X79818095Y-63143295D02*
X79818095Y-63190914D01*
X79818095Y-63190914D02*
X79865714Y-63286152D01*
X79865714Y-63286152D02*
X79913333Y-63333771D01*
X79913333Y-63333771D02*
X80008571Y-63381390D01*
X80008571Y-63381390D02*
X80199047Y-63381390D01*
X80199047Y-63381390D02*
X80294285Y-63429009D01*
X80294285Y-63429009D02*
X80341904Y-63476628D01*
X80341904Y-63476628D02*
X80389523Y-63571866D01*
X80389523Y-63571866D02*
X80389523Y-63762342D01*
X80389523Y-63762342D02*
X80341904Y-63857580D01*
X80341904Y-63857580D02*
X80294285Y-63905200D01*
X80294285Y-63905200D02*
X80199047Y-63952819D01*
X80199047Y-63952819D02*
X80008571Y-63952819D01*
X80008571Y-63952819D02*
X79913333Y-63905200D01*
X79913333Y-63905200D02*
X79865714Y-63857580D01*
X79865714Y-63857580D02*
X79818095Y-63762342D01*
X79818095Y-63762342D02*
X79818095Y-63571866D01*
X79818095Y-63571866D02*
X79865714Y-63476628D01*
X79865714Y-63476628D02*
X79913333Y-63429009D01*
X79913333Y-63429009D02*
X80008571Y-63381390D01*
D11*
X107060693Y-73722466D02*
X107060693Y-74436751D01*
X107060693Y-74436751D02*
X107108312Y-74579608D01*
X107108312Y-74579608D02*
X107203550Y-74674847D01*
X107203550Y-74674847D02*
X107346407Y-74722466D01*
X107346407Y-74722466D02*
X107441645Y-74722466D01*
X106108312Y-73722466D02*
X106584502Y-73722466D01*
X106584502Y-73722466D02*
X106632121Y-74198656D01*
X106632121Y-74198656D02*
X106584502Y-74151037D01*
X106584502Y-74151037D02*
X106489264Y-74103418D01*
X106489264Y-74103418D02*
X106251169Y-74103418D01*
X106251169Y-74103418D02*
X106155931Y-74151037D01*
X106155931Y-74151037D02*
X106108312Y-74198656D01*
X106108312Y-74198656D02*
X106060693Y-74293894D01*
X106060693Y-74293894D02*
X106060693Y-74531989D01*
X106060693Y-74531989D02*
X106108312Y-74627227D01*
X106108312Y-74627227D02*
X106155931Y-74674847D01*
X106155931Y-74674847D02*
X106251169Y-74722466D01*
X106251169Y-74722466D02*
X106489264Y-74722466D01*
X106489264Y-74722466D02*
X106584502Y-74674847D01*
X106584502Y-74674847D02*
X106632121Y-74627227D01*
X105584502Y-74722466D02*
X105394026Y-74722466D01*
X105394026Y-74722466D02*
X105298788Y-74674847D01*
X105298788Y-74674847D02*
X105251169Y-74627227D01*
X105251169Y-74627227D02*
X105155931Y-74484370D01*
X105155931Y-74484370D02*
X105108312Y-74293894D01*
X105108312Y-74293894D02*
X105108312Y-73912942D01*
X105108312Y-73912942D02*
X105155931Y-73817704D01*
X105155931Y-73817704D02*
X105203550Y-73770085D01*
X105203550Y-73770085D02*
X105298788Y-73722466D01*
X105298788Y-73722466D02*
X105489264Y-73722466D01*
X105489264Y-73722466D02*
X105584502Y-73770085D01*
X105584502Y-73770085D02*
X105632121Y-73817704D01*
X105632121Y-73817704D02*
X105679740Y-73912942D01*
X105679740Y-73912942D02*
X105679740Y-74151037D01*
X105679740Y-74151037D02*
X105632121Y-74246275D01*
X105632121Y-74246275D02*
X105584502Y-74293894D01*
X105584502Y-74293894D02*
X105489264Y-74341513D01*
X105489264Y-74341513D02*
X105298788Y-74341513D01*
X105298788Y-74341513D02*
X105203550Y-74293894D01*
X105203550Y-74293894D02*
X105155931Y-74246275D01*
X105155931Y-74246275D02*
X105108312Y-74151037D01*
D12*
X108650155Y-98370555D02*
X109150155Y-97504530D01*
X109150155Y-97504530D02*
X108943959Y-97385482D01*
X108943959Y-97385482D02*
X108796431Y-97355293D01*
X108796431Y-97355293D02*
X108666334Y-97390153D01*
X108666334Y-97390153D02*
X108577475Y-97448822D01*
X108577475Y-97448822D02*
X108440998Y-97589969D01*
X108440998Y-97589969D02*
X108369569Y-97713687D01*
X108369569Y-97713687D02*
X108315571Y-97902454D01*
X108315571Y-97902454D02*
X108309191Y-98008742D01*
X108309191Y-98008742D02*
X108344050Y-98138840D01*
X108344050Y-98138840D02*
X108443959Y-98251508D01*
X108443959Y-98251508D02*
X108650155Y-98370555D01*
X108366608Y-97052149D02*
X107830498Y-96742625D01*
X107830498Y-96742625D02*
X107928696Y-97239206D01*
X107928696Y-97239206D02*
X107804979Y-97167778D01*
X107804979Y-97167778D02*
X107698690Y-97161398D01*
X107698690Y-97161398D02*
X107633642Y-97178828D01*
X107633642Y-97178828D02*
X107544783Y-97237497D01*
X107544783Y-97237497D02*
X107425736Y-97443693D01*
X107425736Y-97443693D02*
X107419356Y-97549981D01*
X107419356Y-97549981D02*
X107436786Y-97615030D01*
X107436786Y-97615030D02*
X107495455Y-97703889D01*
X107495455Y-97703889D02*
X107742891Y-97846746D01*
X107742891Y-97846746D02*
X107849179Y-97853125D01*
X107849179Y-97853125D02*
X107914228Y-97835696D01*
X106921523Y-96602729D02*
X106588190Y-97180079D01*
X107318196Y-96391862D02*
X107167250Y-97129499D01*
X107167250Y-97129499D02*
X106631139Y-96819975D01*
X27818094Y-43484819D02*
X27818094Y-42484819D01*
X27818094Y-42484819D02*
X27579999Y-42484819D01*
X27579999Y-42484819D02*
X27437142Y-42532438D01*
X27437142Y-42532438D02*
X27341904Y-42627676D01*
X27341904Y-42627676D02*
X27294285Y-42722914D01*
X27294285Y-42722914D02*
X27246666Y-42913390D01*
X27246666Y-42913390D02*
X27246666Y-43056247D01*
X27246666Y-43056247D02*
X27294285Y-43246723D01*
X27294285Y-43246723D02*
X27341904Y-43341961D01*
X27341904Y-43341961D02*
X27437142Y-43437200D01*
X27437142Y-43437200D02*
X27579999Y-43484819D01*
X27579999Y-43484819D02*
X27818094Y-43484819D01*
X26865713Y-42580057D02*
X26818094Y-42532438D01*
X26818094Y-42532438D02*
X26722856Y-42484819D01*
X26722856Y-42484819D02*
X26484761Y-42484819D01*
X26484761Y-42484819D02*
X26389523Y-42532438D01*
X26389523Y-42532438D02*
X26341904Y-42580057D01*
X26341904Y-42580057D02*
X26294285Y-42675295D01*
X26294285Y-42675295D02*
X26294285Y-42770533D01*
X26294285Y-42770533D02*
X26341904Y-42913390D01*
X26341904Y-42913390D02*
X26913332Y-43484819D01*
X26913332Y-43484819D02*
X26294285Y-43484819D01*
D11*
X35080693Y-84714466D02*
X35080693Y-85428751D01*
X35080693Y-85428751D02*
X35128312Y-85571608D01*
X35128312Y-85571608D02*
X35223550Y-85666847D01*
X35223550Y-85666847D02*
X35366407Y-85714466D01*
X35366407Y-85714466D02*
X35461645Y-85714466D01*
X34175931Y-85047799D02*
X34175931Y-85714466D01*
X34414026Y-84666847D02*
X34652121Y-85381132D01*
X34652121Y-85381132D02*
X34033074Y-85381132D01*
X33747359Y-84714466D02*
X33128312Y-84714466D01*
X33128312Y-84714466D02*
X33461645Y-85095418D01*
X33461645Y-85095418D02*
X33318788Y-85095418D01*
X33318788Y-85095418D02*
X33223550Y-85143037D01*
X33223550Y-85143037D02*
X33175931Y-85190656D01*
X33175931Y-85190656D02*
X33128312Y-85285894D01*
X33128312Y-85285894D02*
X33128312Y-85523989D01*
X33128312Y-85523989D02*
X33175931Y-85619227D01*
X33175931Y-85619227D02*
X33223550Y-85666847D01*
X33223550Y-85666847D02*
X33318788Y-85714466D01*
X33318788Y-85714466D02*
X33604502Y-85714466D01*
X33604502Y-85714466D02*
X33699740Y-85666847D01*
X33699740Y-85666847D02*
X33747359Y-85619227D01*
D13*
%TO.C,D12*%
X25395000Y-57420000D02*
X25395000Y-59340000D01*
X25395000Y-59340000D02*
X28080000Y-59340000D01*
X28080000Y-57420000D02*
X25395000Y-57420000D01*
%TO.C,D18*%
X79395000Y-43870000D02*
X79395000Y-45790000D01*
X79395000Y-45790000D02*
X82080000Y-45790000D01*
X82080000Y-43870000D02*
X79395000Y-43870000D01*
%TO.C,J72*%
X125162000Y-58250000D02*
X126492000Y-58250000D01*
X125162000Y-59580000D02*
X125162000Y-58250000D01*
X125162000Y-60850000D02*
X127822000Y-60850000D01*
X125162000Y-76150000D02*
X125162000Y-60850000D01*
X125162000Y-76150000D02*
X127822000Y-76150000D01*
X127822000Y-76150000D02*
X127822000Y-60850000D01*
%TO.C,J70*%
X109922000Y-58250000D02*
X111252000Y-58250000D01*
X109922000Y-59580000D02*
X109922000Y-58250000D01*
X109922000Y-60850000D02*
X112582000Y-60850000D01*
X109922000Y-76150000D02*
X109922000Y-60850000D01*
X109922000Y-76150000D02*
X112582000Y-76150000D01*
X112582000Y-76150000D02*
X112582000Y-60850000D01*
%TO.C,D32*%
X88330228Y-92238830D02*
X90923739Y-92933759D01*
X90923739Y-92933759D02*
X91420671Y-91079181D01*
X91420671Y-91079181D02*
X88827160Y-90384252D01*
%TO.C,D22*%
X25395000Y-74420000D02*
X25395000Y-76340000D01*
X25395000Y-76340000D02*
X28080000Y-76340000D01*
X28080000Y-74420000D02*
X25395000Y-74420000D01*
%TO.C,D30*%
X97375000Y-63428000D02*
X97375000Y-65348000D01*
X97375000Y-65348000D02*
X100060000Y-65348000D01*
X100060000Y-63428000D02*
X97375000Y-63428000D01*
%TO.C,D20*%
X97375000Y-46410000D02*
X97375000Y-48330000D01*
X97375000Y-48330000D02*
X100060000Y-48330000D01*
X100060000Y-46410000D02*
X97375000Y-46410000D01*
%TO.C,D4*%
X43395000Y-28420000D02*
X43395000Y-30340000D01*
X43395000Y-30340000D02*
X46080000Y-30340000D01*
X46080000Y-28420000D02*
X43395000Y-28420000D01*
%TO.C,D24*%
X43395000Y-62412000D02*
X43395000Y-64332000D01*
X43395000Y-64332000D02*
X46080000Y-64332000D01*
X46080000Y-62412000D02*
X43395000Y-62412000D01*
D11*
%TO.C,J74*%
X124664536Y-66946000D02*
G75*
G02*
X122731464Y-66946000I-966536J0D01*
G01*
X122731464Y-66946000D02*
G75*
G02*
X124664536Y-66946000I966536J0D01*
G01*
D13*
%TO.C,D14*%
X43395000Y-45394000D02*
X43395000Y-47314000D01*
X43395000Y-47314000D02*
X46080000Y-47314000D01*
X46080000Y-45394000D02*
X43395000Y-45394000D01*
%TO.C,J76*%
X107969000Y-53296000D02*
X108959000Y-53296000D01*
X108959000Y-52246000D02*
X111459000Y-52246000D01*
X108959000Y-53296000D02*
X108959000Y-52246000D01*
X108959000Y-55416000D02*
X108959000Y-56466000D01*
X108959000Y-56466000D02*
X111459000Y-56466000D01*
X113429000Y-55296000D02*
X113429000Y-53416000D01*
D14*
%TO.C,POWER_SW2*%
X91332066Y-23964415D02*
X91492409Y-23386235D01*
X94389353Y-25850016D02*
X92751181Y-25395711D01*
X97782338Y-24092845D02*
X92193282Y-22542862D01*
X97948734Y-25176731D02*
X97788391Y-25754911D01*
D15*
X90988687Y-26124486D02*
G75*
G02*
X90788687Y-26124486I-100000J0D01*
G01*
X90788687Y-26124486D02*
G75*
G02*
X90988687Y-26124486I100000J0D01*
G01*
D13*
%TO.C,D26*%
X61395000Y-55554000D02*
X61395000Y-57474000D01*
X61395000Y-57474000D02*
X64080000Y-57474000D01*
X64080000Y-55554000D02*
X61395000Y-55554000D01*
%TO.C,D10*%
X97395000Y-29420000D02*
X97395000Y-31340000D01*
X97395000Y-31340000D02*
X100080000Y-31340000D01*
X100080000Y-29420000D02*
X97395000Y-29420000D01*
%TO.C,D8*%
X79395000Y-26920000D02*
X79395000Y-28840000D01*
X79395000Y-28840000D02*
X82080000Y-28840000D01*
X82080000Y-26920000D02*
X79395000Y-26920000D01*
%TO.C,D16*%
X61395000Y-38536000D02*
X61395000Y-40456000D01*
X61395000Y-40456000D02*
X64080000Y-40456000D01*
X64080000Y-38536000D02*
X61395000Y-38536000D01*
%TO.C,D6*%
X61395000Y-21420000D02*
X61395000Y-23340000D01*
X61395000Y-23340000D02*
X64080000Y-23340000D01*
X64080000Y-21420000D02*
X61395000Y-21420000D01*
%TO.C,D28*%
X79395000Y-60888000D02*
X79395000Y-62808000D01*
X79395000Y-62808000D02*
X82080000Y-62808000D01*
X82080000Y-60888000D02*
X79395000Y-60888000D01*
%TO.C,D34*%
X105654938Y-99129854D02*
X107980216Y-100472354D01*
X107980216Y-100472354D02*
X108940216Y-98809586D01*
X108940216Y-98809586D02*
X106614938Y-97467086D01*
%TO.C,D2*%
X25395000Y-40420000D02*
X25395000Y-42340000D01*
X25395000Y-42340000D02*
X28080000Y-42340000D01*
X28080000Y-40420000D02*
X25395000Y-40420000D01*
%TD*%
%LPC*%
D15*
%TO.C,U1*%
X118235000Y-59580000D02*
G75*
G02*
X117985000Y-59580000I-125000J0D01*
G01*
X117985000Y-59580000D02*
G75*
G02*
X118235000Y-59580000I125000J0D01*
G01*
X118235000Y-62120000D02*
G75*
G02*
X117985000Y-62120000I-125000J0D01*
G01*
X117985000Y-62120000D02*
G75*
G02*
X118235000Y-62120000I125000J0D01*
G01*
X118235000Y-64660000D02*
G75*
G02*
X117985000Y-64660000I-125000J0D01*
G01*
X117985000Y-64660000D02*
G75*
G02*
X118235000Y-64660000I125000J0D01*
G01*
X118235000Y-67200000D02*
G75*
G02*
X117985000Y-67200000I-125000J0D01*
G01*
X117985000Y-67200000D02*
G75*
G02*
X118235000Y-67200000I125000J0D01*
G01*
X118235000Y-69740000D02*
G75*
G02*
X117985000Y-69740000I-125000J0D01*
G01*
X117985000Y-69740000D02*
G75*
G02*
X118235000Y-69740000I125000J0D01*
G01*
X118235000Y-72280000D02*
G75*
G02*
X117985000Y-72280000I-125000J0D01*
G01*
X117985000Y-72280000D02*
G75*
G02*
X118235000Y-72280000I125000J0D01*
G01*
X118235000Y-74820000D02*
G75*
G02*
X117985000Y-74820000I-125000J0D01*
G01*
X117985000Y-74820000D02*
G75*
G02*
X118235000Y-74820000I125000J0D01*
G01*
X119759000Y-59580000D02*
G75*
G02*
X119509000Y-59580000I-125000J0D01*
G01*
X119509000Y-59580000D02*
G75*
G02*
X119759000Y-59580000I125000J0D01*
G01*
X119759000Y-62120000D02*
G75*
G02*
X119509000Y-62120000I-125000J0D01*
G01*
X119509000Y-62120000D02*
G75*
G02*
X119759000Y-62120000I125000J0D01*
G01*
X119759000Y-64660000D02*
G75*
G02*
X119509000Y-64660000I-125000J0D01*
G01*
X119509000Y-64660000D02*
G75*
G02*
X119759000Y-64660000I125000J0D01*
G01*
X119759000Y-67200000D02*
G75*
G02*
X119509000Y-67200000I-125000J0D01*
G01*
X119509000Y-67200000D02*
G75*
G02*
X119759000Y-67200000I125000J0D01*
G01*
X119759000Y-69740000D02*
G75*
G02*
X119509000Y-69740000I-125000J0D01*
G01*
X119509000Y-69740000D02*
G75*
G02*
X119759000Y-69740000I125000J0D01*
G01*
X119759000Y-72280000D02*
G75*
G02*
X119509000Y-72280000I-125000J0D01*
G01*
X119509000Y-72280000D02*
G75*
G02*
X119759000Y-72280000I125000J0D01*
G01*
X119759000Y-74820000D02*
G75*
G02*
X119509000Y-74820000I-125000J0D01*
G01*
X119509000Y-74820000D02*
G75*
G02*
X119759000Y-74820000I125000J0D01*
G01*
D11*
X113792000Y-60088000D02*
X112776000Y-60088000D01*
X112776000Y-59072000D01*
X113792000Y-59072000D01*
X113792000Y-60088000D01*
G36*
X113792000Y-60088000D02*
G01*
X112776000Y-60088000D01*
X112776000Y-59072000D01*
X113792000Y-59072000D01*
X113792000Y-60088000D01*
G37*
X113792000Y-62628000D02*
X112776000Y-62628000D01*
X112776000Y-61612000D01*
X113792000Y-61612000D01*
X113792000Y-62628000D01*
G36*
X113792000Y-62628000D02*
G01*
X112776000Y-62628000D01*
X112776000Y-61612000D01*
X113792000Y-61612000D01*
X113792000Y-62628000D01*
G37*
X113792000Y-65168000D02*
X112776000Y-65168000D01*
X112776000Y-64152000D01*
X113792000Y-64152000D01*
X113792000Y-65168000D01*
G36*
X113792000Y-65168000D02*
G01*
X112776000Y-65168000D01*
X112776000Y-64152000D01*
X113792000Y-64152000D01*
X113792000Y-65168000D01*
G37*
X113792000Y-70248000D02*
X112776000Y-70248000D01*
X112776000Y-69232000D01*
X113792000Y-69232000D01*
X113792000Y-70248000D01*
G36*
X113792000Y-70248000D02*
G01*
X112776000Y-70248000D01*
X112776000Y-69232000D01*
X113792000Y-69232000D01*
X113792000Y-70248000D01*
G37*
X113792000Y-72788000D02*
X112776000Y-72788000D01*
X112776000Y-71772000D01*
X113792000Y-71772000D01*
X113792000Y-72788000D01*
G36*
X113792000Y-72788000D02*
G01*
X112776000Y-72788000D01*
X112776000Y-71772000D01*
X113792000Y-71772000D01*
X113792000Y-72788000D01*
G37*
X113792000Y-75328000D02*
X112776000Y-75328000D01*
X112776000Y-74312000D01*
X113792000Y-74312000D01*
X113792000Y-75328000D01*
G36*
X113792000Y-75328000D02*
G01*
X112776000Y-75328000D01*
X112776000Y-74312000D01*
X113792000Y-74312000D01*
X113792000Y-75328000D01*
G37*
X116484400Y-67403200D02*
X115468400Y-67403200D01*
X115468400Y-66387200D01*
X116484400Y-66387200D01*
X116484400Y-67403200D01*
G36*
X116484400Y-67403200D02*
G01*
X115468400Y-67403200D01*
X115468400Y-66387200D01*
X116484400Y-66387200D01*
X116484400Y-67403200D01*
G37*
X122326400Y-68091000D02*
X121310400Y-68091000D01*
X121310400Y-67075000D01*
X122326400Y-67075000D01*
X122326400Y-68091000D01*
G36*
X122326400Y-68091000D02*
G01*
X121310400Y-68091000D01*
X121310400Y-67075000D01*
X122326400Y-67075000D01*
X122326400Y-68091000D01*
G37*
X124968000Y-60088000D02*
X123952000Y-60088000D01*
X123952000Y-59072000D01*
X124968000Y-59072000D01*
X124968000Y-60088000D01*
G36*
X124968000Y-60088000D02*
G01*
X123952000Y-60088000D01*
X123952000Y-59072000D01*
X124968000Y-59072000D01*
X124968000Y-60088000D01*
G37*
X124968000Y-62628000D02*
X123952000Y-62628000D01*
X123952000Y-61612000D01*
X124968000Y-61612000D01*
X124968000Y-62628000D01*
G36*
X124968000Y-62628000D02*
G01*
X123952000Y-62628000D01*
X123952000Y-61612000D01*
X124968000Y-61612000D01*
X124968000Y-62628000D01*
G37*
X124968000Y-65168000D02*
X123952000Y-65168000D01*
X123952000Y-64152000D01*
X124968000Y-64152000D01*
X124968000Y-65168000D01*
G36*
X124968000Y-65168000D02*
G01*
X123952000Y-65168000D01*
X123952000Y-64152000D01*
X124968000Y-64152000D01*
X124968000Y-65168000D01*
G37*
X124968000Y-70248000D02*
X123952000Y-70248000D01*
X123952000Y-69232000D01*
X124968000Y-69232000D01*
X124968000Y-70248000D01*
G36*
X124968000Y-70248000D02*
G01*
X123952000Y-70248000D01*
X123952000Y-69232000D01*
X124968000Y-69232000D01*
X124968000Y-70248000D01*
G37*
X124968000Y-72788000D02*
X123952000Y-72788000D01*
X123952000Y-71772000D01*
X124968000Y-71772000D01*
X124968000Y-72788000D01*
G36*
X124968000Y-72788000D02*
G01*
X123952000Y-72788000D01*
X123952000Y-71772000D01*
X124968000Y-71772000D01*
X124968000Y-72788000D01*
G37*
X124968000Y-75328000D02*
X123952000Y-75328000D01*
X123952000Y-74312000D01*
X124968000Y-74312000D01*
X124968000Y-75328000D01*
G36*
X124968000Y-75328000D02*
G01*
X123952000Y-75328000D01*
X123952000Y-74312000D01*
X124968000Y-74312000D01*
X124968000Y-75328000D01*
G37*
%TD*%
D16*
%TO.C,SW1*%
X21580000Y-46080000D03*
D17*
X21860000Y-41880000D03*
D18*
X27080000Y-46080000D03*
D17*
X32300000Y-41880000D03*
D16*
X32580000Y-46080000D03*
D19*
X27080000Y-51980000D03*
D20*
X30480000Y-51980000D03*
D19*
X22080000Y-49880000D03*
D20*
X24980000Y-41380000D03*
X28680000Y-48280000D03*
D19*
X32080000Y-49880000D03*
D20*
X29180000Y-41380000D03*
%TD*%
D16*
%TO.C,SW2*%
X39580000Y-34080000D03*
D17*
X39860000Y-29880000D03*
D18*
X45080000Y-34080000D03*
D17*
X50300000Y-29880000D03*
D16*
X50580000Y-34080000D03*
D19*
X45080000Y-39980000D03*
D20*
X48480000Y-39980000D03*
D19*
X40080000Y-37880000D03*
D20*
X42980000Y-29380000D03*
X46680000Y-36280000D03*
D19*
X50080000Y-37880000D03*
D20*
X47180000Y-29380000D03*
%TD*%
D16*
%TO.C,SW3*%
X57580000Y-27080000D03*
D17*
X57860000Y-22880000D03*
D18*
X63080000Y-27080000D03*
D17*
X68300000Y-22880000D03*
D16*
X68580000Y-27080000D03*
D19*
X63080000Y-32980000D03*
D20*
X66480000Y-32980000D03*
D19*
X58080000Y-30880000D03*
D20*
X60980000Y-22380000D03*
X64680000Y-29280000D03*
D19*
X68080000Y-30880000D03*
D20*
X65180000Y-22380000D03*
%TD*%
D16*
%TO.C,SW4*%
X75580000Y-32580000D03*
D17*
X75860000Y-28380000D03*
D18*
X81080000Y-32580000D03*
D17*
X86300000Y-28380000D03*
D16*
X86580000Y-32580000D03*
D19*
X81080000Y-38480000D03*
D20*
X84480000Y-38480000D03*
D19*
X76080000Y-36380000D03*
D20*
X78980000Y-27880000D03*
X82680000Y-34780000D03*
D19*
X86080000Y-36380000D03*
D20*
X83180000Y-27880000D03*
%TD*%
D16*
%TO.C,SW5*%
X93580000Y-35080000D03*
D17*
X93860000Y-30880000D03*
D18*
X99080000Y-35080000D03*
D17*
X104300000Y-30880000D03*
D16*
X104580000Y-35080000D03*
D19*
X99080000Y-40980000D03*
D20*
X102480000Y-40980000D03*
D19*
X94080000Y-38880000D03*
D20*
X96980000Y-30380000D03*
X100680000Y-37280000D03*
D19*
X104080000Y-38880000D03*
D20*
X101180000Y-30380000D03*
%TD*%
D16*
%TO.C,SW6*%
X21580000Y-63080000D03*
D17*
X21860000Y-58880000D03*
D18*
X27080000Y-63080000D03*
D17*
X32300000Y-58880000D03*
D16*
X32580000Y-63080000D03*
D19*
X27080000Y-68980000D03*
D20*
X30480000Y-68980000D03*
D19*
X22080000Y-66880000D03*
D20*
X24980000Y-58380000D03*
X28680000Y-65280000D03*
D19*
X32080000Y-66880000D03*
D20*
X29180000Y-58380000D03*
%TD*%
D16*
%TO.C,SW7*%
X39580000Y-51054000D03*
D17*
X39860000Y-46854000D03*
D18*
X45080000Y-51054000D03*
D17*
X50300000Y-46854000D03*
D16*
X50580000Y-51054000D03*
D19*
X45080000Y-56954000D03*
D20*
X48480000Y-56954000D03*
D19*
X40080000Y-54854000D03*
D20*
X42980000Y-46354000D03*
X46680000Y-53254000D03*
D19*
X50080000Y-54854000D03*
D20*
X47180000Y-46354000D03*
%TD*%
D16*
%TO.C,SW8*%
X57580000Y-44196000D03*
D17*
X57860000Y-39996000D03*
D18*
X63080000Y-44196000D03*
D17*
X68300000Y-39996000D03*
D16*
X68580000Y-44196000D03*
D19*
X63080000Y-50096000D03*
D20*
X66480000Y-50096000D03*
D19*
X58080000Y-47996000D03*
D20*
X60980000Y-39496000D03*
X64680000Y-46396000D03*
D19*
X68080000Y-47996000D03*
D20*
X65180000Y-39496000D03*
%TD*%
D16*
%TO.C,SW9*%
X75580000Y-49530000D03*
D17*
X75860000Y-45330000D03*
D18*
X81080000Y-49530000D03*
D17*
X86300000Y-45330000D03*
D16*
X86580000Y-49530000D03*
D19*
X81080000Y-55430000D03*
D20*
X84480000Y-55430000D03*
D19*
X76080000Y-53330000D03*
D20*
X78980000Y-44830000D03*
X82680000Y-51730000D03*
D19*
X86080000Y-53330000D03*
D20*
X83180000Y-44830000D03*
%TD*%
D16*
%TO.C,SW10*%
X93560000Y-52070000D03*
D17*
X93840000Y-47870000D03*
D18*
X99060000Y-52070000D03*
D17*
X104280000Y-47870000D03*
D16*
X104560000Y-52070000D03*
D19*
X99060000Y-57970000D03*
D20*
X102460000Y-57970000D03*
D19*
X94060000Y-55870000D03*
D20*
X96960000Y-47370000D03*
X100660000Y-54270000D03*
D19*
X104060000Y-55870000D03*
D20*
X101160000Y-47370000D03*
%TD*%
D16*
%TO.C,SW11*%
X21580000Y-80080000D03*
D17*
X21860000Y-75880000D03*
D18*
X27080000Y-80080000D03*
D17*
X32300000Y-75880000D03*
D16*
X32580000Y-80080000D03*
D19*
X27080000Y-85980000D03*
D20*
X30480000Y-85980000D03*
D19*
X22080000Y-83880000D03*
D20*
X24980000Y-75380000D03*
X28680000Y-82280000D03*
D19*
X32080000Y-83880000D03*
D20*
X29180000Y-75380000D03*
%TD*%
D16*
%TO.C,SW12*%
X39580000Y-68072000D03*
D17*
X39860000Y-63872000D03*
D18*
X45080000Y-68072000D03*
D17*
X50300000Y-63872000D03*
D16*
X50580000Y-68072000D03*
D19*
X45080000Y-73972000D03*
D20*
X48480000Y-73972000D03*
D19*
X40080000Y-71872000D03*
D20*
X42980000Y-63372000D03*
X46680000Y-70272000D03*
D19*
X50080000Y-71872000D03*
D20*
X47180000Y-63372000D03*
%TD*%
D16*
%TO.C,SW13*%
X57580000Y-61214000D03*
D17*
X57860000Y-57014000D03*
D18*
X63080000Y-61214000D03*
D17*
X68300000Y-57014000D03*
D16*
X68580000Y-61214000D03*
D19*
X63080000Y-67114000D03*
D20*
X66480000Y-67114000D03*
D19*
X58080000Y-65014000D03*
D20*
X60980000Y-56514000D03*
X64680000Y-63414000D03*
D19*
X68080000Y-65014000D03*
D20*
X65180000Y-56514000D03*
%TD*%
D16*
%TO.C,SW14*%
X75580000Y-66548000D03*
D17*
X75860000Y-62348000D03*
D18*
X81080000Y-66548000D03*
D17*
X86300000Y-62348000D03*
D16*
X86580000Y-66548000D03*
D19*
X81080000Y-72448000D03*
D20*
X84480000Y-72448000D03*
D19*
X76080000Y-70348000D03*
D20*
X78980000Y-61848000D03*
X82680000Y-68748000D03*
D19*
X86080000Y-70348000D03*
D20*
X83180000Y-61848000D03*
%TD*%
D16*
%TO.C,SW15*%
X93560000Y-69088000D03*
D17*
X93840000Y-64888000D03*
D18*
X99060000Y-69088000D03*
D17*
X104280000Y-64888000D03*
D16*
X104560000Y-69088000D03*
D19*
X99060000Y-74988000D03*
D20*
X102460000Y-74988000D03*
D19*
X94060000Y-72888000D03*
D20*
X96960000Y-64388000D03*
X100660000Y-71288000D03*
D19*
X104060000Y-72888000D03*
D20*
X101160000Y-64388000D03*
%TD*%
D16*
%TO.C,SW17*%
X114119140Y-97530000D03*
D17*
X111776653Y-101027307D03*
D18*
X109356000Y-94780000D03*
D17*
X102735347Y-95807307D03*
D16*
X104592860Y-92030000D03*
D19*
X112306000Y-89670450D03*
D20*
X109361514Y-87970450D03*
D19*
X115586127Y-93989103D03*
D20*
X108824652Y-99900319D03*
X109070359Y-92074744D03*
D19*
X106925873Y-88989103D03*
D20*
X105187347Y-97800319D03*
%TD*%
D16*
%TO.C,SW16*%
X96108592Y-88453505D03*
D17*
X94751093Y-92437924D03*
D18*
X90796000Y-87030000D03*
D17*
X84666827Y-89735853D03*
D16*
X85483408Y-85606495D03*
D19*
X92323032Y-81331038D03*
D20*
X89038885Y-80451053D03*
D19*
X96609142Y-84653577D03*
D20*
X91607995Y-92113371D03*
X89819921Y-84490853D03*
D19*
X86949883Y-82065387D03*
D20*
X87551106Y-91026331D03*
%TD*%
D21*
%TO.C,U1*%
X126492000Y-59580000D03*
X126492000Y-59580000D03*
D22*
X124714000Y-59580000D03*
D23*
X113030000Y-59580000D03*
D21*
X111252000Y-59580000D03*
X126492000Y-62120000D03*
D22*
X124714000Y-62120000D03*
D23*
X113030000Y-62120000D03*
D21*
X111252000Y-62120000D03*
X126492000Y-64660000D03*
D22*
X124714000Y-64660000D03*
D23*
X113030000Y-64660000D03*
D21*
X111252000Y-64660000D03*
D23*
X115722400Y-66895200D03*
D21*
X126492000Y-67200000D03*
X111252000Y-67200000D03*
D22*
X122072400Y-67583000D03*
D21*
X126492000Y-69740000D03*
D22*
X124714000Y-69740000D03*
D23*
X113030000Y-69740000D03*
D21*
X111252000Y-69740000D03*
X126492000Y-72280000D03*
D22*
X124714000Y-72280000D03*
D23*
X113030000Y-72280000D03*
D21*
X111252000Y-72280000D03*
X126492000Y-74820000D03*
D22*
X124714000Y-74820000D03*
D23*
X113030000Y-74820000D03*
D21*
X111252000Y-74820000D03*
D24*
X123698000Y-59580000D03*
X123698000Y-62120000D03*
X123698000Y-64660000D03*
X121056400Y-67583000D03*
X123698000Y-69740000D03*
X123698000Y-72280000D03*
X123698000Y-74820000D03*
D25*
X114046000Y-74820000D03*
X114046000Y-72280000D03*
X114046000Y-69740000D03*
X116738400Y-66895200D03*
X114046000Y-64660000D03*
X114046000Y-62120000D03*
X114046000Y-59580000D03*
D26*
X123698000Y-66946000D03*
X114046000Y-66946000D03*
%TD*%
D19*
%TO.C,J30*%
X63080000Y-50096000D03*
%TD*%
%TO.C,J2*%
X27080000Y-51980000D03*
%TD*%
%TO.C,J34*%
X81080000Y-55430000D03*
%TD*%
%TO.C,J18*%
X99080000Y-40980000D03*
%TD*%
%TO.C,J10*%
X63080000Y-32980000D03*
%TD*%
%TO.C,J13*%
X76080000Y-36380000D03*
%TD*%
%TO.C,J1*%
X22080000Y-49880000D03*
%TD*%
%TO.C,J22*%
X27080000Y-68980000D03*
%TD*%
%TO.C,J33*%
X76080000Y-53330000D03*
%TD*%
%TO.C,J61*%
X96609142Y-84653577D03*
%TD*%
%TO.C,J57*%
X94060000Y-72888000D03*
%TD*%
%TO.C,J46*%
X45080000Y-73972000D03*
%TD*%
%TO.C,J49*%
X58080000Y-65014000D03*
%TD*%
%TO.C,J50*%
X63080000Y-67114000D03*
%TD*%
%TO.C,J25*%
X40080000Y-54854000D03*
%TD*%
%TO.C,J41*%
X22080000Y-83880000D03*
%TD*%
%TO.C,J26*%
X45080000Y-56954000D03*
%TD*%
%TO.C,J65*%
X115586127Y-93989103D03*
%TD*%
%TO.C,J9*%
X58080000Y-30880000D03*
%TD*%
%TO.C,J42*%
X27080000Y-85980000D03*
%TD*%
%TO.C,J37*%
X94060000Y-55870000D03*
%TD*%
%TO.C,J6*%
X45080000Y-39980000D03*
%TD*%
%TO.C,J5*%
X40080000Y-37880000D03*
%TD*%
%TO.C,J45*%
X40080000Y-71872000D03*
%TD*%
%TO.C,J58*%
X99060000Y-74988000D03*
%TD*%
%TO.C,J66*%
X112306000Y-89670450D03*
%TD*%
D27*
%TO.C,J71*%
X126492000Y-59580000D03*
D28*
X126492000Y-62120000D03*
X126492000Y-64660000D03*
X126492000Y-67200000D03*
X126492000Y-69740000D03*
X126492000Y-72280000D03*
X126492000Y-74820000D03*
%TD*%
D19*
%TO.C,J38*%
X99060000Y-57970000D03*
%TD*%
D27*
%TO.C,J69*%
X111252000Y-59580000D03*
D28*
X111252000Y-62120000D03*
X111252000Y-64660000D03*
X111252000Y-67200000D03*
X111252000Y-69740000D03*
X111252000Y-72280000D03*
X111252000Y-74820000D03*
%TD*%
D19*
%TO.C,J62*%
X92323032Y-81331038D03*
%TD*%
%TO.C,J29*%
X58080000Y-47996000D03*
%TD*%
%TO.C,J54*%
X81080000Y-72448000D03*
%TD*%
D29*
%TO.C,POWER_SW1*%
X96085846Y-24971431D03*
X93194954Y-24169715D03*
%TD*%
D19*
%TO.C,J14*%
X81080000Y-38480000D03*
%TD*%
%TO.C,J21*%
X22080000Y-66880000D03*
%TD*%
%TO.C,J17*%
X94080000Y-38880000D03*
%TD*%
D30*
%TO.C,J73*%
X114046000Y-66946000D03*
%TD*%
D19*
%TO.C,J53*%
X76080000Y-70348000D03*
%TD*%
%TO.C,J8*%
X45080000Y-39980000D03*
%TD*%
%TO.C,J56*%
X81080000Y-72448000D03*
%TD*%
%TO.C,J48*%
X45080000Y-73972000D03*
%TD*%
D31*
%TO.C,D12*%
X26142500Y-58380000D03*
X28017500Y-58380000D03*
%TD*%
D19*
%TO.C,J28*%
X45080000Y-56954000D03*
%TD*%
D31*
%TO.C,D18*%
X80142500Y-44830000D03*
X82017500Y-44830000D03*
%TD*%
D19*
%TO.C,J27*%
X50080000Y-54854000D03*
%TD*%
D27*
%TO.C,J72*%
X126492000Y-59580000D03*
D28*
X126492000Y-62120000D03*
X126492000Y-64660000D03*
X126492000Y-67200000D03*
X126492000Y-69740000D03*
X126492000Y-72280000D03*
X126492000Y-74820000D03*
%TD*%
D19*
%TO.C,J47*%
X50080000Y-71872000D03*
%TD*%
%TO.C,J16*%
X81080000Y-38480000D03*
%TD*%
D27*
%TO.C,J70*%
X111252000Y-59580000D03*
D28*
X111252000Y-62120000D03*
X111252000Y-64660000D03*
X111252000Y-67200000D03*
X111252000Y-69740000D03*
X111252000Y-72280000D03*
X111252000Y-74820000D03*
%TD*%
D19*
%TO.C,J31*%
X68080000Y-47996000D03*
%TD*%
%TO.C,J7*%
X50080000Y-37880000D03*
%TD*%
D32*
%TO.C,D32*%
X90450175Y-91813003D03*
X88639065Y-91327717D03*
%TD*%
D19*
%TO.C,J19*%
X104080000Y-38880000D03*
%TD*%
D31*
%TO.C,D22*%
X26142500Y-75380000D03*
X28017500Y-75380000D03*
%TD*%
D19*
%TO.C,J36*%
X81080000Y-55430000D03*
%TD*%
D31*
%TO.C,D30*%
X98122500Y-64388000D03*
X99997500Y-64388000D03*
%TD*%
D19*
%TO.C,J44*%
X27080000Y-85980000D03*
%TD*%
%TO.C,J68*%
X112306000Y-89670450D03*
%TD*%
D31*
%TO.C,D20*%
X98122500Y-47370000D03*
X99997500Y-47370000D03*
%TD*%
D19*
%TO.C,J64*%
X92323032Y-81331038D03*
%TD*%
%TO.C,J20*%
X99080000Y-40980000D03*
%TD*%
%TO.C,J39*%
X104060000Y-55870000D03*
%TD*%
D31*
%TO.C,D4*%
X44142500Y-29380000D03*
X46017500Y-29380000D03*
%TD*%
D19*
%TO.C,J24*%
X27080000Y-68980000D03*
%TD*%
%TO.C,J12*%
X63080000Y-32980000D03*
%TD*%
%TO.C,J67*%
X106925873Y-88989103D03*
%TD*%
%TO.C,J15*%
X86080000Y-36380000D03*
%TD*%
%TO.C,J23*%
X32080000Y-66880000D03*
%TD*%
%TO.C,J55*%
X86080000Y-70348000D03*
%TD*%
D31*
%TO.C,D24*%
X44142500Y-63372000D03*
X46017500Y-63372000D03*
%TD*%
D30*
%TO.C,J74*%
X123698000Y-66946000D03*
%TD*%
D19*
%TO.C,J35*%
X86080000Y-53330000D03*
%TD*%
D31*
%TO.C,D14*%
X44142500Y-46354000D03*
X46017500Y-46354000D03*
%TD*%
D33*
%TO.C,J76*%
X108744000Y-53856000D03*
X108744000Y-54856000D03*
D34*
X112619000Y-52556000D03*
X112619000Y-56156000D03*
%TD*%
D19*
%TO.C,J51*%
X68080000Y-65014000D03*
%TD*%
%TO.C,J52*%
X63080000Y-67114000D03*
%TD*%
D29*
%TO.C,POWER_SW2*%
X93194954Y-24169715D03*
X96085846Y-24971431D03*
D35*
X92004564Y-25655640D03*
X94895456Y-26457355D03*
X96340901Y-26858213D03*
D36*
X90865264Y-24525056D03*
X91381034Y-22665250D03*
X98415536Y-24616090D03*
X97899766Y-26475896D03*
%TD*%
D19*
%TO.C,J11*%
X68080000Y-30880000D03*
%TD*%
D31*
%TO.C,D26*%
X62142500Y-56514000D03*
X64017500Y-56514000D03*
%TD*%
D19*
%TO.C,J3*%
X32080000Y-49880000D03*
%TD*%
D31*
%TO.C,D10*%
X98142500Y-30380000D03*
X100017500Y-30380000D03*
%TD*%
D19*
%TO.C,J63*%
X86949883Y-82065387D03*
%TD*%
%TO.C,J32*%
X63080000Y-50096000D03*
%TD*%
%TO.C,J60*%
X99060000Y-74988000D03*
%TD*%
D31*
%TO.C,D8*%
X80142500Y-27880000D03*
X82017500Y-27880000D03*
%TD*%
D19*
%TO.C,J4*%
X27080000Y-51980000D03*
%TD*%
D31*
%TO.C,D16*%
X62142500Y-39496000D03*
X64017500Y-39496000D03*
%TD*%
%TO.C,D6*%
X62142500Y-22380000D03*
X64017500Y-22380000D03*
%TD*%
D19*
%TO.C,J40*%
X99060000Y-57970000D03*
%TD*%
D31*
%TO.C,D28*%
X80142500Y-61848000D03*
X82017500Y-61848000D03*
%TD*%
D19*
%TO.C,J59*%
X104060000Y-72888000D03*
%TD*%
D37*
%TO.C,D34*%
X107812862Y-99267220D03*
X106189064Y-98329720D03*
%TD*%
D31*
%TO.C,D2*%
X26142500Y-41380000D03*
X28017500Y-41380000D03*
%TD*%
D19*
%TO.C,J43*%
X32080000Y-83880000D03*
%TD*%
%LPD*%
M02*
